<svg width="100" height="30927" viewBox="0 0 100 30927" fill="none" xmlns="http://www.w3.org/2000/svg">
<path d="M0 4302C0 4274.39 22.3858 4252 50 4252C77.6142 4252 100 4274.39 100 4302C100 4329.61 77.6142 4352 50 4352C22.3858 4352 0 4329.61 0 4302Z" fill="#403A3A"/>
<path d="M0 5365C0 5337.39 22.3858 5315 50 5315C77.6142 5315 100 5337.39 100 5365C100 5392.61 77.6142 5415 50 5415C22.3858 5415 0 5392.61 0 5365Z" fill="#252121"/>
<path d="M0 11873C0 11845.4 22.3858 11823 50 11823C77.6142 11823 100 11845.4 100 11873C100 11900.6 77.6142 11923 50 11923C22.3858 11923 0 11900.6 0 11873Z" fill="#3D3434"/>
<path d="M0 11743C0 11715.4 22.3858 11693 50 11693C77.6142 11693 100 11715.4 100 11743C100 11770.6 77.6142 11793 50 11793C22.3858 11793 0 11770.6 0 11743Z" fill="#FF3945"/>
<path d="M0 12003C0 11975.4 22.3858 11953 50 11953C77.6142 11953 100 11975.4 100 12003C100 12030.6 77.6142 12053 50 12053C22.3858 12053 0 12030.6 0 12003Z" fill="#FFF1F1"/>
<path d="M0 12133C0 12105.4 22.3858 12083 50 12083C77.6142 12083 100 12105.4 100 12133C100 12160.6 77.6142 12183 50 12183C22.3858 12183 0 12160.6 0 12133Z" fill="#FF3945"/>
<path d="M0 14932C0 14904.4 22.3858 14882 50 14882C77.6142 14882 100 14904.4 100 14932C100 14959.6 77.6142 14982 50 14982C22.3858 14982 0 14959.6 0 14932Z" fill="#3D3434"/>
<path d="M0 15062C0 15034.4 22.3858 15012 50 15012C77.6142 15012 100 15034.4 100 15062C100 15089.6 77.6142 15112 50 15112C22.3858 15112 0 15089.6 0 15062Z" fill="#3D3434"/>
<path d="M0 15192C0 15164.4 22.3858 15142 50 15142C77.6142 15142 100 15164.4 100 15192C100 15219.6 77.6142 15242 50 15242C22.3858 15242 0 15219.6 0 15192Z" fill="#FFF1F1"/>
<path d="M0 17058C0 17030.4 22.3858 17008 50 17008C77.6142 17008 100 17030.4 100 17058C100 17085.6 77.6142 17108 50 17108C22.3858 17108 0 17085.6 0 17058Z" fill="#3D3434"/>
<path d="M0 17188C0 17160.4 22.3858 17138 50 17138C77.6142 17138 100 17160.4 100 17188C100 17215.6 77.6142 17238 50 17238C22.3858 17238 0 17215.6 0 17188Z" fill="#FFF1F1"/>
<path d="M0 13869C0 13841.4 22.3858 13819 50 13819C77.6142 13819 100 13841.4 100 13869C100 13896.6 77.6142 13919 50 13919C22.3858 13919 0 13896.6 0 13869Z" fill="#3D3434"/>
<path d="M0 13999C0 13971.4 22.3858 13949 50 13949C77.6142 13949 100 13971.4 100 13999C100 14026.6 77.6142 14049 50 14049C22.3858 14049 0 14026.6 0 13999Z" fill="#FFF1F1"/>
<path d="M0 18121C0 18093.4 22.3858 18071 50 18071C77.6142 18071 100 18093.4 100 18121C100 18148.6 77.6142 18171 50 18171C22.3858 18171 0 18148.6 0 18121Z" fill="#413939"/>
<path d="M0 18251C0 18223.4 22.3858 18201 50 18201C77.6142 18201 100 18223.4 100 18251C100 18278.6 77.6142 18301 50 18301C22.3858 18301 0 18278.6 0 18251Z" fill="#FFF1F1"/>
<path d="M0 18381C0 18353.4 22.3858 18331 50 18331C77.6142 18331 100 18353.4 100 18381C100 18408.6 77.6142 18431 50 18431C22.3858 18431 0 18408.6 0 18381Z" fill="#FFF1F1"/>
<path d="M0 18511C0 18483.4 22.3858 18461 50 18461C77.6142 18461 100 18483.4 100 18511C100 18538.6 77.6142 18561 50 18561C22.3858 18561 0 18538.6 0 18511Z" fill="#FFF1F1"/>
<path d="M0 10940C0 10912.4 22.3858 10890 50 10890C77.6142 10890 100 10912.4 100 10940C100 10967.6 77.6142 10990 50 10990C22.3858 10990 0 10967.6 0 10940Z" fill="#312C2C"/>
<path d="M0 10680C0 10652.4 22.3858 10630 50 10630C77.6142 10630 100 10652.4 100 10680C100 10707.6 77.6142 10730 50 10730C22.3858 10730 0 10707.6 0 10680Z" fill="#FFEEEE"/>
<path d="M0 10810C0 10782.4 22.3858 10760 50 10760C77.6142 10760 100 10782.4 100 10810C100 10837.6 77.6142 10860 50 10860C22.3858 10860 0 10837.6 0 10810Z" fill="#312C2C"/>
<path d="M0 7491C0 7463.39 22.3858 7441 50 7441C77.6142 7441 100 7463.39 100 7491C100 7518.61 77.6142 7541 50 7541C22.3858 7541 0 7518.61 0 7491Z" fill="#FFF1F1"/>
<path d="M0 7751C0 7723.39 22.3858 7701 50 7701C77.6142 7701 100 7723.39 100 7751C100 7778.61 77.6142 7801 50 7801C22.3858 7801 0 7778.61 0 7751Z" fill="#3D3535"/>
<path d="M0 7621C0 7593.39 22.3858 7571 50 7571C77.6142 7571 100 7593.39 100 7621C100 7648.61 77.6142 7671 50 7671C22.3858 7671 0 7648.61 0 7621Z" fill="#3D3535"/>
<path d="M0 6428C0 6400.39 22.3858 6378 50 6378C77.6142 6378 100 6400.39 100 6428C100 6455.61 77.6142 6478 50 6478C22.3858 6478 0 6455.61 0 6428Z" fill="#252121"/>
<path d="M0 3369C0 3341.39 22.3858 3319 50 3319C77.6142 3319 100 3341.39 100 3369C100 3396.61 77.6142 3419 50 3419C22.3858 3419 0 3396.61 0 3369Z" fill="#82A46C"/>
<path d="M0 3499C0 3471.39 22.3858 3449 50 3449C77.6142 3449 100 3471.39 100 3499C100 3526.61 77.6142 3549 50 3549C22.3858 3549 0 3526.61 0 3499Z" fill="#403A3A"/>
<path d="M0 3239C0 3211.39 22.3858 3189 50 3189C77.6142 3189 100 3211.39 100 3239C100 3266.61 77.6142 3289 50 3289C22.3858 3289 0 3266.61 0 3239Z" fill="#E3DCDC"/>
<path d="M0 2176C0 2148.39 22.3858 2126 50 2126C77.6142 2126 100 2148.39 100 2176C100 2203.61 77.6142 2226 50 2226C22.3858 2226 0 2203.61 0 2176Z" fill="#403A3A"/>
<path d="M0 2436C0 2408.39 22.3858 2386 50 2386C77.6142 2386 100 2408.39 100 2436C100 2463.61 77.6142 2486 50 2486C22.3858 2486 0 2463.61 0 2436Z" fill="#403A3A"/>
<path d="M0 2306C0 2278.39 22.3858 2256 50 2256C77.6142 2256 100 2278.39 100 2306C100 2333.61 77.6142 2356 50 2356C22.3858 2356 0 2333.61 0 2306Z" fill="#FF4343"/>
<path d="M0 1113C0 1085.39 22.3858 1063 50 1063C77.6142 1063 100 1085.39 100 1113C100 1140.61 77.6142 1163 50 1163C22.3858 1163 0 1140.61 0 1113Z" fill="#403A3A"/>
<path d="M0 23436C0 23408.4 22.3858 23386 50 23386C77.6142 23386 100 23408.4 100 23436C100 23463.6 77.6142 23486 50 23486C22.3858 23486 0 23463.6 0 23436Z" fill="#403A3A"/>
<path d="M0 24499C0 24471.4 22.3858 24449 50 24449C77.6142 24449 100 24471.4 100 24499C100 24526.6 77.6142 24549 50 24549C22.3858 24549 0 24526.6 0 24499Z" fill="#403A3A"/>
<path d="M0 25562C0 25534.4 22.3858 25512 50 25512C77.6142 25512 100 25534.4 100 25562C100 25589.6 77.6142 25612 50 25612C22.3858 25612 0 25589.6 0 25562Z" fill="#403A3A"/>
<path d="M0 26625C0 26597.4 22.3858 26575 50 26575C77.6142 26575 100 26597.4 100 26625C100 26652.6 77.6142 26675 50 26675C22.3858 26675 0 26652.6 0 26625Z" fill="#403A3A"/>
<path d="M0 27688C0 27660.4 22.3858 27638 50 27638C77.6142 27638 100 27660.4 100 27688C100 27715.6 77.6142 27738 50 27738C22.3858 27738 0 27715.6 0 27688Z" fill="#403A3A"/>
<path d="M0 21310C0 21282.4 22.3858 21260 50 21260C77.6142 21260 100 21282.4 100 21310C100 21337.6 77.6142 21360 50 21360C22.3858 21360 0 21337.6 0 21310Z" fill="#403A3A"/>
<path d="M0 19184C0 19156.4 22.3858 19134 50 19134C77.6142 19134 100 19156.4 100 19184C100 19211.6 77.6142 19234 50 19234C22.3858 19234 0 19211.6 0 19184Z" fill="#484848"/>
<path d="M0 50C0 22.3858 22.3858 0 50 0C77.6142 0 100 22.3858 100 50C100 77.6142 77.6142 100 50 100C22.3858 100 0 77.6142 0 50Z" fill="#403A3A"/>
<path d="M0 13066C0 13038.4 22.3858 13016 50 13016C77.6142 13016 100 13038.4 100 13066C100 13093.6 77.6142 13116 50 13116C22.3858 13116 0 13093.6 0 13066Z" fill="#F1F1F1"/>
<path d="M0 12806C0 12778.4 22.3858 12756 50 12756C77.6142 12756 100 12778.4 100 12806C100 12833.6 77.6142 12856 50 12856C22.3858 12856 0 12833.6 0 12806Z" fill="#919191"/>
<path d="M0 12936C0 12908.4 22.3858 12886 50 12886C77.6142 12886 100 12908.4 100 12936C100 12963.6 77.6142 12986 50 12986C22.3858 12986 0 12963.6 0 12936Z" fill="#403A3A"/>
<path d="M0 28751C0 28723.4 22.3858 28701 50 28701C77.6142 28701 100 28723.4 100 28751C100 28778.6 77.6142 28801 50 28801C22.3858 28801 0 28778.6 0 28751Z" fill="#484848"/>
<path d="M0 22503C0 22475.4 22.3858 22453 50 22453C77.6142 22453 100 22475.4 100 22503C100 22530.6 77.6142 22553 50 22553C22.3858 22553 0 22530.6 0 22503Z" fill="#FF4343"/>
<path d="M0 22633C0 22605.4 22.3858 22583 50 22583C77.6142 22583 100 22605.4 100 22633C100 22660.6 77.6142 22683 50 22683C22.3858 22683 0 22660.6 0 22633Z" fill="#2D2A2A"/>
<path d="M0 22373C0 22345.4 22.3858 22323 50 22323C77.6142 22323 100 22345.4 100 22373C100 22400.6 77.6142 22423 50 22423C22.3858 22423 0 22400.6 0 22373Z" fill="#484848"/>
<path d="M0 20247C0 20219.4 22.3858 20197 50 20197C77.6142 20197 100 20219.4 100 20247C100 20274.6 77.6142 20297 50 20297C22.3858 20297 0 20274.6 0 20247Z" fill="#3C3A3A"/>
<path d="M0 9617C0 9589.39 22.3858 9567 50 9567C77.6142 9567 100 9589.39 100 9617C100 9644.61 77.6142 9667 50 9667C22.3858 9667 0 9644.61 0 9617Z" fill="#221E1E"/>
<path d="M0 8554C0 8526.39 22.3858 8504 50 8504C77.6142 8504 100 8526.39 100 8554C100 8581.61 77.6142 8604 50 8604C22.3858 8604 0 8581.61 0 8554Z" fill="#312C2C"/>
<path d="M0 15995C0 15967.4 22.3858 15945 50 15945C77.6142 15945 100 15967.4 100 15995C100 16022.6 77.6142 16045 50 16045C22.3858 16045 0 16022.6 0 15995Z" fill="#3D3535"/>
<path d="M0 16125C0 16097.4 22.3858 16075 50 16075C77.6142 16075 100 16097.4 100 16125C100 16152.6 77.6142 16175 50 16175C22.3858 16175 0 16152.6 0 16125Z" fill="#FFF1F1"/>
<path d="M0 30877C0 30849.4 22.3858 30827 50 30827C77.6142 30827 100 30849.4 100 30877C100 30904.6 77.6142 30927 50 30927C22.3858 30927 0 30904.6 0 30877Z" fill="#3D3434"/>
<path d="M0 29814C0 29786.4 22.3858 29764 50 29764C77.6142 29764 100 29786.4 100 29814C100 29841.6 77.6142 29864 50 29864C22.3858 29864 0 29841.6 0 29814Z" fill="#3D3434"/>
</svg>
