<?xml version="1.0" encoding="utf-8"?>
<!-- Generator: Adobe Illustrator 24.0.3, SVG Export Plug-In . SVG Version: 6.00 Build 0)  -->
<svg version="1.1" id="Layer_1" xmlns="http://www.w3.org/2000/svg" xmlns:xlink="http://www.w3.org/1999/xlink" x="0px" y="0px"
	 viewBox="0 0 1323.7 942" style="enable-background:new 0 0 1323.7 942;" xml:space="preserve">
<style type="text/css">
	.st0{fill-rule:evenodd;clip-rule:evenodd;fill:#724688;}
	.st1{fill-rule:evenodd;clip-rule:evenodd;fill:#D1D1D1;}
	.st2{fill-rule:evenodd;clip-rule:evenodd;fill:#8A669C;}
	.st3{fill-rule:evenodd;clip-rule:evenodd;fill:#754A8B;}
	.st4{fill-rule:evenodd;clip-rule:evenodd;fill:#5F2D78;}
	.st5{fill-rule:evenodd;clip-rule:evenodd;fill:#62317B;}
	.st6{fill-rule:evenodd;clip-rule:evenodd;fill:#7C5390;}
	.st7{fill-rule:evenodd;clip-rule:evenodd;fill:#8F6CA1;}
	.st8{fill-rule:evenodd;clip-rule:evenodd;fill:#9C7DAB;}
	.st9{fill-rule:evenodd;clip-rule:evenodd;fill:#A285B1;}
	.st10{fill-rule:evenodd;clip-rule:evenodd;fill:#BDA9C8;}
	.st11{fill-rule:evenodd;clip-rule:evenodd;fill:#9777A7;}
	.st12{fill-rule:evenodd;clip-rule:evenodd;fill:#87629A;}
	.st13{fill-rule:evenodd;clip-rule:evenodd;fill:#87522E;}
	.st14{fill-rule:evenodd;clip-rule:evenodd;fill:#7A518F;}
	.st15{fill-rule:evenodd;clip-rule:evenodd;fill:#9270A3;}
	.st16{fill-rule:evenodd;clip-rule:evenodd;fill:#9F81AE;}
	.st17{fill-rule:evenodd;clip-rule:evenodd;fill:#7D5592;}
	.st18{fill-rule:evenodd;clip-rule:evenodd;fill:#AA90B7;}
	.st19{fill-rule:evenodd;clip-rule:evenodd;fill:#825B96;}
	.st20{fill-rule:evenodd;clip-rule:evenodd;fill:#E9646C;}
	.st21{fill-rule:evenodd;clip-rule:evenodd;fill:#E12D38;}
	.st22{fill-rule:evenodd;clip-rule:evenodd;fill:#FFFFFF;}
	.st23{fill-rule:evenodd;clip-rule:evenodd;fill:#845D97;}
	.st24{fill-rule:evenodd;clip-rule:evenodd;fill:#9A7BAA;}
	.st25{fill-rule:evenodd;clip-rule:evenodd;fill:#693A80;}
	.st26{fill-rule:evenodd;clip-rule:evenodd;fill:#AF206E;}
	.st27{fill-rule:evenodd;clip-rule:evenodd;fill:#A98EB6;}
	.st28{fill-rule:evenodd;clip-rule:evenodd;fill:#74488A;}
	.st29{fill-rule:evenodd;clip-rule:evenodd;fill:#A589B3;}
	.st30{fill-rule:evenodd;clip-rule:evenodd;fill:#8CE6F1;}
	.st31{fill-rule:evenodd;clip-rule:evenodd;fill:#56DAEA;}
	.st32{fill-rule:evenodd;clip-rule:evenodd;fill:#B3B3B3;}
	.st33{fill-rule:evenodd;clip-rule:evenodd;fill:#999999;}
</style>
<path class="st0" d="M583.1,534.8h110.1v114.7h-19v-44.8c0-19.8-16.2-36.1-36.1-36.1l0,0c-19.8,0-36.1,16.2-36.1,36.1v44.8h-19
	V534.8z"/>
<path class="st1" d="M1078.1,465.4c0.8,0,1.5,0,2.3,0.1c1.4-4.2,5.3-7.2,10-7.2c2.4,0,4.5,0.8,6.3,2.1c7.4-7.7,17.9-12.5,29.4-12.5
	c7.2,0,13.9,1.8,19.7,5.1c4.5-4.1,10.4-6.5,16.9-6.5c5,0,9.7,1.5,13.6,4c9.5-9,22.2-14.5,36.3-14.5c20.4,0,38.1,11.6,46.9,28.5
	c5-3.6,11.1-5.7,17.7-5.7c10.7,0,20.1,5.6,25.5,14.1c1.5-0.4,3-0.6,4.6-0.6c9.2,0,16.6,7.4,16.6,16.6h-269.1
	C1054.6,475.9,1065.1,465.4,1078.1,465.4z"/>
<rect x="935.4" y="533.7" class="st2" width="136.5" height="25.4"/>
<rect x="1097.6" y="405.6" class="st2" width="53.6" height="353.5"/>
<rect x="1136.1" y="405.6" class="st0" width="15.1" height="353.5"/>
<rect x="367.7" y="537.7" class="st2" width="130.9" height="51.1"/>
<rect x="355.3" y="594.3" class="st2" width="143.3" height="157.5"/>
<rect x="492.8" y="594.3" class="st0" width="5.8" height="57.8"/>
<path class="st1" d="M322.4,485.8c11.7,0,21.3,9.5,21.3,21.3H0c0-5.7,4.6-10.2,10.2-10.2c1.9,0,3.6,0.5,5.1,1.4
	c3.5-8.9,12.2-15.1,22.3-15.1c0.7,0,1.4,0,2,0.1c1.1-3.8,4.6-6.6,8.7-6.6c1.6,0,3.1,0.4,4.5,1.2c0.3-15.7,13.1-28.3,28.8-28.3
	c15.9,0,28.8,12.9,28.8,28.8c0,0.4,0,0.7,0,1.1c3.6,1.7,6.7,4.3,8.9,7.6c5.4-5.9,13.2-9.6,21.9-9.6c2.5,0,5,0.3,7.3,0.9
	c1.3-3.1,4.3-5.3,7.9-5.3c1.5,0,2.9,0.4,4.1,1c11-17.2,30.2-28.6,52.1-28.6c6.3,0,12.3,0.9,18.1,2.7c2.5-5.6,8.2-9.4,14.7-9.4
	c6.4,0,11.9,3.7,14.5,9.1c0.5,0,1.1-0.1,1.6-0.1c11.7,0,21.2,9.2,21.8,20.7c11.8,2.7,21.7,10.7,26.9,21.4
	C313.6,487.2,317.9,485.8,322.4,485.8z"/>
<g>
	<g>
		<path class="st1" d="M940,299.6c1.1,0,2.1,0.1,3.1,0.3c6.8-17.7,23.9-30.2,44-30.2c11.3,0,21.7,4,29.8,10.6
			c3.5-2.7,7.9-4.4,12.6-4.4c9.4,0,17.4,6.4,19.7,15.1c4.3,0.1,8.4,1.1,12.1,2.6c9.3-24.9,33.3-42.6,61.5-42.6
			c23.1,0,43.3,11.9,55,29.9c2.4-1.1,5.1-1.7,7.9-1.7c6.7,0,12.5,3.5,15.9,8.7c2.3-0.6,4.6-0.9,7.1-0.9c16.4,0,29.6,13.3,29.6,29.6
			H922.9C922.9,307.3,930.6,299.6,940,299.6L940,299.6z M227.6,258.6c22.9,0,42.8,13.3,52.3,32.6c6.8-7.2,16.5-11.7,27.2-11.7l1.3,0
			c3-8.6,11.2-14.8,20.8-14.8c4.1,0,8,1.1,11.3,3.1c0.6-0.7,1.2-1.5,1.8-2.2c-3.7-8.2-5.8-17.3-5.8-26.9c0-35.8,29-64.8,64.8-64.8
			c31.5,0,57.7,22.4,63.6,52.2c0.4,0,0.8-0.1,1.2-0.1c7,0,12.7,5.7,12.7,12.7c0,3.3-1.3,6.4-3.4,8.7c4.6,3.9,7.7,9.5,8.3,15.9
			c7.6,2.7,13.6,8.7,16.4,16.2c9.5,0.1,18.1,3.8,24.6,9.8c4.8-4.5,10.8-7.8,17.5-9.4l0-0.5c0-8.1,6.6-14.6,14.6-14.6
			c2.1,0,4.1,0.4,5.8,1.2c4.8-9.3,10.9-17.8,18-25.4c-4-4.8-6.3-10.9-6.3-17.6c0-15.3,12.4-27.6,27.6-27.6c1.8,0,3.5,0.2,5.1,0.5
			c9.5-21.4,30.9-36.3,55.7-36.3c19.3,0,36.5,9,47.7,23c3.6-1.7,7.6-2.7,11.9-2.7c12.1,0,22.4,7.8,26.1,18.6c1.5-0.1,3-0.2,4.5-0.2
			c30.8,0,55.7,24.9,55.7,55.7c0,2.6-0.2,5.1-0.5,7.5c1.8,1.2,3.6,2.5,5.3,3.8c5-4,11.3-6.4,18.2-6.4c13.2,0,24.3,8.8,27.8,20.8
			c18.7,2.1,33.2,17.9,33.2,37.2H142.5c0-14.8,12-26.9,26.9-26.9c2.1,0,4.2,0.2,6.2,0.7C185.2,271.6,204.9,258.6,227.6,258.6
			L227.6,258.6z M1280.8,299.9c8,0,14.7,5.6,16.4,13c2-2.2,5-3.6,8.2-3.6c4.9,0,9,3.1,10.5,7.5h-52
			C1264,307.5,1271.5,299.9,1280.8,299.9z"/>
	</g>
</g>
<polygon class="st3" points="917.6,751.8 1015.1,751.8 1015.1,741.2 1033.7,741.2 1033.7,751.8 1047,751.8 1047,741.2 1065.6,741.2 
	1065.6,751.8 1079,751.8 1079,741.2 1097.6,741.2 1097.6,751.8 1195.2,751.8 1195.2,886.7 917.6,886.7 "/>
<polygon class="st4" points="917.6,751.8 983.2,751.8 983.2,741.2 1001.8,741.2 1001.8,751.8 1015.1,751.8 1015.1,741.2 
	1027.5,741.2 1027.5,751.8 1027.5,886.7 917.6,886.7 "/>
<rect x="983.2" y="761.9" class="st5" width="130" height="4.3"/>
<polygon class="st3" points="201.3,751.8 298.8,751.8 298.8,741.2 317.4,741.2 317.4,751.8 330.8,751.8 330.8,741.2 349.4,741.2 
	349.4,751.8 362.7,751.8 362.7,741.2 381.3,741.2 381.3,751.8 478.9,751.8 478.9,886.7 201.3,886.7 "/>
<polygon class="st4" points="201.3,751.8 266.9,751.8 266.9,741.2 285.5,741.2 285.5,751.8 298.8,751.8 298.8,741.2 311.2,741.2 
	311.2,751.8 311.2,886.7 201.3,886.7 "/>
<rect x="818.2" y="458.8" class="st2" width="73.1" height="41.4"/>
<rect x="871.4" y="458.8" class="st0" width="19.9" height="41.4"/>
<path class="st6" d="M838.8,419.6h33.1c0.3,15.2,11,27.9,25.3,31.3v7.9h-83.6v-7.9C827.8,447.5,838.5,434.8,838.8,419.6z"/>
<path class="st7" d="M838.8,419.6h7.3c0.3,15.2,11,27.9,25.3,31.3v7.9h-57.8v-7.9C827.8,447.5,838.5,434.8,838.8,419.6z"/>
<path class="st8" d="M850.5,427.4h6v4.8c0,1.7-1.4,3-3,3l0,0c-1.7,0-3-1.4-3-3V427.4z"/>
<path class="st8" d="M857.7,427.4h6v4.8c0,1.7-1.4,3-3,3l0,0c-1.7,0-3-1.4-3-3V427.4z"/>
<path class="st8" d="M864.9,427.4h6v4.8c0,1.7-1.4,3-3,3l0,0c-1.7,0-3-1.4-3-3V427.4z"/>
<path class="st6" d="M854,423.5h6v4.8c0,1.7-1.4,3-3,3l0,0c-1.7,0-3-1.4-3-3V423.5z"/>
<path class="st6" d="M860.8,423.5h6v4.8c0,1.7-1.4,3-3,3l0,0c-1.7,0-3-1.4-3-3V423.5z"/>
<rect x="835" y="409.4" class="st9" width="40.4" height="10.2"/>
<rect x="835" y="409.4" class="st10" width="9.2" height="10.2"/>
<rect x="844.2" y="416.7" class="st11" width="31.2" height="2.9"/>
<polygon class="st7" points="730.9,111.6 742.4,111.6 742.4,161 708.5,161 "/>
<polygon class="st6" points="753.9,111.6 742.4,111.6 742.4,161 776.3,161 "/>
<path class="st8" d="M716.6,145.3h7.3v5.7c0,2-1.6,3.6-3.6,3.6l0,0c-2,0-3.6-1.6-3.6-3.6V145.3z"/>
<path class="st8" d="M725.3,145.3h7.2v5.7c0,2-1.6,3.6-3.6,3.6l0,0c-2,0-3.6-1.6-3.6-3.6V145.3z"/>
<path class="st8" d="M733.9,145.3h7.2v5.7c0,2-1.6,3.6-3.6,3.6l0,0c-2,0-3.6-1.6-3.6-3.6V145.3z"/>
<path class="st6" d="M720.8,140.7h7.3v5.7c0,2-1.6,3.6-3.6,3.6l0,0c-2,0-3.6-1.6-3.6-3.6V140.7z"/>
<path class="st6" d="M728.9,140.7h7.3v5.7c0,2-1.6,3.6-3.6,3.6l0,0c-2,0-3.6-1.6-3.6-3.6V140.7z"/>
<path class="st8" d="M724.4,136h7.2v5.7c0,2-1.6,3.6-3.6,3.6l0,0c-2,0-3.6-1.6-3.6-3.6V136z"/>
<path class="st8" d="M732.4,136h7.2v5.7c0,2-1.6,3.6-3.6,3.6l0,0c-2,0-3.6-1.6-3.6-3.6V136z"/>
<rect x="727.4" y="108.8" class="st9" width="30" height="7.2"/>
<rect x="727.4" y="113.9" class="st12" width="30" height="2.1"/>
<polygon class="st7" points="737.9,50 742.4,50 742.4,108.8 729,108.8 "/>
<polygon class="st6" points="747,50 742.4,50 742.4,108.8 755.8,108.8 "/>
<rect x="742.4" class="st6" width="2.6" height="50"/>
<polygon class="st13" points="865.3,8.6 805.1,12.9 745,17.2 745,8.6 745,0 805.1,4.3 "/>
<rect x="717.6" y="161" class="st2" width="50" height="117.3"/>
<rect x="753.1" y="161" class="st0" width="14.6" height="117.3"/>
<rect x="510.5" y="253.1" class="st2" width="50" height="136.7"/>
<rect x="545.9" y="253.1" class="st0" width="14.6" height="136.7"/>
<path class="st14" d="M572.4,534.8h110.1v114.7h-19v-44.8c0-19.8-16.2-36.1-36.1-36.1l0,0c-19.8,0-36.1,16.2-36.1,36.1v44.8h-19
	V534.8z"/>
<path class="st2" d="M616.9,534.8h65.6v114.7h-19v-44.8c0-19.8-16.2-36.1-36.1-36.1l0,0c-3.7,0-7.2,0.6-10.5,1.6V534.8z"/>
<rect x="498.6" y="382.6" class="st2" width="73.7" height="266.9"/>
<polygon class="st0" points="519.1,479.4 554.8,479.4 554.8,562.1 545.9,555.3 536.9,548.5 528,555.3 519.1,562.1 "/>
<rect x="550.9" y="382.6" class="st0" width="21.5" height="266.9"/>
<rect x="498.6" y="382.6" class="st15" width="16.6" height="266.9"/>
<rect x="780.7" y="520.4" class="st2" width="120.3" height="287.3"/>
<rect x="780.7" y="520.4" class="st15" width="28.3" height="287.3"/>
<polygon class="st15" points="768.6,528 913,528 913,482.9 891.2,482.9 891.2,500.2 870.6,500.2 870.6,482.9 851.1,482.9 
	851.1,500.2 830.5,500.2 830.5,482.9 811,482.9 811,500.2 790.4,500.2 790.4,482.9 768.6,482.9 "/>
<rect x="780.7" y="528" class="st0" width="120.3" height="8.7"/>
<rect x="872.6" y="524.7" class="st0" width="28.3" height="283"/>
<path class="st15" d="M800.5,550.9h17.1c1.2,0,2.1,0.9,2.1,2.1v6.7c0,1.2-0.9,2.1-2.1,2.1h-17.1c-1.2,0-2.1-0.9-2.1-2.1V553
	C798.4,551.8,799.3,550.9,800.5,550.9z"/>
<rect x="768.6" y="482.9" class="st15" width="21.8" height="45.1"/>
<rect x="762.2" y="515.8" class="st15" width="155.3" height="12.2"/>
<rect x="768.6" y="511.7" class="st5" width="144.4" height="4.1"/>
<path class="st5" d="M842.2,611.9L842.2,611.9c4.2,0,7.6,3.4,7.6,7.6v20.7h-15.3v-20.7C834.6,615.4,838,611.9,842.2,611.9z"/>
<path class="st15" d="M829.1,641.7h10.4c0.6,0,1.1,0.5,1.1,1.1v4.7c0,0.6-0.5,1.1-1.1,1.1h-10.4c-0.6,0-1.1-0.5-1.1-1.1v-4.7
	C828,642.2,828.5,641.7,829.1,641.7z"/>
<path class="st15" d="M843.7,641.7h10.4c0.6,0,1.1,0.5,1.1,1.1v4.7c0,0.6-0.5,1.1-1.1,1.1h-10.4c-0.6,0-1.1-0.5-1.1-1.1v-4.7
	C842.6,642.2,843.1,641.7,843.7,641.7z"/>
<path class="st16" d="M824.4,550.9h17.1c1.2,0,2.1,0.9,2.1,2.1v6.7c0,1.2-0.9,2.1-2.1,2.1h-17.1c-1.2,0-2.1-0.9-2.1-2.1V553
	C822.3,551.8,823.3,550.9,824.4,550.9z"/>
<path class="st15" d="M848.3,550.9h17.1c1.2,0,2.1,0.9,2.1,2.1v6.7c0,1.2-0.9,2.1-2.1,2.1h-17.1c-1.2,0-2.1-0.9-2.1-2.1V553
	C846.2,551.8,847.2,550.9,848.3,550.9z"/>
<path class="st15" d="M789,564.3h17.1c1.2,0,2.1,0.9,2.1,2.1v6.7c0,1.2-0.9,2.1-2.1,2.1H789c-1.2,0-2.1-0.9-2.1-2.1v-6.7
	C786.9,565.2,787.9,564.3,789,564.3z"/>
<path class="st15" d="M813,564.3H830c1.2,0,2.1,0.9,2.1,2.1v6.7c0,1.2-0.9,2.1-2.1,2.1H813c-1.2,0-2.1-0.9-2.1-2.1v-6.7
	C810.8,565.2,811.8,564.3,813,564.3z"/>
<path class="st16" d="M836.9,564.3H854c1.2,0,2.1,0.9,2.1,2.1v6.7c0,1.2-0.9,2.1-2.1,2.1h-17.1c-1.2,0-2.1-0.9-2.1-2.1v-6.7
	C834.8,565.2,835.7,564.3,836.9,564.3z"/>
<path class="st15" d="M845.6,598.3v10.4c0,0.6-0.5,1.1-1.1,1.1h-4.7c-0.6,0-1.1-0.5-1.1-1.1v-10.4c0-0.6,0.5-1.1,1.1-1.1h4.7
	C845.1,597.2,845.6,597.7,845.6,598.3z"/>
<g>
	<path class="st16" d="M837.6,603.4v5.8c0,0.3-0.3,0.6-0.6,0.6h-2.6c-0.3,0-0.6-0.3-0.6-0.6v-5.8c0-0.3,0.3-0.6,0.6-0.6h2.6
		C837.4,602.8,837.6,603,837.6,603.4z"/>
	<path class="st16" d="M850.6,603.4v5.8c0,0.3-0.3,0.6-0.6,0.6h-2.6c-0.3,0-0.6-0.3-0.6-0.6v-5.8c0-0.3,0.3-0.6,0.6-0.6h2.6
		C850.4,602.8,850.6,603,850.6,603.4z"/>
</g>
<rect x="682.5" y="298.5" class="st2" width="120.3" height="509.2"/>
<rect x="682.5" y="298.5" class="st15" width="28.3" height="509.2"/>
<polygon class="st15" points="670.4,306.1 814.8,306.1 814.8,261 793.1,261 793.1,278.3 772.4,278.3 772.4,261 752.9,261 
	752.9,278.3 732.3,278.3 732.3,261 712.8,261 712.8,278.3 692.2,278.3 692.2,261 670.4,261 "/>
<rect x="710.8" y="306.1" class="st0" width="91.9" height="8.7"/>
<rect x="774.4" y="306.1" class="st0" width="28.3" height="501.6"/>
<path class="st15" d="M702.3,329h17.1c1.2,0,2.1,0.9,2.1,2.1v6.7c0,1.2-0.9,2.1-2.1,2.1h-17.1c-1.2,0-2.1-0.9-2.1-2.1v-6.7
	C700.2,330,701.1,329,702.3,329z"/>
<rect x="670.4" y="261" class="st15" width="21.8" height="45.1"/>
<rect x="664" y="293.9" class="st15" width="157.6" height="12.2"/>
<rect x="670.4" y="289.8" class="st0" width="144.9" height="4.1"/>
<path class="st5" d="M744,390L744,390c4.2,0,7.6,3.4,7.6,7.6v20.7h-15.3v-20.7C736.4,393.5,739.8,390,744,390z"/>
<path class="st15" d="M726.2,329h17.1c1.2,0,2.1,0.9,2.1,2.1v6.7c0,1.2-0.9,2.1-2.1,2.1h-17.1c-1.2,0-2.1-0.9-2.1-2.1v-6.7
	C724.1,330,725.1,329,726.2,329z"/>
<path class="st15" d="M750.2,329h17.1c1.2,0,2.1,0.9,2.1,2.1v6.7c0,1.2-0.9,2.1-2.1,2.1h-17.1c-1.2,0-2.1-0.9-2.1-2.1v-6.7
	C748.1,330,749,329,750.2,329z"/>
<path class="st15" d="M690.8,342.4h17.1c1.2,0,2.1,0.9,2.1,2.1v6.7c0,1.2-0.9,2.1-2.1,2.1h-17.1c-1.2,0-2.1-0.9-2.1-2.1v-6.7
	C688.7,343.3,689.7,342.4,690.8,342.4z"/>
<path class="st15" d="M714.8,342.4h17.1c1.2,0,2.1,0.9,2.1,2.1v6.7c0,1.2-0.9,2.1-2.1,2.1h-17.1c-1.2,0-2.1-0.9-2.1-2.1v-6.7
	C712.7,343.3,713.6,342.4,714.8,342.4z"/>
<path class="st15" d="M738.7,342.4h17.1c1.2,0,2.1,0.9,2.1,2.1v6.7c0,1.2-0.9,2.1-2.1,2.1h-17.1c-1.2,0-2.1-0.9-2.1-2.1v-6.7
	C736.6,343.3,737.6,342.4,738.7,342.4z"/>
<path class="st15" d="M690.8,540.5h17.1c1.2,0,2.1,0.9,2.1,2.1v6.7c0,1.2-0.9,2.1-2.1,2.1h-17.1c-1.2,0-2.1-0.9-2.1-2.1v-6.7
	C688.7,541.5,689.7,540.5,690.8,540.5z"/>
<path class="st15" d="M714.8,540.5h17.1c1.2,0,2.1,0.9,2.1,2.1v6.7c0,1.2-0.9,2.1-2.1,2.1h-17.1c-1.2,0-2.1-0.9-2.1-2.1v-6.7
	C712.7,541.5,713.6,540.5,714.8,540.5z"/>
<path class="st16" d="M738.7,540.5h17.1c1.2,0,2.1,0.9,2.1,2.1v6.7c0,1.2-0.9,2.1-2.1,2.1h-17.1c-1.2,0-2.1-0.9-2.1-2.1v-6.7
	C736.6,541.5,737.6,540.5,738.7,540.5z"/>
<path class="st15" d="M700.1,554.1h17.1c1.2,0,2.1,0.9,2.1,2.1v6.7c0,1.2-0.9,2.1-2.1,2.1h-17.1c-1.2,0-2.1-0.9-2.1-2.1v-6.7
	C698,555,699,554.1,700.1,554.1z"/>
<path class="st15" d="M724.1,554.1h17.1c1.2,0,2.1,0.9,2.1,2.1v6.7c0,1.2-0.9,2.1-2.1,2.1h-17.1c-1.2,0-2.1-0.9-2.1-2.1v-6.7
	C721.9,555,722.9,554.1,724.1,554.1z"/>
<path class="st15" d="M748,554.1H765c1.2,0,2.1,0.9,2.1,2.1v6.7c0,1.2-0.9,2.1-2.1,2.1H748c-1.2,0-2.1-0.9-2.1-2.1v-6.7
	C745.9,555,746.8,554.1,748,554.1z"/>
<path class="st16" d="M718.2,620.7h17.1c1.2,0,2.1,0.9,2.1,2.1v6.7c0,1.2-0.9,2.1-2.1,2.1h-17.1c-1.2,0-2.1-0.9-2.1-2.1v-6.7
	C716.1,621.7,717.1,620.7,718.2,620.7z"/>
<path class="st15" d="M742.2,620.7h17.1c1.2,0,2.1,0.9,2.1,2.1v6.7c0,1.2-0.9,2.1-2.1,2.1h-17.1c-1.2,0-2.1-0.9-2.1-2.1v-6.7
	C740.1,621.7,741,620.7,742.2,620.7z"/>
<path class="st16" d="M747.5,376.4v10.4c0,0.6-0.5,1.1-1.1,1.1h-4.7c-0.6,0-1.1-0.5-1.1-1.1v-10.4c0-0.6,0.5-1.1,1.1-1.1h4.7
	C747,375.3,747.5,375.8,747.5,376.4z"/>
<path class="st16" d="M739.5,381.5v5.8c0,0.3-0.3,0.6-0.6,0.6h-2.6c-0.3,0-0.6-0.3-0.6-0.6v-5.8c0-0.3,0.3-0.6,0.6-0.6h2.6
	C739.2,380.9,739.5,381.1,739.5,381.5z"/>
<path class="st16" d="M752.5,381.5v5.8c0,0.3-0.3,0.6-0.6,0.6h-2.6c-0.3,0-0.6-0.3-0.6-0.6v-5.8c0-0.3,0.3-0.6,0.6-0.6h2.6
	C752.2,380.9,752.5,381.1,752.5,381.5z"/>
<path class="st5" d="M744,482.2L744,482.2c4.2,0,7.6,3.4,7.6,7.6v20.7h-15.3v-20.7C736.4,485.6,739.8,482.2,744,482.2z"/>
<g>
	<path class="st16" d="M747.5,468.6V479c0,0.6-0.5,1.1-1.1,1.1h-4.7c-0.6,0-1.1-0.5-1.1-1.1v-10.4c0-0.6,0.5-1.1,1.1-1.1h4.7
		C747,467.5,747.5,468,747.5,468.6z"/>
	<g>
		<path class="st16" d="M739.5,473.6v5.8c0,0.3-0.3,0.6-0.6,0.6h-2.6c-0.3,0-0.6-0.3-0.6-0.6v-5.8c0-0.3,0.3-0.6,0.6-0.6h2.6
			C739.2,473,739.5,473.3,739.5,473.6z"/>
		<path class="st16" d="M752.5,473.6v5.8c0,0.3-0.3,0.6-0.6,0.6h-2.6c-0.3,0-0.6-0.3-0.6-0.6v-5.8c0-0.3,0.3-0.6,0.6-0.6h2.6
			C752.2,473,752.5,473.3,752.5,473.6z"/>
	</g>
</g>
<rect x="682.5" y="449.5" class="st0" width="120.3" height="8.7"/>
<rect x="674" y="437.3" class="st15" width="137.7" height="12.2"/>
<path class="st16" d="M688.5,447h-10.4c-0.6,0-1.1-0.5-1.1-1.1v-4.7c0-0.6,0.5-1.1,1.1-1.1h10.4c0.6,0,1.1,0.5,1.1,1.1v4.7
	C689.6,446.5,689.1,447,688.5,447z"/>
<path class="st16" d="M703.4,447H693c-0.6,0-1.1-0.5-1.1-1.1v-4.7c0-0.6,0.5-1.1,1.1-1.1h10.4c0.6,0,1.1,0.5,1.1,1.1v4.7
	C704.5,446.5,704,447,703.4,447z"/>
<path class="st16" d="M718.3,447h-10.4c-0.6,0-1.1-0.5-1.1-1.1v-4.7c0-0.6,0.5-1.1,1.1-1.1h10.4c0.6,0,1.1,0.5,1.1,1.1v4.7
	C719.4,446.5,718.9,447,718.3,447z"/>
<path class="st16" d="M733.2,447h-10.4c-0.6,0-1.1-0.5-1.1-1.1v-4.7c0-0.6,0.5-1.1,1.1-1.1h10.4c0.6,0,1.1,0.5,1.1,1.1v4.7
	C734.3,446.5,733.8,447,733.2,447z"/>
<path class="st16" d="M748.1,447h-10.4c-0.6,0-1.1-0.5-1.1-1.1v-4.7c0-0.6,0.5-1.1,1.1-1.1h10.4c0.6,0,1.1,0.5,1.1,1.1v4.7
	C749.2,446.5,748.7,447,748.1,447z"/>
<path class="st16" d="M763,447h-10.4c-0.6,0-1.1-0.5-1.1-1.1v-4.7c0-0.6,0.5-1.1,1.1-1.1H763c0.6,0,1.1,0.5,1.1,1.1v4.7
	C764.1,446.5,763.6,447,763,447z"/>
<path class="st16" d="M682.5,372.6h8.5c1.2,0,2.1,0.9,2.1,2.1v6.7c0,1.2-0.9,2.1-2.1,2.1h-8.5V372.6z"/>
<path class="st16" d="M697,378.3h17.1c1.2,0,2.1,0.9,2.1,2.1v6.7c0,1.2-0.9,2.1-2.1,2.1H697c-1.2,0-2.1-0.9-2.1-2.1v-6.7
	C694.9,379.3,695.9,378.3,697,378.3z"/>
<rect x="478.9" y="687.4" class="st2" width="422" height="199.3"/>
<polygon class="st5" points="573.1,687.5 549.5,687.5 549.5,734.9 555.4,730.4 561.3,725.9 567.2,730.4 573.1,734.9 "/>
<rect x="478.9" y="698" class="st5" width="422" height="10.5"/>
<rect x="461.4" y="654" class="st15" width="457.1" height="33.4"/>
<polygon class="st16" points="461.4,676.9 918.5,676.9 929,687.5 918.5,698 461.4,698 450.8,687.5 "/>
<polygon class="st2" points="929,687.5 918.5,698 461.4,698 450.8,687.5 "/>
<path class="st16" d="M858.2,711.5h13c0.9,0,1.6,0.7,1.6,1.6v5.1c0,0.9-0.7,1.6-1.6,1.6h-13c-0.9,0-1.6-0.7-1.6-1.6v-5.1
	C856.6,712.2,857.3,711.5,858.2,711.5z"/>
<path class="st16" d="M876.5,711.5h13c0.9,0,1.6,0.7,1.6,1.6v5.1c0,0.9-0.7,1.6-1.6,1.6h-13c-0.9,0-1.6-0.7-1.6-1.6v-5.1
	C874.9,712.2,875.6,711.5,876.5,711.5z"/>
<path class="st16" d="M867.7,721.7h13c0.9,0,1.6,0.7,1.6,1.6v5.1c0,0.9-0.7,1.6-1.6,1.6h-13c-0.9,0-1.6-0.7-1.6-1.6v-5.1
	C866.1,722.4,866.9,721.7,867.7,721.7z"/>
<rect x="454.3" y="649.5" class="st16" width="471.2" height="16.9"/>
<rect x="461.4" y="666.3" class="st0" width="457.1" height="4.7"/>
<g>
	<polygon class="st16" points="454.3,652.9 478.1,652.9 478.1,637.9 472.2,634.3 466.2,630.7 460.3,634.3 454.3,637.9 	"/>
	<polygon class="st17" points="460.8,652.9 471.7,652.9 471.7,640 469,638.4 466.2,636.7 463.5,638.4 460.8,640 	"/>
	<polygon class="st15" points="462.7,652.9 471.7,652.9 471.7,640 469,638.4 467.8,637.6 465.4,639.1 462.7,640.7 	"/>
	<polygon class="st16" points="495,652.9 518.8,652.9 518.8,637.9 512.9,634.3 506.9,630.7 501,634.3 495,637.9 	"/>
	<polygon class="st17" points="501.5,652.9 512.3,652.9 512.3,640 509.6,638.4 506.9,636.7 504.2,638.4 501.5,640 	"/>
	<polygon class="st15" points="503.3,652.9 512.3,652.9 512.3,640 509.6,638.4 508.4,637.6 506,639.1 503.3,640.7 	"/>
	<polygon class="st16" points="535.7,652.9 559.5,652.9 559.5,637.9 553.5,634.3 547.6,630.7 541.6,634.3 535.7,637.9 	"/>
	<polygon class="st17" points="542.2,652.9 553,652.9 553,640 550.3,638.4 547.6,636.7 544.9,638.4 542.2,640 	"/>
	<polygon class="st15" points="544,652.9 553,652.9 553,640 550.3,638.4 549.1,637.6 546.7,639.1 544,640.7 	"/>
	<polygon class="st16" points="576.4,652.9 600.2,652.9 600.2,637.9 594.2,634.3 588.3,630.7 582.3,634.3 576.4,637.9 	"/>
	<polygon class="st17" points="582.8,652.9 593.7,652.9 593.7,640 591,638.4 588.3,636.7 585.5,638.4 582.8,640 	"/>
	<polygon class="st15" points="584.7,652.9 593.7,652.9 593.7,640 591,638.4 589.8,637.6 587.4,639.1 584.7,640.7 	"/>
	<polygon class="st16" points="617,652.9 640.8,652.9 640.8,637.9 634.9,634.3 628.9,630.7 623,634.3 617,637.9 	"/>
	<polygon class="st17" points="623.5,652.9 634.4,652.9 634.4,640 631.6,638.4 628.9,636.7 626.2,638.4 623.5,640 	"/>
	<polygon class="st15" points="625.3,652.9 634.4,652.9 634.4,640 631.6,638.4 630.5,637.6 628,639.1 625.3,640.7 	"/>
	<polygon class="st16" points="657.7,652.9 681.5,652.9 681.5,637.9 675.5,634.3 669.6,630.7 663.6,634.3 657.7,637.9 	"/>
	<polygon class="st17" points="664.2,652.9 675,652.9 675,640 672.3,638.4 669.6,636.7 666.9,638.4 664.2,640 	"/>
	<polygon class="st15" points="666,652.9 675,652.9 675,640 672.3,638.4 671.1,637.6 668.7,639.1 666,640.7 	"/>
	<polygon class="st16" points="698.4,652.9 722.2,652.9 722.2,637.9 716.2,634.3 710.3,630.7 704.3,634.3 698.4,637.9 	"/>
	<polygon class="st17" points="704.8,652.9 715.7,652.9 715.7,640 713,638.4 710.3,636.7 707.6,638.4 704.8,640 	"/>
	<polygon class="st15" points="706.7,652.9 715.7,652.9 715.7,640 713,638.4 711.8,637.6 709.4,639.1 706.7,640.7 	"/>
	<polygon class="st16" points="739,652.9 762.8,652.9 762.8,637.9 756.9,634.3 750.9,630.7 745,634.3 739,637.9 	"/>
	<polygon class="st17" points="745.5,652.9 756.4,652.9 756.4,640 753.7,638.4 750.9,636.7 748.2,638.4 745.5,640 	"/>
	<polygon class="st15" points="747.3,652.9 756.4,652.9 756.4,640 753.7,638.4 752.5,637.6 750.1,639.1 747.3,640.7 	"/>
	<polygon class="st16" points="779.7,652.9 803.5,652.9 803.5,637.9 797.6,634.3 791.6,630.7 785.7,634.3 779.7,637.9 	"/>
	<polygon class="st17" points="786.2,652.9 797,652.9 797,640 794.3,638.4 791.6,636.7 788.9,638.4 786.2,640 	"/>
	<polygon class="st15" points="788,652.9 797,652.9 797,640 794.3,638.4 793.1,637.6 790.7,639.1 788,640.7 	"/>
	<polygon class="st16" points="820.4,652.9 844.2,652.9 844.2,637.9 838.2,634.3 832.3,630.7 826.3,634.3 820.4,637.9 	"/>
	<polygon class="st17" points="826.9,652.9 837.7,652.9 837.7,640 835,638.4 832.3,636.7 829.6,638.4 826.9,640 	"/>
	<polygon class="st15" points="828.7,652.9 837.7,652.9 837.7,640 835,638.4 833.8,637.6 831.4,639.1 828.7,640.7 	"/>
	<polygon class="st16" points="861,652.9 884.8,652.9 884.8,637.9 878.9,634.3 872.9,630.7 867,634.3 861,637.9 	"/>
	<polygon class="st17" points="867.5,652.9 878.4,652.9 878.4,640 875.7,638.4 872.9,636.7 870.2,638.4 867.5,640 	"/>
	<polygon class="st15" points="869.4,652.9 878.4,652.9 878.4,640 875.7,638.4 874.5,637.6 872.1,639.1 869.4,640.7 	"/>
	<polygon class="st16" points="901.7,652.9 925.5,652.9 925.5,637.9 919.6,634.3 913.6,630.7 907.7,634.3 901.7,637.9 	"/>
	<polygon class="st17" points="908.2,652.9 919,652.9 919,640 916.3,638.4 913.6,636.7 910.9,638.4 908.2,640 	"/>
	<polygon class="st15" points="910,652.9 919,652.9 919,640 916.3,638.4 915.1,637.6 912.7,639.1 910,640.7 	"/>
</g>
<path class="st16" d="M738.1,763.9h17.1c1.2,0,2.1,0.9,2.1,2.1v6.7c0,1.2-0.9,2.1-2.1,2.1h-17.1c-1.2,0-2.1-0.9-2.1-2.1V766
	C736,764.8,736.9,763.9,738.1,763.9z"/>
<path class="st15" d="M762,763.9h17.1c1.2,0,2.1,0.9,2.1,2.1v6.7c0,1.2-0.9,2.1-2.1,2.1H762c-1.2,0-2.1-0.9-2.1-2.1V766
	C759.9,764.8,760.8,763.9,762,763.9z"/>
<path class="st15" d="M750.5,777.2h17.1c1.2,0,2.1,0.9,2.1,2.1v6.7c0,1.2-0.9,2.1-2.1,2.1h-17.1c-1.2,0-2.1-0.9-2.1-2.1v-6.7
	C748.4,778.2,749.4,777.2,750.5,777.2z"/>
<path class="st16" d="M506,724.4H523c1.2,0,2.1,0.9,2.1,2.1v6.7c0,1.2-0.9,2.1-2.1,2.1H506c-1.2,0-2.1-0.9-2.1-2.1v-6.7
	C503.9,725.3,504.8,724.4,506,724.4z"/>
<path class="st15" d="M572.6,738.2h17.1c1.2,0,2.1,0.9,2.1,2.1v6.7c0,1.2-0.9,2.1-2.1,2.1h-17.1c-1.2,0-2.1-0.9-2.1-2.1v-6.7
	C570.5,739.1,571.5,738.2,572.6,738.2z"/>
<path class="st15" d="M525,738.2h17.1c1.2,0,2.1,0.9,2.1,2.1v6.7c0,1.2-0.9,2.1-2.1,2.1H525c-1.2,0-2.1-0.9-2.1-2.1v-6.7
	C522.9,739.1,523.9,738.2,525,738.2z"/>
<path class="st15" d="M549,738.2H566c1.2,0,2.1,0.9,2.1,2.1v6.7c0,1.2-0.9,2.1-2.1,2.1H549c-1.2,0-2.1-0.9-2.1-2.1v-6.7
	C546.8,739.1,547.8,738.2,549,738.2z"/>
<path class="st16" d="M537.5,751.6h17.1c1.2,0,2.1,0.9,2.1,2.1v6.7c0,1.2-0.9,2.1-2.1,2.1h-17.1c-1.2,0-2.1-0.9-2.1-2.1v-6.7
	C535.4,752.5,536.3,751.6,537.5,751.6z"/>
<path class="st5" d="M734.8,430.8h10.4c0.6,0,0.8-0.5,0.5-1.1L743,425c-0.3-0.6-1.1-1.1-1.7-1.1h-10.4c-0.6,0-0.8,0.5-0.5,1.1
	l2.7,4.7C733.5,430.3,734.2,430.8,734.8,430.8z"/>
<path class="st5" d="M749.5,430.8h10.4c0.6,0,0.8-0.5,0.5-1.1l-2.7-4.7c-0.3-0.6-1.1-1.1-1.7-1.1h-10.4c-0.6,0-0.8,0.5-0.5,1.1
	l2.7,4.7C748.1,430.3,748.9,430.8,749.5,430.8z"/>
<path class="st15" d="M730.9,419.8h10.4c0.6,0,1.1,0.5,1.1,1.1v4.7c0,0.6-0.5,1.1-1.1,1.1h-10.4c-0.6,0-1.1-0.5-1.1-1.1v-4.7
	C729.8,420.3,730.3,419.8,730.9,419.8z"/>
<path class="st16" d="M745.5,419.8h10.4c0.6,0,1.1,0.5,1.1,1.1v4.7c0,0.6-0.5,1.1-1.1,1.1h-10.4c-0.6,0-1.1-0.5-1.1-1.1v-4.7
	C744.4,420.3,744.9,419.8,745.5,419.8z"/>
<path class="st5" d="M734.8,523.8h10.4c0.6,0,0.8-0.5,0.5-1.1l-2.7-4.7c-0.3-0.6-1.1-1.1-1.7-1.1h-10.4c-0.6,0-0.8,0.5-0.5,1.1
	l2.7,4.7C733.5,523.3,734.2,523.8,734.8,523.8z"/>
<path class="st5" d="M749.5,523.8h10.4c0.6,0,0.8-0.5,0.5-1.1l-2.7-4.7c-0.3-0.6-1.1-1.1-1.7-1.1h-10.4c-0.6,0-0.8,0.5-0.5,1.1
	l2.7,4.7C748.1,523.3,748.9,523.8,749.5,523.8z"/>
<path class="st15" d="M730.9,512.9h10.4c0.6,0,1.1,0.5,1.1,1.1v4.7c0,0.6-0.5,1.1-1.1,1.1h-10.4c-0.6,0-1.1-0.5-1.1-1.1V514
	C729.8,513.4,730.3,512.9,730.9,512.9z"/>
<path class="st16" d="M745.5,512.9h10.4c0.6,0,1.1,0.5,1.1,1.1v4.7c0,0.6-0.5,1.1-1.1,1.1h-10.4c-0.6,0-1.1-0.5-1.1-1.1V514
	C744.4,513.4,744.9,512.9,745.5,512.9z"/>
<polygon class="st16" points="489.9,400.1 580.8,400.1 580.8,371.7 567.1,371.7 567.1,382.6 554.1,382.6 554.1,371.7 541.9,371.7 
	541.9,382.6 528.8,382.6 528.8,371.7 516.6,371.7 516.6,382.6 503.6,382.6 503.6,371.7 489.9,371.7 "/>
<rect x="489.9" y="371.7" class="st16" width="13.7" height="28.4"/>
<rect x="485.9" y="392.4" class="st15" width="99.3" height="7.7"/>
<rect x="489.9" y="389.8" class="st16" width="91.2" height="2.6"/>
<rect x="572.4" y="524.2" class="st15" width="110.1" height="10.5"/>
<rect x="572.4" y="534.8" class="st0" width="110.1" height="5.8"/>
<path class="st15" d="M651.8,542.7h9.5c0.6,0,1.2,0.5,1.2,1.2v3.7c0,0.6-0.5,1.2-1.2,1.2h-9.5c-0.6,0-1.2-0.5-1.2-1.2v-3.7
	C650.6,543.3,651.2,542.7,651.8,542.7z"/>
<path class="st16" d="M665.1,542.7h9.5c0.6,0,1.2,0.5,1.2,1.2v3.7c0,0.6-0.5,1.2-1.2,1.2h-9.5c-0.6,0-1.2-0.5-1.2-1.2v-3.7
	C663.9,543.3,664.4,542.7,665.1,542.7z"/>
<path class="st15" d="M656.9,550.2h9.5c0.6,0,1.2,0.5,1.2,1.2v3.7c0,0.6-0.5,1.2-1.2,1.2h-9.5c-0.6,0-1.2-0.5-1.2-1.2v-3.7
	C655.8,550.8,656.3,550.2,656.9,550.2z"/>
<path class="st16" d="M578.9,534.4V524c0-0.6,0.5-1.1,1.1-1.1h4.7c0.6,0,1.1,0.5,1.1,1.1v10.4c0,0.6-0.5,1.1-1.1,1.1H580
	C579.4,535.5,578.9,535,578.9,534.4z"/>
<path class="st16" d="M586.5,526.8v-5.2c0-0.6,0.5-1.1,1.1-1.1h4.7c0.6,0,1.1,0.5,1.1,1.1v5.2c0,0.6-0.5,1.1-1.1,1.1h-4.7
	C587,527.9,586.5,527.4,586.5,526.8z"/>
<path class="st16" d="M586.5,535.3v-5.2c0-0.6,0.5-1.1,1.1-1.1h4.7c0.6,0,1.1,0.5,1.1,1.1v5.2c0,0.6-0.5,1.1-1.1,1.1h-4.7
	C587,536.4,586.5,535.9,586.5,535.3z"/>
<path class="st16" d="M629.1,534.4V524c0-0.6,0.5-1.1,1.1-1.1h4.7c0.6,0,1.1,0.5,1.1,1.1v10.4c0,0.6-0.5,1.1-1.1,1.1h-4.7
	C629.6,535.5,629.1,535,629.1,534.4z"/>
<path class="st16" d="M636.8,526.8v-5.2c0-0.6,0.5-1.1,1.1-1.1h4.7c0.6,0,1.1,0.5,1.1,1.1v5.2c0,0.6-0.5,1.1-1.1,1.1h-4.7
	C637.2,527.9,636.8,527.4,636.8,526.8z"/>
<path class="st18" d="M636.8,535.3v-5.2c0-0.6,0.5-1.1,1.1-1.1h4.7c0.6,0,1.1,0.5,1.1,1.1v5.2c0,0.6-0.5,1.1-1.1,1.1h-4.7
	C637.2,536.4,636.8,535.9,636.8,535.3z"/>
<path class="st18" d="M621.2,526.8v-5.2c0-0.6,0.5-1.1,1.1-1.1h4.7c0.6,0,1.1,0.5,1.1,1.1v5.2c0,0.6-0.5,1.1-1.1,1.1h-4.7
	C621.7,527.9,621.2,527.4,621.2,526.8z"/>
<path class="st16" d="M621.2,535.3v-5.2c0-0.6,0.5-1.1,1.1-1.1h4.7c0.6,0,1.1,0.5,1.1,1.1v5.2c0,0.6-0.5,1.1-1.1,1.1h-4.7
	C621.7,536.4,621.2,535.9,621.2,535.3z"/>
<rect x="593.4" y="524.2" class="st19" width="2.6" height="10.5"/>
<rect x="643.6" y="524.2" class="st19" width="2.6" height="10.5"/>
<path class="st16" d="M670.1,578.6h8.8c0.6,0,1.1,0.5,1.1,1.1v3.5c0,0.6-0.5,1.1-1.1,1.1h-8.8c-0.6,0-1.1-0.5-1.1-1.1v-3.5
	C669,579,669.5,578.6,670.1,578.6z"/>
<path class="st18" d="M664.2,585.2h8.8c0.6,0,1.1,0.5,1.1,1.1v3.5c0,0.6-0.5,1.1-1.1,1.1h-8.8c-0.6,0-1.1-0.5-1.1-1.1v-3.5
	C663.1,585.7,663.6,585.2,664.2,585.2z"/>
<rect x="515.2" y="400.1" class="st0" width="57.2" height="6"/>
<path class="st2" d="M441.8,449.7h56.8v53.9c0-17-13.9-31-31-31h-25.8V449.7z"/>
<path class="st15" d="M441.8,449.7h19.9c10.9,0,19.9,8.9,19.9,19.9v6.4c-4.2-2.1-8.9-3.3-13.9-3.3h-25.8V449.7z"/>
<polygon class="st2" points="436.7,449.7 498.6,449.7 498.6,432 489.3,432 489.3,438.8 480.4,438.8 480.4,432 472.1,432 
	472.1,438.8 463.3,438.8 463.3,432 454.9,432 454.9,438.8 446.1,438.8 446.1,432 436.7,432 "/>
<rect x="441.8" y="449.7" class="st0" width="56.8" height="4.9"/>
<path class="st5" d="M535.7,293.5L535.7,293.5c3.4,0,6.2,2.8,6.2,6.2v16.9h-12.5v-16.9C529.5,296.3,532.3,293.5,535.7,293.5z"/>
<path class="st16" d="M538.5,282.4v8.5c0,0.5-0.4,0.9-0.9,0.9h-3.8c-0.5,0-0.9-0.4-0.9-0.9v-8.5c0-0.5,0.4-0.9,0.9-0.9h3.8
	C538.1,281.5,538.5,281.9,538.5,282.4z"/>
<path class="st16" d="M531.9,286.5v4.8c0,0.3-0.2,0.5-0.5,0.5h-2.1c-0.3,0-0.5-0.2-0.5-0.5v-4.8c0-0.3,0.2-0.5,0.5-0.5h2.1
	C531.7,286,531.9,286.3,531.9,286.5z"/>
<path class="st16" d="M542.6,286.5v4.8c0,0.3-0.2,0.5-0.5,0.5h-2.1c-0.3,0-0.5-0.2-0.5-0.5v-4.8c0-0.3,0.2-0.5,0.5-0.5h2.1
	C542.3,286,542.6,286.3,542.6,286.5z"/>
<path class="st5" d="M528.2,326.8h8.5c0.5,0,0.7-0.4,0.4-0.9l-2.2-3.8c-0.3-0.5-0.9-0.9-1.4-0.9H525c-0.5,0-0.7,0.4-0.4,0.9l2.2,3.8
	C527.1,326.4,527.7,326.8,528.2,326.8z"/>
<path class="st5" d="M540.1,326.8h8.5c0.5,0,0.7-0.4,0.4-0.9l-2.2-3.8c-0.3-0.5-0.9-0.9-1.4-0.9h-8.5c-0.5,0-0.7,0.4-0.4,0.9
	l2.2,3.8C539,326.4,539.6,326.8,540.1,326.8z"/>
<path class="st15" d="M525,317.8h8.5c0.5,0,0.9,0.4,0.9,0.9v3.8c0,0.5-0.4,0.9-0.9,0.9H525c-0.5,0-0.9-0.4-0.9-0.9v-3.8
	C524.1,318.2,524.5,317.8,525,317.8z"/>
<path class="st16" d="M536.9,317.8h8.5c0.5,0,0.9,0.4,0.9,0.9v3.8c0,0.5-0.4,0.9-0.9,0.9h-8.5c-0.5,0-0.9-0.4-0.9-0.9v-3.8
	C536,318.2,536.4,317.8,536.9,317.8z"/>
<path class="st5" d="M535.7,433.3L535.7,433.3c3.4,0,6.2,2.8,6.2,6.2v16.9h-12.5v-16.9C529.5,436.1,532.3,433.3,535.7,433.3z"/>
<path class="st16" d="M538.5,422.2v8.5c0,0.5-0.4,0.9-0.9,0.9h-3.8c-0.5,0-0.9-0.4-0.9-0.9v-8.5c0-0.5,0.4-0.9,0.9-0.9h3.8
	C538.1,421.3,538.5,421.7,538.5,422.2z"/>
<path class="st16" d="M531.9,426.3v4.7c0,0.3-0.2,0.5-0.5,0.5h-2.1c-0.3,0-0.5-0.2-0.5-0.5v-4.7c0-0.3,0.2-0.5,0.5-0.5h2.1
	C531.7,425.8,531.9,426,531.9,426.3z"/>
<path class="st16" d="M542.6,426.3v4.7c0,0.3-0.2,0.5-0.5,0.5h-2.1c-0.3,0-0.5-0.2-0.5-0.5v-4.7c0-0.3,0.2-0.5,0.5-0.5h2.1
	C542.3,425.8,542.6,426,542.6,426.3z"/>
<polygon class="st7" points="535.5,193.2 535.5,254.7 504.9,254.7 "/>
<path class="st8" d="M520.3,234.8h9v7.1c0,2.5-2,4.5-4.5,4.5l0,0c-2.5,0-4.5-2-4.5-4.5V234.8z"/>
<path class="st8" d="M531,234.8h9v7.1c0,2.5-2,4.5-4.5,4.5l0,0c-2.5,0-4.5-2-4.5-4.5V234.8z"/>
<path class="st8" d="M541.7,234.8h9v7.1c0,2.5-2,4.5-4.5,4.5l0,0c-2.5,0-4.5-2-4.5-4.5V234.8z"/>
<path class="st6" d="M525.5,229h9v7.1c0,2.5-2,4.5-4.5,4.5l0,0c-2.5,0-4.5-2-4.5-4.5V229z"/>
<path class="st6" d="M535.5,229h9v7.1c0,2.5-2,4.5-4.5,4.5l0,0c-2.5,0-4.5-2-4.5-4.5V229z"/>
<path class="st8" d="M529.9,223.2h9v7.1c0,2.5-2,4.5-4.5,4.5l0,0c-2.5,0-4.5-2-4.5-4.5V223.2z"/>
<path class="st8" d="M539.9,223.2h9v7.1c0,2.5-2,4.5-4.5,4.5l0,0c-2.5,0-4.5-2-4.5-4.5V223.2z"/>
<polygon class="st6" points="535.5,193.2 535.5,254.7 566.1,254.7 "/>
<rect x="501.8" y="254.7" class="st9" width="67.2" height="9.7"/>
<rect x="501.8" y="254.7" class="st10" width="6.5" height="9.7"/>
<polygon class="st7" points="612.4,297.6 623.8,297.6 623.8,346.9 589.9,346.9 "/>
<polygon class="st6" points="635.3,297.6 623.8,297.6 623.8,346.9 657.7,346.9 "/>
<path class="st8" d="M598.1,331.3h7.3v5.7c0,2-1.6,3.6-3.6,3.6l0,0c-2,0-3.6-1.6-3.6-3.6V331.3z"/>
<path class="st8" d="M606.7,331.3h7.2v5.7c0,2-1.6,3.6-3.6,3.6l0,0c-2,0-3.6-1.6-3.6-3.6V331.3z"/>
<path class="st8" d="M615.3,331.3h7.2v5.7c0,2-1.6,3.6-3.6,3.6l0,0c-2,0-3.6-1.6-3.6-3.6V331.3z"/>
<path class="st6" d="M602.2,326.6h7.3v5.7c0,2-1.6,3.6-3.6,3.6l0,0c-2,0-3.6-1.6-3.6-3.6V326.6z"/>
<path class="st6" d="M610.3,326.6h7.3v5.7c0,2-1.6,3.6-3.6,3.6l0,0c-2,0-3.6-1.6-3.6-3.6V326.6z"/>
<path class="st8" d="M605.8,322h7.2v5.7c0,2-1.6,3.6-3.6,3.6l0,0c-2,0-3.6-1.6-3.6-3.6V322z"/>
<path class="st8" d="M613.9,322h7.2v5.7c0,2-1.6,3.6-3.6,3.6l0,0c-2,0-3.6-1.6-3.6-3.6V322z"/>
<rect x="608.8" y="294.7" class="st9" width="30" height="7.2"/>
<rect x="608.8" y="299.8" class="st12" width="30" height="2.1"/>
<polygon class="st7" points="619.3,235.9 623.8,235.9 623.8,294.8 610.4,294.8 "/>
<polygon class="st6" points="628.4,235.9 623.8,235.9 623.8,294.8 637.3,294.8 "/>
<rect x="623.8" y="186" class="st6" width="2.6" height="50"/>
<polygon class="st13" points="693.3,192.6 659.8,195.9 626.4,199.2 626.4,192.6 626.4,186 659.8,189.3 "/>
<rect x="599" y="346.9" class="st2" width="50" height="177.3"/>
<rect x="634.5" y="346.9" class="st0" width="14.6" height="177.3"/>
<path class="st0" d="M804.9,195.4h-37.2v35.3c0-11.2,9.1-20.3,20.3-20.3h16.9V195.4z"/>
<path class="st15" d="M804.9,195.4h-13c-7.2,0-13,5.9-13,13v4.2c2.7-1.4,5.8-2.2,9.1-2.2h16.9V195.4z"/>
<polygon class="st2" points="808.2,195.4 767.6,195.4 767.6,183.8 773.7,183.8 773.7,188.3 779.5,188.3 779.5,183.8 785,183.8 
	785,188.3 790.8,188.3 790.8,183.8 796.3,183.8 796.3,188.3 802.1,188.3 802.1,183.8 808.2,183.8 "/>
<rect x="767.6" y="195.4" class="st0" width="37.2" height="3.6"/>
<path class="st5" d="M731.6,176.5L731.6,176.5c2.3,0,4.1,1.9,4.1,4.1v11.2h-8.2v-11.2C727.4,178.4,729.3,176.5,731.6,176.5z"/>
<path class="st16" d="M733.4,169.1v5.6c0,0.3-0.3,0.6-0.6,0.6h-2.5c-0.3,0-0.6-0.3-0.6-0.6v-5.6c0-0.3,0.3-0.6,0.6-0.6h2.5
	C733.2,168.6,733.4,168.8,733.4,169.1z"/>
<path class="st16" d="M729.1,171.9v3.1c0,0.2-0.1,0.3-0.3,0.3h-1.4c-0.2,0-0.3-0.1-0.3-0.3v-3.1c0-0.2,0.1-0.3,0.3-0.3h1.4
	C728.9,171.5,729.1,171.7,729.1,171.9z"/>
<path class="st16" d="M736.1,171.9v3.1c0,0.2-0.1,0.3-0.3,0.3h-1.4c-0.2,0-0.3-0.1-0.3-0.3v-3.1c0-0.2,0.2-0.3,0.3-0.3h1.4
	C736,171.5,736.1,171.7,736.1,171.9z"/>
<path class="st5" d="M726.6,198.5h5.6c0.3,0,0.4-0.3,0.3-0.6l-1.5-2.5c-0.2-0.3-0.6-0.6-0.9-0.6h-5.6c-0.3,0-0.4,0.3-0.3,0.6
	l1.5,2.5C725.9,198.3,726.3,198.5,726.6,198.5z"/>
<path class="st5" d="M734.5,198.5h5.6c0.3,0,0.4-0.3,0.3-0.6l-1.5-2.5c-0.2-0.3-0.6-0.6-0.9-0.6h-5.6c-0.3,0-0.4,0.3-0.3,0.6
	l1.5,2.5C733.8,198.3,734.2,198.5,734.5,198.5z"/>
<path class="st15" d="M724.5,192.6h5.6c0.3,0,0.6,0.3,0.6,0.6v2.5c0,0.3-0.3,0.6-0.6,0.6h-5.6c-0.3,0-0.6-0.3-0.6-0.6v-2.5
	C723.9,192.9,724.1,192.6,724.5,192.6z"/>
<path class="st16" d="M732.4,192.6h5.6c0.3,0,0.6,0.3,0.6,0.6v2.5c0,0.3-0.3,0.6-0.6,0.6h-5.6c-0.3,0-0.6-0.3-0.6-0.6v-2.5
	C731.8,192.9,732.1,192.6,732.4,192.6z"/>
<path class="st5" d="M753.1,176.5L753.1,176.5c2.3,0,4.1,1.9,4.1,4.1v11.2h-8.2v-11.2C748.9,178.4,750.8,176.5,753.1,176.5z"/>
<path class="st16" d="M754.9,169.1v5.6c0,0.3-0.3,0.6-0.6,0.6h-2.5c-0.3,0-0.6-0.3-0.6-0.6v-5.6c0-0.3,0.3-0.6,0.6-0.6h2.5
	C754.7,168.6,754.9,168.8,754.9,169.1z"/>
<path class="st16" d="M750.6,171.9v3.1c0,0.2-0.1,0.3-0.3,0.3h-1.4c-0.2,0-0.3-0.1-0.3-0.3v-3.1c0-0.2,0.1-0.3,0.3-0.3h1.4
	C750.4,171.5,750.6,171.7,750.6,171.9z"/>
<path class="st16" d="M757.6,171.9v3.1c0,0.2-0.1,0.3-0.3,0.3h-1.4c-0.2,0-0.3-0.1-0.3-0.3v-3.1c0-0.2,0.2-0.3,0.3-0.3h1.4
	C757.5,171.5,757.6,171.7,757.6,171.9z"/>
<path class="st5" d="M748.1,198.5h5.6c0.3,0,0.4-0.3,0.3-0.6l-1.5-2.5c-0.2-0.3-0.6-0.6-0.9-0.6H746c-0.3,0-0.4,0.3-0.3,0.6l1.5,2.5
	C747.4,198.3,747.8,198.5,748.1,198.5z"/>
<path class="st5" d="M756,198.5h5.6c0.3,0,0.4-0.3,0.3-0.6l-1.5-2.5c-0.2-0.3-0.6-0.6-0.9-0.6h-5.6c-0.3,0-0.4,0.3-0.3,0.6l1.5,2.5
	C755.3,198.3,755.7,198.5,756,198.5z"/>
<path class="st15" d="M746,192.6h5.6c0.3,0,0.6,0.3,0.6,0.6v2.5c0,0.3-0.3,0.6-0.6,0.6H746c-0.3,0-0.6-0.3-0.6-0.6v-2.5
	C745.4,192.9,745.6,192.6,746,192.6z"/>
<path class="st16" d="M753.9,192.6h5.6c0.3,0,0.6,0.3,0.6,0.6v2.5c0,0.3-0.3,0.6-0.6,0.6h-5.6c-0.3,0-0.6-0.3-0.6-0.6v-2.5
	C753.3,192.9,753.5,192.6,753.9,192.6z"/>
<path class="st6" d="M840.4,432.4h4c0.2,8.5,6.1,15.5,14.1,17.4v4.4h-32.2v-4.4C834.3,448,840.2,440.9,840.4,432.4z"/>
<rect x="848" y="359.4" class="st6" width="2.6" height="50"/>
<polygon class="st13" points="931.1,366 890.8,369.3 850.6,372.6 850.6,366 850.6,359.4 890.8,362.7 "/>
<rect x="395.4" y="741.3" class="st2" width="83.6" height="145.4"/>
<rect x="463.9" y="741.3" class="st5" width="15.1" height="145.4"/>
<rect x="478.9" y="741.3" class="st0" width="10.6" height="145.4"/>
<polygon class="st16" points="395.4,730.7 478.9,730.7 489.5,741.3 478.9,751.8 395.4,751.8 384.8,741.3 "/>
<polygon class="st2" points="489.5,741.3 478.9,751.8 395.4,751.8 384.8,741.3 "/>
<polygon class="st16" points="395.4,730.7 478.9,730.7 478.9,708.6 466.3,708.6 466.3,717 454.4,717 454.4,708.6 443.1,708.6 
	443.1,717 431.2,717 431.2,708.6 419.9,708.6 419.9,717 408,717 408,708.6 395.4,708.6 "/>
<polygon class="st0" points="448,730.7 478.9,730.7 478.9,708.6 466.3,708.6 466.3,717 454.4,717 454.4,708.6 448,708.6 "/>
<rect x="900.9" y="741.3" class="st2" width="83.6" height="144.8"/>
<rect x="900.9" y="741.3" class="st15" width="15.1" height="144.8"/>
<rect x="890.4" y="741.3" class="st0" width="10.6" height="144.8"/>
<polygon class="st16" points="984.5,730.7 900.9,730.7 890.4,741.3 900.9,751.8 984.5,751.8 995.1,741.3 "/>
<polygon class="st2" points="890.4,741.3 900.9,751.8 984.5,751.8 995.1,741.3 "/>
<polygon class="st2" points="984.5,730.7 900.9,730.7 900.9,708.6 913.5,708.6 913.5,717 925.5,717 925.5,708.6 936.7,708.6 
	936.7,717 948.7,717 948.7,708.6 959.9,708.6 959.9,717 971.9,717 971.9,708.6 984.5,708.6 "/>
<polygon class="st0" points="931.9,730.7 900.9,730.7 900.9,708.6 913.5,708.6 913.5,717 925.5,717 925.5,708.6 931.9,708.6 "/>
<path class="st15" d="M509.1,491.3h9.5c0.6,0,1.2,0.5,1.2,1.2v3.7c0,0.6-0.5,1.2-1.2,1.2h-9.5c-0.6,0-1.2-0.5-1.2-1.2v-3.7
	C508,491.9,508.5,491.3,509.1,491.3z"/>
<path class="st16" d="M522.4,491.3h9.5c0.6,0,1.2,0.5,1.2,1.2v3.7c0,0.6-0.5,1.2-1.2,1.2h-9.5c-0.6,0-1.2-0.5-1.2-1.2v-3.7
	C521.2,491.9,521.8,491.3,522.4,491.3z"/>
<path class="st15" d="M514.3,498.8h9.5c0.6,0,1.2,0.5,1.2,1.2v3.7c0,0.6-0.5,1.2-1.2,1.2h-9.5c-0.6,0-1.2-0.5-1.2-1.2V500
	C513.1,499.4,513.6,498.8,514.3,498.8z"/>
<path class="st15" d="M525.9,561.7h9.5c0.6,0,1.2,0.5,1.2,1.2v3.7c0,0.6-0.5,1.2-1.2,1.2h-9.5c-0.6,0-1.2-0.5-1.2-1.2v-3.7
	C524.7,562.2,525.2,561.7,525.9,561.7z"/>
<path class="st16" d="M539.1,561.7h9.5c0.6,0,1.2,0.5,1.2,1.2v3.7c0,0.6-0.5,1.2-1.2,1.2h-9.5c-0.6,0-1.2-0.5-1.2-1.2v-3.7
	C538,562.2,538.5,561.7,539.1,561.7z"/>
<path class="st15" d="M531,569.2h9.5c0.6,0,1.2,0.5,1.2,1.2v3.7c0,0.6-0.5,1.2-1.2,1.2H531c-0.6,0-1.2-0.5-1.2-1.2v-3.7
	C529.8,569.8,530.4,569.2,531,569.2z"/>
<path class="st16" d="M501.9,605.5h9.5c0.6,0,1.2,0.5,1.2,1.2v3.7c0,0.6-0.5,1.2-1.2,1.2h-9.5c-0.6,0-1.2-0.5-1.2-1.2v-3.7
	C500.7,606.1,501.3,605.5,501.9,605.5z"/>
<path class="st16" d="M515.2,605.5h9.5c0.6,0,1.2,0.5,1.2,1.2v3.7c0,0.6-0.5,1.2-1.2,1.2h-9.5c-0.6,0-1.2-0.5-1.2-1.2v-3.7
	C514,606.1,514.5,605.5,515.2,605.5z"/>
<path class="st16" d="M507,613.1h9.5c0.6,0,1.2,0.5,1.2,1.2v3.7c0,0.6-0.5,1.2-1.2,1.2H507c-0.6,0-1.2-0.5-1.2-1.2v-3.7
	C505.9,613.6,506.4,613.1,507,613.1z"/>
<path class="st14" d="M649,364.9h33.4v34.8h-5.8v-3.4c0-6-4.9-10.9-10.9-10.9l0,0c-6,0-10.9,4.9-10.9,10.9v127.9H649V364.9z"/>
<path class="st2" d="M662.6,364.9h19.9v72.4h-5.8v-41c0-6-4.9-10.9-10.9-10.9l0,0c-1.1,0-2.2,0.2-3.2,0.5V364.9z"/>
<rect x="649" y="355.6" class="st15" width="33.4" height="9.3"/>
<rect x="649" y="364.9" class="st0" width="33.4" height="1.8"/>
<rect x="534.2" y="145.7" class="st6" width="2.6" height="50"/>
<path class="st15" d="M405.1,759.5h13.2c0.9,0,1.6,0.7,1.6,1.6v5.2c0,0.9-0.7,1.6-1.6,1.6h-13.2c-0.9,0-1.6-0.7-1.6-1.6v-5.2
	C403.5,760.3,404.2,759.5,405.1,759.5z"/>
<path class="st16" d="M414.8,769.9H428c0.9,0,1.6,0.7,1.6,1.6v5.2c0,0.9-0.7,1.6-1.6,1.6h-13.2c-0.9,0-1.6-0.7-1.6-1.6v-5.2
	C413.1,770.6,413.9,769.9,414.8,769.9z"/>
<path class="st18" d="M573.5,594.6h8.8c0.6,0,1.1,0.5,1.1,1.1v3.5c0,0.6-0.5,1.1-1.1,1.1h-8.8c-0.6,0-1.1-0.5-1.1-1.1v-3.5
	C572.4,595.1,572.9,594.6,573.5,594.6z"/>
<path class="st2" d="M579,587.4h8.8c0.6,0,1.1,0.5,1.1,1.1v3.5c0,0.6-0.5,1.1-1.1,1.1H579c-0.6,0-1.1-0.5-1.1-1.1v-3.5
	C577.9,587.9,578.4,587.4,579,587.4z"/>
<rect x="886.8" y="515.8" class="st0" width="30.7" height="12.2"/>
<rect x="967.8" y="752.2" class="st0" width="16.7" height="133.9"/>
<rect x="388.4" y="757.8" class="st0" width="6.9" height="128.9"/>
<rect x="266.9" y="761.9" class="st5" width="121.6" height="4.3"/>
<polygon class="st16" points="956.5,568 948.1,568 900.9,568 900.9,553.6 909.3,553.6 909.3,559.1 917.3,559.1 917.3,553.6 
	924.7,553.6 924.7,559.1 932.7,559.1 932.7,553.6 940.2,553.6 940.2,559.1 948.1,559.1 948.1,553.6 956.5,553.6 956.5,553.6 
	956.5,559.1 964.4,559.1 964.4,553.6 971.9,553.6 971.9,559.1 979.8,559.1 979.8,553.6 987.3,553.6 987.3,559.1 995.3,559.1 
	995.3,553.6 1003.6,553.6 1003.6,553.6 1003.6,559.1 1011.6,559.1 1011.6,553.6 1019.1,553.6 1019.1,559.1 1027,559.1 1027,553.6 
	1034.5,553.6 1034.5,559.1 1042.4,559.1 1042.4,553.6 1050.8,553.6 1050.8,553.6 1050.8,559.1 1058.8,559.1 1058.8,553.6 
	1066.2,553.6 1066.2,559.1 1074.2,559.1 1074.2,553.6 1081.7,553.6 1081.7,559.1 1089.6,559.1 1089.6,553.6 1098,553.6 1098,568 
	1050.8,568 1042.4,568 1003.6,568 995.3,568 "/>
<path class="st15" d="M816.3,778.1h17.1c1.2,0,2.1,0.9,2.1,2.1v6.7c0,1.2-0.9,2.1-2.1,2.1h-17.1c-1.2,0-2.1-0.9-2.1-2.1v-6.7
	C814.2,779,815.1,778.1,816.3,778.1z"/>
<path class="st15" d="M831.3,792h17.1c1.2,0,2.1,0.9,2.1,2.1v6.7c0,1.2-0.9,2.1-2.1,2.1h-17.1c-1.2,0-2.1-0.9-2.1-2.1v-6.7
	C829.1,792.9,830.1,792,831.3,792z"/>
<path class="st16" d="M840.7,779.4h13c0.9,0,1.6,0.7,1.6,1.6v5.1c0,0.9-0.7,1.6-1.6,1.6h-13c-0.9,0-1.6-0.7-1.6-1.6V781
	C839.1,780.1,839.9,779.4,840.7,779.4z"/>
<path class="st16" d="M778.2,743.2h13c0.9,0,1.6,0.7,1.6,1.6v5.1c0,0.9-0.7,1.6-1.6,1.6h-13c-0.9,0-1.6-0.7-1.6-1.6v-5.1
	C776.6,743.9,777.3,743.2,778.2,743.2z"/>
<path class="st16" d="M759.7,737.7h13c0.9,0,1.6,0.7,1.6,1.6v5.1c0,0.9-0.7,1.6-1.6,1.6h-13c-0.9,0-1.6-0.7-1.6-1.6v-5.1
	C758.1,738.4,758.9,737.7,759.7,737.7z"/>
<path class="st15" d="M770.5,712.2h17.1c1.2,0,2.1,0.9,2.1,2.1v6.7c0,1.2-0.9,2.1-2.1,2.1h-17.1c-1.2,0-2.1-0.9-2.1-2.1v-6.7
	C768.4,713.1,769.3,712.2,770.5,712.2z"/>
<path class="st16" d="M779.7,725.2h13c0.9,0,1.6,0.7,1.6,1.6v5.1c0,0.9-0.7,1.6-1.6,1.6h-13c-0.9,0-1.6-0.7-1.6-1.6v-5.1
	C778.1,726,778.8,725.2,779.7,725.2z"/>
<path class="st15" d="M799.4,716h17.1c1.2,0,2.1,0.9,2.1,2.1v6.7c0,1.2-0.9,2.1-2.1,2.1h-17.1c-1.2,0-2.1-0.9-2.1-2.1v-6.7
	C797.3,716.9,798.3,716,799.4,716z"/>
<path class="st15" d="M921.7,761.1h17.1c1.2,0,2.1,0.9,2.1,2.1v6.7c0,1.2-0.9,2.1-2.1,2.1h-17.1c-1.2,0-2.1-0.9-2.1-2.1v-6.7
	C919.6,762.1,920.5,761.1,921.7,761.1z"/>
<path class="st15" d="M945.6,761.1h17.1c1.2,0,2.1,0.9,2.1,2.1v6.7c0,1.2-0.9,2.1-2.1,2.1h-17.1c-1.2,0-2.1-0.9-2.1-2.1v-6.7
	C943.5,762.1,944.5,761.1,945.6,761.1z"/>
<path class="st16" d="M934.2,774.5h17.1c1.2,0,2.1,0.9,2.1,2.1v6.7c0,1.2-0.9,2.1-2.1,2.1h-17.1c-1.2,0-2.1-0.9-2.1-2.1v-6.7
	C932.1,775.4,933,774.5,934.2,774.5z"/>
<path class="st15" d="M1033,770.6h17.1c1.2,0,2.1,0.9,2.1,2.1v6.7c0,1.2-0.9,2.1-2.1,2.1H1033c-1.2,0-2.1-0.9-2.1-2.1v-6.7
	C1030.9,771.5,1031.8,770.6,1033,770.6z"/>
<path class="st16" d="M1057.4,771.9h13c0.9,0,1.6,0.7,1.6,1.6v5.1c0,0.9-0.7,1.6-1.6,1.6h-13c-0.9,0-1.6-0.7-1.6-1.6v-5.1
	C1055.8,772.6,1056.6,771.9,1057.4,771.9z"/>
<polygon class="st13" points="617.4,152.3 577.1,155.6 536.8,158.9 536.8,152.3 536.8,145.7 577.1,149 "/>
<path class="st16" d="M403.6,782.8h17.1c1.2,0,2.1,0.9,2.1,2.1v6.7c0,1.2-0.9,2.1-2.1,2.1h-17.1c-1.2,0-2.1-0.9-2.1-2.1v-6.7
	C401.5,783.7,402.4,782.8,403.6,782.8z"/>
<path class="st16" d="M423.4,760.1h9.8c0.7,0,1.2,0.5,1.2,1.2v3.8c0,0.7-0.5,1.2-1.2,1.2h-9.8c-0.7,0-1.2-0.5-1.2-1.2v-3.8
	C422.2,760.7,422.8,760.1,423.4,760.1z"/>
<path class="st16" d="M427.3,783.5h14.5c1,0,1.8,0.8,1.8,1.8v5.7c0,1-0.8,1.8-1.8,1.8h-14.5c-1,0-1.8-0.8-1.8-1.8v-5.7
	C425.5,784.3,426.3,783.5,427.3,783.5z"/>
<path class="st15" d="M602.3,473.2h9.5c0.6,0,1.2,0.5,1.2,1.2v3.7c0,0.6-0.5,1.2-1.2,1.2h-9.5c-0.6,0-1.2-0.5-1.2-1.2v-3.7
	C601.2,473.7,601.7,473.2,602.3,473.2z"/>
<path class="st16" d="M615.6,473.2h9.5c0.6,0,1.2,0.5,1.2,1.2v3.7c0,0.6-0.5,1.2-1.2,1.2h-9.5c-0.6,0-1.2-0.5-1.2-1.2v-3.7
	C614.4,473.7,614.9,473.2,615.6,473.2z"/>
<path class="st15" d="M607.5,480.7h9.5c0.6,0,1.2,0.5,1.2,1.2v3.7c0,0.6-0.5,1.2-1.2,1.2h-9.5c-0.6,0-1.2-0.5-1.2-1.2v-3.7
	C606.3,481.2,606.8,480.7,607.5,480.7z"/>
<path class="st15" d="M616.1,383.2h13.2c0.9,0,1.6,0.7,1.6,1.6v5.2c0,0.9-0.7,1.6-1.6,1.6h-13.2c-0.9,0-1.6-0.7-1.6-1.6v-5.2
	C614.5,384,615.2,383.2,616.1,383.2z"/>
<path class="st16" d="M608.5,375.7h9.5c0.6,0,1.2,0.5,1.2,1.2v3.7c0,0.6-0.5,1.2-1.2,1.2h-9.5c-0.6,0-1.2-0.5-1.2-1.2v-3.7
	C607.3,376.2,607.8,375.7,608.5,375.7z"/>
<path class="st15" d="M621.5,393.2h9.5c0.6,0,1.2,0.5,1.2,1.2v3.7c0,0.6-0.5,1.2-1.2,1.2h-9.5c-0.6,0-1.2-0.5-1.2-1.2v-3.7
	C620.3,393.7,620.8,393.2,621.5,393.2z"/>
<path class="st15" d="M603.8,402.9h13.9c0.9,0,1.7,0.8,1.7,1.7v5.5c0,0.9-0.8,1.7-1.7,1.7h-13.9c-0.9,0-1.7-0.8-1.7-1.7v-5.5
	C602.1,403.7,602.8,402.9,603.8,402.9z"/>
<path class="st5" d="M829.7,462L829.7,462c2.4,0,4.4,2,4.4,4.4v12h-8.8v-12C825.3,464,827.2,462,829.7,462z"/>
<path class="st5" d="M846,462L846,462c2.4,0,4.4,2,4.4,4.4v12h-8.8v-12C841.6,464,843.6,462,846,462z"/>
<path class="st5" d="M862.3,462L862.3,462c2.4,0,4.4,2,4.4,4.4v12h-8.8v-12C857.9,464,859.9,462,862.3,462z"/>
<polygon class="st20" points="516,472.2 551.7,472.2 551.7,554.9 542.8,548.1 533.8,541.3 524.9,548.1 516,554.9 "/>
<rect x="512.2" y="467.5" class="st21" width="43.2" height="4.7"/>
<path class="st22" d="M535.7,494.4v27.1l-1,4.7l-1,4.7l-1-4.7l-1-4.7v-27.1h-5.1v1.1h-1.5v-4.9h1.5v1.1h5.1h0.9v-7.6
	c-0.8-0.4-1.4-1.3-1.4-2.3c0-1.4,1.2-2.6,2.6-2.6c1.4,0,2.6,1.2,2.6,2.6c0,1-0.6,1.9-1.4,2.3v7.6h0.6h5.3v-1.1h1.5v4.9H541v-1.1
	H535.7z"/>
<path class="st0" d="M301.3,640.5h54v51.2c0-16.2-13.2-29.4-29.4-29.4h-24.6V640.5z"/>
<path class="st15" d="M301.3,640.5h18.9c10.4,0,18.9,8.5,18.9,18.9v6c-4-2-8.5-3.2-13.2-3.2h-24.6V640.5z"/>
<polygon class="st15" points="298,640.5 355.3,640.5 355.3,623.6 346.7,623.6 346.7,630.1 338.5,630.1 338.5,623.6 330.8,623.6 
	330.8,630.1 322.6,630.1 322.6,623.6 314.9,623.6 314.9,630.1 306.7,630.1 306.7,623.6 298,623.6 "/>
<rect x="301.3" y="640.5" class="st0" width="54" height="4.7"/>
<path class="st5" d="M528.2,466.5h8.5c0.5,0,0.7-0.4,0.4-0.9l-2.2-3.8c-0.3-0.5-0.9-0.9-1.4-0.9H525c-0.5,0-0.7,0.4-0.4,0.9l2.2,3.8
	C527.1,466.1,527.7,466.5,528.2,466.5z"/>
<path class="st5" d="M540.1,466.5h8.5c0.5,0,0.7-0.4,0.4-0.9l-2.2-3.8c-0.3-0.5-0.9-0.9-1.4-0.9h-8.5c-0.5,0-0.7,0.4-0.4,0.9
	l2.2,3.8C539,466.1,539.6,466.5,540.1,466.5z"/>
<path class="st15" d="M525,457.6h8.5c0.5,0,0.9,0.4,0.9,0.9v3.8c0,0.5-0.4,0.9-0.9,0.9H525c-0.5,0-0.9-0.4-0.9-0.9v-3.8
	C524.1,458,524.5,457.6,525,457.6z"/>
<path class="st16" d="M536.9,457.6h8.5c0.5,0,0.9,0.4,0.9,0.9v3.8c0,0.5-0.4,0.9-0.9,0.9h-8.5c-0.5,0-0.9-0.4-0.9-0.9v-3.8
	C536,458,536.4,457.6,536.9,457.6z"/>
<polygon class="st15" points="348.5,594.3 395.7,594.3 404.1,594.3 443,594.3 451.4,594.3 498.6,594.3 498.6,576.6 490.2,576.6 
	490.2,583.4 482.3,583.4 482.3,576.6 474.8,576.6 474.8,583.4 466.8,583.4 466.8,576.6 459.3,576.6 459.3,583.4 451.4,583.4 
	451.4,576.6 443,576.6 443,583.4 435,583.4 435,576.6 427.5,576.6 427.5,583.4 419.6,583.4 419.6,576.6 412.1,576.6 412.1,583.4 
	404.1,583.4 404.1,576.6 395.7,576.6 395.7,583.4 387.8,583.4 387.8,576.6 380.3,576.6 380.3,583.4 372.3,583.4 372.3,576.6 
	364.8,576.6 364.8,583.4 356.9,583.4 356.9,576.6 348.5,576.6 "/>
<rect x="355.3" y="594.3" class="st0" width="143.3" height="8.3"/>
<rect x="373.5" y="594.3" class="st15" width="15.1" height="57.8"/>
<rect x="388.6" y="594.3" class="st0" width="5.8" height="57.8"/>
<rect x="413.6" y="594.3" class="st15" width="15.1" height="57.8"/>
<rect x="428.7" y="594.3" class="st0" width="5.8" height="57.8"/>
<rect x="351.6" y="651.4" class="st15" width="102.8" height="8.6"/>
<rect x="355.3" y="660" class="st0" width="99" height="4.1"/>
<path class="st16" d="M443.2,606.8h9.5c0.6,0,1.2,0.5,1.2,1.2v3.7c0,0.6-0.5,1.2-1.2,1.2h-9.5c-0.6,0-1.2-0.5-1.2-1.2V608
	C442,607.4,442.6,606.8,443.2,606.8z"/>
<path class="st16" d="M448.7,614.7h9.5c0.6,0,1.2,0.5,1.2,1.2v3.7c0,0.6-0.5,1.2-1.2,1.2h-9.5c-0.6,0-1.2-0.5-1.2-1.2v-3.7
	C447.5,615.2,448.1,614.7,448.7,614.7z"/>
<path class="st2" d="M457.6,607.6h8.8c0.6,0,1.1,0.5,1.1,1.1v3.5c0,0.6-0.5,1.1-1.1,1.1h-8.8c-0.6,0-1.1-0.5-1.1-1.1v-3.5
	C456.5,608.1,457,607.6,457.6,607.6z"/>
<path class="st16" d="M402,606.3h8.8c0.6,0,1.1,0.5,1.1,1.1v3.5c0,0.6-0.5,1.1-1.1,1.1H402c-0.6,0-1.1-0.5-1.1-1.1v-3.5
	C400.9,606.8,401.4,606.3,402,606.3z"/>
<polygon class="st7" points="383.6,479.7 397.1,479.7 397.1,537.7 357.2,537.7 "/>
<polygon class="st6" points="410.6,479.7 397.1,479.7 397.1,537.7 417,537.7 436.9,537.7 498.6,537.7 498.6,508.7 423.7,508.7 "/>
<polygon class="st23" points="498.6,535.3 498.6,508.7 423.7,508.7 399.9,535.3 "/>
<path class="st8" d="M366.8,519.3h8.5v6.7c0,2.3-1.9,4.2-4.3,4.2l0,0c-2.3,0-4.3-1.9-4.3-4.2V519.3z"/>
<path class="st8" d="M376.9,519.3h8.5v6.7c0,2.3-1.9,4.2-4.3,4.2l0,0c-2.3,0-4.3-1.9-4.3-4.2V519.3z"/>
<path class="st8" d="M387.1,519.3h8.5v6.7c0,2.3-1.9,4.2-4.3,4.2l0,0c-2.3,0-4.3-1.9-4.3-4.2V519.3z"/>
<path class="st6" d="M371.7,513.9h8.5v6.7c0,2.3-1.9,4.2-4.3,4.2l0,0c-2.3,0-4.3-1.9-4.3-4.2V513.9z"/>
<path class="st6" d="M381.2,513.9h8.5v6.7c0,2.3-1.9,4.2-4.3,4.2l0,0c-2.3,0-4.3-1.9-4.3-4.2V513.9z"/>
<path class="st8" d="M375.9,508.4h8.5v6.7c0,2.3-1.9,4.2-4.3,4.2l0,0c-2.3,0-4.3-1.9-4.3-4.2V508.4z"/>
<path class="st8" d="M385.4,508.4h8.5v6.7c0,2.3-1.9,4.2-4.3,4.2l0,0c-2.3,0-4.3-1.9-4.3-4.2V508.4z"/>
<rect x="379.4" y="476.4" class="st9" width="35.3" height="8.4"/>
<rect x="379.4" y="482.4" class="st12" width="35.3" height="2.5"/>
<polygon class="st24" points="391.7,407.3 397.1,407.3 397.1,476.4 381.3,476.4 "/>
<polygon class="st6" points="402.4,407.3 397.1,407.3 397.1,476.4 412.9,476.4 "/>
<rect x="397.1" y="348.5" class="st6" width="3" height="58.8"/>
<polygon class="st13" points="493.3,356.3 445.9,360.2 398.6,364.1 398.6,356.3 398.6,348.5 445.9,352.4 "/>
<rect x="367.7" y="537.7" class="st0" width="130.9" height="7.1"/>
<path class="st5" d="M383.4,549.7L383.4,549.7c2.3,0,4.1,1.9,4.1,4.1v11.2h-8.3v-11.2C379.2,551.6,381.1,549.7,383.4,549.7z"/>
<path class="st16" d="M385.2,542.3v5.6c0,0.3-0.3,0.6-0.6,0.6h-2.5c-0.3,0-0.6-0.3-0.6-0.6v-5.6c0-0.3,0.3-0.6,0.6-0.6h2.5
	C385,541.7,385.2,542,385.2,542.3z"/>
<path class="st16" d="M380.9,545.1v3.2c0,0.2-0.1,0.3-0.3,0.3h-1.4c-0.2,0-0.3-0.2-0.3-0.3v-3.2c0-0.2,0.1-0.3,0.3-0.3h1.4
	C380.7,544.7,380.9,544.9,380.9,545.1z"/>
<path class="st16" d="M387.9,545.1v3.2c0,0.2-0.1,0.3-0.3,0.3h-1.4c-0.2,0-0.3-0.2-0.3-0.3v-3.2c0-0.2,0.1-0.3,0.3-0.3h1.4
	C387.8,544.7,387.9,544.9,387.9,545.1z"/>
<path class="st5" d="M378.4,571.8h5.6c0.3,0,0.4-0.3,0.3-0.6l-1.5-2.5c-0.2-0.3-0.6-0.6-0.9-0.6h-5.6c-0.3,0-0.4,0.3-0.3,0.6
	l1.5,2.5C377.7,571.5,378.1,571.8,378.4,571.8z"/>
<path class="st5" d="M386.3,571.8h5.6c0.3,0,0.4-0.3,0.3-0.6l-1.5-2.5c-0.2-0.3-0.6-0.6-0.9-0.6h-5.6c-0.3,0-0.4,0.3-0.3,0.6
	l1.5,2.5C385.6,571.5,386,571.8,386.3,571.8z"/>
<path class="st15" d="M376.3,565.8h5.6c0.3,0,0.6,0.3,0.6,0.6v2.5c0,0.3-0.3,0.6-0.6,0.6h-5.6c-0.3,0-0.6-0.3-0.6-0.6v-2.5
	C375.7,566.1,375.9,565.8,376.3,565.8z"/>
<path class="st16" d="M384.2,565.8h5.6c0.3,0,0.6,0.3,0.6,0.6v2.5c0,0.3-0.3,0.6-0.6,0.6h-5.6c-0.3,0-0.6-0.3-0.6-0.6v-2.5
	C383.6,566.1,383.9,565.8,384.2,565.8z"/>
<path class="st5" d="M408.2,549.7L408.2,549.7c2.3,0,4.1,1.9,4.1,4.1v11.2H404v-11.2C404,551.6,405.9,549.7,408.2,549.7z"/>
<path class="st16" d="M410,542.3v5.6c0,0.3-0.3,0.6-0.6,0.6h-2.5c-0.3,0-0.6-0.3-0.6-0.6v-5.6c0-0.3,0.3-0.6,0.6-0.6h2.5
	C409.7,541.7,410,542,410,542.3z"/>
<path class="st16" d="M405.7,545.1v3.2c0,0.2-0.1,0.3-0.3,0.3h-1.4c-0.2,0-0.3-0.2-0.3-0.3v-3.2c0-0.2,0.1-0.3,0.3-0.3h1.4
	C405.5,544.7,405.7,544.9,405.7,545.1z"/>
<path class="st16" d="M412.7,545.1v3.2c0,0.2-0.1,0.3-0.3,0.3H411c-0.2,0-0.3-0.2-0.3-0.3v-3.2c0-0.2,0.1-0.3,0.3-0.3h1.4
	C412.6,544.7,412.7,544.9,412.7,545.1z"/>
<path class="st5" d="M403.2,571.8h5.6c0.3,0,0.4-0.3,0.3-0.6l-1.5-2.5c-0.2-0.3-0.6-0.6-0.9-0.6H401c-0.3,0-0.4,0.3-0.3,0.6l1.5,2.5
	C402.4,571.5,402.8,571.8,403.2,571.8z"/>
<path class="st5" d="M411.1,571.8h5.6c0.3,0,0.4-0.3,0.3-0.6l-1.5-2.5c-0.2-0.3-0.6-0.6-0.9-0.6H409c-0.3,0-0.4,0.3-0.3,0.6l1.5,2.5
	C410.4,571.5,410.8,571.8,411.1,571.8z"/>
<path class="st15" d="M401,565.8h5.6c0.3,0,0.6,0.3,0.6,0.6v2.5c0,0.3-0.3,0.6-0.6,0.6H401c-0.3,0-0.6-0.3-0.6-0.6v-2.5
	C400.4,566.1,400.7,565.8,401,565.8z"/>
<path class="st16" d="M409,565.8h5.6c0.3,0,0.6,0.3,0.6,0.6v2.5c0,0.3-0.3,0.6-0.6,0.6H409c-0.3,0-0.6-0.3-0.6-0.6v-2.5
	C408.4,566.1,408.6,565.8,409,565.8z"/>
<path class="st5" d="M432.9,549.7L432.9,549.7c2.3,0,4.1,1.9,4.1,4.1v11.2h-8.3v-11.2C428.8,551.6,430.7,549.7,432.9,549.7z"/>
<path class="st16" d="M434.8,542.3v5.6c0,0.3-0.3,0.6-0.6,0.6h-2.5c-0.3,0-0.6-0.3-0.6-0.6v-5.6c0-0.3,0.3-0.6,0.6-0.6h2.5
	C434.5,541.7,434.8,542,434.8,542.3z"/>
<path class="st16" d="M430.4,545.1v3.2c0,0.2-0.1,0.3-0.3,0.3h-1.4c-0.2,0-0.3-0.2-0.3-0.3v-3.2c0-0.2,0.1-0.3,0.3-0.3h1.4
	C430.3,544.7,430.4,544.9,430.4,545.1z"/>
<path class="st16" d="M437.5,545.1v3.2c0,0.2-0.1,0.3-0.3,0.3h-1.4c-0.2,0-0.3-0.2-0.3-0.3v-3.2c0-0.2,0.1-0.3,0.3-0.3h1.4
	C437.3,544.7,437.5,544.9,437.5,545.1z"/>
<path class="st5" d="M427.9,571.8h5.6c0.3,0,0.4-0.3,0.3-0.6l-1.5-2.5c-0.2-0.3-0.6-0.6-0.9-0.6h-5.6c-0.3,0-0.4,0.3-0.3,0.6
	l1.5,2.5C427.2,571.5,427.6,571.8,427.9,571.8z"/>
<path class="st5" d="M435.9,571.8h5.6c0.3,0,0.4-0.3,0.3-0.6l-1.5-2.5c-0.2-0.3-0.6-0.6-0.9-0.6h-5.6c-0.3,0-0.4,0.3-0.3,0.6
	l1.5,2.5C435.1,571.5,435.6,571.8,435.9,571.8z"/>
<path class="st15" d="M425.8,565.8h5.6c0.3,0,0.6,0.3,0.6,0.6v2.5c0,0.3-0.3,0.6-0.6,0.6h-5.6c-0.3,0-0.6-0.3-0.6-0.6v-2.5
	C425.2,566.1,425.5,565.8,425.8,565.8z"/>
<path class="st16" d="M433.7,565.8h5.6c0.3,0,0.6,0.3,0.6,0.6v2.5c0,0.3-0.3,0.6-0.6,0.6h-5.6c-0.3,0-0.6-0.3-0.6-0.6v-2.5
	C433.1,566.1,433.4,565.8,433.7,565.8z"/>
<path class="st5" d="M457.7,549.7L457.7,549.7c2.3,0,4.1,1.9,4.1,4.1v11.2h-8.3v-11.2C453.6,551.6,455.4,549.7,457.7,549.7z"/>
<path class="st16" d="M459.6,542.3v5.6c0,0.3-0.3,0.6-0.6,0.6h-2.5c-0.3,0-0.6-0.3-0.6-0.6v-5.6c0-0.3,0.3-0.6,0.6-0.6h2.5
	C459.3,541.7,459.6,542,459.6,542.3z"/>
<path class="st16" d="M455.2,545.1v3.2c0,0.2-0.1,0.3-0.3,0.3h-1.4c-0.2,0-0.3-0.2-0.3-0.3v-3.2c0-0.2,0.1-0.3,0.3-0.3h1.4
	C455.1,544.7,455.2,544.9,455.2,545.1z"/>
<path class="st16" d="M462.3,545.1v3.2c0,0.2-0.1,0.3-0.3,0.3h-1.4c-0.2,0-0.3-0.2-0.3-0.3v-3.2c0-0.2,0.1-0.3,0.3-0.3h1.4
	C462.1,544.7,462.3,544.9,462.3,545.1z"/>
<path class="st5" d="M452.7,571.8h5.6c0.3,0,0.4-0.3,0.3-0.6l-1.5-2.5c-0.2-0.3-0.6-0.6-0.9-0.6h-5.6c-0.3,0-0.4,0.3-0.3,0.6
	l1.5,2.5C452,571.5,452.4,571.8,452.7,571.8z"/>
<path class="st5" d="M460.7,571.8h5.6c0.3,0,0.4-0.3,0.3-0.6l-1.5-2.5c-0.2-0.3-0.6-0.6-0.9-0.6h-5.6c-0.3,0-0.4,0.3-0.3,0.6
	l1.5,2.5C459.9,571.5,460.3,571.8,460.7,571.8z"/>
<path class="st15" d="M450.6,565.8h5.6c0.3,0,0.6,0.3,0.6,0.6v2.5c0,0.3-0.3,0.6-0.6,0.6h-5.6c-0.3,0-0.6-0.3-0.6-0.6v-2.5
	C450,566.1,450.3,565.8,450.6,565.8z"/>
<path class="st16" d="M458.5,565.8h5.6c0.3,0,0.6,0.3,0.6,0.6v2.5c0,0.3-0.3,0.6-0.6,0.6h-5.6c-0.3,0-0.6-0.3-0.6-0.6v-2.5
	C457.9,566.1,458.2,565.8,458.5,565.8z"/>
<path class="st5" d="M482.5,549.7L482.5,549.7c2.3,0,4.1,1.9,4.1,4.1v11.2h-8.3v-11.2C478.3,551.6,480.2,549.7,482.5,549.7z"/>
<path class="st16" d="M484.3,542.3v5.6c0,0.3-0.3,0.6-0.6,0.6h-2.5c-0.3,0-0.6-0.3-0.6-0.6v-5.6c0-0.3,0.3-0.6,0.6-0.6h2.5
	C484.1,541.7,484.3,542,484.3,542.3z"/>
<path class="st16" d="M480,545.1v3.2c0,0.2-0.1,0.3-0.3,0.3h-1.4c-0.2,0-0.3-0.2-0.3-0.3v-3.2c0-0.2,0.1-0.3,0.3-0.3h1.4
	C479.9,544.7,480,544.9,480,545.1z"/>
<path class="st16" d="M487,545.1v3.2c0,0.2-0.1,0.3-0.3,0.3h-1.4c-0.2,0-0.3-0.2-0.3-0.3v-3.2c0-0.2,0.1-0.3,0.3-0.3h1.4
	C486.9,544.7,487,544.9,487,545.1z"/>
<path class="st5" d="M477.5,571.8h5.6c0.3,0,0.4-0.3,0.3-0.6l-1.5-2.5c-0.2-0.3-0.6-0.6-0.9-0.6h-5.6c-0.3,0-0.4,0.3-0.3,0.6
	l1.5,2.5C476.8,571.5,477.2,571.8,477.5,571.8z"/>
<path class="st5" d="M485.4,571.8h5.6c0.3,0,0.4-0.3,0.3-0.6l-1.5-2.5c-0.2-0.3-0.6-0.6-0.9-0.6h-5.6c-0.3,0-0.4,0.3-0.3,0.6
	l1.5,2.5C484.7,571.5,485.1,571.8,485.4,571.8z"/>
<path class="st15" d="M475.4,565.8h5.6c0.3,0,0.6,0.3,0.6,0.6v2.5c0,0.3-0.3,0.6-0.6,0.6h-5.6c-0.3,0-0.6-0.3-0.6-0.6v-2.5
	C474.8,566.1,475,565.8,475.4,565.8z"/>
<path class="st16" d="M483.3,565.8h5.6c0.3,0,0.6,0.3,0.6,0.6v2.5c0,0.3-0.3,0.6-0.6,0.6h-5.6c-0.3,0-0.6-0.3-0.6-0.6v-2.5
	C482.7,566.1,483,565.8,483.3,565.8z"/>
<path class="st16" d="M372.5,715.5h9.5c0.6,0,1.2,0.5,1.2,1.2v3.7c0,0.6-0.5,1.2-1.2,1.2h-9.5c-0.6,0-1.2-0.5-1.2-1.2v-3.7
	C371.3,716,371.8,715.5,372.5,715.5z"/>
<path class="st16" d="M364.7,705.5h9.5c0.6,0,1.2,0.5,1.2,1.2v3.7c0,0.6-0.5,1.2-1.2,1.2h-9.5c-0.6,0-1.2-0.5-1.2-1.2v-3.7
	C363.5,706.1,364,705.5,364.7,705.5z"/>
<path class="st16" d="M379.8,705.5h9.5c0.6,0,1.2,0.5,1.2,1.2v3.7c0,0.6-0.5,1.2-1.2,1.2h-9.5c-0.6,0-1.2-0.5-1.2-1.2v-3.7
	C378.6,706.1,379.1,705.5,379.8,705.5z"/>
<path class="st15" d="M367.4,667h9.5c0.6,0,1.2,0.5,1.2,1.2v3.7c0,0.6-0.5,1.2-1.2,1.2h-9.5c-0.6,0-1.2-0.5-1.2-1.2v-3.7
	C366.2,667.5,366.8,667,367.4,667z"/>
<path class="st15" d="M375.3,674.5h9.5c0.6,0,1.2,0.5,1.2,1.2v3.7c0,0.6-0.5,1.2-1.2,1.2h-9.5c-0.6,0-1.2-0.5-1.2-1.2v-3.7
	C374.1,675,374.7,674.5,375.3,674.5z"/>
<path class="st15" d="M381.5,666.9h9.5c0.6,0,1.2,0.5,1.2,1.2v3.7c0,0.6-0.5,1.2-1.2,1.2h-9.5c-0.6,0-1.2-0.5-1.2-1.2v-3.7
	C380.3,667.5,380.8,666.9,381.5,666.9z"/>
<path class="st16" d="M404.5,684.5h9.5c0.6,0,1.2,0.5,1.2,1.2v3.7c0,0.6-0.5,1.2-1.2,1.2h-9.5c-0.6,0-1.2-0.5-1.2-1.2v-3.7
	C403.3,685,403.8,684.5,404.5,684.5z"/>
<path class="st2" d="M1051.7,568h46.3V612c0-13.9-11.4-25.2-25.2-25.2h-21.1H947.2h-21.1c-13.9,0-25.2,11.4-25.2,25.2V568h46.3
	H1051.7z"/>
<path class="st0" d="M956.3,586.7h-9.1h-21.1c-13.9,0-25.2,11.4-25.2,25.2v-39.5h55.4V586.7z"/>
<rect x="900.9" y="568" class="st0" width="197" height="4.4"/>
<polygon class="st7" points="1112.9,356.2 1124.4,356.2 1124.4,405.6 1090.5,405.6 "/>
<polygon class="st6" points="1135.8,356.2 1124.4,356.2 1124.4,405.6 1158.3,405.6 "/>
<path class="st8" d="M1098.6,389.9h7.3v5.7c0,2-1.6,3.6-3.6,3.6l0,0c-2,0-3.6-1.6-3.6-3.6V389.9z"/>
<path class="st8" d="M1107.2,389.9h7.2v5.7c0,2-1.6,3.6-3.6,3.6l0,0c-2,0-3.6-1.6-3.6-3.6V389.9z"/>
<path class="st8" d="M1115.9,389.9h7.2v5.7c0,2-1.6,3.6-3.6,3.6l0,0c-2,0-3.6-1.6-3.6-3.6V389.9z"/>
<path class="st6" d="M1102.7,385.3h7.3v5.7c0,2-1.6,3.6-3.6,3.6l0,0c-2,0-3.6-1.6-3.6-3.6V385.3z"/>
<path class="st6" d="M1110.9,385.3h7.3v5.7c0,2-1.6,3.6-3.6,3.6l0,0c-2,0-3.6-1.6-3.6-3.6V385.3z"/>
<path class="st8" d="M1106.4,380.6h7.2v5.7c0,2-1.6,3.6-3.6,3.6l0,0c-2,0-3.6-1.6-3.6-3.6V380.6z"/>
<path class="st8" d="M1114.4,380.6h7.2v5.7c0,2-1.6,3.6-3.6,3.6l0,0c-2,0-3.6-1.6-3.6-3.6V380.6z"/>
<rect x="1109.3" y="353.4" class="st9" width="30" height="7.2"/>
<rect x="1109.3" y="358.5" class="st12" width="30" height="2.1"/>
<polygon class="st7" points="1119.8,294.6 1124.4,294.6 1124.4,353.4 1110.9,353.4 "/>
<polygon class="st6" points="1128.9,294.6 1124.4,294.6 1124.4,353.4 1137.8,353.4 "/>
<rect x="1124.4" y="244.6" class="st6" width="2.6" height="50"/>
<polygon class="st13" points="1247.2,253.2 1187.1,257.6 1126.9,261.9 1126.9,253.2 1126.9,244.6 1187.1,248.9 "/>
<rect x="1018.2" y="568" class="st0" width="3.8" height="18.7"/>
<path class="st6" d="M940,511.9h127.2c0.2,8.5,6.1,15.5,14.1,17.4v4.4H926v-4.4C933.9,527.4,939.9,520.3,940,511.9z"/>
<path class="st25" d="M940,511.9h127.2c0,1.3,0.2,2.5,0.5,3.7H939.6C939.9,514.4,940,513.1,940,511.9z"/>
<path class="st7" d="M955.7,511.9h4c0.2,8.5,6.1,15.5,14.1,17.4v4.4h-32.2v-4.4C949.5,527.4,955.5,520.3,955.7,511.9z"/>
<path class="st7" d="M987.8,511.9h4.1c0.2,8.5,6.1,15.5,14.1,17.4v4.4h-32.2v-4.4C981.7,527.4,987.6,520.3,987.8,511.9z"/>
<path class="st7" d="M1020,511.9h4c0.2,8.5,6.1,15.5,14.1,17.4v4.4h-32.2v-4.4C1013.9,527.4,1019.8,520.3,1020,511.9z"/>
<path class="st7" d="M1052.1,511.9h4c0.2,8.5,6.1,15.5,14.1,17.4v4.4h-32.2v-4.4C1046,527.4,1051.9,520.3,1052.1,511.9z"/>
<path class="st6" d="M1020.9,519.8h2.2c0.1,4.5,3.3,8.3,7.5,9.3v2.3h-17.2v-2.3C1017.6,528.1,1020.8,524.3,1020.9,519.8z"/>
<path class="st6" d="M1053.1,519.8h2.2c0.1,4.5,3.3,8.3,7.5,9.3v2.3h-17.2v-2.3C1049.8,528.1,1053,524.3,1053.1,519.8z"/>
<path class="st6" d="M988.8,519.8h2.2c0.1,4.5,3.3,8.3,7.5,9.3v2.3h-17.2v-2.3C985.5,528.1,988.6,524.3,988.8,519.8z"/>
<path class="st6" d="M956.6,519.8h2.2c0.1,4.5,3.3,8.3,7.5,9.3v2.3h-17.2v-2.3C953.3,528.1,956.5,524.3,956.6,519.8z"/>
<rect x="935" y="506.6" class="st9" width="139.6" height="5.3"/>
<rect x="935" y="506.6" class="st10" width="4.7" height="5.3"/>
<path class="st7" d="M436.8,497.7h4.1c0.2,8.5,6.1,15.5,14.1,17.4v4.4h-32.2v-4.4C430.6,513.2,436.6,506.2,436.8,497.7z"/>
<path class="st6" d="M437.7,505.6h2.2c0.1,4.5,3.3,8.3,7.5,9.3v2.3h-17.2v-2.3C434.4,513.9,437.6,510.1,437.7,505.6z"/>
<path class="st7" d="M473.5,497.7h4.1c0.2,8.5,6.1,15.5,14.1,17.4v4.4h-32.2v-4.4C467.3,513.2,473.3,506.2,473.5,497.7z"/>
<path class="st6" d="M474.4,505.6h2.2c0.1,4.5,3.3,8.3,7.5,9.3v2.3h-17.2v-2.3C471.1,513.9,474.3,510.1,474.4,505.6z"/>
<rect x="935.4" y="533.7" class="st0" width="136.5" height="6.3"/>
<path class="st5" d="M951.9,535.6L951.9,535.6c1.8,0,3.2,1.4,3.2,3.2v8.7h-6.4v-8.7C948.7,537.1,950.1,535.6,951.9,535.6z"/>
<path class="st5" d="M969.3,535.6L969.3,535.6c1.8,0,3.2,1.4,3.2,3.2v8.7h-6.4v-8.7C966.1,537.1,967.6,535.6,969.3,535.6z"/>
<path class="st5" d="M986.8,535.6L986.8,535.6c1.8,0,3.2,1.4,3.2,3.2v8.7h-6.4v-8.7C983.6,537.1,985,535.6,986.8,535.6z"/>
<path class="st5" d="M1004.3,535.6L1004.3,535.6c1.8,0,3.2,1.4,3.2,3.2v8.7h-6.4v-8.7C1001,537.1,1002.5,535.6,1004.3,535.6z"/>
<path class="st5" d="M1021.7,535.6L1021.7,535.6c1.8,0,3.2,1.4,3.2,3.2v8.7h-6.4v-8.7C1018.5,537.1,1019.9,535.6,1021.7,535.6z"/>
<path class="st5" d="M1039.2,535.6L1039.2,535.6c1.8,0,3.2,1.4,3.2,3.2v8.7h-6.4v-8.7C1035.9,537.1,1037.4,535.6,1039.2,535.6z"/>
<path class="st5" d="M1056.6,535.6L1056.6,535.6c1.8,0,3.2,1.4,3.2,3.2v8.7h-6.4v-8.7C1053.4,537.1,1054.9,535.6,1056.6,535.6z"/>
<polygon class="st20" points="974.3,568 1018.2,568 1018.2,669.9 1007.2,661.5 996.3,653.2 985.3,661.5 974.3,669.9 "/>
<rect x="969.6" y="562.2" class="st21" width="53.3" height="5.8"/>
<path class="st22" d="M998.5,595.4v33.4l-1.2,5.8l-1.2,5.8l-1.2-5.8l-1.2-5.8v-33.4h-6.2v1.4h-1.8v-6h1.8v1.4h6.2h1.1v-9.4
	c-1-0.5-1.7-1.6-1.7-2.9c0-1.8,1.4-3.2,3.2-3.2c1.8,0,3.2,1.4,3.2,3.2c0,1.2-0.7,2.3-1.7,2.9v9.4h0.8h6.6v-1.4h1.8v6h-1.8v-1.4
	H998.5z"/>
<path class="st5" d="M1124.3,424.3L1124.3,424.3c2.7,0,4.8,2.2,4.8,4.8v13.1h-9.7v-13.1C1119.5,426.5,1121.7,424.3,1124.3,424.3z"/>
<path class="st16" d="M1126.5,415.7v6.6c0,0.4-0.3,0.7-0.7,0.7h-3c-0.4,0-0.7-0.3-0.7-0.7v-6.6c0-0.4,0.3-0.7,0.7-0.7h3
	C1126.2,415,1126.5,415.3,1126.5,415.7z"/>
<path class="st16" d="M1121.4,418.9v3.7c0,0.2-0.2,0.4-0.4,0.4h-1.7c-0.2,0-0.4-0.2-0.4-0.4v-3.7c0-0.2,0.2-0.4,0.4-0.4h1.7
	C1121.3,418.5,1121.4,418.6,1121.4,418.9z"/>
<path class="st16" d="M1129.7,418.9v3.7c0,0.2-0.2,0.4-0.4,0.4h-1.7c-0.2,0-0.4-0.2-0.4-0.4v-3.7c0-0.2,0.2-0.4,0.4-0.4h1.7
	C1129.5,418.5,1129.7,418.6,1129.7,418.9z"/>
<path class="st5" d="M1118.5,450.1h6.6c0.4,0,0.5-0.3,0.3-0.7l-1.7-3c-0.2-0.4-0.7-0.7-1.1-0.7h-6.6c-0.4,0-0.5,0.3-0.3,0.7l1.7,3
	C1117.6,449.8,1118.1,450.1,1118.5,450.1z"/>
<path class="st5" d="M1127.8,450.1h6.6c0.4,0,0.5-0.3,0.3-0.7l-1.7-3c-0.2-0.4-0.7-0.7-1.1-0.7h-6.6c-0.4,0-0.5,0.3-0.3,0.7l1.7,3
	C1126.9,449.8,1127.4,450.1,1127.8,450.1z"/>
<path class="st15" d="M1116,443.2h6.6c0.4,0,0.7,0.3,0.7,0.7v3c0,0.4-0.3,0.7-0.7,0.7h-6.6c-0.4,0-0.7-0.3-0.7-0.7v-3
	C1115.3,443.5,1115.6,443.2,1116,443.2z"/>
<path class="st16" d="M1125.3,443.2h6.6c0.4,0,0.7,0.3,0.7,0.7v3c0,0.4-0.3,0.7-0.7,0.7h-6.6c-0.4,0-0.7-0.3-0.7-0.7v-3
	C1124.6,443.5,1124.9,443.2,1125.3,443.2z"/>
<rect x="1092.8" y="462.3" class="st16" width="61.1" height="7.2"/>
<rect x="1097.6" y="469.5" class="st0" width="53.6" height="4.8"/>
<path class="st16" d="M1105.9,589.5h9.5c0.6,0,1.2,0.5,1.2,1.2v3.7c0,0.6-0.5,1.2-1.2,1.2h-9.5c-0.6,0-1.2-0.5-1.2-1.2v-3.7
	C1104.7,590,1105.2,589.5,1105.9,589.5z"/>
<path class="st16" d="M1112,598.4h9.5c0.6,0,1.2,0.5,1.2,1.2v3.7c0,0.6-0.5,1.2-1.2,1.2h-9.5c-0.6,0-1.2-0.5-1.2-1.2v-3.7
	C1110.9,599,1111.4,598.4,1112,598.4z"/>
<path class="st15" d="M1114.9,550.4h17.1c1.2,0,2.1,0.9,2.1,2.1v6.7c0,1.2-0.9,2.1-2.1,2.1h-17.1c-1.2,0-2.1-0.9-2.1-2.1v-6.7
	C1112.8,551.3,1113.7,550.4,1114.9,550.4z"/>
<path class="st15" d="M1107.1,542.4h8.5c0.6,0,1.1,0.5,1.1,1.1v3.3c0,0.6-0.5,1.1-1.1,1.1h-8.5c-0.6,0-1.1-0.5-1.1-1.1v-3.3
	C1106,542.9,1106.5,542.4,1107.1,542.4z"/>
<path class="st15" d="M1119.8,498.9h12.5c0.9,0,1.5,0.7,1.5,1.5v4.9c0,0.9-0.7,1.5-1.5,1.5h-12.5c-0.9,0-1.5-0.7-1.5-1.5v-4.9
	C1118.2,499.6,1118.9,498.9,1119.8,498.9z"/>
<path class="st16" d="M1108.9,487.8h12.5c0.9,0,1.5,0.7,1.5,1.5v4.9c0,0.9-0.7,1.5-1.5,1.5h-12.5c-0.9,0-1.5-0.7-1.5-1.5v-4.9
	C1107.3,488.5,1108,487.8,1108.9,487.8z"/>
<polygon class="st20" points="542,669.5 565.6,669.5 565.6,724.2 559.7,719.7 553.8,715.2 547.9,719.7 542,724.2 "/>
<rect x="539.5" y="666.3" class="st21" width="28.6" height="3.1"/>
<path class="st22" d="M555,684.2v17.9l-0.7,3.1l-0.6,3.1l-0.6-3.1l-0.7-3.1v-17.9h-3.4v0.7h-1v-3.2h1v0.7h3.4h0.6v-5
	c-0.6-0.3-0.9-0.9-0.9-1.5c0-1,0.8-1.7,1.7-1.7c1,0,1.7,0.8,1.7,1.7c0,0.7-0.4,1.2-0.9,1.5v5h0.4h3.5v-0.7h1v3.2h-1v-0.7H555z"/>
<polygon class="st5" points="784.1,698 760.4,698 760.4,734.9 766.3,730.4 772.2,725.9 778.2,730.4 784.1,734.9 "/>
<polygon class="st20" points="753.4,669.5 777,669.5 777,724.2 771.1,719.7 765.2,715.2 759.3,719.7 753.4,724.2 "/>
<rect x="750.9" y="666.3" class="st21" width="28.6" height="3.1"/>
<path class="st22" d="M766.5,684.2v17.9l-0.7,3.1l-0.6,3.1l-0.6-3.1l-0.7-3.1v-17.9h-3.4v0.7h-1v-3.2h1v0.7h3.4h0.6v-5
	c-0.6-0.3-0.9-0.9-0.9-1.5c0-1,0.8-1.7,1.7-1.7c1,0,1.7,0.8,1.7,1.7c0,0.7-0.4,1.2-0.9,1.5v5h0.4h3.5v-0.7h1v3.2h-1v-0.7H766.5z"/>
<path class="st5" d="M489.4,846.2c7,8.5,20,27.5,10,40.1h-10h-10c-0.3-0.3-0.5-0.7-0.8-1c-0.2,0.3-0.5,0.7-0.7,1h-6.9h-6.9
	c-7-8.7,2.1-21.8,6.9-27.7c1.8,2.2,4.1,5.3,6,8.9C479.7,859.1,485.5,851,489.4,846.2z"/>
<path class="st0" d="M557.5,822.3c-11.2,13.6-32,44-15.9,64h15.9h15.9C589.5,866.2,568.6,835.9,557.5,822.3z"/>
<g>
	<path class="st26" d="M546.6,822.3c-11.2,13.6-32,44-15.9,64h15.9V822.3z"/>
	<path class="st26" d="M546.6,822.3c11.2,13.6,32,44,15.9,64h-15.9V822.3z"/>
</g>
<g>
	<path class="st26" d="M482.7,846.2c-7,8.5-20,27.5-10,40.1h10V846.2z"/>
	<path class="st26" d="M482.7,846.2c7,8.5,20,27.5,10,40.1h-10V846.2z"/>
</g>
<g>
	<path class="st26" d="M464.4,858.6c-4.8,5.9-13.8,19-6.9,27.7h6.9V858.6z"/>
	<path class="st26" d="M464.4,858.6c4.8,5.9,13.8,19,6.9,27.7h-6.9V858.6z"/>
</g>
<path class="st0" d="M810.7,849.9c6.2,7.6,17.8,24.4,8.8,35.5h-8.8h-8.8C793,874.3,804.5,857.5,810.7,849.9L810.7,849.9z
	 M775.5,830.8c-9.5,11.6-27.3,37.5-13.6,54.6h13.6h13.6C802.8,868.3,785.1,842.5,775.5,830.8z"/>
<g>
	<path class="st26" d="M767.6,830.8c-9.5,11.6-27.3,37.5-13.6,54.6h13.6V830.8z"/>
	<path class="st26" d="M767.6,830.8c9.5,11.6,27.3,37.5,13.6,54.6h-13.6V830.8z"/>
</g>
<g>
	<path class="st26" d="M802.8,849.9c-6.2,7.6-17.7,24.4-8.8,35.5h8.8V849.9z"/>
	<path class="st26" d="M802.8,849.9c6.2,7.6,17.8,24.4,8.8,35.5h-8.8V849.9z"/>
</g>
<rect x="682.5" y="306.1" class="st23" width="28.3" height="8.7"/>
<rect x="498.6" y="400.1" class="st23" width="16.6" height="6"/>
<path class="st19" d="M319.2,772.7h15.4c1,0,1.9,0.9,1.9,1.9v6c0,1-0.9,1.9-1.9,1.9h-15.4c-1,0-1.9-0.9-1.9-1.9v-6
	C317.3,773.6,318.2,772.7,319.2,772.7z"/>
<path class="st19" d="M334.1,784.5h10.8c0.7,0,1.3,0.6,1.3,1.3v4.2c0,0.7-0.6,1.3-1.3,1.3h-10.8c-0.7,0-1.3-0.6-1.3-1.3v-4.2
	C332.8,785.1,333.4,784.5,334.1,784.5z"/>
<path class="st19" d="M324.3,793.4h10.8c0.7,0,1.3,0.6,1.3,1.3v4.2c0,0.7-0.6,1.3-1.3,1.3h-10.8c-0.7,0-1.3-0.6-1.3-1.3v-4.2
	C323,794,323.6,793.4,324.3,793.4z"/>
<path class="st19" d="M339.9,775.6h10.8c0.7,0,1.3,0.6,1.3,1.3v4.2c0,0.7-0.6,1.3-1.3,1.3h-10.8c-0.7,0-1.3-0.6-1.3-1.3V777
	C338.5,776.2,339.1,775.6,339.9,775.6z"/>
<path class="st19" d="M355.1,775.6h10.8c0.7,0,1.3,0.6,1.3,1.3v4.2c0,0.7-0.6,1.3-1.3,1.3h-10.8c-0.7,0-1.3-0.6-1.3-1.3V777
	C353.8,776.2,354.4,775.6,355.1,775.6z"/>
<rect x="394.4" y="407.3" class="st9" width="5.5" height="130.4"/>
<rect x="354.4" y="535.3" class="st9" width="144.3" height="5.5"/>
<rect x="621.1" y="235.9" class="st9" width="5.5" height="111"/>
<rect x="585.1" y="344.2" class="st9" width="77.2" height="5.5"/>
<rect x="599" y="349.7" class="st0" width="50" height="5.2"/>
<rect x="510.5" y="264.4" class="st0" width="52.3" height="5.2"/>
<rect x="534.2" y="195.7" class="st9" width="2.7" height="59"/>
<rect x="741.3" y="50" class="st9" width="2.7" height="111"/>
<rect x="703.8" y="155.5" class="st9" width="77.2" height="5.5"/>
<rect x="717.7" y="161" class="st0" width="50" height="5.2"/>
<rect x="1123.1" y="294.6" class="st9" width="2.7" height="111"/>
<rect x="1085" y="400.1" class="st9" width="77.2" height="5.5"/>
<rect x="1097.6" y="405.6" class="st0" width="53.6" height="5.2"/>
<g>
	<rect x="191.5" y="454.5" class="st6" width="1.8" height="34.8"/>
	<polygon class="st13" points="235.1,460.5 214.2,463.5 193.3,466.5 193.3,460.5 193.3,454.5 214.2,457.5 	"/>
	<polygon class="st7" points="192.4,484.5 192.4,527.3 171.1,527.3 	"/>
	<path class="st8" d="M181.8,513.4h6.2v4.9c0,1.7-1.4,3.1-3.1,3.1l0,0c-1.7,0-3.1-1.4-3.1-3.1V513.4z"/>
	<path class="st8" d="M189.2,513.4h6.2v4.9c0,1.7-1.4,3.1-3.1,3.1l0,0c-1.7,0-3.1-1.4-3.1-3.1V513.4z"/>
	<path class="st8" d="M196.7,513.4h6.2v4.9c0,1.7-1.4,3.1-3.1,3.1l0,0c-1.7,0-3.1-1.4-3.1-3.1V513.4z"/>
	<path class="st6" d="M185.4,509.4h6.2v4.9c0,1.7-1.4,3.1-3.1,3.1l0,0c-1.7,0-3.1-1.4-3.1-3.1V509.4z"/>
	<path class="st6" d="M192.4,509.4h6.2v4.9c0,1.7-1.4,3.1-3.1,3.1l0,0c-1.7,0-3.1-1.4-3.1-3.1V509.4z"/>
	<path class="st8" d="M188.5,505.4h6.2v4.9c0,1.7-1.4,3.1-3.1,3.1l0,0c-1.7,0-3.1-1.4-3.1-3.1V505.4z"/>
	<path class="st8" d="M195.4,505.4h6.2v4.9c0,1.7-1.4,3.1-3.1,3.1l0,0c-1.7,0-3.1-1.4-3.1-3.1V505.4z"/>
	<polygon class="st6" points="192.4,484.5 192.4,527.3 213.7,527.3 	"/>
	<rect x="167.3" y="533.6" class="st2" width="50" height="136.7"/>
	<rect x="202.8" y="533.6" class="st0" width="14.6" height="136.7"/>
	<path class="st5" d="M192.5,574L192.5,574c3.4,0,6.2,2.8,6.2,6.2v16.9h-12.5v-16.9C186.3,576.8,189.1,574,192.5,574z"/>
	<path class="st16" d="M195.3,562.9v8.5c0,0.5-0.4,0.9-0.9,0.9h-3.8c-0.5,0-0.9-0.4-0.9-0.9v-8.5c0-0.5,0.4-0.9,0.9-0.9h3.8
		C194.9,562,195.3,562.4,195.3,562.9z"/>
	<path class="st16" d="M188.8,567v4.8c0,0.3-0.2,0.5-0.5,0.5h-2.1c-0.3,0-0.5-0.2-0.5-0.5V567c0-0.3,0.2-0.5,0.5-0.5h2.1
		C188.6,566.5,188.8,566.7,188.8,567z"/>
	<path class="st16" d="M199.4,567v4.8c0,0.3-0.2,0.5-0.5,0.5h-2.1c-0.3,0-0.5-0.2-0.5-0.5V567c0-0.3,0.2-0.5,0.5-0.5h2.1
		C199.2,566.5,199.4,566.7,199.4,567z"/>
	<path class="st5" d="M185.1,607.3h8.5c0.5,0,0.7-0.4,0.4-0.9l-2.2-3.8c-0.3-0.5-0.9-0.9-1.4-0.9h-8.5c-0.5,0-0.7,0.4-0.4,0.9
		l2.2,3.8C183.9,606.9,184.6,607.3,185.1,607.3z"/>
	<path class="st5" d="M197,607.3h8.5c0.5,0,0.7-0.4,0.4-0.9l-2.2-3.8c-0.3-0.5-0.9-0.9-1.4-0.9h-8.5c-0.5,0-0.7,0.4-0.4,0.9l2.2,3.8
		C195.9,606.9,196.5,607.3,197,607.3z"/>
	<path class="st15" d="M181.8,598.3h8.5c0.5,0,0.9,0.4,0.9,0.9v3.8c0,0.5-0.4,0.9-0.9,0.9h-8.5c-0.5,0-0.9-0.4-0.9-0.9v-3.8
		C180.9,598.7,181.3,598.3,181.8,598.3z"/>
	<path class="st16" d="M193.8,598.3h8.5c0.5,0,0.9,0.4,0.9,0.9v3.8c0,0.5-0.4,0.9-0.9,0.9h-8.5c-0.5,0-0.9-0.4-0.9-0.9v-3.8
		C192.9,598.7,193.3,598.3,193.8,598.3z"/>
	<rect x="117.8" y="689.2" class="st2" width="149.1" height="197.5"/>
	<rect x="240" y="689.2" class="st0" width="26.9" height="197.5"/>
	<polygon class="st16" points="117.8,670.3 117.8,670.3 117.8,630.9 140.3,630.9 140.3,646 161.6,646 161.6,630.9 181.7,630.9 
		181.7,646 203,646 203,630.9 223.1,630.9 223.1,646 244.4,646 244.4,630.9 266.9,630.9 266.9,670.3 266.9,670.3 285.7,689.2 
		266.9,708.1 117.8,708.1 99,689.2 	"/>
	<polygon class="st27" points="117.8,670.3 117.8,630.9 140.3,630.9 140.3,646 161.6,646 161.6,630.9 181.7,630.9 181.7,646 
		192.4,646 192.4,670.3 	"/>
	<polygon class="st0" points="285.7,689.2 266.9,708.1 117.8,708.1 99,689.2 	"/>
	<polygon class="st0" points="192.4,670.3 266.9,670.3 266.9,630.9 244.4,630.9 244.4,646 223.1,646 223.1,630.9 203,630.9 203,646 
		192.4,646 	"/>
	<path class="st5" d="M154.4,731.4L154.4,731.4c3.4,0,6.2,2.8,6.2,6.2v16.9h-12.5v-16.9C148.2,734.2,151,731.4,154.4,731.4z"/>
	<path class="st16" d="M157.2,720.3v8.5c0,0.5-0.4,0.9-0.9,0.9h-3.8c-0.5,0-0.9-0.4-0.9-0.9v-8.5c0-0.5,0.4-0.9,0.9-0.9h3.8
		C156.8,719.4,157.2,719.8,157.2,720.3z"/>
	<path class="st16" d="M150.7,724.5v4.7c0,0.3-0.2,0.5-0.5,0.5h-2.1c-0.3,0-0.5-0.2-0.5-0.5v-4.7c0-0.3,0.2-0.5,0.5-0.5h2.1
		C150.5,724,150.7,724.2,150.7,724.5z"/>
	<path class="st16" d="M161.3,724.5v4.7c0,0.3-0.2,0.5-0.5,0.5h-2.1c-0.3,0-0.5-0.2-0.5-0.5v-4.7c0-0.3,0.2-0.5,0.5-0.5h2.1
		C161.1,724,161.3,724.2,161.3,724.5z"/>
	<path class="st5" d="M147,764.7h8.5c0.5,0,0.7-0.4,0.4-0.9l-2.2-3.8c-0.3-0.5-0.9-0.9-1.4-0.9h-8.5c-0.5,0-0.7,0.4-0.4,0.9l2.2,3.8
		C145.8,764.3,146.5,764.7,147,764.7z"/>
	<path class="st5" d="M158.9,764.7h8.5c0.5,0,0.7-0.4,0.4-0.9l-2.2-3.8c-0.3-0.5-0.9-0.9-1.4-0.9h-8.5c-0.5,0-0.7,0.4-0.4,0.9
		l2.2,3.8C157.8,764.3,158.4,764.7,158.9,764.7z"/>
	<path class="st15" d="M143.7,755.7h8.5c0.5,0,0.9,0.4,0.9,0.9v3.8c0,0.5-0.4,0.9-0.9,0.9h-8.5c-0.5,0-0.9-0.4-0.9-0.9v-3.8
		C142.8,756.2,143.2,755.7,143.7,755.7z"/>
	<path class="st16" d="M155.7,755.7h8.5c0.5,0,0.9,0.4,0.9,0.9v3.8c0,0.5-0.4,0.9-0.9,0.9h-8.5c-0.5,0-0.9-0.4-0.9-0.9v-3.8
		C154.8,756.2,155.2,755.7,155.7,755.7z"/>
	<path class="st5" d="M219.5,731.4L219.5,731.4c3.4,0,6.2,2.8,6.2,6.2v16.9h-12.5v-16.9C213.2,734.2,216,731.4,219.5,731.4z"/>
	<path class="st16" d="M222.3,720.3v8.5c0,0.5-0.4,0.9-0.9,0.9h-3.8c-0.5,0-0.9-0.4-0.9-0.9v-8.5c0-0.5,0.4-0.9,0.9-0.9h3.8
		C221.9,719.4,222.3,719.8,222.3,720.3z"/>
	<path class="st16" d="M215.7,724.5v4.7c0,0.3-0.2,0.5-0.5,0.5h-2.1c-0.3,0-0.5-0.2-0.5-0.5v-4.7c0-0.3,0.2-0.5,0.5-0.5h2.1
		C215.5,724,215.7,724.2,215.7,724.5z"/>
	<path class="st16" d="M226.3,724.5v4.7c0,0.3-0.2,0.5-0.5,0.5h-2.1c-0.3,0-0.5-0.2-0.5-0.5v-4.7c0-0.3,0.2-0.5,0.5-0.5h2.1
		C226.1,724,226.3,724.2,226.3,724.5z"/>
	<path class="st5" d="M212,764.7h8.5c0.5,0,0.7-0.4,0.4-0.9l-2.2-3.8c-0.3-0.5-0.9-0.9-1.4-0.9h-8.5c-0.5,0-0.7,0.4-0.4,0.9l2.2,3.8
		C210.8,764.3,211.5,764.7,212,764.7z"/>
	<path class="st5" d="M223.9,764.7h8.5c0.5,0,0.7-0.4,0.4-0.9l-2.2-3.8c-0.3-0.5-0.9-0.9-1.4-0.9h-8.5c-0.5,0-0.7,0.4-0.4,0.9
		l2.2,3.8C222.8,764.3,223.4,764.7,223.9,764.7z"/>
	<path class="st15" d="M208.7,755.7h8.5c0.5,0,0.9,0.4,0.9,0.9v3.8c0,0.5-0.4,0.9-0.9,0.9h-8.5c-0.5,0-0.9-0.4-0.9-0.9v-3.8
		C207.8,756.2,208.3,755.7,208.7,755.7z"/>
	<path class="st16" d="M220.7,755.7h8.5c0.5,0,0.9,0.4,0.9,0.9v3.8c0,0.5-0.4,0.9-0.9,0.9h-8.5c-0.5,0-0.9-0.4-0.9-0.9v-3.8
		C219.8,756.2,220.2,755.7,220.7,755.7z"/>
	<path class="st15" d="M126.3,775h9.5c0.6,0,1.2,0.5,1.2,1.2v3.7c0,0.6-0.5,1.2-1.2,1.2h-9.5c-0.6,0-1.2-0.5-1.2-1.2v-3.7
		C125.1,775.5,125.6,775,126.3,775z"/>
	<path class="st16" d="M139.5,775h9.5c0.6,0,1.2,0.5,1.2,1.2v3.7c0,0.6-0.5,1.2-1.2,1.2h-9.5c-0.6,0-1.2-0.5-1.2-1.2v-3.7
		C138.4,775.5,138.9,775,139.5,775z"/>
	<path class="st15" d="M131.4,782.5h9.5c0.6,0,1.2,0.5,1.2,1.2v3.7c0,0.6-0.5,1.2-1.2,1.2h-9.5c-0.6,0-1.2-0.5-1.2-1.2v-3.7
		C130.2,783.1,130.8,782.5,131.4,782.5z"/>
	<path class="st15" d="M173,715.9h9.5c0.6,0,1.2,0.5,1.2,1.2v3.7c0,0.6-0.5,1.2-1.2,1.2H173c-0.6,0-1.2-0.5-1.2-1.2v-3.7
		C171.8,716.5,172.3,715.9,173,715.9z"/>
	<path class="st16" d="M186.3,715.9h9.5c0.6,0,1.2,0.5,1.2,1.2v3.7c0,0.6-0.5,1.2-1.2,1.2h-9.5c-0.6,0-1.2-0.5-1.2-1.2v-3.7
		C185.1,716.5,185.6,715.9,186.3,715.9z"/>
	<path class="st15" d="M178.1,723.5h9.5c0.6,0,1.2,0.5,1.2,1.2v3.7c0,0.6-0.5,1.2-1.2,1.2h-9.5c-0.6,0-1.2-0.5-1.2-1.2v-3.7
		C177,724,177.5,723.5,178.1,723.5z"/>
	<g>
		<polygon class="st2" points="162.6,539.9 222.1,539.9 222.1,519.5 213.1,519.5 213.1,527.3 204.6,527.3 204.6,519.5 196.6,519.5 
			196.6,527.3 188.1,527.3 188.1,519.5 180.1,519.5 180.1,527.3 171.6,527.3 171.6,519.5 162.6,519.5 		"/>
		<polygon class="st0" points="192.4,539.9 222.1,539.9 222.1,519.5 213.1,519.5 213.1,527.3 204.6,527.3 204.6,519.5 196.6,519.5 
			196.6,527.3 192.4,527.3 		"/>
	</g>
	<rect x="167.3" y="539.9" class="st0" width="50" height="4.1"/>
	<path class="st16" d="M179.7,806.3h14.4c11.9,0,21.6,9.7,21.6,21.6v58.8h-57.6v-58.8C158.1,816,167.8,806.3,179.7,806.3z"/>
	<path class="st5" d="M179.7,814.6h14.4c7.4,0,13.4,6,13.4,13.4v52h-41.2v-52C166.3,820.6,172.3,814.6,179.7,814.6z"/>
	<path class="st11" d="M168.4,877.9h18.5v-61.3h-7.2c-6.2,0-11.3,5.1-11.3,11.3V877.9z"/>
	<path class="st12" d="M205.4,877.9h-18.5v-61.3h7.2c6.2,0,11.3,5.1,11.3,11.3V877.9z"/>
	<rect x="181.2" y="824.1" class="st12" width="2.6" height="16"/>
	<rect x="176.7" y="830.5" class="st12" width="2.6" height="45.5"/>
	<rect x="191.2" y="486.3" class="st9" width="2.3" height="41"/>
</g>
<rect x="871.4" y="450.9" class="st28" width="25.8" height="7.9"/>
<path class="st5" d="M237.4,854.6c5.6,6.8,16.1,22.1,8,32.1h-8h-8C221.3,876.6,231.8,861.4,237.4,854.6z"/>
<g>
	<path class="st26" d="M229.8,854.6c-5.6,6.8-16.1,22.1-8,32.1h8V854.6z"/>
	<path class="st26" d="M229.8,854.6c5.6,6.8,16.1,22.1,8,32.1h-8V854.6z"/>
</g>
<path class="st15" d="M725.1,238h8.7c0.6,0,1.1,0.5,1.1,1.1v3.4c0,0.6-0.5,1.1-1.1,1.1h-8.7c-0.6,0-1.1-0.5-1.1-1.1v-3.4
	C724,238.5,724.5,238,725.1,238z"/>
<path class="st15" d="M732.2,231.2h8.7c0.6,0,1.1,0.5,1.1,1.1v3.4c0,0.6-0.5,1.1-1.1,1.1h-8.7c-0.6,0-1.1-0.5-1.1-1.1v-3.4
	C731.1,231.7,731.6,231.2,732.2,231.2z"/>
<path class="st15" d="M737.7,238h8.7c0.6,0,1.1,0.5,1.1,1.1v3.4c0,0.6-0.5,1.1-1.1,1.1h-8.7c-0.6,0-1.1-0.5-1.1-1.1v-3.4
	C736.6,238.5,737.1,238,737.7,238z"/>
<path class="st16" d="M721.1,203.5h8.7c0.6,0,1.1,0.5,1.1,1.1v3.4c0,0.6-0.5,1.1-1.1,1.1h-8.7c-0.6,0-1.1-0.5-1.1-1.1v-3.4
	C720,204,720.5,203.5,721.1,203.5z"/>
<path class="st16" d="M726.5,210.3h6.7c0.5,0,0.8,0.4,0.8,0.8v2.6c0,0.5-0.4,0.8-0.8,0.8h-6.7c-0.5,0-0.8-0.4-0.8-0.8v-2.6
	C725.7,210.7,726.1,210.3,726.5,210.3z"/>
<g>
	<rect x="1186.9" y="454.5" class="st6" width="1.8" height="34.8"/>
	<polygon class="st13" points="1230.5,460.5 1209.6,463.5 1188.7,466.5 1188.7,460.5 1188.7,454.5 1209.6,457.5 	"/>
	<polygon class="st7" points="1187.7,484.5 1187.7,527.3 1166.4,527.3 	"/>
	<path class="st8" d="M1177.2,513.4h6.2v4.9c0,1.7-1.4,3.1-3.1,3.1l0,0c-1.7,0-3.1-1.4-3.1-3.1V513.4z"/>
	<path class="st8" d="M1184.6,513.4h6.2v4.9c0,1.7-1.4,3.1-3.1,3.1l0,0c-1.7,0-3.1-1.4-3.1-3.1V513.4z"/>
	<path class="st8" d="M1192.1,513.4h6.2v4.9c0,1.7-1.4,3.1-3.1,3.1l0,0c-1.7,0-3.1-1.4-3.1-3.1V513.4z"/>
	<path class="st6" d="M1180.8,509.4h6.2v4.9c0,1.7-1.4,3.1-3.1,3.1l0,0c-1.7,0-3.1-1.4-3.1-3.1V509.4z"/>
	<path class="st6" d="M1187.7,509.4h6.2v4.9c0,1.7-1.4,3.1-3.1,3.1l0,0c-1.7,0-3.1-1.4-3.1-3.1V509.4z"/>
	<path class="st8" d="M1183.9,505.4h6.2v4.9c0,1.7-1.4,3.1-3.1,3.1l0,0c-1.7,0-3.1-1.4-3.1-3.1V505.4z"/>
	<path class="st8" d="M1190.8,505.4h6.2v4.9c0,1.7-1.4,3.1-3.1,3.1l0,0c-1.7,0-3.1-1.4-3.1-3.1V505.4z"/>
	<polygon class="st6" points="1187.8,484.5 1187.8,527.3 1209.1,527.3 	"/>
	<rect x="1162.7" y="533.6" class="st2" width="50" height="136.7"/>
	<rect x="1198.2" y="533.6" class="st0" width="14.6" height="136.7"/>
	<path class="st5" d="M1187.9,574L1187.9,574c3.4,0,6.2,2.8,6.2,6.2v16.9h-12.5v-16.9C1181.7,576.8,1184.5,574,1187.9,574z"/>
	<path class="st16" d="M1190.7,562.9v8.5c0,0.5-0.4,0.9-0.9,0.9h-3.8c-0.5,0-0.9-0.4-0.9-0.9v-8.5c0-0.5,0.4-0.9,0.9-0.9h3.8
		C1190.3,562,1190.7,562.4,1190.7,562.9z"/>
	<path class="st16" d="M1184.2,567v4.8c0,0.3-0.2,0.5-0.5,0.5h-2.1c-0.3,0-0.5-0.2-0.5-0.5V567c0-0.3,0.2-0.5,0.5-0.5h2.1
		C1184,566.5,1184.2,566.7,1184.2,567z"/>
	<path class="st16" d="M1194.8,567v4.8c0,0.3-0.2,0.5-0.5,0.5h-2.1c-0.3,0-0.5-0.2-0.5-0.5V567c0-0.3,0.2-0.5,0.5-0.5h2.1
		C1194.6,566.5,1194.8,566.7,1194.8,567z"/>
	<path class="st5" d="M1180.4,607.3h8.5c0.5,0,0.7-0.4,0.4-0.9l-2.2-3.8c-0.3-0.5-0.9-0.9-1.4-0.9h-8.5c-0.5,0-0.7,0.4-0.4,0.9
		l2.2,3.8C1179.3,606.9,1180,607.3,1180.4,607.3z"/>
	<path class="st5" d="M1192.4,607.3h8.5c0.5,0,0.7-0.4,0.4-0.9l-2.2-3.8c-0.3-0.5-0.9-0.9-1.4-0.9h-8.5c-0.5,0-0.7,0.4-0.4,0.9
		l2.2,3.8C1191.3,606.9,1191.9,607.3,1192.4,607.3z"/>
	<path class="st15" d="M1177.2,598.3h8.5c0.5,0,0.9,0.4,0.9,0.9v3.8c0,0.5-0.4,0.9-0.9,0.9h-8.5c-0.5,0-0.9-0.4-0.9-0.9v-3.8
		C1176.3,598.7,1176.7,598.3,1177.2,598.3z"/>
	<path class="st16" d="M1189.2,598.3h8.5c0.5,0,0.9,0.4,0.9,0.9v3.8c0,0.5-0.4,0.9-0.9,0.9h-8.5c-0.5,0-0.9-0.4-0.9-0.9v-3.8
		C1188.3,598.7,1188.7,598.3,1189.2,598.3z"/>
	<rect x="1113.2" y="689.2" class="st2" width="149.1" height="197.1"/>
	<rect x="1235.4" y="689.2" class="st0" width="26.9" height="197.1"/>
	<polygon class="st16" points="1262.3,670.3 1262.3,630.9 1239.8,630.9 1239.8,646 1218.5,646 1218.5,630.9 1198.4,630.9 
		1198.4,646 1177.1,646 1177.1,630.9 1157,630.9 1157,646 1135.7,646 1135.7,630.9 1113.2,630.9 1113.2,670.3 1113.2,670.3 
		1094.4,689.2 1113.2,708.1 1262.3,708.1 1281.1,689.2 1262.3,670.3 	"/>
	<polygon class="st8" points="1187.7,646 1177.1,646 1177.1,630.9 1157,630.9 1157,646 1135.7,646 1135.7,630.9 1113.2,630.9 
		1113.2,670.3 1187.7,670.3 	"/>
	<polygon class="st0" points="1187.7,670.3 1262.3,670.3 1262.3,630.9 1239.8,630.9 1239.8,646 1218.5,646 1218.5,630.9 
		1198.4,630.9 1198.4,646 1187.7,646 	"/>
	<path class="st5" d="M1149.8,731.4L1149.8,731.4c3.4,0,6.2,2.8,6.2,6.2v16.9h-12.5v-16.9C1143.6,734.2,1146.4,731.4,1149.8,731.4z"
		/>
	<path class="st16" d="M1152.6,720.3v8.5c0,0.5-0.4,0.9-0.9,0.9h-3.8c-0.5,0-0.9-0.4-0.9-0.9v-8.5c0-0.5,0.4-0.9,0.9-0.9h3.8
		C1152.2,719.4,1152.6,719.8,1152.6,720.3z"/>
	<path class="st16" d="M1146.1,724.5v4.7c0,0.3-0.2,0.5-0.5,0.5h-2.1c-0.3,0-0.5-0.2-0.5-0.5v-4.7c0-0.3,0.2-0.5,0.5-0.5h2.1
		C1145.9,724,1146.1,724.2,1146.1,724.5z"/>
	<path class="st16" d="M1156.7,724.5v4.7c0,0.3-0.2,0.5-0.5,0.5h-2.1c-0.3,0-0.5-0.2-0.5-0.5v-4.7c0-0.3,0.2-0.5,0.5-0.5h2.1
		C1156.5,724,1156.7,724.2,1156.7,724.5z"/>
	<path class="st5" d="M1142.3,764.7h8.5c0.5,0,0.7-0.4,0.4-0.9l-2.2-3.8c-0.3-0.5-0.9-0.9-1.4-0.9h-8.5c-0.5,0-0.7,0.4-0.4,0.9
		l2.2,3.8C1141.2,764.3,1141.9,764.7,1142.3,764.7z"/>
	<path class="st5" d="M1154.3,764.7h8.5c0.5,0,0.7-0.4,0.4-0.9l-2.2-3.8c-0.3-0.5-0.9-0.9-1.4-0.9h-8.5c-0.5,0-0.7,0.4-0.4,0.9
		l2.2,3.8C1153.2,764.3,1153.8,764.7,1154.3,764.7z"/>
	<path class="st15" d="M1139.1,755.7h8.5c0.5,0,0.9,0.4,0.9,0.9v3.8c0,0.5-0.4,0.9-0.9,0.9h-8.5c-0.5,0-0.9-0.4-0.9-0.9v-3.8
		C1138.2,756.2,1138.6,755.7,1139.1,755.7z"/>
	<path class="st16" d="M1151.1,755.7h8.5c0.5,0,0.9,0.4,0.9,0.9v3.8c0,0.5-0.4,0.9-0.9,0.9h-8.5c-0.5,0-0.9-0.4-0.9-0.9v-3.8
		C1150.2,756.2,1150.6,755.7,1151.1,755.7z"/>
	<path class="st5" d="M1214.9,731.4L1214.9,731.4c3.4,0,6.2,2.8,6.2,6.2v16.9h-12.5v-16.9C1208.6,734.2,1211.4,731.4,1214.9,731.4z"
		/>
	<path class="st16" d="M1217.7,720.3v8.5c0,0.5-0.4,0.9-0.9,0.9h-3.8c-0.5,0-0.9-0.4-0.9-0.9v-8.5c0-0.5,0.4-0.9,0.9-0.9h3.8
		C1217.3,719.4,1217.7,719.8,1217.7,720.3z"/>
	<path class="st16" d="M1211.1,724.5v4.7c0,0.3-0.2,0.5-0.5,0.5h-2.1c-0.3,0-0.5-0.2-0.5-0.5v-4.7c0-0.3,0.2-0.5,0.5-0.5h2.1
		C1210.9,724,1211.1,724.2,1211.1,724.5z"/>
	<path class="st16" d="M1221.7,724.5v4.7c0,0.3-0.2,0.5-0.5,0.5h-2.1c-0.3,0-0.5-0.2-0.5-0.5v-4.7c0-0.3,0.2-0.5,0.5-0.5h2.1
		C1221.5,724,1221.7,724.2,1221.7,724.5z"/>
	<path class="st5" d="M1207.4,764.7h8.5c0.5,0,0.7-0.4,0.4-0.9l-2.2-3.8c-0.3-0.5-0.9-0.9-1.4-0.9h-8.5c-0.5,0-0.7,0.4-0.4,0.9
		l2.2,3.8C1206.2,764.3,1206.9,764.7,1207.4,764.7z"/>
	<path class="st5" d="M1219.3,764.7h8.5c0.5,0,0.7-0.4,0.4-0.9l-2.2-3.8c-0.3-0.5-0.9-0.9-1.4-0.9h-8.5c-0.5,0-0.7,0.4-0.4,0.9
		l2.2,3.8C1218.2,764.3,1218.8,764.7,1219.3,764.7z"/>
	<path class="st15" d="M1204.1,755.7h8.5c0.5,0,0.9,0.4,0.9,0.9v3.8c0,0.5-0.4,0.9-0.9,0.9h-8.5c-0.5,0-0.9-0.4-0.9-0.9v-3.8
		C1203.2,756.2,1203.6,755.7,1204.1,755.7z"/>
	<path class="st16" d="M1216.1,755.7h8.5c0.5,0,0.9,0.4,0.9,0.9v3.8c0,0.5-0.4,0.9-0.9,0.9h-8.5c-0.5,0-0.9-0.4-0.9-0.9v-3.8
		C1215.2,756.2,1215.6,755.7,1216.1,755.7z"/>
	<path class="st15" d="M1121.7,775h9.5c0.6,0,1.2,0.5,1.2,1.2v3.7c0,0.6-0.5,1.2-1.2,1.2h-9.5c-0.6,0-1.2-0.5-1.2-1.2v-3.7
		C1120.5,775.5,1121,775,1121.7,775z"/>
	<path class="st16" d="M1141.9,770.9h9.5c0.6,0,1.2,0.5,1.2,1.2v3.7c0,0.6-0.5,1.2-1.2,1.2h-9.5c-0.6,0-1.2-0.5-1.2-1.2v-3.7
		C1140.7,771.5,1141.3,770.9,1141.9,770.9z"/>
	<path class="st15" d="M1126.8,782.5h9.5c0.6,0,1.2,0.5,1.2,1.2v3.7c0,0.6-0.5,1.2-1.2,1.2h-9.5c-0.6,0-1.2-0.5-1.2-1.2v-3.7
		C1125.6,783.1,1126.2,782.5,1126.8,782.5z"/>
	<path class="st15" d="M1168.4,715.9h9.5c0.6,0,1.2,0.5,1.2,1.2v3.7c0,0.6-0.5,1.2-1.2,1.2h-9.5c-0.6,0-1.2-0.5-1.2-1.2v-3.7
		C1167.2,716.5,1167.7,715.9,1168.4,715.9z"/>
	<path class="st16" d="M1181.6,715.9h9.5c0.6,0,1.2,0.5,1.2,1.2v3.7c0,0.6-0.5,1.2-1.2,1.2h-9.5c-0.6,0-1.2-0.5-1.2-1.2v-3.7
		C1180.5,716.5,1181,715.9,1181.6,715.9z"/>
	<path class="st15" d="M1173.5,723.5h9.5c0.6,0,1.2,0.5,1.2,1.2v3.7c0,0.6-0.5,1.2-1.2,1.2h-9.5c-0.6,0-1.2-0.5-1.2-1.2v-3.7
		C1172.4,724,1172.9,723.5,1173.5,723.5z"/>
	<g>
		<polygon class="st2" points="1158,539.9 1217.5,539.9 1217.5,519.5 1208.5,519.5 1208.5,527.3 1200,527.3 1200,519.5 1192,519.5 
			1192,527.3 1183.5,527.3 1183.5,519.5 1175.5,519.5 1175.5,527.3 1167,527.3 1167,519.5 1158,519.5 		"/>
		<polygon class="st0" points="1187.8,539.9 1217.5,539.9 1217.5,519.5 1208.5,519.5 1208.5,527.3 1200,527.3 1200,519.5 
			1192,519.5 1192,527.3 1187.8,527.3 		"/>
	</g>
	<rect x="1162.7" y="539.9" class="st0" width="50" height="4.1"/>
	<path class="st16" d="M1174.8,806.3h14.4c11.9,0,21.6,9.7,21.6,21.6v58.8h-57.6v-58.8C1153.2,816,1162.9,806.3,1174.8,806.3z"/>
	<path class="st5" d="M1174.8,814.6h14.4c7.4,0,13.4,6,13.4,13.4v48.6h-41.2v-48.6C1161.4,820.6,1167.5,814.6,1174.8,814.6z"/>
	<path class="st11" d="M1163.5,874.5h18.5v-57.9h-7.2c-6.2,0-11.3,5.1-11.3,11.3V874.5z"/>
	<path class="st12" d="M1200.6,874.5H1182v-57.9h7.2c6.2,0,11.3,5.1,11.3,11.3V874.5z"/>
	<rect x="1176.3" y="822.1" class="st12" width="2.6" height="43.8"/>
	<rect x="1171.3" y="825.2" class="st12" width="2.6" height="5.7"/>
	<path class="st16" d="M1116.3,717.6h9.5c0.6,0,1.2,0.5,1.2,1.2v3.7c0,0.6-0.5,1.2-1.2,1.2h-9.5c-0.6,0-1.2-0.5-1.2-1.2v-3.7
		C1115.1,718.1,1115.7,717.6,1116.3,717.6z"/>
	<path class="st16" d="M1122.5,726.5h9.5c0.6,0,1.2,0.5,1.2,1.2v3.7c0,0.6-0.5,1.2-1.2,1.2h-9.5c-0.6,0-1.2-0.5-1.2-1.2v-3.7
		C1121.3,727,1121.8,726.5,1122.5,726.5z"/>
	<polygon class="st0" points="1281.1,689.2 1262.3,708.1 1113.2,708.1 1094.4,689.2 	"/>
	<rect x="1186.6" y="486.3" class="st9" width="2.3" height="41"/>
	<path class="st16" d="M1179.5,607.3h9.5c0.6,0,1.2,0.5,1.2,1.2v3.7c0,0.6-0.5,1.2-1.2,1.2h-9.5c-0.6,0-1.2-0.5-1.2-1.2v-3.7
		C1178.3,607.8,1178.8,607.3,1179.5,607.3z"/>
	<path class="st16" d="M1186,614.5h9.5c0.6,0,1.2,0.5,1.2,1.2v3.7c0,0.6-0.5,1.2-1.2,1.2h-9.5c-0.6,0-1.2-0.5-1.2-1.2v-3.7
		C1184.9,615,1185.4,614.5,1186,614.5z"/>
	<path class="st16" d="M1172.8,614.5h9.5c0.6,0,1.2,0.5,1.2,1.2v3.7c0,0.6-0.5,1.2-1.2,1.2h-9.5c-0.6,0-1.2-0.5-1.2-1.2v-3.7
		C1171.6,615,1172.1,614.5,1172.8,614.5z"/>
	<path class="st16" d="M1165,579.3h7.3c0.5,0,0.9,0.4,0.9,0.9v2.9c0,0.5-0.4,0.9-0.9,0.9h-7.3c-0.5,0-0.9-0.4-0.9-0.9v-2.9
		C1164.1,579.8,1164.5,579.3,1165,579.3z"/>
	<path class="st16" d="M1169.2,584.7h7.3c0.5,0,0.9,0.4,0.9,0.9v2.9c0,0.5-0.4,0.9-0.9,0.9h-7.3c-0.5,0-0.9-0.4-0.9-0.9v-2.9
		C1168.3,585.1,1168.7,584.7,1169.2,584.7z"/>
	<path class="st15" d="M1172.9,549.8h7.3c0.5,0,0.9,0.4,0.9,0.9v2.9c0,0.5-0.4,0.9-0.9,0.9h-7.3c-0.5,0-0.9-0.4-0.9-0.9v-2.9
		C1172,550.2,1172.4,549.8,1172.9,549.8z"/>
</g>
<path class="st16" d="M1106.2,432.2h7.3c0.5,0,0.9,0.4,0.9,0.9v2.9c0,0.5-0.4,0.9-0.9,0.9h-7.3c-0.5,0-0.9-0.4-0.9-0.9v-2.9
	C1105.3,432.6,1105.7,432.2,1106.2,432.2z"/>
<path class="st16" d="M1101.4,425.6h7.3c0.5,0,0.9,0.4,0.9,0.9v2.9c0,0.5-0.4,0.9-0.9,0.9h-7.3c-0.5,0-0.9-0.4-0.9-0.9v-2.9
	C1100.4,426,1100.9,425.6,1101.4,425.6z"/>
<path class="st16" d="M1122.5,453.6h7.3c0.5,0,0.9,0.4,0.9,0.9v2.9c0,0.5-0.4,0.9-0.9,0.9h-7.3c-0.5,0-0.9-0.4-0.9-0.9v-2.9
	C1121.6,454,1122,453.6,1122.5,453.6z"/>
<g>
	<path class="st5" d="M619.4,886.7h81v-94.9c0-19-15.5-34.5-34.5-34.5H654c-19,0-34.5,15.5-34.5,34.5V886.7z"/>
	<path class="st15" d="M584.1,743.5h17.1c1.2,0,2.1,0.9,2.1,2.1v6.7c0,1.2-0.9,2.1-2.1,2.1h-17.1c-1.2,0-2.1-0.9-2.1-2.1v-6.7
		C582,744.4,582.9,743.5,584.1,743.5z"/>
	<rect x="582.6" y="727.2" class="st11" width="152.4" height="15.6"/>
	<rect x="582.6" y="742.8" class="st12" width="152.4" height="4.3"/>
	<rect x="582.6" y="747.1" class="st5" width="152.4" height="2.6"/>
	<rect x="591.3" y="747.1" class="st11" width="15.6" height="139.6"/>
	<rect x="607" y="747.1" class="st12" width="4.3" height="139.6"/>
	<rect x="711.7" y="747.1" class="st11" width="15.6" height="139.6"/>
	<rect x="707.4" y="747.1" class="st12" width="4.3" height="139.6"/>
	<rect x="596.8" y="747.1" class="st12" width="2.4" height="20.8"/>
	<rect x="601.9" y="770.6" class="st12" width="2.4" height="55.7"/>
	<rect x="596" y="804.7" class="st12" width="2.4" height="21.6"/>
	<rect x="719.5" y="786.7" class="st12" width="2.4" height="39.6"/>
	<rect x="715.5" y="747.1" class="st12" width="2.4" height="19.8"/>
	<rect x="721.1" y="747.1" class="st12" width="2.4" height="31.6"/>
	<rect x="727.3" y="747.1" class="st5" width="7.7" height="139.6"/>
	<rect x="735" y="727.2" class="st5" width="7.7" height="19.9"/>
	<path class="st22" d="M656.7,748h4.3v40.6h12.3V748h4.3v40.6h12.3V748h4.3v40.6h5.5V748h4.3v40.6v3.5v18.1v3.5v18.1v3.5h-4.3h-5.5
		v8h2.8l-2.5,4.3l-2.5,4.3l-2.5-4.3l-2.5-4.3h2.8v-8h-12.3v8h2.8l-2.5,4.3l-2.5,4.3l-2.5-4.3l-2.5-4.3h2.8v-8H661v8h2.8l-2.5,4.3
		l-2.5,4.3l-2.5-4.3l-2.5-4.3h2.8v-8h-12.3v8h2.8l-2.5,4.3l-2.5,4.3l-2.5-4.3l-2.5-4.3h2.8v-8h-12.3v8h2.8l-2.5,4.3l-2.5,4.3
		l-2.5-4.3l-2.5-4.3h2.8v-8h-5.8h-1.9h-2.4V748h4.3v40.6h5.8V748h4.3v40.6h12.3V748h4.3v40.6h12.3V748L656.7,748z M661,792.2v18.1
		h12.3v-18.1H661L661,792.2z M677.6,792.2v18.1h12.3v-18.1H677.6L677.6,792.2z M694.2,792.2v18.1h5.5v-18.1H694.2L694.2,792.2z
		 M617.7,792.2v18.1h5.8v-18.1H617.7L617.7,792.2z M627.8,792.2v18.1h12.3v-18.1H627.8L627.8,792.2z M644.4,792.2v18.1h12.3v-18.1
		H644.4L644.4,792.2z M661,813.8v18.1h12.3v-18.1H661L661,813.8z M677.6,813.8v18.1h12.3v-18.1H677.6L677.6,813.8z M694.2,813.8
		v18.1h5.5v-18.1H694.2L694.2,813.8z M617.7,813.8v18.1h5.8v-18.1H617.7L617.7,813.8z M627.8,813.8v18.1h12.3v-18.1H627.8
		L627.8,813.8z M644.4,813.8v18.1h12.3v-18.1H644.4z"/>
	<rect x="648.9" y="722.6" class="st11" width="19.9" height="33.9"/>
	<rect x="664.5" y="722.6" class="st12" width="4.3" height="33.9"/>
	<rect x="727" y="722.6" class="st11" width="9.9" height="33.9"/>
	<rect x="734.8" y="722.6" class="st12" width="2.1" height="33.9"/>
	<rect x="724.9" y="727.2" class="st12" width="2.1" height="19.9"/>
	<rect x="581.4" y="722.6" class="st11" width="9.9" height="33.9"/>
	<rect x="581.4" y="722.6" class="st29" width="2.1" height="33.9"/>
	<rect x="591.3" y="727.2" class="st12" width="2.1" height="19.9"/>
	<rect x="649" y="722.6" class="st29" width="4.3" height="33.9"/>
	<rect x="648.9" y="752.9" class="st12" width="19.9" height="3.6"/>
	<rect x="615.6" y="765.2" class="st22" width="86.7" height="5"/>
</g>
<path class="st0" d="M1118,859.3c-4.7,5.7-13.4,18.4-6.7,26.8h6.7h6.4h0.3h11.1h11.4c11.5-14.3-3.4-36-11.4-45.7
	c-4.4,5.4-11,14.5-14,24C1120.5,862.4,1119.1,860.7,1118,859.3z"/>
<g>
	<path class="st30" d="M1113.5,859.3c-4.7,5.7-13.4,18.4-6.7,26.8h6.7V859.3z"/>
	<path class="st31" d="M1113.5,859.3c4.7,5.7,13.4,18.4,6.7,26.8h-6.7V859.3z"/>
</g>
<g>
	<path class="st30" d="M1131.2,840.4c-8,9.7-22.9,31.4-11.4,45.7h11.4V840.4z"/>
	<path class="st31" d="M1131.2,840.4c8,9.7,22.9,31.4,11.4,45.7h-11.4V840.4z"/>
</g>
<path class="st32" d="M1289,885.5H47.5c-14.9,0-27,12.1-27,27v2.6c0,14.9,12.1,27,27,27H1289c14.9,0,27-12.1,27-27v-2.6
	C1316,897.5,1303.9,885.5,1289,885.5z"/>
<path class="st33" d="M1287.7,885.5H939.2c15.6,0,28.3,12.7,28.3,28.3l0,0c0,15.6-12.7,28.3-28.3,28.3h348.5
	c15.6,0,28.3-12.7,28.3-28.3l0,0C1316,898.1,1303.3,885.5,1287.7,885.5z"/>
<g>
	<path class="st33" d="M291.2,907.7h74.3c2.9,0,5.3,2.4,5.3,5.3l0,0c0,2.9-2.4,5.3-5.3,5.3h-74.3c-2.9,0-5.3-2.4-5.3-5.3l0,0
		C285.8,910.1,288.2,907.7,291.2,907.7z"/>
	<path class="st16" d="M327.9,867.5h13.8c12.6,0,22.9,10.3,22.9,22.9v22.9h-36.6h-36.6v-22.9c0-12.6,10.3-22.9,22.9-22.9H327.9z"/>
	<path class="st2" d="M338.7,867.5h3c12.6,0,22.9,10.3,22.9,22.9v22.9h-12h-24.6h-12v-22.9C315.8,877.8,326.1,867.5,338.7,867.5z"/>
</g>
<g>
	<path class="st33" d="M453.6,922.8h42.3c1.7,0,3,1.4,3,3l0,0c0,1.7-1.4,3-3,3h-42.3c-1.7,0-3-1.4-3-3l0,0
		C450.6,924.2,452,922.8,453.6,922.8z"/>
	<path class="st16" d="M474.5,900h7.8c7.2,0,13,5.9,13,13v13h-20.8h-20.8v-13c0-7.2,5.9-13,13-13H474.5z"/>
	<path class="st2" d="M480.7,900h1.7c7.2,0,13,5.9,13,13v13h-6.9h-14h-6.9v-13C467.7,905.8,473.5,900,480.7,900z"/>
</g>
<g>
	<path class="st4" d="M1071,886.4v-9.2c0-10.1-14-23.4-11.6-32.7c24.7,1.3,27.6,16,27.6,25.1v16.8H1071z"/>
	<path class="st11" d="M1006.3,886.4v-16.8c0-13.8,11.3-25.1,25.1-25.1h24.4c13.8,0,25.1,11.3,25.1,25.1v16.8H1006.3z"/>
	<path class="st5" d="M1014.6,886.4h58.1v-16.8c0-9.3-7.6-16.8-16.8-16.8h-24.4c-9.3,0-16.8,7.6-16.8,16.8V886.4z"/>
	<rect x="1014.6" y="872.7" class="st32" width="58.1" height="20.2"/>
	<rect x="1028.7" y="851.3" class="st11" width="4.1" height="35.1"/>
	<rect x="1041.5" y="852.9" class="st11" width="4.1" height="33.5"/>
	<rect x="1054.4" y="851.3" class="st11" width="4.1" height="35.1"/>
	<rect x="1028.7" y="886.4" class="st33" width="4.1" height="14.5"/>
	<rect x="1041.5" y="886.4" class="st33" width="4.1" height="14.5"/>
	<rect x="1054.4" y="886.4" class="st33" width="4.1" height="14.5"/>
</g>
</svg>
