<?xml version="1.0" encoding="utf-8"?>
<!-- Generator: Adobe Illustrator 24.0.3, SVG Export Plug-In . SVG Version: 6.00 Build 0)  -->
<svg version="1.1" id="Layer_1" xmlns="http://www.w3.org/2000/svg" xmlns:xlink="http://www.w3.org/1999/xlink" x="0px" y="0px"
	 viewBox="0 0 120.8 541" style="enable-background:new 0 0 120.8 541;" xml:space="preserve">
<style type="text/css">
	.st0{clip-path:url(#SVGID_2_);}
	.st1{fill:url(#Rectangle_35_1_);}
	.st2{fill:none;stroke:#707070;stroke-width:0.5;stroke-miterlimit:10;}
	.st3{fill:none;stroke:#FF8700;stroke-width:0.5;stroke-miterlimit:10;}
	.st4{fill:none;stroke:#2E1A47;stroke-width:0.921;stroke-miterlimit:10;}
	.st5{fill:url(#Rectangle_37_1_);}
</style>
<g id="Component_50_1">
	<g id="Component_49_1" transform="translate(4.027)">
		<g>
			<defs>
				<rect id="SVGID_1_" x="-4" y="0" width="116.8" height="541"/>
			</defs>
			<clipPath id="SVGID_2_">
				<use xlink:href="#SVGID_1_"  style="overflow:visible;"/>
			</clipPath>
			<g id="Group_38" transform="translate(-844.898 572.936)" class="st0">
				<g id="Group_37">
					
						<linearGradient id="Rectangle_35_1_" gradientUnits="userSpaceOnUse" x1="596.4118" y1="91.3124" x2="595.8758" y2="93.5744" gradientTransform="matrix(2.428902e-08 -541 221.822 9.959039e-09 -19577.7793 322209.2812)">
						<stop  offset="0" style="stop-color:#140A23"/>
						<stop  offset="1" style="stop-color:#2E1A47"/>
					</linearGradient>
					<path id="Rectangle_35" class="st1" d="M820.9-31.9v-541h221.8v541H820.9z"/>
					<path id="Path_246" class="st2" d="M1278.4-577.6c-10.2,12.4-23.1,22.4-37.7,29.2c-24.2,11.4-59.8,9.8-108,15.5
						c-30.3,3.6-59.3,13.8-87.4,25.2c-58.6,23.9-146.2,57.1-101.5,137.2c29,52,82.1,75.9,129.7,107.4c16.6,11,28.8,31.3,34.3,41.5"
						/>
					<path id="Path_247" class="st2" d="M679.6-580.4c0,0-1.6,21.4-36.3,40.2c-80.1,43.4-191.1,12.3-213.7,54.5
						c-37.4,69.8,145.6,100.8,193.5,147.9c33.7,33.1,29.6,76.2,74.2,126.5c16.3,18.3,44.9,28.8,66.4,39.2
						c20.3,9.9,40.7,19.4,60.3,30.6c10.8,6.2,22,12.1,34.2,14.4c77.8,14.7,142.2-44.1,125.3-122.9c-4.5-20.8-20-38-32.4-54.5
						c-27.4-36.8-63-81.3-60.1-130.1c3-50.8,49.7-68.8,89.4-86c40.4-17.4,69.5-37.1,86.7-47.5c17.2-10.5,27.7-12.3,27.7-12.3"/>
					<path id="Path_248" class="st3" d="M712.4-580.4c0,0-6.5,33.9-54,64.3S509.8-494,508-452.4s90.2,70.7,124.6,92.6
						s51.4,68.1,68.4,102.7s104.3,85.2,168.1,67.9c38.4-10.4,55-35.5,54.7-73.8c-0.5-70.3-79.9-114-82.5-186.4
						c-2.3-62.6,80.2-73.8,123.3-95.2c30.9-15.4,43.6-35.8,43.6-35.8"/>
					<path id="Path_249" class="st2" d="M745.8-580.4c0,0,1.6,23.8-7.2,43.2s-31.3,30.3-62.9,42.7s-92.2,23.3-103,53.6
						s78.9,66.8,96.2,81.1s21.6,21.4,53.3,66.1c23.7,33.5,61.6,70.2,106.2,66.4c50.8-4.4,65.2-48.1,44.5-89.9
						c-15.2-30.6-48.8-64.7-59.2-97.3c-7-21.6-5.2-60.1,4.4-82.9c6-14.4,35.7-30.9,79.3-49.8s54.1-33.2,54.1-33.2"/>
					<path id="Path_250" class="st2" d="M585.5-249.8c0,0,129.3,55.1,161.8,72.5c32.5,17.4,46,64.7,76.9,96.9s142.5,50.3,142.5,50.3
						"/>
					<path id="Path_251" class="st4" d="M1253.2-54.4c0,0,26.4-19.5,35.2-24.7s42.4-73.7,42.4-99.5s-45.9-84-93.4-104.7
						s-96.7-14.2-131.9-42c-35.2-27.8-21.1-62.7,7-88.6s93.2-10.2,126.7-15.4c33.4-5.2,91.7-50.6,91.7-50.6"/>
					<path id="Path_252" class="st4" d="M1330.8-267.1l-17.8-20c0,0-40.5-29.7-81.7-30.8s-99.4-14.4-99.5-49.3s68.7-24.6,109.1-24.1
						s89.9-34,89.9-34"/>
					<path id="Path_253" class="st4" d="M1330.8-317.9c0,0-24.8-6.7-35.3-11.9c-10.5-5.2-72.2-24.6-33.5-31.8
						c23.9-4.6,47-12.5,68.8-23.3"/>
				</g>
			</g>
		</g>
	</g>
	
		<linearGradient id="Rectangle_37_1_" gradientUnits="userSpaceOnUse" x1="-285.8363" y1="666.2311" x2="-285.8363" y2="667.2311" gradientTransform="matrix(5.927 0 0 541 1811.9791 -360431)">
		<stop  offset="0" style="stop-color:#AF206E"/>
		<stop  offset="0.555" style="stop-color:#E34256"/>
		<stop  offset="1" style="stop-color:#EB8B23"/>
	</linearGradient>
	<path id="Rectangle_37" class="st5" d="M114.9,0l5.9,0v541h-5.9V0z"/>
</g>
</svg>
