<svg xmlns="http://www.w3.org/2000/svg" width="120.791" height="541" viewBox="0 0 120.791 541">
    <defs>
        <style>
            .cls-1,.cls-4,.cls-5,.cls-6{fill:none}.cls-2{clip-path:url(#clip-path)}.cls-3{fill:url(#linear-gradient)}.cls-4{stroke:#707070}.cls-4,.cls-5,.cls-6{stroke-miterlimit:10}.cls-4,.cls-5{stroke-width:.5px}.cls-5{stroke:#ff8700}.cls-6{stroke:#2e1a47;stroke-width:.921px}.cls-7{fill:url(#linear-gradient-2)}
        </style>
        <clipPath id="clip-path">
            <path id="Rectangle_36" d="M0 0h541v116.764H0z" class="cls-1" data-name="Rectangle 36" transform="rotate(-90 406.481 -438.417)"/>
        </clipPath>
        <linearGradient id="linear-gradient" x1=".84" x2=".304" y1="1.631" y2="-.631" gradientUnits="objectBoundingBox">
            <stop offset="0" stop-color="#140a23"/>
            <stop offset="1" stop-color="#2e1a47"/>
        </linearGradient>
        <linearGradient id="linear-gradient-2" x1="16.168" x2="16.168" y1="1" gradientUnits="objectBoundingBox">
            <stop offset="0" stop-color="#af206e"/>
            <stop offset=".555" stop-color="#e34256"/>
            <stop offset="1" stop-color="#eb8b23"/>
        </linearGradient>
    </defs>
    <g id="Component_50_1" data-name="Component 50 – 1">
        <g id="Component_49_1" data-name="Component 49 – 1" transform="translate(4.027)">
            <g id="Group_38" class="cls-2" data-name="Group 38" transform="translate(-844.898 572.936)">
                <g id="Group_37" data-name="Group 37">
                    <path id="Rectangle_35" d="M0 0h541v221.822H0z" class="cls-3" data-name="Rectangle 35" transform="rotate(-90 363.952 -395.888)"/>
                    <path id="Path_246" d="M694.741-221.608c5.539-10.174 17.724-30.521 34.341-41.509C776.7-294.605 829.79-318.538 858.8-370.505c44.72-80.124-42.881-113.33-101.529-137.2-28.12-11.447-57.146-21.632-87.448-25.214-48.192-5.7-83.763-4.07-108.012-15.464a108.906 108.906 0 0 1-37.664-29.223" class="cls-4" data-name="Path 246"/>
                    <path id="Path_247" d="M707.655-580.432s10.5 1.844 27.715 12.312 46.306 30.095 86.675 47.542c39.723 17.168 86.406 35.229 89.434 85.993 2.908 48.738-32.691 93.27-60.109 130.073-12.331 16.553-27.9 33.769-32.36 54.541-16.9 78.8 47.515 137.624 125.327 122.9 12.212-2.31 23.424-8.2 34.209-14.373 19.594-11.22 39.993-20.737 60.283-30.641 21.486-10.488 50.125-20.9 66.4-39.249 44.615-50.309 40.489-93.4 74.208-126.49 47.96-47.059 230.949-78.11 193.536-147.863-22.65-42.228-133.631-11.128-213.72-54.521-34.729-18.816-36.288-40.227-36.288-40.227" class="cls-4" data-name="Path 247"/>
                    <path id="Path_248" d="M794.318-580.432s12.635 20.454 43.571 35.82c43.081 21.4 125.569 32.539 123.262 95.187-2.669 72.458-81.981 116.1-82.53 186.425-.3 38.307 16.305 63.366 54.74 73.781 63.79 17.286 151.126-33.369 168.118-67.94s33.984-80.89 68.4-102.705 126.35-50.945 124.607-92.559-102.823-33.29-150.313-63.7-54.026-64.309-54.026-64.309" class="cls-5" data-name="Path 248"/>
                    <path id="Path_249" d="M851.152-580.432s10.418 14.353 54.1 33.194 73.329 35.328 79.34 49.755c9.519 22.852 11.326 61.285 4.356 82.931-10.477 32.542-44.037 66.7-59.228 97.28-20.739 41.742-6.308 85.491 44.482 89.889 44.523 3.855 82.441-32.848 106.158-66.376 31.656-44.749 36.064-51.839 53.294-66.105s106.988-50.772 96.169-81.1-71.325-41.216-102.981-53.581-54.1-23.258-62.911-42.688-7.212-43.2-7.212-43.2" class="cls-4" data-name="Path 249"/>
                    <path id="Path_250" d="M835.789-30.184s111.585-18 142.533-50.253 44.393-79.574 76.9-96.946 161.807-72.462 161.807-72.462" class="cls-4" data-name="Path 250"/>
                    <path id="Path_251" d="M471.755-479.927s58.245 45.45 91.665 50.619 98.508-10.577 126.653 15.39 42.217 60.81 7.036 88.622-84.435 21.351-131.93 42.029-93.424 78.837-93.424 104.685 33.616 94.345 42.411 99.514 35.181 24.708 35.181 24.708" class="cls-6" data-name="Path 251"/>
                    <path id="Path_252" d="M471.755-425.43s49.447 34.446 89.906 34.024 109.221-10.761 109.139 24.134-58.24 48.262-99.521 49.332-81.74 30.8-81.74 30.8l-17.784 20" class="cls-6" data-name="Path 252"/>
                    <path id="Path_253" d="M471.755-384.953a266.7 266.7 0 0 0 68.8 23.343c38.7 7.262-22.954 26.647-33.465 31.817s-35.332 11.853-35.332 11.853" class="cls-6" data-name="Path 253"/>
                </g>
            </g>
        </g>
        <path id="Rectangle_37" d="M0 0h5.927v541H0z" class="cls-7" data-name="Rectangle 37" transform="rotate(180 2.963 270.5)"/>
    </g>
</svg>
