<?xml version="1.0" encoding="utf-8"?>
<!-- Generator: Adobe Illustrator 24.0.3, SVG Export Plug-In . SVG Version: 6.00 Build 0)  -->
<svg version="1.1" id="Layer_1" xmlns="http://www.w3.org/2000/svg" xmlns:xlink="http://www.w3.org/1999/xlink" x="0px" y="0px"
	 viewBox="0 0 213.7 301.2" style="enable-background:new 0 0 213.7 301.2;" xml:space="preserve">
<style type="text/css">
	.st0{fill:#FFFFFF;}
	.st1{fill:#AF206E;}
	.st2{fill:#DDDDDD;}
	.st3{fill:#C4C4C4;}
	.st4{fill:#E54355;}
	.st5{fill:#EB8B23;}
	.st6{fill:#DD750E;}
	.st7{fill:#5F2D78;}
</style>
<g>
	<path class="st0" d="M184.6,194.3c0,42.9-34.8,77.7-77.7,77.7h0c-42.9,0-77.7-34.8-77.7-77.7v0c0-42.9,34.8-77.7,77.7-77.7h0
		C149.8,116.6,184.6,151.4,184.6,194.3L184.6,194.3z"/>
	<path class="st1" d="M106.9,0C85.4,0,68,17.4,68,38.9c0,21.5,17.4,38.9,38.9,38.9c21.5,0,38.9-17.4,38.9-38.9
		C145.7,17.4,128.3,0,106.9,0z M106.9,68c-16.1,0-29.1-13-29.1-29.1c0-16.1,13-29.1,29.1-29.1c16.1,0,29.1,13,29.1,29.1
		C136,55,123,68,106.9,68z"/>
	<path class="st1" d="M116.5,97.1H97.1V58.2c0-5.3,4.3-9.7,9.7-9.7l0,0c5.3,0,9.7,4.3,9.7,9.7V97.1z"/>
	<path class="st2" d="M106.9,106.9L106.9,106.9c-48.3,0-87.5,39.2-87.5,87.5v0c0,48.3,39.2,87.5,87.5,87.5h0
		c48.3,0,87.5-39.2,87.5-87.5v0C194.3,146,155.2,106.9,106.9,106.9z M184.6,194.3c0,42.9-34.8,77.7-77.7,77.7h0
		c-42.9,0-77.7-34.8-77.7-77.7v0c0-42.9,34.8-77.7,77.7-77.7h0C149.8,116.6,184.6,151.4,184.6,194.3L184.6,194.3z"/>
	<g>
		<polygon class="st2" points="117.1,184 106.8,126.3 106.8,194.3 		"/>
		<g>
			<polygon class="st3" points="96.5,184 106.8,126.3 106.8,194.3 			"/>
			<g>
				<polygon class="st2" points="96.5,204.6 106.8,262.3 106.8,194.3 				"/>
				<polygon class="st3" points="117.1,204.6 106.8,262.3 106.8,194.3 				"/>
			</g>
			<g>
				<polygon class="st2" points="117.1,204.6 174.9,194.3 106.8,194.3 				"/>
				<polygon class="st3" points="117.1,184 174.9,194.3 106.8,194.3 				"/>
			</g>
			<g>
				<polygon class="st2" points="96.5,184 38.9,194.3 106.8,194.3 				"/>
				<polygon class="st3" points="96.5,204.6 38.9,194.3 106.8,194.3 				"/>
			</g>
			<g>
				<g>
					<g>
						<polygon class="st2" points="126.9,185.5 145.7,155.4 106.8,194.3 						"/>
					</g>
				</g>
				<g>
					<g>
						<polygon class="st3" points="115.6,174.2 145.7,155.4 106.8,194.3 						"/>
					</g>
				</g>
			</g>
			<g>
				<g>
					<g>
						<polygon class="st2" points="115.6,214.4 145.7,233.1 106.8,194.3 						"/>
					</g>
				</g>
				<g>
					<g>
						<polygon class="st3" points="126.9,203.1 145.7,233.1 106.8,194.3 						"/>
					</g>
				</g>
			</g>
			<g>
				<g>
					<g>
						<polygon class="st2" points="86.8,203.1 68,233.1 106.9,194.3 						"/>
					</g>
				</g>
				<g>
					<g>
						<polygon class="st3" points="98.1,214.4 68,233.1 106.9,194.3 						"/>
					</g>
				</g>
			</g>
			<g>
				<g>
					<g>
						<polygon class="st2" points="98,174.2 68,155.4 106.9,194.3 						"/>
					</g>
				</g>
				<g>
					<g>
						<polygon class="st3" points="86.8,185.5 68,155.4 106.9,194.3 						"/>
					</g>
				</g>
			</g>
		</g>
	</g>
	<g>
		<path class="st4" d="M136.2,126.3l-29.4,68l0,0l12.6,5.5l17.2-72.6C136.8,126.7,136.5,126.4,136.2,126.3z"/>
		<path class="st1" d="M136.2,126.3c-0.3-0.1-0.7-0.1-0.9,0.3l-41,62.3l12.6,5.4L136.2,126.3z"/>
		<path class="st5" d="M106.9,194.3l-29.4,68c0.3,0.1,0.7,0.1,0.9-0.3l41-62.3L106.9,194.3L106.9,194.3z"/>
		<path class="st6" d="M94.3,188.9l-17.2,72.5c-0.1,0.4,0.1,0.7,0.4,0.9l29.4-68L94.3,188.9z"/>
	</g>
	<path class="st0" d="M99.9,194.1c0-3.8,3.1-6.9,6.9-6.9c3.8,0,6.9,3.1,6.9,6.9c0,3.8-3.1,6.9-6.9,6.9
		C103,201.1,99.9,198,99.9,194.1z"/>
	<polygon class="st3" points="112,106.9 106.9,116.6 101.6,106.9 	"/>
	<polygon class="st3" points="101.6,281.8 106.7,272 112,281.8 	"/>
	<polygon class="st3" points="194.3,199.5 184.5,194.4 194.3,189.2 	"/>
	<polygon class="st3" points="19.3,189.2 29.1,194.3 19.3,199.5 	"/>
	<g>
		<path class="st1" d="M106.9,87.5L106.9,87.5C47.8,87.5,0,135.3,0,194.3v0c0,59,47.8,106.9,106.9,106.9h0
			c59,0,106.9-47.8,106.9-106.9v0C213.7,135.3,165.9,87.5,106.9,87.5z M194.3,194.3c0,48.3-39.2,87.5-87.5,87.5h0
			c-48.3,0-87.5-39.2-87.5-87.5v0c0-48.3,39.2-87.5,87.5-87.5h0C155.2,106.9,194.3,146,194.3,194.3L194.3,194.3z"/>
	</g>
	<g>
		<path class="st7" d="M106.9,96.4L106.9,96.4c-54.1,0-97.9,43.8-97.9,97.9v0c0,54.1,43.8,97.9,97.9,97.9h0
			c54.1,0,97.9-43.8,97.9-97.9v0C204.8,140.2,160.9,96.4,106.9,96.4z M194.3,194.3c0,48.3-39.2,87.5-87.5,87.5h0
			c-48.3,0-87.5-39.2-87.5-87.5v0c0-48.3,39.2-87.5,87.5-87.5h0C155.2,106.9,194.3,146,194.3,194.3L194.3,194.3z"/>
	</g>
</g>
</svg>
