<?xml version="1.0" encoding="utf-8"?>
<!-- Generator: Adobe Illustrator 24.0.3, SVG Export Plug-In . SVG Version: 6.00 Build 0)  -->
<svg version="1.1" id="Layer_1" xmlns="http://www.w3.org/2000/svg" xmlns:xlink="http://www.w3.org/1999/xlink" x="0px" y="0px"
	 viewBox="0 0 603.1 468.8" style="enable-background:new 0 0 603.1 468.8;" xml:space="preserve">
<style type="text/css">
	.st0{fill-rule:evenodd;clip-rule:evenodd;fill:#DDDAE2;}
	.st1{fill-rule:evenodd;clip-rule:evenodd;fill:#BEC1D0;}
	.st2{fill-rule:evenodd;clip-rule:evenodd;fill:#FFFFFF;}
	.st3{fill-rule:evenodd;clip-rule:evenodd;fill:#39353F;}
	.st4{fill-rule:evenodd;clip-rule:evenodd;fill:#AD3B7B;}
	.st5{fill-rule:evenodd;clip-rule:evenodd;fill:#E86376;}
	.st6{fill-rule:evenodd;clip-rule:evenodd;fill:#F79583;}
	.st7{fill-rule:evenodd;clip-rule:evenodd;fill:#CE4193;}
	.st8{fill-rule:evenodd;clip-rule:evenodd;fill:#484856;}
	.st9{fill-rule:evenodd;clip-rule:evenodd;fill:#DE4FA3;}
	.st10{fill-rule:evenodd;clip-rule:evenodd;fill:#DE4EA2;}
	.st11{fill-rule:evenodd;clip-rule:evenodd;fill:#B2515D;}
	.st12{fill-rule:evenodd;clip-rule:evenodd;fill:#FFFCF9;}
</style>
<ellipse transform="matrix(0.7071 -0.7071 0.7071 0.7071 -90.1801 292.2095)" class="st0" cx="307.6" cy="255" rx="195.6" ry="195.6"/>
<path class="st1" d="M307.6,320c35.8,0,65.1-29.2,65.1-65.1c0-35.8-29.2-65.1-65.1-65.1c-35.8,0-65.1,29.2-65.1,65.1
	C242.6,290.8,271.8,320,307.6,320z"/>
<path class="st0" d="M307.6,268c7.2,0,13.1-5.9,13.1-13.1s-5.9-13.1-13.1-13.1c-7.2,0-13.1,5.9-13.1,13.1S300.4,268,307.6,268z"/>
<path class="st2" d="M296.4,0c-10.6,3.6-20.3,12.8-21.8,22.5c-1.4,9.2,3.3,18.2,11.1,22.8c-0.2,4.6,2.1,9,5.8,11.7
	c-0.1,1.4-0.1,2.8,0,4.2c1.1,15.2,12.8,26.9,26.1,26.2c13.3-0.7,23.2-13.5,22-28.7c-1.1-15.2-12.8-26.9-26.1-26.2
	c-3.2,0.2-6.1,1-8.8,2.4c-1.2-0.6-2.5-1.1-3.9-1.4c-5.7-1.1-11.2,1.5-13.7,6.2c-5.3-5-8.1-12.3-7-19.7C281.4,12.1,288.1,4.5,296.4,0
	z"/>
<path class="st2" d="M80.3,140.1c0.9,0.1,1.7,0.4,2.6,0.8l41.4,18.8c5,2.3,7.4,8.3,5.4,13.4l0,0c-2.1,5.1-7.8,7.4-12.9,5.1
	l-41.4-18.8l-0.3-0.1c-0.3,0.2-0.6,0.4-0.9,0.6c-7.7,5-16.2,5.4-19.1,0.8c-2.9-4.6,1-12.4,8.7-17.5
	C69.8,139.2,76.4,138.1,80.3,140.1z"/>
<path class="st3" d="M224,84.5c9.4,4.4,14.3,15.1,11.1,25.3c-0.7,2.2-1.7,4.2-3,6c-6.1,0.1-13-0.9-19.9-3
	c-5.8-1.8-11.1-4.3-15.5-7.1c3.6,2,7.7,3.7,12.1,5.1c7,2.2,13.8,3.1,19.9,3c1.3-1.8,2.3-3.8,3-6C234.5,98.9,231.1,89.7,224,84.5z"/>
<path class="st4" d="M231.5,270.1c-0.1,1-0.1,2-0.3,3c-3,25.2-25.2,37.3-49.5,27.1c-24.3-10.2-41.5-38.8-38.5-64
	c0.1-0.7,0.2-1.4,0.3-2.1c-1.4,24.4,15.4,51.2,38.8,60.9C205.9,305,227.5,293.8,231.5,270.1z"/>
<path class="st3" d="M303.8,33.6c-7.2-1.4-14.2,3.2-15.6,10.4c-1.4,7.2,3.2,14.2,10.4,15.6c7.2,1.4,14.2-3.2,15.6-10.4
	C315.6,42,311,35,303.8,33.6z"/>
<path class="st4" d="M211.3,208.7c24.3,10.2,41.5,38.8,38.5,64c-3,25.2-25.2,37.3-49.5,27.1c-24.3-10.2-41.5-38.8-38.5-64
	S187,198.5,211.3,208.7z"/>
<path class="st3" d="M348.2,107.8v57.8c0,9.3-7.6,16.9-16.9,16.9h0c-9.3,0-16.9-7.6-16.9-16.9v-57.8c0-9.3,7.6-16.9,16.9-16.9h0
	C340.6,90.9,348.2,98.5,348.2,107.8z"/>
<path class="st3" d="M439.2,228.2c-34.5,1.5-67.4-13.7-88.6-41c-21.2-27.3-27.9-62.9-18-96c0.4-1.5,1.6-2.5,3.1-2.8
	c1.5-0.3,3,0.3,3.9,1.5l102.6,131.7c1,1.2,1.1,2.8,0.5,4.2C442,227.3,440.7,228.1,439.2,228.2z"/>
<path class="st2" d="M340,62.4c5.4,7,7,16.2,4.4,24.6c-2.6,8.5-9.2,15.1-17.6,17.8c-0.4,0.1-0.8,0-1-0.2c-0.3-0.3-0.4-0.7-0.3-1
	l12.7-40.9c0.1-0.4,0.4-0.6,0.8-0.7C339.4,62,339.7,62.1,340,62.4z"/>
<path class="st3" d="M337.3,180.4l-44.8,36.5c-7.2,5.9-17.9,4.8-23.7-2.4l0,0c-5.9-7.2-4.8-17.9,2.4-23.7l44.8-36.5
	c7.2-5.9,17.9-4.8,23.7,2.4l0,0C345.6,163.9,344.5,174.6,337.3,180.4z"/>
<path class="st4" d="M197.9,210.9c24.3,10.2,41.5,38.8,38.5,64c-3,25.2-25.2,37.3-49.5,27.1c-24.3-10.2-41.5-38.8-38.5-64
	C151.5,212.9,173.6,200.8,197.9,210.9z"/>
<path class="st0" d="M314,468.8c144.9,0,263.1-10.5,263.1-23.3c0-12.8-118.2-23.3-263.1-23.3c-144.9,0-263.1,10.5-263.1,23.3
	C50.9,458.3,169.1,468.8,314,468.8z"/>
<path class="st5" d="M251.6,332.8c9.6-23.4,7.4-49.8-6.1-71.3c-13.5-21.4-36.4-34.9-61.6-36.4c-1.1-0.1-2.1,0.5-2.7,1.4
	c-0.6,1-0.6,2.1,0,3.1l65.1,103.6c0.6,1,1.6,1.5,2.8,1.4C250.3,334.6,251.2,333.9,251.6,332.8z"/>
<path class="st3" d="M278.1,438.5c4.4-8.9,5.2-19,2.5-28.6c-0.3-1.1-0.7-2.3-1.1-3.4c-1.3,4.1-2.9,8.1-4.8,12
	c-0.4,0.9-1.3,1.4-2.3,1.3c-1-0.1-1.3-1-2-1.7l5.9,20.1c0.1,0.4,0.5,0.7,0.9,0.8C277.5,439.2,277.9,438.9,278.1,438.5z"/>
<path class="st5" d="M283.4,382.6c0.2-8.8-0.9-17.7-3.5-26.3c-6.1-20.8-19.6-38.4-38-49.6c-0.8-0.5-1.9-0.5-2.6,0.1
	c-0.8,0.6-1.1,1.6-0.8,2.5l24.8,84.8C272.4,403.8,283.3,382.7,283.4,382.6L283.4,382.6z"/>
<path class="st2" d="M274.6,418.6c5.6-11.4,8.5-23.6,8.8-36c-0.1,0.1-11,21.2-20.2,11.5l7,24.1c0.3,0.9,1.1,1.6,2,1.7
	C273.2,420,274.1,419.5,274.6,418.6z"/>
<path class="st3" d="M211.7,449.1c48,0,87.1-3.5,87.1-7.8c0-4.3-39.1-7.8-87.1-7.8c-48,0-87.1,3.5-87.1,7.8
	C124.6,445.6,163.8,449.1,211.7,449.1z"/>
<path class="st6" d="M246.7,325.6c-28.2,1.2-55.2-11.2-72.6-33.6c-17.4-22.3-22.8-51.5-14.7-78.6c0.4-1.2,1.3-2.1,2.6-2.3
	c1.2-0.2,2.4,0.2,3.2,1.2l84,107.9c0.8,1,0.9,2.3,0.4,3.4C249.1,324.9,248,325.6,246.7,325.6z"/>
<path class="st2" d="M200.1,204.7c22.6,9.4,38.6,36,35.8,59.4c-2.8,23.4-23.4,34.7-46,25.2c-22.6-9.4-38.6-36-35.8-59.4
	C157,206.5,177.6,195.2,200.1,204.7z"/>
<path class="st3" d="M134.2,424c1.1-11,6.3-21.2,14.6-28.5c1-0.9,2-1.7,3.1-2.5c-1.2,4.7-2.1,9.4-2.6,14.3c-0.1,1.1,0.4,2.1,1.4,2.6
	c1,0.5,1.9-0.1,2.9-0.4L136.2,425c-0.4,0.3-0.9,0.4-1.3,0.2C134.4,424.9,134.1,424.5,134.2,424z"/>
<path class="st6" d="M162.3,367.8c5-8.5,11.4-16.2,18.9-22.9c18.1-16.1,41.3-24.8,65.5-24.5c1.1,0,2,0.7,2.4,1.7
	c0.4,1,0.1,2.1-0.7,2.9l-73.8,65.7C160.2,394.5,162.3,368,162.3,367.8L162.3,367.8z"/>
<path class="st2" d="M149.3,407.2c1.5-14.1,5.9-27.5,13-39.4c0,0.1-2.1,26.6,12.3,22.9l-21,18.7c-0.8,0.7-2,0.9-2.9,0.4
	C149.8,409.3,149.2,408.3,149.3,407.2z"/>
<path class="st5" d="M111.9,171.9L111.9,171.9c-1.4-5.4,1.9-11,7.3-12.4l42.3-10.9c5.4-1.4,11,1.9,12.4,7.3l0,0
	c1.4,5.4-1.9,11-7.3,12.4l-42.3,10.9C118.9,180.7,113.3,177.4,111.9,171.9z"/>
<path class="st4" d="M173.7,142.9c7.1,4.1,9.6,13.1,5.6,20.3c-4.1,7.1-13.1,9.6-20.3,5.6c-7.1-4.1-9.6-13.1-5.6-20.3
	C157.5,141.3,166.6,138.8,173.7,142.9z"/>
<path class="st5" d="M70,149.4L70,149.4c2.1-5.2,8-7.8,13.2-5.7l40.6,16.1c5.2,2.1,7.8,8,5.7,13.2v0c-2.1,5.2-8,7.8-13.2,5.7
	l-40.6-16.1C70.6,160.6,68,154.6,70,149.4z"/>
<path class="st6" d="M82.9,145.1c2.9,4.4-1,12.5-8.7,18c-7.7,5.5-16.2,6.3-19.1,1.9c-2.9-4.4,1-12.5,8.7-18
	C71.5,141.5,80,140.6,82.9,145.1z"/>
<path class="st4" d="M167.4,167.3c-3.3,0.6-6.9,0.1-10.1-1.7c-7.1-4.1-9.6-13.1-5.6-20.3c2.8-5,8.1-7.7,13.5-7.5
	c-4.1,0.8-7.9,3.3-10.1,7.3c-4.1,7.1-1.6,16.2,5.6,20.3C162.8,166.6,165.1,167.2,167.4,167.3z"/>
<path class="st4" d="M201.5,198.1c23.2,9.7,39.6,37,36.7,61c-2.9,24-24,35.6-47.2,25.9c-23.2-9.7-39.6-37-36.7-61
	C157.2,200,178.3,188.4,201.5,198.1z"/>
<path class="st7" d="M222.9,284.2c-8.6,5.1-20,5.7-31.9,0.7c-23.2-9.7-39.6-37-36.7-61c2.1-17.2,13.5-28,28.3-29.2
	c6.6,7.2,11.7,15.9,14.5,25.1c18.2,12.2,30.2,35.4,27.7,56.1C224.4,278.9,223.8,281.6,222.9,284.2z"/>
<path class="st4" d="M208.5,175.1l3.9,43.7c1,11.4-7.5,21.6-18.9,22.6h0c-11.4,1-21.6-7.5-22.6-18.9l-3.9-43.7
	c-1-11.4,7.5-21.6,18.9-22.6h0C197.3,155.2,207.5,163.7,208.5,175.1z"/>
<path class="st4" d="M181.1,141.9l26.7,5.2c7,1.4,11.6,8.2,10.2,15.2l0,0c-1.4,7-8.2,11.6-15.2,10.2l-26.7-5.2
	c-7-1.4-11.6-8.2-10.2-15.2l0,0C167.3,145.1,174.1,140.5,181.1,141.9z"/>
<path class="st3" d="M167.4,94c11.6,1.4,19.9,12,18.5,23.6c-1.4,11.6-11.9,19.9-23.6,18.5c-11.6-1.4-19.9-11.9-18.5-23.6
	C145.2,100.9,155.8,92.6,167.4,94z"/>
<path class="st2" d="M191.4,150.3l-9.4,9.3c-0.3,0.3-0.8,0.3-1,0c-3.3-3.4-4.9-8-4.4-12.7c1-8.5,8.7-14.5,17.2-13.5
	c8.5,1,14.5,8.7,13.5,17.2c-0.8,6.9-6.1,12.3-12.9,13.4c-0.4,0.1-0.8-0.2-0.8-0.6L191.4,150.3z"/>
<path class="st3" d="M181.9,97.8c11.6,1.4,19.9,11.9,18.5,23.6c-1.4,11.6-11.9,19.9-23.6,18.5c-11.6-1.4-19.9-11.9-18.5-23.6
	C159.7,104.7,170.2,96.4,181.9,97.8z"/>
<path class="st6" d="M204.9,116.9L204.9,116.9c5.2,2.1,7.7,8,5.7,13.2l-7.7,19.2c-2.1,5.2-8,7.7-13.2,5.7h0c-5.2-2.1-7.7-8-5.7-13.2
	l7.7-19.2C193.7,117.4,199.7,114.9,204.9,116.9z"/>
<path class="st5" d="M208.5,135.2l-5.7,14.2c-2.1,5.2-8,7.7-13.2,5.7l0,0c-0.2-0.1-0.4-0.2-0.6-0.3l5.7-14.2c2.1-5.2,8-7.7,13.2-5.7
	l0,0C208.1,135,208.3,135.1,208.5,135.2z"/>
<path class="st7" d="M200.7,77.9c9.2,4.4,11.7,14.7,5.5,23.1c-6.2,8.4-18.6,11.6-27.8,7.2c-9.2-4.4-11.7-14.7-5.5-23.1
	C179.1,76.7,191.5,73.5,200.7,77.9z"/>
<path class="st4" d="M206.2,78.7c9.2,4.4,11.7,14.7,5.5,23.1c-6.2,8.4-18.6,11.6-27.8,7.2c-9.2-4.4-11.7-14.7-5.5-23.1
	C184.5,77.5,197,74.3,206.2,78.7z"/>
<path class="st3" d="M204.6,78.8c13.4,1.6,23,13.8,21.3,27.2c-1.6,13.4-13.8,23-27.2,21.3c-13.4-1.6-23-13.8-21.3-27.2
	C179,86.7,191.2,77.2,204.6,78.8z"/>
<path class="st5" d="M212.8,92.8c10.5,4,15.6,17,11.4,28.9c-4.2,11.9-16.1,18.3-26.6,14.3c-10.5-4-15.6-17-11.4-28.9
	C190.5,95.2,202.4,88.8,212.8,92.8z"/>
<path class="st6" d="M202,137.6c-1.5-0.2-3-0.5-4.5-1.1c-10.6-4.1-15.8-17.2-11.5-29.2c2.9-8.2,9.3-13.8,16.4-15.3
	c0.4,0,0.8,0,1.2-0.1c10.4,5.1,15.2,18.6,10.8,31C212,129.7,207.4,134.8,202,137.6z"/>
<path class="st3" d="M191,88.1c5.8,0.7,10,6,9.3,11.8c-0.7,5.8-6,10-11.8,9.3c-5.8-0.7-10-6-9.3-11.8
	C179.9,91.5,185.2,87.4,191,88.1z"/>
<path class="st6" d="M183.9,106.1c3.3,0.4,6,3.8,6.1,7.5c0.1,3.7-2.6,6.3-5.9,5.9c-3.3-0.4-6-3.8-6.1-7.5
	C177.9,108.3,180.6,105.7,183.9,106.1z"/>
<path class="st5" d="M183.9,108.9c0.1,0,0.2,0,0.3,0.1c-1.3,0.4-2.2,1.7-2.2,3.4c0,2,1.4,3.9,3.2,4.3c-0.4,0.1-0.8,0.1-1.2,0.1
	c-1.9-0.3-3.5-2.2-3.5-4.4C180.4,110.2,182,108.6,183.9,108.9z"/>
<path class="st2" d="M182.4,118c0.9,0.1,1.5,0.9,1.4,1.7c-0.1,0.9-0.9,1.5-1.7,1.4c-0.9-0.1-1.5-0.9-1.4-1.7
	C180.8,118.5,181.6,117.9,182.4,118z"/>
<path class="st4" d="M215.8,154.7c8.2,1,14,8.4,13,16.6c-1,8.2-8.4,14-16.6,13c-8.2-1-14-8.4-13-16.6
	C200.2,159.5,207.6,153.7,215.8,154.7z"/>
<path class="st7" d="M171.8,165.2l26.8,4.9c7,1.3,11.7,8,10.4,15v0c-1.3,7-8,11.7-15.1,10.4l-26.8-4.9c-7-1.3-11.7-8-10.4-15v0
	C158,168.6,164.8,163.9,171.8,165.2z"/>
<path class="st5" d="M211.8,163.6L211.8,163.6c4.5-3.4,10.9-2.4,14.3,2l26.2,35c3.4,4.5,2.4,10.9-2,14.3l0,0
	c-4.5,3.4-10.9,2.4-14.3-2l-26.2-35C206.4,173.4,207.3,166.9,211.8,163.6z"/>
<path class="st6" d="M251.9,153.5L251.9,153.5c5.6,0.8,9.5,5.9,8.7,11.5l-5.9,43.3c-0.8,5.6-5.9,9.5-11.5,8.7h0
	c-5.6-0.8-9.5-5.9-8.7-11.5l5.9-43.3C241.2,156.7,246.4,152.8,251.9,153.5z"/>
<path class="st3" d="M321.3,288c33.1-0.9,63.6-17.6,82.1-45.1c18.5-27.5,22.5-62.1,10.8-93.1c-0.5-1.4-1.7-2.3-3.2-2.5
	c-1.5-0.2-2.8,0.5-3.7,1.7L318,282c-0.8,1.2-0.9,2.7-0.2,4C318.5,287.3,319.8,288,321.3,288z"/>
<path class="st3" d="M439.6,404c2.2-13.2-2.1-26.7-11.7-36.2c-9.5-9.5-23-13.7-36.2-11.5c-0.6,0.1-1.1,0.5-1.2,1.1
	c-0.2,0.6,0,1.2,0.4,1.6l46.1,45.8c0.4,0.4,1,0.6,1.6,0.4C439.1,405.1,439.5,404.6,439.6,404z"/>
<path class="st3" d="M420.6,381.3c4.5-27.1-4-54.6-23-74.4l0,0c-0.5-0.5-1-1-1.5-1.5c-20-19.9-48.3-28.8-76-24
	c-1.2,0.2-2.2,1-2.6,2.3c-0.4,1.2-0.1,2.4,0.8,3.3l53.2,52.9l43.5,43.2c0.9,0.9,2.1,1.2,3.3,0.8
	C419.6,383.5,420.4,382.5,420.6,381.3z"/>
<path class="st8" d="M368.3,313.1c32-8.6,57.7-32,69.2-63.2c11.5-31.1,7.3-65.6-11.4-93c-0.8-1.2-2.2-1.8-3.7-1.7
	c-1.5,0.2-2.6,1.1-3.2,2.5L363.7,308c-0.5,1.4-0.2,2.9,0.8,4C365.4,313,366.9,313.5,368.3,313.1z"/>
<path class="st3" d="M443.7,212.3c-1.2-19.5-7.6-38.6-18.9-55.3c-0.9-1.3-2.4-2-3.9-1.8c-1.6,0.2-2.8,1.2-3.4,2.7l-29,78.3
	C388.5,236.2,404.3,199.8,443.7,212.3z"/>
<path class="st3" d="M315.9,444.2c13-3.5,23.4-13,28.1-25.6c4.7-12.6,2.9-26.6-4.6-37.7c-0.3-0.5-0.9-0.7-1.5-0.7
	c-0.6,0.1-1.1,0.4-1.3,1L314,442.1c-0.2,0.6-0.1,1.2,0.3,1.6C314.7,444.2,315.3,444.3,315.9,444.2z"/>
<path class="st8" d="M328.7,417.4c26.5-7.2,48-26.3,58.1-51.8v0c0.3-0.6,0.5-1.3,0.8-1.9c9.8-26.5,6.2-55.8-9.7-79.1
	c-0.7-1-1.9-1.6-3.1-1.4c-1.3,0.2-2.2,0.9-2.7,2.1L346,355.6l-21.3,57.5c-0.4,1.2-0.2,2.4,0.7,3.4
	C326.2,417.4,327.4,417.8,328.7,417.4z"/>
<path class="st2" d="M435,207.2c-32,1.4-62.5-12.7-82.2-38c-19.7-25.3-25.8-58.3-16.7-89c0.4-1.4,1.5-2.3,2.9-2.6
	c1.4-0.3,2.8,0.2,3.6,1.4l95.1,122.1c0.9,1.1,1,2.6,0.4,3.9C437.7,206.3,436.5,207.1,435,207.2z"/>
<path class="st6" d="M307.8,54.1L307.8,54.1c-6.1,6.6-5.8,16.9,0.8,23.1l24.3,22.7c6.6,6.1,16.9,5.8,23.1-0.8l0,0
	c6.1-6.6,5.8-16.9-0.8-23.1l-24.3-22.7C324.4,47.2,314,47.5,307.8,54.1z"/>
<path class="st5" d="M318.1,86.1l14.8,13.8c6.6,6.1,16.9,5.8,23.1-0.8l0,0c0.7-0.7,1.3-1.5,1.8-2.4L343,82.9
	c-6.6-6.1-16.9-5.8-23.1,0.8l0,0C319.2,84.4,318.6,85.2,318.1,86.1z"/>
<path class="st3" d="M327.3,20.3c-10.9-2.2-21.4,4.8-23.6,15.7c-2.2,10.9,4.8,21.4,15.7,23.6c10.9,2.2,21.4-4.8,23.6-15.7
	C345.2,33,338.1,22.4,327.3,20.3z"/>
<path class="st5" d="M316.5,32.6c-13.3,0.7-23.9,13.5-23.6,28.7c0.3,15.2,11.4,26.9,24.7,26.2c13.3-0.7,23.9-13.5,23.6-28.7
	C340.9,43.6,329.9,31.9,316.5,32.6z"/>
<path class="st6" d="M312.6,87.1c1.6,0.3,3.4,0.4,5.1,0.3c13.3-0.7,23.9-13.5,23.6-28.7c-0.2-11.6-6.8-21.2-15.8-24.7
	c-13.1,2.2-23.1,15.4-22.8,30.8C302.9,74,306.7,82,312.6,87.1z"/>
<path class="st3" d="M340.7,40.5c-7.2-1.4-14.2,3.2-15.6,10.4c-1.4,7.2,3.2,14.2,10.4,15.6c2.4,0.5,4.8,0.3,7-0.5
	c-0.5-2.7-0.5-5.8,0.2-8.9c1.1-4.5,3.4-8.4,6.3-11.1C347.1,43.2,344.2,41.2,340.7,40.5z"/>
<path class="st6" d="M339.4,58.4c-4.4-0.9-9.2,2.1-10.6,6.6c-1.5,4.5,0.9,8.9,5.3,9.7c4.4,0.9,9.2-2.1,10.6-6.6
	C346.2,63.6,343.8,59.3,339.4,58.4z"/>
<path class="st5" d="M338.3,61.8c-0.2,0-0.3-0.1-0.5-0.1c1.5,1,2.2,3,1.6,5.1c-0.8,2.5-3.3,4.2-5.8,3.9c0.4,0.3,1,0.5,1.5,0.6
	c2.6,0.5,5.4-1.2,6.2-3.9C342.2,64.9,340.8,62.3,338.3,61.8z"/>
<path class="st3" d="M282.8,26.6c-2.4,11.8,5.2,23.3,17,25.6c11.8,2.4,23.3-5.2,25.6-17c0.8-3.8,0.5-7.6-0.6-11
	c0.8-0.9,1.6-1.8,2.2-2.7c0.2-0.4,0.5-0.7,0.7-1.1c-8.2-2.5-11.2-9.7-6.9-17.1c-0.5-0.2-1-0.3-1.6-0.4
	C305.3,0,285.6,12.7,282.8,26.6z"/>
<path class="st3" d="M330.8,31c-5.7-1.1-11.2,2.5-12.4,8.2c-1.1,5.7,2.5,11.2,8.2,12.4c5.7,1.1,11.2-2.5,12.4-8.2
	C340.2,37.7,336.5,32.2,330.8,31z"/>
<path class="st8" d="M477.3,224.5c-37.6,1.6-73.6-14.9-96.8-44.7C357.3,150,350.1,111.1,360.9,75c0.5-1.6,1.7-2.8,3.4-3.1
	c1.7-0.3,3.2,0.3,4.3,1.6l112.1,143.9c1,1.3,1.2,3,0.5,4.6C480.4,223.5,479,224.4,477.3,224.5z"/>
<path class="st3" d="M358,86.6c0.7-3.9,1.7-7.8,2.8-11.7c0.5-1.6,1.7-2.8,3.4-3.1c1.7-0.3,3.2,0.3,4.3,1.6l82.3,105.6
	c-27.6-5.2-52.6-20.2-70.3-42.9C369,121.5,361.4,104.5,358,86.6z"/>
<path class="st8" d="M316.9,145.6c16.2-9.2,24.9-25.2,24.1-41c-2.5,12.1-10.6,23.5-23.3,30.7c-27.4,15.6-43.5-2.6-70.9,13
	c-16.2,9.2-24.9,25.2-24.1,41c2.5-12.1,10.6-23.5,23.3-30.7C273.3,143.1,289.5,161.2,316.9,145.6z"/>
<path class="st3" d="M433.6,49.9L482.8,80c7.9,4.8,10.4,15.3,5.6,23.2l0,0c-4.8,7.9-15.3,10.4-23.2,5.6l-49.3-30.2
	c-7.9-4.8-10.4-15.3-5.6-23.2l0,0C415.2,47.5,425.6,45,433.6,49.9z"/>
<path class="st3" d="M402.2,449.1c52.8,0,95.9-3.5,95.9-7.8c0-4.3-43.1-7.8-95.9-7.8s-95.9,3.5-95.9,7.8
	C306.3,445.6,349.4,449.1,402.2,449.1z"/>
<path class="st2" d="M355.6,65.7c5.4,7,7,16.2,4.4,24.6c-2.6,8.5-9.2,15.1-17.6,17.8c-0.4,0.1-0.8,0-1-0.2c-0.3-0.3-0.4-0.7-0.3-1
	L353.8,66c0.1-0.4,0.4-0.6,0.8-0.7C355,65.2,355.4,65.4,355.6,65.7z"/>
<path class="st3" d="M363.4,66.6L418,47.5c8.8-3.1,18.4,1.6,21.5,10.3v0c3.1,8.8-1.6,18.4-10.3,21.5l-54.5,19.1
	c-8.8,3.1-18.4-1.6-21.5-10.3l0,0C350,79.4,354.7,69.7,363.4,66.6z"/>
<path class="st3" d="M385.8,169.3c-18.3-6.3-32.4-21-37.8-39.6c-5.5-18.6-1.6-38.6,10.4-53.8c0.5-0.7,1.4-1,2.2-0.8
	c0.9,0.2,1.5,0.8,1.7,1.6l26.4,89.9c0.2,0.8,0,1.7-0.6,2.3C387.5,169.4,386.6,169.6,385.8,169.3z"/>
<path class="st3" d="M217.7,85.1c11.1,3.5,17.2,15.2,13.8,26.3c-0.7,2.2-1.7,4.2-3,6c-6.1,0.1-13-0.9-19.9-3
	c-7-2.2-13.2-5.3-18.1-8.9c0-2.2,0.3-4.4,1-6.6C194.9,87.8,206.6,81.6,217.7,85.1z"/>
<path class="st8" d="M299.1,14.7c-4.8,1.4-9.3,4.3-11.9,8.1c-4.3,6.3-1.6,12.8,6,14.3c4.6,1,9.9-0.1,14.3-2.4
	c-3.2,0.9-6.6,1.2-9.7,0.5c-7.6-1.6-10.3-8-6-14.3C293.6,18.4,296.2,16.3,299.1,14.7z"/>
<path class="st4" d="M352.1,112c4.9,0,9.7,4,10.6,8.9c0.9,4.9-2.4,8.9-7.3,8.9c-4.9,0-9.7-4-10.6-8.9C343.9,116,347.2,112,352.1,112
	z"/>
<path class="st7" d="M349.2,113.3c3.1,0,6.1,2.5,6.7,5.7c0.6,3.1-1.5,5.7-4.6,5.7c-3.1,0-6.1-2.5-6.7-5.7
	C344,115.8,346.1,113.3,349.2,113.3z"/>
<path class="st9" d="M347.7,113.3c2.1,0,4.2,1.7,4.5,3.8c0.4,2.1-1,3.8-3.1,3.8c-2.1,0-4.2-1.7-4.5-3.8
	C344.2,115,345.6,113.3,347.7,113.3z"/>
<path class="st7" d="M202.4,193.7c-2.8,4.2-7.9,6.6-13.1,5.6l-26.8-4.9c-7-1.3-11.7-8-10.4-15.1v0c0.5-3,2.1-5.6,4.3-7.5
	c-0.9,1.4-1.6,3-1.9,4.8v0c-1.3,7,3.4,13.8,10.4,15.1l26.8,4.9C195.6,197.3,199.5,196.1,202.4,193.7z"/>
<path class="st10" d="M211.5,130c-0.4,2-2.4,3.2-4.4,2.8c-2-0.4-3.2-2.4-2.8-4.4c0.1-0.6,0.7-1,1.3-0.9l4.9,1.1
	C211.2,128.8,211.6,129.4,211.5,130z"/>
<path class="st3" d="M197.4,113c0,0,0.1,2,3.1,2.8c-0.2,1.5,0.7,3.1,2,3.8c1.4,0.7,2.9,0,3.3-1.6c0.1-0.2,0.1-0.5,0.1-0.7
	c-0.6,1.1-1.8,1.6-3,1c-1.2-0.6-2-2.1-2-3.5C200.8,114.8,198.9,115.2,197.4,113z"/>
<path class="st3" d="M226.9,119.1c0,0-0.7,1.8-3.8,1.8c-0.3,1.5-1.6,2.8-3,3c-1.6,0.3-2.8-0.9-2.6-2.5c0-0.2,0.1-0.5,0.1-0.7
	c0.2,1.3,1.3,2.1,2.6,1.8c1.4-0.2,2.6-1.4,2.9-2.7C223.1,119.7,224.8,120.6,226.9,119.1z"/>
<path class="st2" d="M210.4,130.2c-0.3,1.2-1.5,2-2.7,1.8c-1.2-0.3-2-1.5-1.8-2.7c0.1-0.4,0.5-0.6,0.8-0.5l3.1,0.7
	C210.2,129.4,210.4,129.8,210.4,130.2z"/>
<path class="st8" d="M223.4,92.2c6.6,2.4,10.1,9.6,8,16.3c-0.4,1.4-1.1,2.6-1.9,3.8c-3.8,0.1-8.1-0.5-12.5-1.9
	c-3-0.9-5.8-2.2-8.3-3.6c1.7,0.8,3.5,1.5,5.4,2.1c4.4,1.4,8.7,2,12.5,1.9c0.8-1.1,1.4-2.4,1.9-3.8C230.3,101.4,228,95.4,223.4,92.2z
	"/>
<path class="st8" d="M173.5,128c-3.7,3.4-8.8,5.3-14.1,4.6c-9.7-1.2-16.5-9.9-15.4-19.6c1-7.9,7-13.9,14.4-15.2
	c-2.9,2.7-5,6.5-5.5,10.8c-1.2,9.7,5.7,18.4,15.4,19.6C170.1,128.4,171.8,128.3,173.5,128z"/>
<path class="st11" d="M318.1,59.7c0,0.3,0.1,0.6,0,0.9c-0.2,2-1.6,3.9-3.3,4.2c-1.7,0.3-2.9-1.2-2.8-3.2c0-0.3,0.1-0.6,0.2-1
	c0.2,1.5,1.3,2.5,2.7,2.3C316.4,62.7,317.7,61.3,318.1,59.7z"/>
<path class="st11" d="M299,61.5c0,0.2,0,0.5,0,0.7c-0.1,1.7-1.3,3.2-2.7,3.4c-1.4,0.2-2.4-0.9-2.2-2.6c0-0.3,0.1-0.5,0.1-0.8
	c0.2,1.2,1.1,2,2.2,1.8C297.6,63.9,298.6,62.8,299,61.5z"/>
<path class="st3" d="M170.5,132.6c-3.6,1.9-7.9,2.7-12.3,2.2c-11.6-1.4-19.9-11.9-18.5-23.6c1-8.3,6.7-14.9,14.1-17.5
	c-6,3.1-10.4,9-11.3,16.3c-1.4,11.6,6.9,22.2,18.5,23.6C164.4,134,167.6,133.7,170.5,132.6z"/>
<path class="st8" d="M445.2,68l35.6,21.8c5.7,3.5,7.5,11,4,16.8l0,0c-3.5,5.7-11,7.5-16.8,4l-35.6-21.8c-5.7-3.5-7.5-11-4-16.8h0
	C432,66.3,439.5,64.5,445.2,68z"/>
<path class="st12" d="M465.8,86L465.8,86c6.4-5.5,16.1-4.7,21.5,1.7l3.7,4.3c5.5,6.4,4.7,16.1-1.7,21.5l0,0
	c-6.4,5.5-16.1,4.7-21.5-1.7l-3.7-4.3C458.7,101.1,459.4,91.4,465.8,86z"/>
<path class="st8" d="M315.6,182l-28.2,23c-4.5,3.7-11.3,3-15-1.5l0,0c-3.7-4.5-3-11.3,1.5-15l28.2-23c4.5-3.7,11.3-3,15,1.5l0,0
	C320.9,171.6,320.2,178.3,315.6,182z"/>
<path class="st2" d="M284.9,192.3L284.9,192.3c7.1,2.1,11.1,9.7,9,16.8l-1.4,4.8c-2.1,7.1-9.7,11.1-16.8,9l0,0
	c-7.1-2.1-11.1-9.7-9-16.8l1.4-4.8C270.3,194.3,277.8,190.2,284.9,192.3z"/>
<path class="st6" d="M282.5,200.3L282.5,200.3c8.9,2.7,14,12.1,11.3,21l-1.8,6c-2.7,8.9-12.1,14-21,11.3l0,0
	c-8.9-2.7-14-12.1-11.3-21l1.8-6C264.2,202.8,273.6,197.7,282.5,200.3z"/>
<path class="st10" d="M215.9,230.8c3.9,6.5,5.8,14,5,21c-1.7,14.1-14.1,20.9-27.8,15.2c-13.1-5.5-22.5-20.4-21.7-34.1
	c3.9,6.5,9.8,12,16.6,14.9c13.6,5.7,26.1-1.1,27.8-15.2C215.9,232,215.9,231.4,215.9,230.8z"/>
<path class="st10" d="M170.3,164.9l14.5,2.6c3.8,0.7,6.3,4.3,5.6,8.1l0,0c-0.7,3.8-4.3,6.3-8.1,5.6l-14.5-2.6
	c-3.8-0.7-6.3-4.3-5.6-8.1l0,0C162.9,166.8,166.5,164.3,170.3,164.9z"/>
<path class="st7" d="M165.1,160.7c-2.4,1.5-5.4,1.7-8,0.2c-3.7-2.1-5.1-6.9-2.9-10.6c1.4-2.5,4.1-3.9,6.8-3.9
	c-1,0.7-1.9,1.6-2.6,2.7c-2.1,3.7-0.8,8.5,2.9,10.6C162.5,160.3,163.8,160.7,165.1,160.7z"/>
<path class="st4" d="M316.2,74.6c0.8,4.4-1.6,8.1-5.5,8.3c-3.9,0.2-7.7-3.2-8.5-7.5c-0.3-1.3,0.5-2.5,1.7-2.6l9.7-0.5
	C314.8,72.3,316,73.3,316.2,74.6z"/>
<path class="st9" d="M316.2,74.6c0.8,4.4-1.6,8.1-5.5,8.3c-1.2,0.1-2.5-0.2-3.6-0.8c0.5-4,3.5-7.4,7-7.8c0.7-0.1,1.4,0,2,0.1
	L316.2,74.6z"/>
<path class="st12" d="M315.6,79.6c-0.9,1.9-2.7,3.2-4.9,3.3c-1.4,0.1-2.8-0.3-4.1-1.1c1.3-1.7,3.1-2.9,5.1-3.2
	C313.2,78.5,314.5,78.9,315.6,79.6z"/>
<path class="st12" d="M303.6,72.9c0.1,0,0.2,0,0.3,0l9.7-0.5c0.6,0,1.2,0.2,1.7,0.7c-0.9,2-2.7,3.3-5,3.4
	C307.8,76.6,305.3,75.1,303.6,72.9z"/>
<path class="st3" d="M301.1,0c-10.8,3.6-21,12.8-23,22.5c-2.4,11.8,5.2,23.3,17,25.6c5.6,1.1,11.1,0,15.6-2.7
	c-3.1,0.8-6.5,1-9.9,0.3c-11.8-2.4-19.4-13.9-17-25.6C285.4,12.1,292.6,4.5,301.1,0z"/>
<path class="st3" d="M309.2,54.7c0,0,1.9,1.2,4.8-1.7c4.2-4.2,7.5-2.6,7.5-2.6l0,0c-6.5,0.7-6.5,9.7-13.7,6.3
	C306.8,56.3,307.3,54,309.2,54.7z"/>
<path class="st3" d="M299.3,61.6c0,0-0.8-1.7-4.2-0.9c-4.9,1.2-6.6-1.3-6.6-1.3l0,0c5,2.3,8.9-4.2,12.7,1.4
	C301.7,61.5,300.3,63,299.3,61.6z"/>
<path class="st6" d="M236.5,140.1c4.4-4.5,12.8-2.1,18.8,5.6c6,7.6,7.4,17.5,3,22c-4.4,4.5-12.8,2.1-18.8-5.6
	C233.4,154.5,232.1,144.6,236.5,140.1z"/>
<g>
	<path class="st0" d="M2,252.2c-0.4,0.5-1.1,0.5-1.6,0.1c-0.5-0.4-0.5-1.1-0.1-1.6c0.1-0.1,20.7-22.7,58.5-15.8
		c36.5,6.7,58-19.4,58.1-19.5c0.4-0.5,1.1-0.5,1.6-0.1c0.5,0.4,0.5,1.1,0.1,1.6c-0.1,0.1-22.4,27.2-60.2,20.2
		C21.8,230.4,2,252.1,2,252.2z"/>
	<path class="st0" d="M2,265.4c-0.4,0.5-1.1,0.5-1.6,0.1c-0.5-0.4-0.5-1.1-0.1-1.6c0.1-0.1,20.7-22.7,58.5-15.8
		c36.5,6.7,58-19.4,58.1-19.5c0.4-0.5,1.1-0.5,1.6-0.1c0.5,0.4,0.5,1.1,0.1,1.6c-0.1,0.1-22.4,27.2-60.2,20.2
		C21.8,243.6,2,265.3,2,265.4z"/>
	<path class="st0" d="M84.2,215c-0.5,0.4-0.8,1-0.8,1.7c0,0,0,0.1,0,0.1l-0.3,6.1c-1.2-0.7-2.7-0.7-3.7,0.1
		c-1.4,1.1-1.5,3.2-0.2,4.7c1.3,1.5,3.4,1.9,4.8,0.8c0.7-0.6,1.1-1.4,1.1-2.3l0,0l0.4-6.9c0.7,0.2,1.5,0.1,2.2-0.3
		c1-0.8,1.1-2.3,0.2-3.4C86.8,214.4,85.2,214.2,84.2,215z"/>
</g>
<path class="st3" d="M40.2,241.6c-0.5,0.4-0.8,1-0.8,1.7c0,0,0,0.1,0,0.1l-0.3,6.1c-1.2-0.7-2.7-0.7-3.7,0.1
	c-1.4,1.1-1.5,3.2-0.2,4.7c1.3,1.5,3.4,1.9,4.8,0.8c0.7-0.6,1.1-1.4,1.1-2.3l0,0l0.4-6.9c0.7,0.2,1.5,0.1,2.2-0.3
	c1-0.8,1.1-2.3,0.2-3.4C42.7,241.1,41.2,240.8,40.2,241.6z"/>
<path class="st3" d="M25.4,254.8c-0.5,0.4-0.8,1-0.8,1.7c0,0,0,0.1,0,0.1l-0.3,6.1c-1.2-0.7-2.7-0.7-3.7,0.1
	c-1.4,1.1-1.5,3.2-0.2,4.7c1.3,1.5,3.4,1.9,4.8,0.8c0.7-0.6,1.1-1.4,1.1-2.3l0,0l0.4-6.9c0.7,0.2,1.5,0.1,2.2-0.3
	c1-0.8,1.1-2.3,0.2-3.4C27.9,254.3,26.4,254,25.4,254.8z"/>
<path class="st3" d="M105.3,233c-0.5,0.4-0.8,1-0.8,1.7c0,0,0,0.1,0,0.1l-0.3,6.1c-1.2-0.7-2.7-0.7-3.7,0.1
	c-1.4,1.1-1.5,3.2-0.2,4.7c1.3,1.5,3.4,1.9,4.8,0.8c0.7-0.6,1.1-1.4,1.1-2.3l0,0l0.4-6.9c0.7,0.2,1.5,0.1,2.2-0.3
	c1-0.8,1.1-2.3,0.2-3.4C107.9,232.4,106.3,232.2,105.3,233z"/>
<path class="st0" d="M486.3,319.4c-0.4,0.5-1.1,0.5-1.6,0.1c-0.5-0.4-0.5-1.1-0.1-1.6c0.1-0.1,20.7-22.7,58.5-15.8
	c36.5,6.7,58-19.4,58.1-19.5c0.4-0.5,1.1-0.5,1.6-0.1c0.5,0.4,0.5,1.1,0.1,1.6c-0.1,0.1-22.4,27.2-60.2,20.2
	C506.2,297.6,486.3,319.3,486.3,319.4L486.3,319.4z M568.5,269c-0.5,0.4-0.8,1-0.8,1.7c0,0,0,0.1,0,0.1l-0.3,6.1
	c-1.2-0.7-2.7-0.7-3.7,0.1c-1.4,1.1-1.5,3.2-0.2,4.7c1.3,1.5,3.4,1.9,4.8,0.8c0.7-0.6,1.1-1.4,1.1-2.3l0,0l0.4-6.9
	c0.7,0.2,1.5,0.1,2.2-0.3c1-0.8,1.1-2.3,0.2-3.4C571.1,268.4,569.6,268.2,568.5,269L568.5,269z M486.3,306.2
	c0.1-0.1,19.9-21.8,56.4-15.1c37.8,6.9,60.1-20.2,60.2-20.2c0.4-0.5,0.3-1.2-0.1-1.6c-0.5-0.4-1.2-0.3-1.6,0.1
	c-0.1,0.1-21.6,26.2-58.1,19.5c-37.7-6.9-58.4,15.8-58.5,15.8c-0.4,0.5-0.4,1.2,0.1,1.6C485.1,306.7,485.8,306.7,486.3,306.2z"/>
<path class="st3" d="M524.5,295.6c-0.5,0.4-0.8,1-0.8,1.7c0,0,0,0.1,0,0.1l-0.3,6.1c-1.2-0.7-2.7-0.7-3.7,0.1
	c-1.4,1.1-1.5,3.2-0.2,4.7c1.3,1.5,3.4,1.9,4.8,0.8c0.7-0.6,1.1-1.4,1.1-2.3l0,0l0.4-6.9c0.7,0.2,1.5,0.1,2.2-0.3
	c1-0.8,1.1-2.3,0.2-3.4C527.1,295.1,525.5,294.8,524.5,295.6z"/>
<path class="st3" d="M560.9,258.5c-0.5,0.4-0.8,1-0.8,1.7c0,0,0,0.1,0,0.1l-0.3,6.1c-1.2-0.7-2.7-0.7-3.7,0.1
	c-1.4,1.1-1.5,3.2-0.2,4.7c1.3,1.5,3.4,1.9,4.8,0.8c0.7-0.6,1.1-1.4,1.1-2.3l0,0l0.4-6.9c0.7,0.2,1.5,0.1,2.2-0.3
	c1-0.8,1.1-2.3,0.2-3.4C563.5,257.9,561.9,257.7,560.9,258.5z"/>
<path class="st3" d="M589.6,287c-0.5,0.4-0.8,1-0.8,1.7c0,0,0,0.1,0,0.1l-0.3,6.1c-1.2-0.7-2.7-0.7-3.7,0.1
	c-1.4,1.1-1.5,3.2-0.2,4.7c1.3,1.5,3.4,1.9,4.8,0.8c0.7-0.6,1.1-1.4,1.1-2.3l0,0l0.4-6.9c0.7,0.2,1.5,0.1,2.2-0.3
	c1-0.8,1.1-2.3,0.2-3.4C592.2,286.5,590.6,286.2,589.6,287z"/>
<path class="st8" d="M440.8,43.2c-5.8-1.9-13.6,4.8-17.4,15c-2,5.4-2.5,10.7-1.7,14.8c-0.1-3.5,0.5-7.5,2.1-11.6
	c3.8-10.2,11.6-16.9,17.4-15c2.7,0.9,4.5,3.5,5.3,7.1C446.2,48.2,444.3,44.3,440.8,43.2z"/>
<path class="st3" d="M424.8,34.7c-7.3,0.1-13.5,10.7-14,23.6c-0.2,6.9,1.2,13.1,3.7,17.3c-1.5-3.9-2.3-8.7-2.1-13.9
	c0.4-13,6.7-23.5,14-23.6c3.4,0,6.4,2.2,8.6,6C432.9,38.3,429.2,34.6,424.8,34.7z"/>
<path class="st12" d="M307.1,296c4.4,5.8,16.7,4.4,27.3-3c5.7-3.9,9.7-8.8,11.6-13.4c-2.2,3.5-5.6,7-9.9,10
	c-10.6,7.4-22.9,8.8-27.3,3c-2.1-2.7-2.1-6.5-0.4-10.5C305.2,287.4,304.5,292.6,307.1,296z"/>
<path class="st2" d="M181,120.5c1.6,0.2,2.7,1.6,2.5,3.2c-0.2,1.6-1.6,2.7-3.2,2.5c-1.6-0.2-2.7-1.6-2.5-3.2
	C177.9,121.4,179.4,120.3,181,120.5z"/>
<path class="st2" d="M189.9,152.2c1.9,0.2,3.3,2,3,3.9c-0.2,1.9-2,3.3-3.9,3c-1.9-0.2-3.3-2-3-3.9
	C186.3,153.3,188,151.9,189.9,152.2z"/>
<path class="st0" d="M241.5,48.6c3.5,3.5,3.5,9.2,0,12.7c-3.5,3.5-9.2,3.5-12.7,0c-3.5-3.5-3.5-9.2,0-12.7
	C232.3,45.1,238,45.1,241.5,48.6z"/>
<path class="st0" d="M250.8,39.3c1.4,1.4,1.4,3.6,0,5c-1.4,1.4-3.6,1.4-5,0c-1.4-1.4-1.4-3.6,0-5C247.2,37.9,249.4,37.9,250.8,39.3z
	"/>
<path class="st2" d="M187.4,161.5c0.8,0.1,1.3,0.8,1.2,1.5c-0.1,0.8-0.8,1.3-1.5,1.2c-0.8-0.1-1.3-0.8-1.2-1.5
	C185.9,161.9,186.6,161.4,187.4,161.5z"/>
<path class="st4" d="M164.4,178.1c-0.8,0.9-2.2,1.1-3.2,0.4c-1.1-0.8-1.5-2.3-0.7-3.4c0.3-0.4,0.7-0.8,1.1-0.9
	c-0.1,0.1-0.2,0.2-0.2,0.3c-0.8,1.1-0.4,2.7,0.7,3.4C162.8,178.3,163.6,178.4,164.4,178.1z"/>
<path class="st4" d="M200.9,178.3c0.8,0.9,0.7,2.3-0.1,3.2c-0.9,1-2.5,1.1-3.5,0.2c-0.4-0.4-0.6-0.8-0.7-1.3
	c0.1,0.1,0.2,0.2,0.3,0.3c1,0.9,2.6,0.9,3.5-0.2C200.9,179.9,201.1,179.1,200.9,178.3z"/>
<path class="st0" d="M477,398.8c3.5,3.5,3.5,9.2,0,12.7c-3.5,3.5-9.2,3.5-12.7,0c-3.5-3.5-3.5-9.2,0-12.7
	C467.9,395.3,473.6,395.3,477,398.8z"/>
<path class="st0" d="M486.4,389.5c1.4,1.4,1.4,3.6,0,5c-1.4,1.4-3.6,1.4-5,0c-1.4-1.4-1.4-3.6,0-5
	C482.7,388.1,485,388.1,486.4,389.5z"/>
<path class="st3" d="M356.3,426.8c1.2,1.2,1.2,3.2,0,4.4c-1.2,1.2-3.2,1.2-4.4,0c-1.2-1.2-1.2-3.2,0-4.4
	C353.1,425.6,355.1,425.6,356.3,426.8z"/>
<circle class="st3" cx="358.7" cy="424.4" r="1.2"/>
<path class="st8" d="M125.1,415.3c-1.2,1.2-1.2,3.2,0,4.4c1.2,1.2,3.2,1.2,4.4,0c1.2-1.2,1.2-3.2,0-4.4
	C128.3,414,126.3,414,125.1,415.3z"/>
<circle class="st8" cx="122.7" cy="412.9" r="1.2"/>
<path class="st6" d="M472,93.2L472,93.2c8-6.8,20.1-5.9,27,2.1l4.6,5.4c6.8,8,5.9,20.1-2.1,27l0,0c-8,6.8-20.1,5.9-27-2.1l-4.6-5.4
	C463,112.2,464,100,472,93.2z"/>
<path class="st2" d="M160.9,116.5c-1.2,0.3-2.1,1.2-2.4,2.4c0,0.1-0.1,0.1-0.2,0.1c-0.1,0-0.1-0.1-0.2-0.1c-0.3-1.2-1.2-2.1-2.4-2.4
	c-0.1,0-0.1-0.1-0.1-0.2c0-0.1,0.1-0.1,0.1-0.2c1.2-0.3,2.1-1.2,2.4-2.4c0-0.1,0.1-0.1,0.2-0.1c0.1,0,0.1,0.1,0.2,0.1
	c0.3,1.2,1.2,2.1,2.4,2.4c0.1,0,0.1,0.1,0.1,0.2C161,116.4,160.9,116.4,160.9,116.5z"/>
<path class="st2" d="M195.3,277.2c-1.2,0.3-2.2,1.3-2.5,2.5c0,0.1-0.1,0.1-0.2,0.1c-0.1,0-0.2-0.1-0.2-0.1c-0.3-1.2-1.3-2.2-2.5-2.5
	c-0.1,0-0.1-0.1-0.1-0.2c0-0.1,0.1-0.2,0.1-0.2c1.2-0.3,2.2-1.3,2.5-2.5c0-0.1,0.1-0.1,0.2-0.1c0.1,0,0.2,0.1,0.2,0.1
	c0.3,1.2,1.3,2.2,2.5,2.5c0.1,0,0.1,0.1,0.1,0.2C195.4,277.1,195.4,277.1,195.3,277.2z"/>
<path class="st2" d="M177.3,259.9c-0.7,0.2-1.2,0.7-1.3,1.3c0,0,0,0.1-0.1,0.1c0,0-0.1,0-0.1-0.1c-0.2-0.7-0.7-1.2-1.3-1.3
	c0,0-0.1,0-0.1-0.1c0,0,0-0.1,0.1-0.1c0.7-0.2,1.2-0.7,1.3-1.3c0,0,0-0.1,0.1-0.1c0,0,0.1,0,0.1,0.1c0.2,0.7,0.7,1.2,1.3,1.3
	C177.4,259.8,177.4,259.8,177.3,259.9C177.4,259.9,177.4,259.9,177.3,259.9z"/>
<path class="st2" d="M225.7,257.9c-1,0.3-1.7,1-2,2c0,0.1-0.1,0.1-0.1,0.1c-0.1,0-0.1,0-0.1-0.1c-0.3-1-1-1.7-2-2
	c-0.1,0-0.1-0.1-0.1-0.1s0-0.1,0.1-0.1c1-0.3,1.7-1,2-2c0-0.1,0.1-0.1,0.1-0.1c0.1,0,0.1,0,0.1,0.1c0.2,1,1,1.7,2,2
	c0.1,0,0.1,0.1,0.1,0.1S225.7,257.9,225.7,257.9z"/>
<path class="st2" d="M357.9,115.9c-1.9,0.5-3.4,2-3.8,3.8c0,0.1-0.1,0.2-0.3,0.2c-0.1,0-0.2-0.1-0.3-0.2c-0.5-1.9-2-3.4-3.8-3.8
	c-0.1,0-0.2-0.1-0.2-0.3c0-0.1,0.1-0.2,0.2-0.3c1.9-0.5,3.4-2,3.8-3.8c0-0.1,0.1-0.2,0.3-0.2c0.1,0,0.2,0.1,0.3,0.2
	c0.5,1.9,2,3.4,3.8,3.8c0.1,0,0.2,0.1,0.2,0.3C358.1,115.8,358,115.9,357.9,115.9z"/>
<path class="st0" d="M481.5,51.3c1.8,1.8,1.8,4.6,0,6.4c-1.8,1.8-4.6,1.8-6.4,0c-1.8-1.8-1.8-4.6,0-6.4
	C476.9,49.5,479.7,49.5,481.5,51.3z"/>
<path class="st0" d="M486.2,46.6c0.7,0.7,0.7,1.8,0,2.5c-0.7,0.7-1.8,0.7-2.5,0c-0.7-0.7-0.7-1.8,0-2.5
	C484.3,45.9,485.5,45.9,486.2,46.6z"/>
</svg>
