<?xml version="1.0" encoding="utf-8"?>
<!-- Generator: Adobe Illustrator 24.0.3, SVG Export Plug-In . SVG Version: 6.00 Build 0)  -->
<svg version="1.1" id="Layer_1" xmlns="http://www.w3.org/2000/svg" xmlns:xlink="http://www.w3.org/1999/xlink" x="0px" y="0px"
	 viewBox="0 0 2500 1664" style="enable-background:new 0 0 2500 1664;" xml:space="preserve">
<style type="text/css">
	.st0{fill-rule:evenodd;clip-rule:evenodd;fill:#CBC9D4;}
	.st1{fill-rule:evenodd;clip-rule:evenodd;fill:#FFFFFF;}
	.st2{fill-rule:evenodd;clip-rule:evenodd;fill:#EAE9EF;}
	.st3{fill-rule:evenodd;clip-rule:evenodd;fill:#F8F8FD;}
	.st4{fill-rule:evenodd;clip-rule:evenodd;fill:#D9D8E2;}
	.st5{fill-rule:evenodd;clip-rule:evenodd;fill:#EDECED;}
	.st6{fill-rule:evenodd;clip-rule:evenodd;fill:#E0DFE6;}
	.st7{fill-rule:evenodd;clip-rule:evenodd;fill:#322C34;}
	.st8{fill-rule:evenodd;clip-rule:evenodd;fill:#1A151C;}
	.st9{fill-rule:evenodd;clip-rule:evenodd;fill:#454047;}
	.st10{fill-rule:evenodd;clip-rule:evenodd;fill:#2D1A1D;}
	.st11{fill-rule:evenodd;clip-rule:evenodd;fill:#F6CC1B;}
	.st12{fill-rule:evenodd;clip-rule:evenodd;fill:#F6901B;}
	.st13{fill-rule:evenodd;clip-rule:evenodd;fill:#D37416;}
	.st14{fill-rule:evenodd;clip-rule:evenodd;fill:#ED7989;}
	.st15{fill-rule:evenodd;clip-rule:evenodd;fill:#C55365;}
	.st16{fill-rule:evenodd;clip-rule:evenodd;fill:#F4ABB5;}
	.st17{fill-rule:evenodd;clip-rule:evenodd;fill:#4C464E;}
	.st18{fill-rule:evenodd;clip-rule:evenodd;fill:#655F67;}
	.st19{fill-rule:evenodd;clip-rule:evenodd;fill:#C96E12;}
	.st20{fill-rule:evenodd;clip-rule:evenodd;fill:#FFFFE8;}
	.st21{fill-rule:evenodd;clip-rule:evenodd;fill:#EA7F13;}
	.st22{fill-rule:evenodd;clip-rule:evenodd;fill:#C7C6D5;}
	.st23{fill-rule:evenodd;clip-rule:evenodd;fill:#2E1A47;}
	.st24{fill-rule:evenodd;clip-rule:evenodd;fill:#5F2D78;}
	.st25{fill-rule:evenodd;clip-rule:evenodd;fill:#6D676F;}
	.st26{fill-rule:evenodd;clip-rule:evenodd;fill:#A9A5AA;}
	.st27{fill-rule:evenodd;clip-rule:evenodd;fill:#7A6252;}
	.st28{fill-rule:evenodd;clip-rule:evenodd;fill:#EB8B23;}
	.st29{fill-rule:evenodd;clip-rule:evenodd;fill:#E54355;}
	.st30{fill-rule:evenodd;clip-rule:evenodd;fill:#CFCDDA;}
	.st31{fill-rule:evenodd;clip-rule:evenodd;fill:#D96272;}
	.st32{fill-rule:evenodd;clip-rule:evenodd;fill:#898169;}
	.st33{fill-rule:evenodd;clip-rule:evenodd;fill:#9A2C42;}
	.st34{fill-rule:evenodd;clip-rule:evenodd;fill:#432F25;}
	.st35{fill-rule:evenodd;clip-rule:evenodd;fill:#513D33;}
	.st36{fill-rule:evenodd;clip-rule:evenodd;fill:#352517;}
	.st37{fill-rule:evenodd;clip-rule:evenodd;fill:#E26644;}
	.st38{fill-rule:evenodd;clip-rule:evenodd;fill:#140A23;}
	.st39{fill-rule:evenodd;clip-rule:evenodd;fill:#AF206E;}
	.st40{fill-rule:evenodd;clip-rule:evenodd;fill:#E4E3EA;}
</style>
<g>
	<polygon class="st0" points="1163,372.6 1343.7,370 1340.6,356.2 1389.9,322.3 1448.7,368.5 1408.7,1362.3 1123,1366.4 	"/>
	<polygon class="st1" points="1785.6,183.7 1859,183.7 1859.2,188.6 1794.1,188.6 1723.7,252.5 1751.5,846.2 1743.2,846.2 
		1715.2,247.5 	"/>
	<polygon class="st1" points="477.2,333.7 353.3,333.7 304.2,1383.4 552,1383.4 596.1,441.5 	"/>
	<polygon class="st2" points="344.2,527.7 304.2,1383.4 552,1383.4 584.9,680 	"/>
	<polygon class="st3" points="339.1,637.6 304.2,1383.4 518.3,1383.4 547,769.2 	"/>
	<polygon class="st1" points="460,326.2 336.1,326.2 286.6,1383.4 312.5,1383.4 361.7,332.2 466.5,332.2 	"/>
	<polygon class="st0" points="552,1383.4 596.1,441.5 477.2,333.7 428.1,1383.4 	"/>
	<polygon class="st0" points="503.6,972 595.9,972 570.7,1377.9 386.1,1377.9 406.3,1052.3 	"/>
	<polygon class="st4" points="529,603.9 741.8,603.9 693.5,1383.4 480.7,1383.4 	"/>
	<polygon class="st4" points="529,603.9 599.6,603.9 736.4,690.5 693.5,1383.4 480.7,1383.4 	"/>
	<polygon class="st1" points="1096.4,316.5 1382.1,312.4 1381.8,318.9 1107.9,322.9 1066,1364.8 1054.2,1365 	"/>
	<polygon class="st2" points="716.5,1011 693.5,1383.4 480.7,1383.4 516.5,806.6 720.1,935.4 	"/>
	<path class="st3" d="M527.8,620.7l181.8-0.5v4.6l-181.8,0.5V620.7L527.8,620.7z M480.9,1376.9l181.8-0.5v4.6l-181.8,0.5
		L480.9,1376.9L480.9,1376.9z M481.8,1363.4l181.8-0.5v4.6l-181.8,0.5V1363.4L481.8,1363.4z M482.6,1349.9l181.8-0.5v4.6l-181.8,0.5
		L482.6,1349.9L482.6,1349.9z M483.4,1336.4l181.8-0.5v4.6l-181.8,0.5L483.4,1336.4L483.4,1336.4z M484.3,1322.9l181.8-0.5v4.6
		l-181.8,0.5V1322.9L484.3,1322.9z M485.1,1309.4l181.8-0.5v4.6l-181.8,0.5L485.1,1309.4L485.1,1309.4z M486,1295.9l181.8-0.5v4.6
		l-181.8,0.5V1295.9L486,1295.9z M486.8,1282.4l181.8-0.5v4.6l-181.8,0.5V1282.4L486.8,1282.4z M487.6,1268.9l181.8-0.5v4.6
		l-181.8,0.5L487.6,1268.9L487.6,1268.9z M488.5,1255.3l181.8-0.5v4.6l-181.8,0.5V1255.3L488.5,1255.3z M489.3,1241.8l181.8-0.5v4.6
		l-181.8,0.5V1241.8L489.3,1241.8z M490.1,1228.3l181.8-0.5v4.6l-181.8,0.5L490.1,1228.3L490.1,1228.3z M491,1214.8l181.8-0.5v4.6
		l-181.8,0.5V1214.8L491,1214.8z M491.8,1201.3l181.8-0.5v4.6l-181.8,0.5V1201.3L491.8,1201.3z M492.7,1187.8l181.8-0.5v4.6
		l-181.8,0.5V1187.8L492.7,1187.8z M493.5,1174.3l181.8-0.5v4.6l-181.8,0.5V1174.3L493.5,1174.3z M494.3,1160.8l181.8-0.5v4.6
		l-181.8,0.5V1160.8L494.3,1160.8z M495.2,1147.3l181.8-0.5v4.6l-181.8,0.5V1147.3L495.2,1147.3z M496,1133.8l181.8-0.5v4.6
		l-181.8,0.5V1133.8L496,1133.8z M496.8,1120.3l181.8-0.5v4.6l-181.8,0.5V1120.3L496.8,1120.3z M497.7,1106.8l181.8-0.5v4.6
		l-181.8,0.5V1106.8L497.7,1106.8z M498.5,1093.3l181.8-0.5v4.6l-181.8,0.5V1093.3L498.5,1093.3z M499.4,1079.8l181.8-0.5v4.6
		l-181.8,0.5L499.4,1079.8L499.4,1079.8z M500.2,1066.3l181.8-0.5v4.6l-181.8,0.5V1066.3L500.2,1066.3z M501,1052.8l181.8-0.5v4.6
		l-181.8,0.5V1052.8L501,1052.8z M501.9,1039.3l181.8-0.5v4.6l-181.8,0.5L501.9,1039.3L501.9,1039.3z M502.7,1025.8l181.8-0.5v4.6
		l-181.8,0.5V1025.8L502.7,1025.8z M503.5,1012.3l181.8-0.5v4.6l-181.8,0.5V1012.3L503.5,1012.3z M504.4,998.8l181.8-0.5v4.6
		l-181.8,0.5L504.4,998.8L504.4,998.8z M505.2,985.3l181.8-0.5v4.6l-181.8,0.5V985.3L505.2,985.3z M506.1,971.8l181.8-0.5v4.6
		l-181.8,0.5L506.1,971.8L506.1,971.8z M506.9,958.3l181.8-0.5v4.6l-181.8,0.5L506.9,958.3L506.9,958.3z M507.7,944.8l181.8-0.5v4.6
		l-181.8,0.5V944.8L507.7,944.8z M508.6,931.3l181.8-0.5v4.6l-181.8,0.5L508.6,931.3L508.6,931.3z M509.4,917.8l181.8-0.5v4.6
		l-181.8,0.5L509.4,917.8L509.4,917.8z M510.3,904.3l181.8-0.5v4.6l-181.8,0.5V904.3L510.3,904.3z M511.1,890.8l181.8-0.5v4.6
		l-181.8,0.5L511.1,890.8L511.1,890.8z M511.9,877.3l181.8-0.5v4.6l-181.8,0.5L511.9,877.3L511.9,877.3z M512.8,863.8l181.8-0.5v4.6
		l-181.8,0.5V863.8L512.8,863.8z M513.6,850.3l181.8-0.5v4.6l-181.8,0.5V850.3L513.6,850.3z M514.4,836.7l181.8-0.5v4.6l-181.8,0.5
		V836.7L514.4,836.7z M515.3,823.2l181.8-0.5v4.6l-181.8,0.5V823.2L515.3,823.2z M516.1,809.7l181.8-0.5v4.6l-181.8,0.5V809.7
		L516.1,809.7z M517,796.2l181.8-0.5v4.6L517,800.8V796.2L517,796.2z M517.8,782.7l181.8-0.5v4.6l-181.8,0.5V782.7L517.8,782.7z
		 M518.6,769.2l181.8-0.5v4.6l-181.8,0.5V769.2L518.6,769.2z M519.5,755.7l181.8-0.5v4.6l-181.8,0.5V755.7L519.5,755.7z
		 M520.3,742.2l181.8-0.5v4.6l-181.8,0.5V742.2L520.3,742.2z M521.1,728.7l181.8-0.5v4.6l-181.8,0.5V728.7L521.1,728.7z M522,715.2
		l181.8-0.5v4.6L522,719.8V715.2L522,715.2z M522.8,701.7l181.8-0.5v4.6l-181.8,0.5V701.7L522.8,701.7z M523.7,688.2l181.8-0.5v4.6
		l-181.8,0.5V688.2L523.7,688.2z M524.5,674.7l181.8-0.5v4.6l-181.8,0.5V674.7L524.5,674.7z M525.3,661.2l181.8-0.5v4.6l-181.8,0.5
		V661.2L525.3,661.2z M526.2,647.7l181.8-0.5v4.6l-181.8,0.5V647.7L526.2,647.7z M527,634.2l181.8-0.5v4.6L527,638.8V634.2z"/>
	<polygon class="st0" points="2068.4,1049.1 2191.7,1049.1 2206.7,1368.7 1960.1,1368.7 1950.2,1156.4 	"/>
	<polygon class="st4" points="1795,190.3 1868.4,190.3 1899.4,852.8 1752.6,852.8 1724.6,254.1 	"/>
	<polygon class="st3" points="1826,852.8 1752.6,852.8 1724.6,254.1 1795,190.3 	"/>
	<polygon class="st0" points="1774.6,517.5 1876.2,517.5 1907.2,1180 1704,1180 1677.1,605.9 	"/>
	<polygon class="st1" points="548.3,581 508.2,1383.4 506.2,1383.4 546.3,580.9 	"/>
	<polygon class="st1" points="727.9,581 687.8,1383.4 685.8,1383.4 725.9,580.9 	"/>
	<polygon class="st4" points="1909.3,330.5 1979.4,330.5 1990.8,575.4 1850.7,575.4 1842.1,391.4 	"/>
	<polygon class="st5" points="1910.7,359.9 1980.7,359.9 1981.2,369.7 1911.1,369.7 1843.9,430.7 1843.4,420.9 	"/>
	<polygon class="st5" points="1911.6,380.9 1981.7,380.9 1982.2,390.7 1912.1,390.7 1844.9,451.7 1844.4,441.9 	"/>
	<polygon class="st4" points="1104.2,326.4 1389.9,322.3 1348,1363.1 1062.3,1367.3 	"/>
	<polygon class="st4" points="1806,545.4 2005.4,545.4 2036,1200.1 1836.6,1200.1 	"/>
	<polygon class="st4" points="1761.6,722.1 2058.6,722.1 2088.9,1368.7 1791.8,1368.7 	"/>
	<polygon class="st6" points="2070,964.2 2088.9,1368.7 1791.8,1368.7 1765.9,815 	"/>
	<polygon class="st0" points="2078.9,1154.9 2088.9,1368.7 1791.8,1368.7 1774.9,1005.7 	"/>
	<polygon class="st4" points="1429,522.4 1726,522.4 1702,1368.7 1404.9,1368.7 	"/>
	<polygon class="st0" points="1109.7,347.4 1350.2,345.4 1350.3,349.3 1109.7,351.2 	"/>
	<polygon class="st0" points="1108.7,370.4 1349.3,368.4 1349.4,372.3 1108.8,374.3 	"/>
	<polygon class="st0" points="1107.8,393.5 1348.4,391.5 1348.4,395.4 1107.9,397.4 	"/>
	<polygon class="st0" points="1106.9,416.6 1347.4,414.6 1347.5,418.5 1107,420.5 	"/>
	<polygon class="st0" points="1106,439.7 1346.5,437.7 1346.6,441.5 1106,443.5 	"/>
	<polygon class="st0" points="1105,462.7 1345.6,460.7 1345.6,464.6 1105.1,466.6 	"/>
	<polygon class="st0" points="1104.1,485.8 1344.7,483.8 1344.7,487.7 1104.2,489.7 	"/>
	<path class="st5" d="M1833.6,773.5h242.7l0.5,10h-242.7L1833.6,773.5L1833.6,773.5z M1845.1,1018.9h242.7l0.5,10h-242.7
		L1845.1,1018.9L1845.1,1018.9z M1843.9,994.4h242.7l0.5,10h-242.7L1843.9,994.4L1843.9,994.4z M1842.8,969.8h242.7l0.5,10h-242.7
		L1842.8,969.8L1842.8,969.8z M1841.6,945.3h242.7l0.5,10h-242.7L1841.6,945.3L1841.6,945.3z M1840.5,920.7h242.7l0.5,10H1841
		L1840.5,920.7L1840.5,920.7z M1839.3,896.2H2082l0.5,10h-242.7L1839.3,896.2L1839.3,896.2z M1838.2,871.6h242.7l0.5,10h-242.7
		L1838.2,871.6L1838.2,871.6z M1837,847.1h242.7l0.5,10h-242.7L1837,847.1L1837,847.1z M1835.9,822.5h242.7l0.5,10h-242.7
		L1835.9,822.5L1835.9,822.5z M1834.7,798h242.7l0.5,10h-242.7L1834.7,798z"/>
	<polygon class="st0" points="1103.2,508.9 1343.7,506.9 1343.8,510.8 1103.2,512.8 	"/>
	<path class="st1" d="M1398,551.9h116.7l-0.3,10h-116.7L1398,551.9L1398,551.9z M1391,797.3h116.7l-0.3,10h-116.7L1391,797.3
		L1391,797.3z M1391.7,772.8h116.7l-0.3,10h-116.7L1391.7,772.8L1391.7,772.8z M1392.4,748.3h116.7l-0.3,10h-116.7L1392.4,748.3
		L1392.4,748.3z M1393.1,723.7h116.7l-0.3,10h-116.7L1393.1,723.7L1393.1,723.7z M1393.8,699.2h116.7l-0.3,10h-116.7L1393.8,699.2
		L1393.8,699.2z M1394.5,674.6h116.7l-0.3,10h-116.7L1394.5,674.6L1394.5,674.6z M1395.2,650.1h116.7l-0.3,10h-116.7L1395.2,650.1
		L1395.2,650.1z M1395.9,625.5h116.7l-0.3,10h-116.7L1395.9,625.5L1395.9,625.5z M1396.6,601h116.7l-0.3,10h-116.7L1396.6,601
		L1396.6,601z M1397.3,576.4H1514l-0.3,10H1397L1397.3,576.4z"/>
	<polygon class="st1" points="468.7,165.4 399.3,1366 406.8,1366 476.2,165.4 	"/>
	<polygon class="st1" points="1872,168.1 1916.5,1368.7 1909,1368.7 1864.4,168.1 	"/>
	<path class="st5" d="M1514.7,551.9H1695l-0.3,10h-180.3L1514.7,551.9L1514.7,551.9z M1507.7,797.3H1688l-0.3,10h-180.3
		L1507.7,797.3L1507.7,797.3z M1508.4,772.8h180.3l-0.3,10h-180.3L1508.4,772.8L1508.4,772.8z M1509.1,748.3h180.3l-0.3,10h-180.3
		L1509.1,748.3L1509.1,748.3z M1509.8,723.7h180.3l-0.3,10h-180.3L1509.8,723.7L1509.8,723.7z M1510.5,699.2h180.3l-0.3,10h-180.3
		L1510.5,699.2L1510.5,699.2z M1511.2,674.6h180.3l-0.3,10h-180.3L1511.2,674.6L1511.2,674.6z M1511.9,650.1h180.3l-0.3,10h-180.3
		L1511.9,650.1L1511.9,650.1z M1512.6,625.5h180.3l-0.3,10h-180.3L1512.6,625.5L1512.6,625.5z M1513.3,601h180.3l-0.3,10H1513
		L1513.3,601L1513.3,601z M1514,576.4h180.3l-0.3,10h-180.3L1514,576.4z"/>
	<polygon class="st1" points="1827.7,807.9 1858.1,822.7 1870.3,804.8 1845.3,789.9 	"/>
	<polygon class="st1" points="1817.5,833.5 1833.9,841.6 1840.6,831.8 1827,823.8 	"/>
	<polygon class="st1" points="412.8,568.4 445.1,584.1 458.2,565 431.5,549.2 	"/>
	<polygon class="st1" points="401.9,595.6 419.4,604.2 426.5,593.8 412,585.2 	"/>
	<path class="st0" d="M373.7,353l-47.4,1012.1l5.3,0.2L379,353.2L373.7,353z M395.9,360.1l-47.5,1012.1l5.3,0.2l47.5-1012.1
		L395.9,360.1z M421.4,356.1L374,1368.2l5.3,0.2l47.5-1012.1L421.4,356.1z M447,356.1l-47.4,1012.1l5.3,0.2l47.4-1012.1L447,356.1z"
		/>
	<polygon class="st1" points="473.5,318.5 450.9,863.3 448.9,863.3 471.5,318.5 	"/>
	<polygon class="st3" points="337.7,367 391.9,393.4 413.8,361.4 369.1,334.9 	"/>
	<polygon class="st3" points="319.5,412.8 348.9,427.1 360.7,409.7 336.5,395.3 	"/>
	<polygon class="st3" points="2061.7,467.1 2092.1,481.9 2104.3,464 2079.3,449.1 	"/>
	<polygon class="st3" points="2051.5,492.8 2067.9,500.8 2074.6,491.1 2061,483 	"/>
	<g>
		<polygon class="st1" points="410.5,1219.2 408.1,1264 391.5,1263.5 393.9,1218.7 		"/>
		<polygon class="st1" points="407.7,1271.1 407,1284.9 390.4,1284.4 391.1,1270.6 		"/>
	</g>
	<polygon class="st1" points="367.9,1352.2 369.2,1198.6 469.5,1198.3 469.5,1202 373.4,1202.2 372.1,1352.3 	"/>
</g>
<polygon class="st7" points="2153.1,1519.5 299.4,1519.5 261.1,1418.7 2191.4,1418.7 "/>
<polygon class="st8" points="635.7,1454.9 2177.7,1454.9 2191.4,1418.7 635.7,1418.7 "/>
<polygon class="st7" points="1112,1519.5 299.4,1519.5 261.1,1418.7 1093.5,1418.7 "/>
<path class="st9" d="M1099.7,1006.5L1099.7,1006.5c4,1.2,6.4,5.4,5.2,9.5l-7.4,25.3c-1.2,4-5.4,6.4-9.5,5.2l0,0
	c-4-1.2-6.4-5.4-5.2-9.5l7.4-25.3C1091.4,1007.6,1095.7,1005.3,1099.7,1006.5z"/>
<path class="st10" d="M1521.3,521.9c3-1.3,4.4-4.8,3.1-7.8s-4.8-4.4-7.8-3.1l-100.1,43.4c-3,1.3-4.4,4.8-3.1,7.8s4.8,4.4,7.8,3.1
	L1521.3,521.9z"/>
<path class="st11" d="M1645.3,907.1c34.7-26.6,41.2-76.3,14.6-110.9c-26.6-34.7-76.3-41.2-110.9-14.6
	c-0.3,0.3-121.9,94.7-306.6,119.2c-43.3,5.7-73.9,45.4-68.2,88.8c5.7,43.3,45.4,73.9,88.8,68.2
	C1490.2,1027.6,1644.9,907.5,1645.3,907.1z"/>
<circle class="st12" cx="1245.3" cy="991.3" r="93.1"/>
<path class="st13" d="M1308.4,1024.7c29-29,29-76.1,0-105.1s-76.1-29-105.1,0s-29,76.1,0,105.1S1279.3,1053.7,1308.4,1024.7z"/>
<path class="st12" d="M1634.1,818.5h-124.6v-36.7c0-20.2,16.5-36.7,36.7-36.7h66.7c11.6,0,21.1,9.5,21.1,21.1v52.3H1634.1z"/>
<rect x="1543.7" y="610.8" class="st14" width="164.8" height="194.2"/>
<rect x="1670.9" y="610.8" class="st15" width="37.6" height="152.5"/>
<path class="st15" d="M1662.2,610.8h-118.5v126.8h45.4c40.2,0,73.1-32.9,73.1-73.1V610.8z"/>
<path class="st14" d="M1664.8,395.1h-129.5c-41.4,0-75.2,33.8-75.2,75.2v167.1c0,40.2,32.9,73.1,73.1,73.1h175.3V438.8
	C1708.5,414.7,1688.8,395.1,1664.8,395.1z"/>
<path class="st15" d="M1670.9,720.4h37.6V560.3h-3.5c-18.8,0-34.1,16.4-34.1,36.4V720.4z"/>
<path class="st16" d="M1580.6,395.1h-45.3c-41.4,0-75.2,33.8-75.2,75.2v167.1c0,40.2,32.9,73.1,73.1,73.1h45.3
	c-40.2,0-73.1-32.9-73.1-73.1V470.3C1505.4,428.9,1539.2,395.1,1580.6,395.1z"/>
<path class="st17" d="M1708.5,537.2l13.3-93.2c-5.5-2.5-12.1-6.1-18.5-3.9l-87.8,30.2l6.9,18.3c9.5,25.2,14.9,48.5,41.6,48.5h44.5
	V537.2z"/>
<path class="st17" d="M1729.3,373.2h-220.7c-26.7,0-48.5,21.8-48.5,48.5v48.5h220.7c26.7,0,48.5-21.8,48.5-48.5V373.2z"/>
<path class="st8" d="M1738,373.2h-73.9c-26.7,0-48.5,21.8-48.5,48.5v48.5h73.9c26.7,0,48.5-21.8,48.5-48.5V373.2z"/>
<path class="st17" d="M1524.5,341.4h-20.7c-28.1,0-51.2,23-51.2,51.2v51.2h20.7v-51.2C1473.3,364.4,1496.3,341.4,1524.5,341.4z"/>
<path class="st8" d="M1600.9,367.9h-20.7c-28.1,0-51.2,23-51.2,51.2v51.2h20.7v-51.2C1549.7,391,1572.8,367.9,1600.9,367.9z"/>
<path class="st8" d="M1589.8,470.3h-40v-40C1549.7,452.3,1567.8,470.3,1589.8,470.3z"/>
<path class="st18" d="M1490.9,431.3v-20.7c0-28.2,23-51.2,51.2-51.2h51.2h51.2c28.1,0,51.2-23,51.2-51.2v20.7
	c0,28.2-23,51.2-51.2,51.2h-51.2H1542C1513.9,380.1,1490.9,403.2,1490.9,431.3z"/>
<path class="st18" d="M1524.2,470.6v-20.7c0-28.2,23-51.2,51.2-51.2h51.2h51.2c28.1,0,51.2-23,51.2-51.2v20.7
	c0,28.2-23,51.2-51.2,51.2h-51.2h-51.2C1547.3,419.4,1524.2,442.5,1524.2,470.6z"/>
<path class="st17" d="M1452.6,406.1h20.7v64.2h-10.4c-5.7,0-10.4-4.7-10.4-10.4v-53.8H1452.6z"/>
<path class="st17" d="M1590.9,585.4h-130.8v64.7c0,35.6,29.1,64.7,64.7,64.7h66.1c35.6,0,64.7-29.1,64.7-64.7l0,0
	C1655.6,614.5,1626.5,585.4,1590.9,585.4z"/>
<path class="st8" d="M1655.6,535.1v115.2h-28.4V491.9C1634,512.5,1639.3,530.9,1655.6,535.1z"/>
<path class="st10" d="M1557.4,544.9c7,0,12.7-5.7,12.7-12.7s-5.7-12.7-12.7-12.7s-12.7,5.7-12.7,12.7
	C1544.7,539.2,1550.4,544.9,1557.4,544.9z"/>
<path class="st10" d="M1583,508.1h-40.9c-5.7,0-10.3,4.6-10.3,10.3v10.3h51.2c3.5,0,6.4-2.9,6.4-6.4v-7.8
	C1589.4,510.9,1586.6,508.1,1583,508.1z"/>
<path class="st10" d="M1472.6,542.9c5.9,0,10.7-4.8,10.7-10.7s-4.8-10.7-10.7-10.7c-5.9,0-10.7,4.8-10.7,10.7
	C1461.9,538.1,1466.7,542.9,1472.6,542.9z"/>
<path class="st10" d="M1460.6,514.6h19.7c5.7,0,10.3,4.6,10.3,10.3v10.3h-30.1c-3.5,0-6.4-2.9-6.4-6.4V521
	C1454.2,517.5,1457.1,514.6,1460.6,514.6z"/>
<path class="st8" d="M1590.9,585.4h-29.7c35.6,0,64.7,29.1,64.7,64.7l0,0c0,35.6-29.1,64.7-64.7,64.7h29.7
	c35.6,0,64.7-29.1,64.7-64.7l0,0C1655.6,614.5,1626.5,585.4,1590.9,585.4z"/>
<path class="st14" d="M1560.8,606.6h-33c-7.1,0-12.9,5.8-12.9,12.9l0,0c0,7.1,5.8,12.9,12.9,12.9h33c7.1,0,12.9-5.8,12.9-12.9l0,0
	C1573.7,612.5,1567.9,606.6,1560.8,606.6z"/>
<path class="st11" d="M1742.7,792h-185.8c-102.2,0-185.8,83.6-185.8,185.8v381h371.7L1742.7,792L1742.7,792z"/>
<path class="st19" d="M1742.7,794.5h-124.6V771c0-12.9,10.6-23.5,23.5-23.5h87.6c7.4,0,13.5,6.1,13.5,13.5V794.5z"/>
<path class="st12" d="M1618.1,794.3V771c0-12.9,10.6-23.5,23.5-23.5h56.6c1.6,11-5,22-15.9,25.6L1618.1,794.3z"/>
<path class="st12" d="M1633.9,792h-33.2c-102.2,0-185.8,83.6-185.8,185.8v381h33.2v-381C1448,875.6,1531.7,792,1633.9,792z"/>
<path class="st20" d="M1429.8,1264.4c4.6,0,8.4-4.3,8.4-9.6s-3.8-9.6-8.4-9.6s-8.4,4.3-8.4,9.6S1425.2,1264.4,1429.8,1264.4z"/>
<path class="st20" d="M1429.8,1144.3c4.6,0,8.4-4.3,8.4-9.6c0-5.3-3.8-9.6-8.4-9.6s-8.4,4.3-8.4,9.6S1425.2,1144.3,1429.8,1144.3z"
	/>
<path class="st20" d="M1429.8,1024.3c4.6,0,8.4-4.3,8.4-9.6s-3.8-9.6-8.4-9.6s-8.4,4.3-8.4,9.6S1425.2,1024.3,1429.8,1024.3z"/>
<path class="st10" d="M1554.2,557.4H1516c-4.5,0-8.6,1.8-11.6,4.8s-4.8,7.1-4.8,11.6h-19.5c0-4.5-1.8-8.6-4.8-11.6
	s-7.1-4.8-11.6-4.8h-38.2c-4.5,0-8.6,1.8-11.6,4.8s-4.8,7.1-4.8,11.6v11.4c0,4.5,1.8,8.6,4.8,11.6s7.1,4.8,11.6,4.8h38.2
	c4.5,0,8.6-1.8,11.6-4.8s4.8-7.1,4.8-11.6V581h19.5v4.2c0,4.5,1.8,8.6,4.8,11.6s7.1,4.8,11.6,4.8h38.2c4.5,0,8.6-1.8,11.6-4.8
	s4.8-7.1,4.8-11.6v-11.4c0-4.5-1.8-8.6-4.8-11.6C1562.9,559.2,1558.7,557.4,1554.2,557.4L1554.2,557.4z M1425.5,565.3h38.2
	c2.3,0,4.5,0.9,6,2.5s2.5,3.7,2.5,6v11.4c0,2.3-0.9,4.5-2.5,6s-3.7,2.5-6,2.5h-38.2c-2.3,0-4.5-0.9-6-2.5s-2.5-3.7-2.5-6v-11.4
	c0-2.3,0.9-4.5,2.5-6C1421.1,566.2,1423.2,565.3,1425.5,565.3L1425.5,565.3z M1516.1,565.3h38.2c2.3,0,4.5,0.9,6,2.5s2.5,3.7,2.5,6
	v11.4c0,2.3-0.9,4.5-2.5,6s-3.7,2.5-6,2.5h-38.2c-2.3,0-4.5-0.9-6-2.5s-2.5-3.7-2.5-6v-11.4c0-2.3,0.9-4.5,2.5-6
	C1511.6,566.2,1513.7,565.3,1516.1,565.3z"/>
<path class="st11" d="M1784.1,916.6c23.3-37,12.2-85.8-24.8-109.1s-85.8-12.2-109.1,24.8c-0.2,0.4-81.4,131.1-246.2,218.2
	c-38.7,20.4-53.5,68.2-33.2,106.9c20.4,38.7,68.2,53.5,106.9,33.2C1680.3,1083.4,1783.8,917.1,1784.1,916.6z"/>
<path class="st14" d="M1365.6,672.1c18.4-27.1,11.3-63.9-15.8-82.3c-27.1-18.4-63.9-11.3-82.3,15.8c-0.2,0.3-84.1,120.4-78.5,373.8
	c0.6,32.7,27.7,58.7,60.4,58.1c32.7-0.6,58.7-27.7,58.1-60.4C1302.8,761.7,1365.4,672.4,1365.6,672.1z"/>
<path class="st16" d="M1291.7,585.1c-9.5,4.4-17.9,11.3-24.2,20.5c-0.2,0.3-84.1,120.4-78.5,373.8c0.4,18.6,9.3,35.1,22.9,45.7
	c20.7-9.6,34.9-30.7,34.4-55c-4.8-215.4,57.8-304.7,58-305C1322,639.1,1316.2,604.1,1291.7,585.1z"/>
<path class="st1" d="M1193.2,979.4c-5.7-253.4,78.2-373.4,78.5-373.8c5.8-8.6,13.5-15.1,22.1-19.5c-1.6-1.5-3.3-3-5-4.4
	c-9.5,4.4-17.9,11.3-24.2,20.5c-0.2,0.3-84.1,120.4-78.5,373.8c0.4,18.6,9.3,35.1,22.9,45.7c0.7-0.3,1.4-0.7,2-1
	C1200.3,1010.2,1193.5,995.7,1193.2,979.4z"/>
<path class="st15" d="M1365.6,672.1c18.4-27.1,11.3-63.9-15.8-82.3c-12.2-8.2-26.3-11.3-39.8-9.8c-35.8,30.8-45.1,79.8-20.2,112.7
	c12.6,16.7,31.7,26.2,52.7,28.2C1354.7,687.6,1365.5,672.3,1365.6,672.1z"/>
<path class="st14" d="M1303.9,555.9c-40.9,30.2-52.7,82.9-26.4,117.6c26.3,34.7,80.7,38.3,121.5,8.1c40.9-30.2,52.7-82.9,26.4-117.6
	C1399.2,529.3,1344.7,525.6,1303.9,555.9z"/>
<path class="st10" d="M1669.1,527.9c3-1.3,4.4-4.8,3.1-7.8s-4.8-4.4-7.8-3.1l-100.1,43.4c-3,1.3-4.4,4.8-3.1,7.8s4.8,4.4,7.8,3.1
	L1669.1,527.9z"/>
<path class="st11" d="M1769,814.7c-3-2.6-6.3-5-9.7-7.2c-37-23.3-85.8-12.2-109.1,24.8c-0.2,0.4-81.4,131.1-246.2,218.2
	c-38.7,20.4-53.5,68.2-33.2,106.9c13.4,25.4,38.6,40.5,65.4,42.1c-7.2-6.3-13.4-13.9-18.1-22.9c-20.4-38.7-5.5-86.6,33.2-106.9
	c164.8-87.1,246-217.8,246.2-218.2C1713.3,826.3,1741.2,813.1,1769,814.7z"/>
<path class="st12" d="M1462.8,1220.3c55.8,0,101.2-45.5,101.2-101.2c0-55.8-45.5-101.2-101.2-101.2c-55.8,0-101.2,45.5-101.2,101.2
	C1361.5,1174.8,1407,1220.3,1462.8,1220.3z"/>
<ellipse class="st21" cx="1449.4" cy="1120.2" rx="74.3" ry="74.3"/>
<path class="st14" d="M1483.7,1168.5c28.9-19.7,36.3-59.1,16.6-88c-19.7-28.9-59.1-36.3-88-16.6c-45.4,30.9-97.4,54.5-151.6,70.5
	c-57.5,16.9-117,25.3-173.5,25c-34.9-0.1-63.3,28.1-63.5,63c-0.1,34.9,28.1,63.3,63,63.5c68.8,0.4,140.7-9.6,209.7-30
	C1363,1236.2,1427.2,1207,1483.7,1168.5z"/>
<path class="st16" d="M1481.1,1062.1c-20.6-12.6-47.5-12.7-68.7,1.7c-45.4,30.9-97.4,54.5-151.6,70.5c-57.5,16.9-117,25.3-173.5,25
	c-23.8-0.1-44.5,13-55.4,32.3c9.5,5.8,20.7,9.2,32.6,9.2c68.8,0.4,140.7-9.6,209.7-30c66.5-19.6,130.8-48.8,187.3-87.3
	C1469.8,1077.8,1476.4,1070.4,1481.1,1062.1z"/>
<path class="st1" d="M1039.4,1194.5c10.9-19.4,31.6-32.4,55.4-32.3c56.4,0.4,116-8,173.5-25c54.2-16,106.2-39.5,151.6-70.5
	c16.8-11.5,37.1-13.7,55.1-8c-20.5-12-46.9-12-67.8,2.3c-45.4,30.9-97.4,54.5-151.6,70.5c-57.5,16.9-117,25.3-173.5,25
	c-23.8-0.1-44.5,13-55.4,32.3c4.2,2.6,8.8,4.7,13.6,6.2C1040,1194.9,1039.7,1194.7,1039.4,1194.5z"/>
<path class="st20" d="M1452.5,888.7c-4.7,0-9.3,4.3-10.3,9.6s1.9,9.6,6.5,9.6s9.3-4.3,10.3-9.6
	C1460.1,893.1,1457.1,888.7,1452.5,888.7z"/>
<path class="st22" d="M651.8,918.4l48,259.7c6,32.6,37.6,59.2,70.2,59.2h291.4l-0.1-0.5c-60.9-8.1-63.8-67.7-71.5-109.5l-42.2-227.9
	c-6-32.6-37.6-59.2-70.2-59.2H586l0.1,0.5c29.6,3.9,56.6,28.8,62.1,58.7L651.8,918.4z"/>
<path class="st1" d="M1965.4,968.9H1568c-21,0-41.2,17.2-45,38.1l-48.8,269.5c-3.8,21,10.3,38.1,31.2,38.1h391.5
	c21,0,41.2-17.2,45-38.1l48.8-269.5c1.4-7.5,0.4-14.6-2.3-20.5c3-3,7.7-3.8,7.7-3.8C1991,980.1,1981.2,968.9,1965.4,968.9z"/>
<path class="st23" d="M1979.5,978.5h-393.6c-20.4,0-40.2,16.7-44,37.1l-48.8,262c-3.8,20.4,9.8,37.1,30.2,37.1h393.6
	c20.4,0,40.2-16.7,44-37.1l48.8-262C2013.5,995.1,1999.9,978.5,1979.5,978.5z"/>
<path class="st24" d="M1859.9,978.5H1586c-20.4,0-40.2,16.7-44,37.1l-48.8,262c-3.8,20.4,9.8,37.1,30.2,37.1h37.6
	c84-63.3,166.4-144.1,232-232.1C1819.9,1046.4,1842.2,1011.5,1859.9,978.5z"/>
<path class="st25" d="M1422.6,1314.6L1422.6,1314.6h61.1c3.3,0,6,2.7,6,6c0,17.9-16.3,29.7-32.9,31c1,0.1,2,0.1,3,0.1H1887
	c20.4,0,37.1-16.7,37.1-37.1H1422.6z"/>
<path class="st26" d="M1488.2,1329.6c-3.5,10.3-12.9,17.6-23.6,20.6v1.5h422.3c15.1,0,28.1-9.1,33.9-22.2L1488.2,1329.6
	L1488.2,1329.6z"/>
<path class="st25" d="M1522.6,1351.7h17.9c20.4,0,37.1-16.7,37.1-37.1h-17.9C1559.7,1335,1543,1351.7,1522.6,1351.7z"/>
<path class="st27" d="M1829,1351.7h17.9c20.4,0,37.1-16.7,37.1-37.1h-17.9C1866.1,1335,1849.4,1351.7,1829,1351.7z"/>
<path class="st24" d="M1198,1314.6h306.3c3.3,0,6,2.7,6,6c0,18.9-18.3,31.1-36,31.1H1228c-17.6,0-36-12.2-36-31.1
	C1192,1317.3,1194.7,1314.6,1198,1314.6z"/>
<path class="st7" d="M1475.9,1340.8c4.9,0,8.8-4,8.8-8.8c0-4.9-4-8.8-8.8-8.8c-4.9,0-8.8,4-8.8,8.8S1471.1,1340.8,1475.9,1340.8z"/>
<path class="st7" d="M1251,1326.4h20.5c2.9,0,5.2,2.3,5.2,5.2l0,0c0,2.9-2.3,5.2-5.2,5.2H1251c-2.9,0-5.2-2.3-5.2-5.2l0,0
	C1245.8,1328.7,1248.1,1326.4,1251,1326.4z"/>
<path class="st7" d="M1292.2,1326.4h20.5c2.9,0,5.2,2.3,5.2,5.2l0,0c0,2.9-2.3,5.2-5.2,5.2h-20.5c-2.9,0-5.2-2.3-5.2-5.2l0,0
	C1287,1328.7,1289.4,1326.4,1292.2,1326.4z"/>
<path class="st16" d="M1299.4,562.2c-22,16.3-28.4,44.6-14.2,63.3c14.1,18.7,43.4,20.6,65.4,4.4c22-16.3,28.4-44.6,14.2-63.3
	C1350.7,547.9,1321.4,545.9,1299.4,562.2z"/>
<g>
	<path class="st24" d="M940.6,1328.2h133.9c6.5,0,11.8,5.3,11.8,11.8l0,0c0,6.5-5.3,11.8-11.8,11.8H940.6c-6.5,0-11.8-5.3-11.8-11.8
		l0,0C928.8,1333.5,934.1,1328.2,940.6,1328.2z"/>
	<path class="st24" d="M767.5,1328.2h202.8c6.5,0,11.8,5.3,11.8,11.8l0,0c0,6.5-5.3,11.8-11.8,11.8H767.5c-6.5,0-11.8-5.3-11.8-11.8
		l0,0C755.7,1333.5,761,1328.2,767.5,1328.2z"/>
</g>
<g>
	<path class="st28" d="M335,1229.9h24.5c12.1,0,23.1,5,31.1,12.9l0,0c8,8,12.9,19,12.9,31.1s-5,23.1-12.9,31.1l0,0
		c-8,8-19,12.9-31.1,12.9H335c-12.1,0-23.1-5-31.1-12.9l0,0c-8-8-12.9-19-12.9-31.1s5-23.1,12.9-31.1l0,0
		C312,1234.8,323,1229.9,335,1229.9L335,1229.9z M359.5,1249.7H335c-6.7,0-12.7,2.7-17.1,7.1l0,0c-4.4,4.4-7.1,10.4-7.1,17.1
		s2.7,12.7,7.1,17.1l0,0c4.4,4.4,10.4,7.1,17.1,7.1h24.5c6.7,0,12.7-2.7,17.1-7.1l0,0c4.4-4.4,7.1-10.4,7.1-17.1s-2.7-12.7-7.1-17.1
		l0,0C372.2,1252.4,366.2,1249.7,359.5,1249.7z"/>
	<path class="st28" d="M342.6,1192.5h196.2c2.9,0,5.4,1.1,7.4,3.2s2.9,4.7,2.7,7.5c-3.2,48.5-17.5,107.3-52.8,142.6
		c-3.8,3.8-8.8,5.9-14.2,5.9h-82.3c-5.4,0-10.4-2-14.2-5.9c-35.3-35.2-49.6-94.1-52.8-142.6c-0.2-2.9,0.7-5.4,2.7-7.5
		C337.2,1193.6,339.7,1192.5,342.6,1192.5z"/>
	<path class="st28" d="M483.8,1192.5h55c2.9,0,5.4,1.1,7.4,3.2s2.9,4.7,2.7,7.5c-3.2,48.5-17.5,107.3-52.8,142.6
		c-3.8,3.8-8.8,5.9-14.2,5.9H427c5.3-0.1,10.2-2.1,14-5.9c35.3-35.2,49.6-94.1,52.8-142.6c0.2-2.9-0.7-5.4-2.7-7.5
		C489.1,1193.6,486.6,1192.6,483.8,1192.5z"/>
</g>
<path class="st29" d="M421,1186.8L421,1186.8c2,0,3.7,1.6,3.7,3.7v70.2c0,2-1.6,3.7-3.7,3.7l0,0c-2,0-3.7-1.6-3.7-3.7v-70.2
	C417.4,1188.5,419,1186.8,421,1186.8z"/>
<path class="st29" d="M412,1247h19.9c5.4,0,9.7,4.4,9.7,9.7v33.3c0,5.4-4.4,9.7-9.7,9.7H412c-5.4,0-9.7-4.4-9.7-9.7v-33.3
	C402.2,1251.4,406.6,1247,412,1247z"/>
<g>
	<path class="st8" d="M1743.8,527.5l13.8,5.9c4.6,2,6.8,7.4,4.8,12.1l0,0c-2,4.6-7.4,6.8-12.1,4.8l-13.8-5.9
		c-4.6-2-6.8-7.4-4.8-12.1l0,0C1733.7,527.6,1739.2,525.5,1743.8,527.5z"/>
	<path class="st17" d="M1743.8,527.5l13.8,5.9c2.6,1.1,4.5,3.4,5.2,6c-2.2,4.1-7.3,6-11.7,4.1l-13.8-5.9c-2.7-1.1-4.5-3.4-5.2-6
		C1734.3,527.4,1739.4,525.6,1743.8,527.5z"/>
	<path class="st17" d="M1743,525.3l4.4,1.9c5.5,2.4,8.1,8.8,5.7,14.3l0,0c-2.4,5.5-8.8,8.1-14.3,5.7l-4.4-1.9
		c-5.5-2.4-8.1-8.8-5.7-14.3l0,0C1731.1,525.5,1737.5,522.9,1743,525.3z"/>
	<path class="st0" d="M1733.5,544.8c-4.8-2.7-7-8.7-4.8-13.9l0,0c2.2-5.2,8.1-7.8,13.3-6.1c4.8,2.7,7,8.7,4.8,13.9l0,0
		C1744.6,543.9,1738.7,546.5,1733.5,544.8z"/>
	<path class="st30" d="M1569.9,450.9l167.8,72.1c5.5,2.4,8.1,8.8,5.7,14.3l0,0c-2.4,5.5-8.8,8.1-14.3,5.7l-167.8-72.1
		c-5.5-2.4-8.1-8.8-5.7-14.3l0,0C1558,451.1,1564.4,448.5,1569.9,450.9z"/>
	<path class="st1" d="M1569.9,450.9l167.8,72.1c5.5,2.4,8.1,8.8,5.7,14.3l-182.8-78.6c-2-0.9-3.3-2.8-3.3-4.9
		C1560.3,450.3,1565.4,449,1569.9,450.9z"/>
	<path class="st30" d="M1699.2,506.4l14.6,6.3c0.6,3.6-1.3,9.1,3,13.2l-14.8-6.4C1701.9,513,1700.7,508.9,1699.2,506.4z"/>
	<path class="st1" d="M1569.9,450.9l4.4,1.9c5.5,2.4,8.1,8.8,5.7,14.3l0,0c-2.4,5.5-8.8,8.1-14.3,5.7l-4.4-1.9
		c-5.5-2.4-8.1-8.8-5.7-14.3l0,0C1558,451.1,1564.4,448.5,1569.9,450.9z"/>
	<path class="st30" d="M1575.7,453.5c4.5,2.8,6.4,8.6,4.3,13.6l0,0c-2.1,5-7.7,7.6-12.8,6.2c-4.5-2.8-6.4-8.6-4.3-13.6l0,0
		C1565.1,454.7,1570.6,452.2,1575.7,453.5z"/>
	<path class="st17" d="M1549.6,449.3l15.9,6.9c2.2,0.9,3.2,3.5,2.3,5.7l0,0c-0.9,2.2-3.5,3.2-5.7,2.3l-15.9-6.8
		c-2.2-0.9-3.2-3.5-2.3-5.7l0,0C1544.8,449.4,1547.4,448.3,1549.6,449.3z"/>
	<path class="st1" d="M1613.6,478.9l9.2,3.9c1.2,0.5,1.8,1.9,1.2,3.1l0,0c-0.5,1.2-1.9,1.8-3.1,1.2l-9.2-3.9
		c-1.2-0.5-1.8-1.9-1.2-3.1l0,0C1611,479,1612.4,478.4,1613.6,478.9z"/>
	<path class="st1" d="M1605.5,475.5l2.4,1c1.2,0.5,1.8,1.9,1.2,3.1l0,0c-0.5,1.2-1.9,1.8-3.1,1.2l-2.4-1c-1.2-0.5-1.8-1.9-1.2-3.1
		l0,0C1602.9,475.5,1604.3,474.9,1605.5,475.5z"/>
	<path class="st3" d="M1748.4,533.5c1.2,0.3,2.2,1,2.3,1.7c0.1,0.6-0.8,0.9-1.9,0.7c-1.2-0.3-2.2-1-2.3-1.7
		C1746.4,533.5,1747.3,533.3,1748.4,533.5z"/>
	<path class="st30" d="M1722.3,518.6l9.2,3.9c1.2,0.5,1.8,1.9,1.2,3.1l0,0c-0.5,1.2-1.9,1.8-3.1,1.2l-9.2-3.9
		c-1.2-0.5-1.8-1.9-1.2-3.1l0,0C1719.7,518.7,1721.1,518.1,1722.3,518.6z"/>
	<path class="st30" d="M1588.7,461.6l9.2,3.9c1.2,0.5,1.8,1.9,1.2,3.1l0,0c-0.5,1.2-1.9,1.8-3.1,1.2l-9.2-3.9
		c-1.2-0.5-1.8-1.9-1.2-3.1l0,0C1586.1,461.7,1587.5,461.1,1588.7,461.6z"/>
</g>
<path class="st14" d="M1689.4,577.1c19.3,0,35-15.7,35-35s-15.7-35-35-35s-35,15.7-35,35C1654.4,561.4,1670.1,577.1,1689.4,577.1z"
	/>
<path class="st15" d="M1689.4,525.1c-9.4,0-17.1,7.7-17.1,17.1c0,9.4,7.7,17.1,17.1,17.1c1.6,0,3.2-0.2,4.7-0.7
	c-7.1-2-12.4-8.6-12.4-16.4c0-7.8,5.2-14.4,12.4-16.4C1692.6,525.3,1691,525.1,1689.4,525.1z"/>
<polygon class="st29" points="1769.9,695.6 1852.4,619.8 1852.9,659.3 1973.2,540.5 1939.8,619.1 2125.5,494.8 1886.2,680.8 
	1912.9,622.3 1817.1,703.9 1830.5,655.2 "/>
<path class="st31" d="M1489.6,502.9h36.1c3.1,0,5.6,2.5,5.6,5.6l0,0c0,3.1-2.5,5.6-5.6,5.6h-36.1c-3.1,0-5.6-2.5-5.6-5.6l0,0
	C1484,505.4,1486.6,502.9,1489.6,502.9z"/>
<path class="st31" d="M1499.4,485.1h16.6c3.1,0,5.6,2.5,5.6,5.6l0,0c0,3.1-2.5,5.6-5.6,5.6h-16.6c-3.1,0-5.6-2.5-5.6-5.6l0,0
	C1493.8,487.6,1496.3,485.1,1499.4,485.1z"/>
<polygon class="st1" points="1821.1,916.6 1935.2,916.6 1898.2,1031.6 1784.1,1031.6 "/>
<polygon class="st1" points="1945.5,961 2055.8,990 1990.8,1091.8 1880.5,1062.7 "/>
<path class="st9" d="M1859.4,938.5l40.1,6.1c2.9,0.4,3.9,3,2.2,5.8l0,0c-1.7,2.7-5.5,4.6-8.5,4.2l-40.1-6.1c-2.9-0.4-3.9-3-2.2-5.8
	l0,0C1852.7,939.9,1856.5,938.1,1859.4,938.5z"/>
<path class="st9" d="M1842.7,951.8l39.6,8.9c2.9,0.6,3.7,3.3,1.8,5.9l0,0c-1.9,2.6-5.8,4.2-8.7,3.6l-39.6-8.9
	c-2.9-0.6-3.7-3.3-1.8-5.9l0,0C1835.9,952.8,1839.8,951.2,1842.7,951.8z"/>
<path class="st32" d="M1964.4,1010.3l28.9,11.4c2.1,0.8,2.4,2.9,0.6,4.7l0,0c-1.8,1.7-4.9,2.5-7,1.7l-28.9-11.4
	c-2.1-0.8-2.4-2.9-0.6-4.7l0,0C1959.1,1010.2,1962.3,1009.5,1964.4,1010.3z"/>
<path class="st32" d="M1968.6,1026.3l28.9,11.4c2.1,0.8,2.4,2.9,0.6,4.7l0,0c-1.8,1.7-4.9,2.5-7,1.7l-28.9-11.4
	c-2.1-0.8-2.4-2.9-0.6-4.7l0,0C1963.3,1026.2,1966.5,1025.5,1968.6,1026.3z"/>
<path class="st32" d="M1944.1,1035.1l28.9,11.4c2.1,0.8,2.4,2.9,0.6,4.7l0,0c-1.7,1.7-4.9,2.5-7,1.7l-28.9-11.4
	c-2.1-0.8-2.4-2.9-0.6-4.7l0,0C1938.8,1035,1942,1034.2,1944.1,1035.1z"/>
<path class="st9" d="M1847.3,971.6l30.4,6.3c2.2,0.5,2.9,2.5,1.4,4.5l0,0c-1.4,2-4.4,3.3-6.6,2.8l-30.4-6.3
	c-2.2-0.5-2.9-2.5-1.4-4.5l0,0C1842.1,972.5,1845.1,971.2,1847.3,971.6z"/>
<path class="st8" d="M1094.5,1024.3L1094.5,1024.3c8.8,2.6,14,11.9,11.4,20.7l-39.7,136.6c-2.6,8.8-11.9,14-20.7,11.4l0,0
	c-8.8-2.6-14-11.9-11.4-20.7l39.7-136.6C1076.4,1026.9,1085.7,1021.7,1094.5,1024.3z"/>
<path class="st25" d="M1034.6,1183.1c-1.3-3.3-1.6-7.1-0.5-10.8l39.7-136.6c2.3-7.9,10.1-12.9,18-11.9c1.3,3.3,1.6,7.1,0.5,10.8
	l-39.7,136.6C1050.3,1179.1,1042.5,1184,1034.6,1183.1z"/>
<path class="st14" d="M1108.2,1117.6c-45.9-37.9-109.1-36.4-141.1,3.3c-32,39.7-20.7,102.5,25.2,140.4
	c45.9,37.9,109.1,36.4,141.1-3.3C1165.4,1218.4,1154.1,1155.5,1108.2,1117.6z"/>
<path class="st1" d="M997,1268.3c-45.9-37.9-57.2-100.7-25.2-140.4c29.9-37,86.8-40.8,131.6-10.4c-45.9-37.8-109-36.3-141,3.4
	c-32,39.7-20.7,102.5,25.2,140.4c3.1,2.6,6.3,4.9,9.5,7.1C997.1,1268.4,997.1,1268.4,997,1268.3z"/>
<path class="st16" d="M986.2,1115c-22,16.3-28.4,44.6-14.2,63.3c14.1,18.7,43.4,20.6,65.4,4.4c22-16.3,28.4-44.6,14.2-63.3
	C1037.6,1100.7,1008.2,1098.7,986.2,1115z"/>
<path class="st14" d="M1572.9,605.3h-14.6c-12,0-21.9,9.8-21.9,21.9l0,0c0,12,9.8,21.9,21.9,21.9h14.6c12,0,21.9-9.8,21.9-21.9l0,0
	C1594.8,615.1,1584.9,605.3,1572.9,605.3z"/>
<path class="st33" d="M1575.4,611H1556c-8.5,0-15.4,6.9-15.4,15.4l0,0c0,8.5,6.9,15.4,15.4,15.4h19.4c8.5,0,15.4-6.9,15.4-15.4l0,0
	C1590.8,617.9,1583.8,611,1575.4,611z"/>
<path class="st34" d="M1559.8,620L1559.8,620c6.4-6.4,16.8-6.4,23.1,0l17.9,17.9c6.4,6.4,6.4,16.8,0,23.1l0,0
	c-6.4,6.4-16.8,6.4-23.1,0l-17.9-17.8C1553.5,636.8,1553.5,626.4,1559.8,620z"/>
<path class="st35" d="M1588.3,665.8c-3.9-0.2-7.7-1.8-10.6-4.7l-17.9-17.8c-4.8-4.8-6-12-3.5-18c3.9,0.2,7.7,1.8,10.6,4.7l17.9,17.9
	C1589.7,652.6,1590.8,659.8,1588.3,665.8z"/>
<path class="st36" d="M1579.7,640.5l0.6-0.6c4.6-4.6,12-4.6,16.6,0l0,0c4.6,4.6,4.6,12,0,16.6l-0.6,0.6c-4.6,4.6-12,4.6-16.6,0l0,0
	C1575.1,652.5,1575.1,645.1,1579.7,640.5z"/>
<path class="st1" d="M1575.4,611H1556c-4.4,0-8.3,1.8-11.1,4.8c2.8,2.9,6.8,4.8,11.1,4.8h19.4c4.4,0,8.3-1.8,11.1-4.8
	C1583.7,612.8,1579.7,611,1575.4,611z"/>
<rect x="171.7" y="1351.7" class="st8" width="2126.8" height="73.4"/>
<rect x="162.9" y="1351.7" class="st7" width="1010.6" height="73.4"/>
<rect x="162.9" y="1351.7" class="st25" width="536.9" height="73.4"/>
<g>
	<polygon class="st28" points="1675.9,1287.1 1703.5,1287.1 2064.4,1287.1 2092,1287.1 2111.6,1353.5 1656.3,1353.5 	"/>
	<rect x="1956.8" y="1258.1" class="st37" width="108.6" height="56.6"/>
	
		<rect x="1864.8" y="1215.9" transform="matrix(0.3227 -0.9465 0.9465 0.3227 163.6803 2679.4583)" class="st38" width="178.5" height="18.9"/>
	
		<rect x="1835.3" y="1242.8" transform="matrix(0.1459 -0.9893 0.9893 0.1459 404.8383 2973.4893)" class="st39" width="178.5" height="18.9"/>
	<polygon class="st29" points="1885,1262.4 1918.8,1262.4 1910.9,1318.9 1877.1,1318.9 	"/>
	<path class="st38" d="M2010.3,1161L2010.3,1161c4.9,0.8,8.3,5.4,7.5,10.4l-24.1,151.2c-0.8,4.9-5.4,8.3-10.4,7.5l0,0
		c-4.9-0.8-8.3-5.4-7.5-10.4l24.1-151.2C2000.7,1163.6,2005.4,1160.2,2010.3,1161z"/>
	<path class="st39" d="M2012.8,1146.2L2012.8,1146.2c3,0.5,5,3.3,4.5,6.3l-14.6,91.5c-0.5,3-3.3,5-6.3,4.5l0,0c-3-0.5-5-3.3-4.5-6.3
		l14.6-91.5C2007.1,1147.8,2009.9,1145.7,2012.8,1146.2z"/>
	<polygon class="st38" points="1926.3,1149.3 1945,1152.1 1944.2,1157.6 1929.5,1155.4 1904.3,1326.6 1900.3,1326 	"/>
	<polygon class="st39" points="1978.8,1135 1996.7,1141.1 1996.1,1142.9 1981.3,1137.9 1924.3,1305.1 1921.2,1304 	"/>
	<polygon class="st37" points="1736.2,1287.1 1755.8,1287.1 2012.1,1287.1 2031.7,1287.1 2045.6,1353.5 1722.3,1353.5 	"/>
	<path class="st38" d="M1686.2,1283.3h27.6h133.7l-0.8,3.8h-129h-27.6l-19.6,66.5h-5L1686.2,1283.3L1686.2,1283.3z M1883.4,1283.3
		h24.1l-0.8,3.8h-24.1L1883.4,1283.3L1883.4,1283.3z M1914.2,1283.3h160.5h27.6l1.1,3.8h-24.9h-165.2L1914.2,1283.3z"/>
</g>
<rect x="171.7" y="1351.7" class="st1" width="2117.9" height="12.7"/>
<g>
	<polygon class="st1" points="715.2,1376.9 754.7,1378.2 754.7,1389.3 715.2,1387.9 	"/>
	<polygon class="st1" points="760.9,1378.4 773.1,1378.8 773.1,1389.9 760.9,1389.5 	"/>
</g>
<g>
	<path class="st40" d="M695.3,916.3h81.8c6.5,0,12.8,5.4,14,11.9l10.6,60.5c1.1,6.5-3.3,11.9-9.8,11.9H710c-6.5,0-12.8-5.4-14-11.9
		l-10.6-60.5C684.3,921.6,688.7,916.3,695.3,916.3z"/>
	<path class="st40" d="M810,916.3h88.8c4.6,0,9.1,3.8,9.9,8.4l5.1,29.3c0.8,4.6-2.3,8.4-6.9,8.4H818c-4.6,0-9.1-3.8-9.9-8.4
		l-5.1-29.3C802.2,920,805.3,916.3,810,916.3z"/>
	<path class="st40" d="M710.9,1018.5h205.4c4.8,0,9.5,4,10.3,8.8l0,0c0.8,4.8-2.4,8.8-7.3,8.8H714c-4.8,0-9.5-4-10.3-8.8l0,0
		C702.8,1022.5,706,1018.5,710.9,1018.5z"/>
	<path class="st40" d="M898.9,1053.3h23.4c4.8,0,9.5,4,10.3,8.8l0,0c0.8,4.8-2.4,8.8-7.3,8.8H902c-4.8,0-9.5-4-10.3-8.8l0,0
		C890.8,1057.3,894.1,1053.3,898.9,1053.3z"/>
	<path class="st29" d="M723,1088.1h59.8c4.8,0,9.5,4,10.3,8.8l0,0c0.8,4.8-2.4,8.8-7.3,8.8H726c-4.8,0-9.5-4-10.3-8.8l0,0
		C714.9,1092,718.2,1088.1,723,1088.1z"/>
	<path class="st40" d="M817.4,1088.1h21.1c4.8,0,9.5,4,10.3,8.8l0,0c0.8,4.8-2.4,8.8-7.3,8.8h-21.1c-4.8,0-9.5-4-10.3-8.8l0,0
		C809.3,1092,812.6,1088.1,817.4,1088.1z"/>
	<path class="st29" d="M821,977.2h88c4.8,0,9.5,4,10.3,8.8l0,0c0.8,4.8-2.4,8.8-7.3,8.8h-88c-4.8,0-9.5-4-10.3-8.8l0,0
		C812.9,981.1,816.2,977.2,821,977.2z"/>
	<path class="st29" d="M724.3,1142.8c-1.9,2.3-5.7,2.2-8.3-0.1c-2.7-2.3-3.3-6.1-1.4-8.3l70.1-83.4c1.9-2.3,5.7-2.2,8.3,0.1
		c2.7,2.3,3.3,6.1,1.4,8.3L724.3,1142.8z"/>
	<path class="st40" d="M824.5,1053.3h36c4.8,0,9.5,4,10.3,8.8l0,0c0.8,4.8-2.4,8.8-7.3,8.8h-36c-4.8,0-9.5-4-10.3-8.8l0,0
		C816.4,1057.3,819.7,1053.3,824.5,1053.3z"/>
	<path class="st40" d="M717,1053.3h36.6c4.8,0,9.5,4,10.3,8.8l0,0c0.8,4.8-2.4,8.8-7.3,8.8H720c-4.8,0-9.5-4-10.3-8.8l0,0
		C708.9,1057.3,712.1,1053.3,717,1053.3z"/>
	<path class="st29" d="M733.2,956.4c-3,0.7-6.6-1.3-7.8-4.5c-1.3-3.2,0.2-6.3,3.3-7l86.2-19.9c3-0.7,6.6,1.3,7.8,4.5
		c1.3,3.2-0.2,6.3-3.3,7L733.2,956.4z"/>
	<path class="st29" d="M757.7,971.6c-3,0.7-6.6-1.3-7.8-4.5c-1.3-3.2,0.2-6.3,3.3-7l86.2-19.9c3-0.7,6.6,1.3,7.8,4.5
		c1.3,3.2-0.2,6.3-3.3,7L757.7,971.6z"/>
</g>
<g>
	<path class="st29" d="M985.1,854c-0.2,2.8-2.8,4.6-5.7,3.9c-3-0.7-5.2-3.6-5-6.4c2.3-35.8,82.1-38.8,25,26.5l-6.2,7.1
		c-16.3,19.1-11.4,24.3-11.4,24.3c2,2.4,1.9,5.7-0.2,7.3c-2.1,1.6-5.5,0.9-7.6-1.5c0,0-11-12.4,10.5-37.6l6.3-7.2
		C1034.7,820.1,986.7,835.3,985.1,854z"/>
	<path class="st29" d="M985.5,926.6c2.9,2,3.9,5.6,2.4,8.2c-1.6,2.5-5.1,2.9-8,0.9s-3.9-5.6-2.4-8.2
		C979.1,925,982.7,924.6,985.5,926.6z"/>
</g>
</svg>
