<svg xmlns="http://www.w3.org/2000/svg" xmlns:xlink="http://www.w3.org/1999/xlink" viewBox="0 0 428.3 563.05"><defs><style>.cls-1{fill:#2e1a47;}.cls-2,.cls-3,.cls-4,.cls-5,.cls-6,.cls-7,.cls-8,.cls-9{fill:none;stroke-miterlimit:10;}.cls-2{stroke:url(#linear-gradient);}.cls-3,.cls-4,.cls-5,.cls-6{opacity:0.45;}.cls-3{stroke:url(#linear-gradient-2);}.cls-4{stroke:#ff8700;}.cls-5{stroke:url(#linear-gradient-3);}.cls-6{stroke:url(#linear-gradient-4);}.cls-7{stroke:url(#linear-gradient-5);}.cls-8{stroke:#5f2d78;}.cls-9{stroke:url(#linear-gradient-6);}.cls-10{fill:url(#linear-gradient-7);}</style><linearGradient id="linear-gradient" x1="248.45" y1="281.56" x2="411.23" y2="281.56" gradientUnits="userSpaceOnUse"><stop offset="0" stop-color="#af206e"/><stop offset="1" stop-color="#e54355"/></linearGradient><linearGradient id="linear-gradient-2" x1="7.2" y1="305.98" x2="331.83" y2="305.98" gradientUnits="userSpaceOnUse"><stop offset="0" stop-color="#e54355"/><stop offset="1" stop-color="#eb8b23"/></linearGradient><linearGradient id="linear-gradient-3" x1="78.36" y1="373.11" x2="262.77" y2="373.11" gradientUnits="userSpaceOnUse"><stop offset="0" stop-color="#eb8b23"/><stop offset="1" stop-color="#f6cc1b"/></linearGradient><linearGradient id="linear-gradient-4" x1="0" y1="151.7" x2="169.18" y2="151.7" xlink:href="#linear-gradient"/><linearGradient id="linear-gradient-5" x1="308.34" y1="240.4" x2="428.27" y2="240.4" gradientUnits="userSpaceOnUse"><stop offset="0" stop-color="#5f2d78"/><stop offset="1" stop-color="#af206e"/></linearGradient><linearGradient id="linear-gradient-6" x1="387.98" y1="335.43" x2="428.22" y2="335.43" xlink:href="#linear-gradient-5"/><linearGradient id="linear-gradient-7" x1="4.76" y1="562.59" x2="4.76" y2="0.41" gradientUnits="userSpaceOnUse"><stop offset="0" stop-color="#af206e"/><stop offset="0.55" stop-color="#e34256"/><stop offset="1" stop-color="#eb8b23"/></linearGradient></defs><title>sidebar bg</title><g id="Layer_2" data-name="Layer 2"><g id="Layer_1-2" data-name="Layer 1"><rect class="cls-1" x="-66.97" y="67.79" width="562.18" height="427.43" transform="translate(495.62 67.38) rotate(90)"/><path class="cls-2" d="M290.3.41s-1.6,25.24,4.55,36.26,26,19.28,33.46,36.72S341.7,106,340.09,124.8s-9.1,24.78-11.78,36.26-8.56,34.42-16.59,46.81S257.65,265.71,251,345.11s4.28,93.64,19,109.7,47.11,50.95,70.4,57.38,40.48,4.59,52.19,17.44,18.21,33,18.21,33"/><path class="cls-3" d="M331.64,562.59s-5.07-2.08-13.39-13.89-22.38-33.94-41.89-53.62-35-34.44-40.45-69.37,0-93.47,20.65-160.38,22.67-69.85,22.38-86.58-9.27-40.34-17.1-57.06c-7.38-15.77-17.9-38.87-21.34-48.71s-4.59-20.17-12.63-22.63S215.54,48.87,199.18,70s-51.67,55.2-59.67,76.25C118,203,119.94,251.63,103.65,289,80.47,342-8,377.05,10.12,455.72c11,47.63,64.58,12.55,103.28,61.5a84.9,84.9,0,0,1,17.54,45.37"/><path class="cls-4" d="M289.76,562.59s-6.11-23.07-21.06-40.4-38.53-34.66-46.53-65.71-6.31-62.1,0-100.73S249.41,238.41,249,215.3s-1.34-59.57-32.17-79.07S149.53,159,141.32,198,124.9,289.2,108.26,313.81,47.2,371.27,48.05,418.21s49.69,37.54,72.64,71.84,26.1,72.54,26.1,72.54"/><path class="cls-5" d="M262.29,562.59s-5-16.19-26.14-37.44S200.71,485.3,197.81,469s3.87-82,11-123.86,18.59-84.67,16.84-111.9-10.84-42.17-24.59-47.81-34.27,3.32-49.57,53.79-17.43,58.47-25.76,74.56-51.7,57.26-46.47,91.47,34.47,46.48,49.77,60.43,26.14,26.23,30.4,48.15S163,562.59,163,562.59"/><path class="cls-6" d="M168.9.41s-52.29,36.84-65,77.54S87.7,173.56,73.25,197.86.41,303.12.41,303.12"/><path class="cls-7" d="M427.83,480.4s-28.15-51.26-44.3-57.09-47.6,11.93-61.2-17.36-20.41-68.59-3.4-100,40.8-24.08,63.75-47.4,41.73-56.53,41.73-118.07c0-63.6-12.82-106.41-17.07-112.24s-17-27.87-17-27.87"/><path class="cls-8" d="M427.83,418.94s-23.89-38.86-43.45-38.38-52.78,12.14-52.74-27.22,28.15-54.43,48.1-55.64S419.24,263,419.24,263l8.59-22.55"/><path class="cls-9" d="M427.83,373.28S413.29,355.14,394.58,347s11.1-30.05,16.18-35.88,17.07-13.37,17.07-13.37"/><rect class="cls-10" x="0.41" y="0.41" width="8.71" height="562.18"/></g></g></svg>