<svg xmlns="http://www.w3.org/2000/svg" xmlns:xlink="http://www.w3.org/1999/xlink" viewBox="0 0 689.8 1489.25"><defs><style>.cls-1{fill:#2e1a47;}.cls-2,.cls-3,.cls-4,.cls-5,.cls-6,.cls-7,.cls-8,.cls-9{fill:none;stroke-miterlimit:10;}.cls-2{stroke:url(#linear-gradient);}.cls-3,.cls-4,.cls-5,.cls-6{opacity:0.45;}.cls-3{stroke:url(#linear-gradient-2);}.cls-4{stroke:#ff8700;}.cls-5{stroke:url(#linear-gradient-3);}.cls-6{stroke:url(#linear-gradient-4);}.cls-7{stroke:url(#linear-gradient-5);}.cls-8{stroke:#5f2d78;}.cls-9{stroke:url(#linear-gradient-6);}.cls-10{fill:url(#linear-gradient-7);}</style><linearGradient id="linear-gradient" x1="400.52" y1="744.62" x2="662.29" y2="744.62" gradientUnits="userSpaceOnUse"><stop offset="0" stop-color="#af206e"/><stop offset="1" stop-color="#e54355"/></linearGradient><linearGradient id="linear-gradient-2" x1="11.71" y1="809.4" x2="534.57" y2="809.4" gradientUnits="userSpaceOnUse"><stop offset="0" stop-color="#e54355"/><stop offset="1" stop-color="#eb8b23"/></linearGradient><linearGradient id="linear-gradient-3" x1="126.4" y1="987.4" x2="423.02" y2="987.4" gradientUnits="userSpaceOnUse"><stop offset="0" stop-color="#eb8b23"/><stop offset="1" stop-color="#f6cc1b"/></linearGradient><linearGradient id="linear-gradient-4" x1="0" y1="401.01" x2="272.38" y2="401.01" xlink:href="#linear-gradient"/><linearGradient id="linear-gradient-5" x1="497.05" y1="635.77" x2="689.79" y2="635.77" gradientUnits="userSpaceOnUse"><stop offset="0" stop-color="#5f2d78"/><stop offset="1" stop-color="#af206e"/></linearGradient><linearGradient id="linear-gradient-6" x1="625.4" y1="887.47" x2="689.76" y2="887.47" xlink:href="#linear-gradient-5"/><linearGradient id="linear-gradient-7" x1="4.81" y1="1488.83" x2="4.81" y2="0.33" gradientUnits="userSpaceOnUse"><stop offset="0" stop-color="#af206e"/><stop offset="0.55" stop-color="#e34256"/><stop offset="1" stop-color="#eb8b23"/></linearGradient></defs><title>sidebarbg-long</title><g id="Layer_2" data-name="Layer 2"><g id="Layer_1-2" data-name="Layer 1"><rect class="cls-1" x="-399.37" y="400.15" width="1488.5" height="688.86" transform="translate(1089.47 399.69) rotate(90)"/><path class="cls-2" d="M467.67.33s-2.59,66.84,7.33,96,41.85,51,53.93,97.22,21.57,86.28,19,136.11-14.67,65.63-19,96-13.81,91.15-26.75,124S415,702.77,404.26,913s6.9,247.92,30.63,290.46,75.91,134.9,113.45,151.91,65.24,12.15,84.12,46.18,29.34,87.27,29.34,87.27"/><path class="cls-3" d="M534.29,1488.83s-8.18-5.51-21.59-36.77-36.06-89.88-67.5-142-56.41-91.18-65.2-183.66,0-247.49,33.29-424.64,36.53-185,36.07-229.25S434.42,365.72,421.8,321.46c-11.9-41.75-28.85-102.93-34.4-129s-7.4-53.4-20.34-59.91-19.89-3.91-46.24,52.1-83.28,146.15-96.18,201.9C189.9,536.8,193.11,665.5,166.85,764.3,129.49,904.84-13,997.57,16.11,1205.88,33.75,1332,120.19,1239.11,182.57,1368.7c27.05,56.19,28.26,120.13,28.26,120.13"/><path class="cls-4" d="M466.79,1488.83s-9.84-61.08-33.93-107-62.1-91.77-75-174-10.18-164.43,0-266.71S401.76,630.48,401,569.3,398.87,411.57,349.18,360,240.8,420.17,227.56,523.42,201.09,765,174.29,830.13s-98.41,152.14-97,276.42,80.08,99.41,117.07,190.23,42.07,192,42.07,192"/><path class="cls-5" d="M422.53,1488.83s-8.12-42.86-42.13-99.13-57.12-105.5-61.8-148.58,6.24-217.16,17.79-327.94,30-224.19,27.15-296.29-17.47-111.66-39.63-126.6-55.24,8.79-79.9,142.43-28.08,154.81-41.5,197.41-83.33,151.63-74.9,242.18,55.55,123.09,80.2,160,42.13,69.46,49,127.49,5.62,129,5.62,129"/><path class="cls-6" d="M272,.33S187.73,97.89,167.18,205.65s-26,253.14-49.32,317.47S.46,801.82.46,801.82"/><path class="cls-7" d="M689.32,1271.23S644,1135.5,617.92,1120.06s-76.72,31.59-98.64-46S486.4,892.5,513.8,809.44s65.76-63.76,102.75-125.51S683.8,534.24,683.8,371.3c0-168.4-20.67-281.75-27.52-297.19S628.88.33,628.88.33"/><path class="cls-8" d="M689.32,1108.48s-38.52-102.87-70-101.61-85.06,32.14-85-72.07,45.36-144.13,77.51-147.33,63.66-92,63.66-92l13.86-59.72"/><path class="cls-9" d="M689.32,987.6s-23.45-48-53.59-69.71,17.88-79.58,26.07-95,27.52-35.4,27.52-35.4"/><rect class="cls-10" x="0.46" y="0.33" width="8.71" height="1488.5"/></g></g></svg>