<?xml version="1.0" encoding="utf-8"?>
<!-- Generator: Adobe Illustrator 24.0.3, SVG Export Plug-In . SVG Version: 6.00 Build 0)  -->
<svg version="1.1" id="Layer_1" xmlns="http://www.w3.org/2000/svg" xmlns:xlink="http://www.w3.org/1999/xlink" x="0px" y="0px"
	 viewBox="0 0 2032.6 1295.2" style="enable-background:new 0 0 2032.6 1295.2;" xml:space="preserve">
<style type="text/css">
	.st0{fill-rule:evenodd;clip-rule:evenodd;fill:#F6CC1B;}
	.st1{fill-rule:evenodd;clip-rule:evenodd;fill:#FFEDDE;}
	.st2{fill-rule:evenodd;clip-rule:evenodd;fill:#FFE9CC;}
	.st3{fill-rule:evenodd;clip-rule:evenodd;fill:#F8DABD;}
	.st4{fill-rule:evenodd;clip-rule:evenodd;fill:#D34499;}
	.st5{fill-rule:evenodd;clip-rule:evenodd;fill:#FFC764;}
	.st6{fill-rule:evenodd;clip-rule:evenodd;fill:#FFE4CD;}
	.st7{fill-rule:evenodd;clip-rule:evenodd;fill:#FFF0EB;}
	.st8{fill-rule:evenodd;clip-rule:evenodd;fill:#E18255;}
	.st9{fill-rule:evenodd;clip-rule:evenodd;fill:#D4764A;}
	.st10{fill-rule:evenodd;clip-rule:evenodd;fill:#C26C46;}
	.st11{fill-rule:evenodd;clip-rule:evenodd;fill:#E54355;}
	.st12{fill-rule:evenodd;clip-rule:evenodd;fill:#AB5643;}
	.st13{fill-rule:evenodd;clip-rule:evenodd;fill:#4D3848;}
	.st14{fill-rule:evenodd;clip-rule:evenodd;fill:#843633;}
	.st15{fill-rule:evenodd;clip-rule:evenodd;fill:#FF9863;}
	.st16{fill-rule:evenodd;clip-rule:evenodd;fill:#E26B4E;}
	.st17{fill-rule:evenodd;clip-rule:evenodd;fill:#FF7035;}
	.st18{fill-rule:evenodd;clip-rule:evenodd;fill:#722A27;}
	.st19{fill-rule:evenodd;clip-rule:evenodd;fill:#BE383A;}
	.st20{fill-rule:evenodd;clip-rule:evenodd;fill:#EE5C39;}
	.st21{fill-rule:evenodd;clip-rule:evenodd;fill:#3F8392;}
	.st22{fill-rule:evenodd;clip-rule:evenodd;fill:#FFA77A;}
	.st23{fill-rule:evenodd;clip-rule:evenodd;fill:#756170;}
	.st24{fill-rule:evenodd;clip-rule:evenodd;fill:#FFA476;}
	.st25{fill-rule:evenodd;clip-rule:evenodd;fill:#C0482F;}
	.st26{fill-rule:evenodd;clip-rule:evenodd;fill:#FFF3F5;}
	.st27{fill-rule:evenodd;clip-rule:evenodd;fill:#FFFFFF;}
	.st28{fill-rule:evenodd;clip-rule:evenodd;fill:#5F2D78;}
	.st29{fill-rule:evenodd;clip-rule:evenodd;fill:#E9DEE9;}
	.st30{fill-rule:evenodd;clip-rule:evenodd;fill:#EBBDC8;}
	.st31{fill-rule:evenodd;clip-rule:evenodd;fill:#FFF7FF;}
	.st32{fill-rule:evenodd;clip-rule:evenodd;fill:#EB946C;}
	.st33{fill-rule:evenodd;clip-rule:evenodd;fill:#2E1A47;}
	.st34{fill-rule:evenodd;clip-rule:evenodd;fill:#AF206E;}
	.st35{fill-rule:evenodd;clip-rule:evenodd;fill:#634F5E;}
	.st36{fill-rule:evenodd;clip-rule:evenodd;fill:#9F4943;}
	.st37{fill-rule:evenodd;clip-rule:evenodd;fill:#AB524B;}
	.st38{fill-rule:evenodd;clip-rule:evenodd;fill:#5BA8BA;}
	.st39{fill-rule:evenodd;clip-rule:evenodd;fill:#468E9E;}
	.st40{fill-rule:evenodd;clip-rule:evenodd;fill:#447888;}
	.st41{fill-rule:evenodd;clip-rule:evenodd;fill:#B85C55;}
	.st42{fill-rule:evenodd;clip-rule:evenodd;fill:#FAE5DB;}
	.st43{fill-rule:evenodd;clip-rule:evenodd;fill:#994643;}
	.st44{fill-rule:evenodd;clip-rule:evenodd;fill:#E26644;}
	.st45{fill-rule:evenodd;clip-rule:evenodd;fill:#FFC554;}
</style>
<path class="st0" d="M1599.5,421.8c-63,0-114.3-51.4-114.3-114.3c0-63,51.4-114.3,114.3-114.3c63,0,114.3,51.4,114.3,114.3
	C1713.9,370.4,1662.5,421.8,1599.5,421.8z"/>
<circle class="st1" cx="1455.4" cy="420.1" r="44"/>
<path class="st2" d="M132.4,1078.2c-228.1-336-95.7-784.9,291.9-993.4s777.5,7.4,868.3,218.3s142.3,269.8,331.1,218.3
	c188.9-51.5,515.1,309.1,235.5,537.2C1670.3,1083.1,296.7,1129.7,132.4,1078.2z"/>
<path class="st3" d="M1208.8,687.6c-268.4-7.8-195.9-463.1-679.5-444c-211.4,8.3-355,138.3-438.5,282.4
	C7.3,670.1,17,908.2,132.4,1078.2c68.5,21.5,346.8,25.9,661.9,22c363.3-67.7,743.3-167.6,845.5-259.7
	C1722,701.3,1477.2,695.5,1208.8,687.6z"/>
<path class="st4" d="M316.7,773.2c10.1-2.2,20.1-6,29.6-11.5c35.9-20.7,54.7-59.7,51.4-98.4l-90.3,52.1c6.1-8.3,11-17.6,14.5-27.9
	c13.4-39.2,1.9-80.9-26.1-108l-32.1,94.1c0.9-9.5,1.4-19.5,1.4-29.7c0-51.9-12.2-96.6-29.8-117.4c-17.6,20.7-29.8,65.5-29.8,117.4
	c0,10.4,0.5,20.5,1.4,30.1l-32.3-94.5c-27.9,27-39.4,68.7-26,108c3.5,10.2,8.4,19.6,14.5,27.9l-90.3-52.1
	c-3.3,38.7,15.5,77.7,51.4,98.4c9.5,5.5,19.4,9.3,29.6,11.5L51.4,793.5c23.1,31.3,62.9,48.2,103.6,40.1
	c28.6-5.7,52.1-22.6,66.8-45.3v327.4H249V788.5c14.7,22.6,38.1,39.5,66.7,45.2c40.6,8.1,80.5-8.8,103.5-40.1L316.7,773.2z"/>
<path class="st1" d="M685.1,627.2c20.8-5.1,41.7,7.7,46.8,28.4c5.1,20.8-7.7,41.7-28.4,46.8c-1,0.2-304,65.4-317.2,143.2
	c-3.1,18.2,30.2,38.9,63.5,57.6c18.6,10.5,25.2,34,14.8,52.7c-10.5,18.6-34,25.2-52.7,14.8C62.1,775,683.3,627.6,685.1,627.2z"/>
<path class="st1" d="M875.5,748.9c-21.2,2.6-40.5-12.6-43-33.8c-2.5-21.2,12.6-40.5,33.8-43c1-0.1,309.6-28.7,332-104.3
	c5.2-17.7-25.3-42.3-56.2-64.7c-17.2-12.6-21-36.8-8.4-54.1c12.6-17.2,36.8-21,54-8.4C1511.7,676.6,877.3,748.7,875.5,748.9z"/>
<path class="st5" d="M713.5,654.7c-10.1,0-18.3-8.2-18.3-18.3c0-10.1,8.2-18.3,18.3-18.3s18.3,8.2,18.3,18.3
	C731.8,646.5,723.6,654.7,713.5,654.7z"/>
<path class="st3" d="M852.9,194.1c-28.3,0-51.4-23.1-51.4-51.3c0-28.3,23.1-51.4,51.4-51.4c28.3,0,51.3,23.1,51.3,51.4
	C904.3,171,881.2,194.1,852.9,194.1z"/>
<g>
	<path class="st6" d="M1378.9,133.2c24.3,11.7,34.6,40.8,22.9,65.2c-11.7,24.3-40.8,34.6-65.2,22.9c-24.3-11.7-34.6-40.8-22.9-65.2
		C1325.4,131.8,1354.6,121.5,1378.9,133.2z"/>
	<path class="st6" d="M1412.4,172.6c17.1,8.2,24.4,28.8,16.2,45.9c-8.2,17.1-28.8,24.4-45.9,16.2c-17.1-8.2-24.4-28.8-16.2-45.9
		C1374.7,171.6,1395.2,164.4,1412.4,172.6z"/>
	<path class="st6" d="M1433.7,216c10,4.8,14.2,16.7,9.4,26.7c-4.8,10-16.7,14.2-26.7,9.4c-10-4.8-14.2-16.7-9.4-26.7
		C1411.8,215.5,1423.8,211.3,1433.7,216z"/>
	<path class="st7" d="M1378.9,136.6c13.2,6.3,18.8,22.2,12.5,35.4c-6.3,13.2-22.2,18.8-35.4,12.5c-13.2-6.3-18.8-22.2-12.5-35.4
		C1349.9,135.9,1365.7,130.3,1378.9,136.6z"/>
	<path class="st7" d="M1412.3,174.2c8.1,3.9,11.6,13.7,7.7,21.8c-3.9,8.1-13.7,11.6-21.8,7.7c-8.1-3.9-11.6-13.7-7.7-21.8
		C1394.4,173.7,1404.2,170.3,1412.3,174.2z"/>
	<path class="st7" d="M1437.1,219.9c4,1.9,5.7,6.7,3.8,10.7c-1.9,4-6.7,5.7-10.7,3.8c-4-1.9-5.7-6.7-3.8-10.7
		C1428.3,219.7,1433.1,218,1437.1,219.9z"/>
	
		<ellipse transform="matrix(0.1602 -0.9871 0.9871 0.1602 946.3834 1434.6248)" class="st3" cx="1316.3" cy="161.1" rx="32.8" ry="32.8"/>
</g>
<path class="st6" d="M159.6,1016.4c6.1-1.3,12.1-3.6,17.8-6.9c21.6-12.5,32.9-35.9,30.9-59.2L154,981.6c3.7-5,6.6-10.6,8.7-16.8
	c8.1-23.6,1.1-48.7-15.7-64.9l-19.3,56.6c0.5-5.7,0.8-11.7,0.8-17.8c0-31.2-7.3-58.1-17.9-70.6c-10.6,12.5-17.9,39.4-17.9,70.6
	c0,6.2,0.3,12.3,0.9,18.1l-19.4-56.9c-16.8,16.3-23.7,41.3-15.7,64.9c2.1,6.2,5.1,11.8,8.7,16.8l-54.3-31.3
	c-2,23.3,9.3,46.7,30.9,59.2c5.7,3.3,11.7,5.6,17.8,6.9L0,1028.6c13.9,18.8,37.8,29,62.3,24.1c17.2-3.4,31.3-13.6,40.2-27.3v98.5
	h16.4v-98.4c8.8,13.6,22.9,23.7,40.1,27.2c24.4,4.9,48.4-5.3,62.3-24.1L159.6,1016.4z"/>
<path class="st8" d="M795.1,666.6h-25.7c-105.7,0-192.1,86.5-192.1,192.1v192.1h410V858.8C987.2,753.1,900.8,666.6,795.1,666.6z"/>
<path class="st9" d="M734.3,669.8c-89.1,16.6-157.1,95.2-157.1,188.9v192.1h314.2V858.8C891.4,765,823.4,686.4,734.3,669.8z"/>
<path class="st9" d="M734.3,669.8c-89.1,16.6-157.1,95.2-157.1,188.9v192.1h314.2V858.8C891.4,765,823.4,686.4,734.3,669.8z"/>
<path class="st10" d="M895.7,816.7c-7.4,0-13.5-6.1-13.5-13.5c0-7.4,6.1-13.5,13.5-13.5c7.4,0,13.5,6.1,13.5,13.5
	C909.2,810.6,903.1,816.7,895.7,816.7z"/>
<path class="st10" d="M706.6,816.7c-7.4,0-13.5-6.1-13.5-13.5c0-7.4,6.1-13.5,13.5-13.5c7.4,0,13.5,6.1,13.5,13.5
	C720.1,810.6,714,816.7,706.6,816.7z"/>
<path class="st11" d="M1693,469.6c5.7-1.3,11.3-3.4,16.6-6.5c20.2-11.7,30.8-33.6,29-55.4l-50.8,29.4c3.4-4.7,6.2-9.9,8.2-15.7
	c7.5-22.1,1.1-45.6-14.7-60.8l-18.1,53c0.5-5.4,0.8-11,0.8-16.7c0-29.2-6.9-54.4-16.8-66.1c-9.9,11.7-16.8,36.9-16.8,66.1
	c0,5.8,0.3,11.5,0.8,17l-18.2-53.2c-15.7,15.2-22.2,38.7-14.7,60.8c2,5.8,4.8,11,8.2,15.7l-50.8-29.4c-1.8,21.8,8.7,43.8,29,55.4
	c5.3,3.1,10.9,5.2,16.7,6.5l-57.7,11.5c13,17.6,35.4,27.1,58.3,22.6c16.1-3.2,29.3-12.8,37.6-25.5v184.4h15.4V478.3
	c8.3,12.7,21.5,22.2,37.5,25.4c22.9,4.6,45.3-5,58.3-22.6L1693,469.6z"/>
<rect x="742.2" y="930.9" class="st12" width="148.8" height="141.1"/>
<path class="st13" d="M1759,1114.4L1759,1114.4c-19.1,0-34.8,15.6-34.8,34.8v107c0,19.1,15.7,34.8,34.8,34.8h0
	c19.1,0,34.8-15.7,34.8-34.8v-107C1793.8,1130,1778.2,1114.4,1759,1114.4z"/>
<path class="st13" d="M261.5,1114.4L261.5,1114.4c-19.1,0-34.8,15.6-34.8,34.8v107c0,19.1,15.6,34.8,34.8,34.8h0
	c19.1,0,34.8-15.7,34.8-34.8v-107C296.3,1130,280.7,1114.4,261.5,1114.4z"/>
<path class="st14" d="M606.6,769L606.6,769c-59.1,0-107.5,48.4-107.5,107.5v73.4c0,26.4,21.6,48,48,48H638
	c41.8,0,76.1-34.2,76.1-76.1v-45.4C714.1,817.3,665.7,769,606.6,769z"/>
<path class="st14" d="M547.5,872.6h-78.2c-43.9,0-79.8,35.9-79.8,79.8v44.1c0,19.6,16,35.7,35.7,35.7h145.6
	c31.1,0,56.5-25.4,56.5-56.5v-23.3C627.3,908.5,591.4,872.6,547.5,872.6z"/>
<path class="st14" d="M645,803.2H532.8c-62.9,0-114.4,51.5-114.4,114.4v63.3c0,28.1,23,51.2,51.2,51.2h208.9c44.6,0,81-36.5,81-81
	v-33.4C759.5,854.7,708,803.2,645,803.2z"/>
<rect x="766.6" y="856.5" transform="matrix(0.9458 -0.3247 0.3247 0.9458 -251.134 327.6758)" class="st15" width="179.1" height="119.4"/>
<rect x="778.2" y="926.2" transform="matrix(0.9458 -0.3247 0.3247 0.9458 -262.5613 330.151)" class="st16" width="159.4" height="51"/>
<path class="st17" d="M682.9,807.9c-4.2,14.7-20.7,21.4-36.9,15c-16.2-6.4-25.9-23.5-21.7-38.1c4.2-14.7,20.7-21.4,36.9-15
	C677.3,776.2,687.1,793.3,682.9,807.9z"/>
<path class="st15" d="M730.3,803.2H618.1c-62.9,0-114.4,51.5-114.4,114.4v23.6c0,22.4,18.3,40.7,40.7,40.7h-40.7
	c0.5,27.7,23.3,50.2,51.2,50.2h208.9c44.6,0,81-36.5,81-81v-33.4C844.7,854.7,793.2,803.2,730.3,803.2z"/>
<path class="st16" d="M503.6,921v0.2v0.2v0.2v19.7c0,22.4,18.4,40.7,40.9,40.7h-40.9c0.5,27.7,23.5,50.2,51.4,50.2h210.1
	c44.8,0,81.5-36.4,81.5-81v-29.5v-0.4c0-9.3-1.2-18.3-3.4-27c-10,33.4-41.3,58-78.1,58H555.1c-25.5,0-46.8-18.7-50.8-42.9
	C503.9,913.1,503.6,917,503.6,921z"/>
<path class="st18" d="M635.7,847.3v7.9c0,4.4-3.6,8.1-8.1,8.1h-4.5c-2,0-3.6-1.6-3.6-3.6v-14.7c0-3.1,2.6-5.7,5.7-5.7h2.4
	C632.1,839.2,635.7,842.9,635.7,847.3z"/>
<path class="st18" d="M635.7,972.2v7.9c0,4.4-3.6,8.1-8.1,8.1h-4.5c-2,0-3.6-1.6-3.6-3.6v-14.7c0-3.1,2.6-5.7,5.7-5.7h2.4
	C632.1,964.2,635.7,967.8,635.7,972.2z"/>
<path class="st15" d="M686.7,802c-2.7,13-18,19-34.2,13.3c-16.2-5.7-27.1-20.9-24.4-33.9c2.7-13,18-19,34.2-13.3
	C678.5,773.8,689.4,789,686.7,802z"/>
<path class="st19" d="M671.7,796.8c-1.3,6.4-8.8,9.3-16.7,6.5c-7.9-2.8-13.3-10.2-11.9-16.6c0.2-1.1,0.6-2.1,1.2-3
	c0.7,5.4,5.5,10.9,12,13.2c6.5,2.3,12.8,0.7,15.5-3.5C672,794.5,671.9,795.7,671.7,796.8z"/>
<path class="st15" d="M1370.5,780.5h-348.8c-69.2,0-125.8,56.6-125.8,125.8v69.6c0,30.9,25.3,56.2,56.2,56.2h455.1
	c49,0,89-40.1,89-89v-36.8C1496.3,837.1,1439.7,780.5,1370.5,780.5z"/>
<path class="st20" d="M1370.5,780.5h-231.3c-2.4,0-4.7,0.1-7.1,0.2c65.7,4,118.1,58.9,118.1,125.6V943c0,49-40.1,89-89.1,89h246
	c49,0,89-40.1,89-89v-36.8C1496.3,837.1,1439.7,780.5,1370.5,780.5z"/>
<path class="st16" d="M888.2,892.6c-0.5,4.5-0.8,9.1-0.8,13.7v69.6c0,30.9,25.7,56.2,57,56.2H1406c49.7,0,90.3-40.1,90.3-89v-36.8
	c0-10.4-1.3-20.6-3.8-30.3c-11.1,36.7-45.8,63.7-86.5,63.7H944.4C916.2,939.7,892.6,919.2,888.2,892.6z"/>
<path class="st14" d="M530.8,762.7L530.8,762.7c-5,0-9.1,4.1-9.1,9.1v39.8c0,5,4.1,9.1,9.1,9.1h0c5,0,9.1-4.1,9.1-9.1v-39.8
	C539.8,766.7,535.8,762.7,530.8,762.7z"/>
<path class="st14" d="M489,787.1L489,787.1c-2.5,4.3-1,9.9,3.3,12.4l34.5,19.9c4.3,2.5,9.9,1,12.4-3.3v0c2.5-4.3,1-9.9-3.3-12.4
	l-34.5-19.9C497.1,781.3,491.5,782.8,489,787.1z"/>
<path class="st21" d="M1702.4,780.5h-551.4c-2.6,0-5.1,0.1-7.7,0.2c65.7,4,118.1,58.9,118.1,125.6V943c0,49-40.1,89-89.1,89h655.8
	V906.3C1828.2,837.1,1771.5,780.5,1702.4,780.5z"/>
<path class="st11" d="M1943.5,871.8c8.8-1.9,17.5-5.2,25.7-10c31.2-18,47.5-51.9,44.7-85.6l-78.5,45.3c5.3-7.2,9.6-15.3,12.6-24.2
	c11.6-34.1,1.6-70.4-22.7-93.8l-27.9,81.8c0.8-8.3,1.2-16.9,1.2-25.8c0-45.1-10.6-84-25.9-102c-15.3,18-25.9,56.9-25.9,102
	c0,9,0.4,17.8,1.2,26.2l-28.1-82.2c-24.3,23.5-34.3,59.7-22.6,93.8c3,8.9,7.3,17,12.6,24.2l-78.5-45.3
	c-2.8,33.7,13.5,67.5,44.7,85.6c8.2,4.8,16.9,8.1,25.7,10l-89.1,17.7c20.1,27.2,54.7,41.9,90,34.9c24.9-4.9,45.3-19.7,58-39.4V1078
	h23.7V885.1c12.8,19.6,33.1,34.3,57.9,39.2c35.3,7,69.9-7.7,90-34.9L1943.5,871.8z"/>
<path class="st4" d="M1896.5,1015c6.8-1.5,13.5-4.1,19.9-7.7c24.1-13.9,36.7-40.1,34.6-66.1l-60.7,35c4.1-5.6,7.4-11.8,9.8-18.7
	c9-26.4,1.3-54.4-17.5-72.5l-21.6,63.2c0.6-6.4,0.9-13.1,0.9-19.9c0-34.9-8.2-64.9-20-78.9c-11.8,13.9-20,44-20,78.9
	c0,7,0.3,13.7,0.9,20.2l-21.7-63.5c-18.8,18.2-26.5,46.2-17.5,72.5c2.3,6.9,5.7,13.2,9.8,18.7l-60.7-35c-2.2,26,10.4,52.2,34.6,66.1
	c6.4,3.7,13.1,6.2,19.9,7.7l-68.9,13.7c15.5,21,42.3,32.4,69.6,27c19.2-3.8,35-15.2,44.9-30.5v58.9h18.3v-58.8
	c9.9,15.2,25.6,26.5,44.8,30.3c27.3,5.4,54.1-5.9,69.6-27L1896.5,1015z"/>
<g>
	<path class="st16" d="M960.3,914.3c-35.3,2.3-65.7-24.5-68-59.8c-2.3-35.3,24.5-65.7,59.8-68c0.8-0.1,283.3-20.2,698.9,123.8
		c33.4,11.6,51,48.1,39.4,81.4c-11.6,33.4-48.1,51-81.4,39.4C1218.6,895.9,961,914.3,960.3,914.3z"/>
	<path class="st15" d="M896.2,825.1c8.8-22.4,29.9-38.9,55.6-40.5c0.8-0.1,283.3-20.2,698.9,123.8c11.1,3.9,20.5,10.5,27.7,18.9
		c-12.5,31.8-48,48.3-80.5,37c-390.3-135.2-647.9-116.8-648.7-116.7C928.1,848.9,908.9,840,896.2,825.1z"/>
	<path class="st16" d="M1732.2,874c-44-27.6-110.5-17.9-148.6,21.6c-38.1,39.6-33.3,94.1,10.6,121.7c44,27.6,110.5,17.9,148.6-21.6
		C1780.9,956.2,1776.2,901.7,1732.2,874z"/>
	<path class="st15" d="M1732.3,870.5c-44-27.6-110.5-17.9-148.6,21.7c-15.6,16.3-24,35-25.5,53.4c6,12.4,15.8,23.5,29.4,32
		c44,27.6,110.5,17.9,148.6-21.6c15.6-16.2,24.1-35,25.5-53.4C1755.7,890.1,1745.9,879,1732.3,870.5z"/>
	<path class="st22" d="M1719.4,865.7c-19.5-12.2-49-7.9-65.9,9.6c-16.9,17.5-14.8,41.7,4.7,53.9c19.5,12.2,49,8,65.9-9.6
		C1741,902.1,1738.9,878,1719.4,865.7z"/>
</g>
<path class="st23" d="M1822.4,1108.5H191.6c-15.3,0-27.7,12.5-27.7,27.7l0,0c0,15.3,12.5,27.7,27.7,27.7h1630.8
	c15.2,0,27.7-12.5,27.7-27.7l0,0C1850.1,1121,1837.6,1108.5,1822.4,1108.5z"/>
<path class="st13" d="M840.2,1114.4L840.2,1114.4c-19.1,0-34.8,15.6-34.8,34.8v107c0,19.1,15.6,34.8,34.8,34.8h0
	c19.1,0,34.8-15.7,34.8-34.8v-107C875,1130,859.4,1114.4,840.2,1114.4z"/>
<path class="st24" d="M713.4,881.6c-27.6,0-50.2-11.5-50.2-25.7c0-14.2,22.5-25.7,50.2-25.7c27.6,0,50.2,11.5,50.2,25.7
	C763.6,870.1,741.1,881.6,713.4,881.6z"/>
<path class="st14" d="M544.3,981.9h-40.7v-40.7C503.6,963.6,521.9,981.9,544.3,981.9z"/>
<path class="st18" d="M389.6,946.9c-0.1,1.2-0.1,2.5-0.1,3.7v45c0,20,16.4,36.4,36.4,36.4h114.6c31.7,0,57.7-25.9,57.7-57.7v-23.8
	c0-5.1-0.5-10.1-1.4-14.9c-5.8,25.7-28.9,45.1-56.3,45.1H426C406.8,980.8,390.9,965.8,389.6,946.9z"/>
<path class="st25" d="M1064.2,970.1v9.8c0,5.5-4.5,10-10,10h-5.5c-2.5,0-4.5-2-4.5-4.5v-18.3c0-3.9,3.2-7.1,7.1-7.1h2.9
	C1059.7,960.1,1064.2,964.6,1064.2,970.1z"/>
<path class="st26" d="M1514.4,564.3c-7-7.9-21.2-6.8-31.8,2.5c-10.5,9.3-13.4,23.3-6.4,31.2c7,7.9,21.2,6.8,31.8-2.5
	C1518.5,586.2,1521.4,572.3,1514.4,564.3z"/>
<path class="st26" d="M1468.2,606.8c-3.5-4-10.6-3.4-15.9,1.3c-5.3,4.7-6.7,11.6-3.2,15.6c3.5,4,10.6,3.4,15.9-1.3
	C1470.2,617.7,1471.6,610.7,1468.2,606.8z"/>
<path class="st26" d="M427.8,539c-7-7.9-21.2-6.8-31.8,2.5c-10.5,9.3-13.4,23.3-6.4,31.2c7,7.9,21.2,6.8,31.8-2.5
	C432,560.9,434.8,546.9,427.8,539z"/>
<path class="st26" d="M381.6,581.4c-3.5-4-10.6-3.4-15.9,1.3c-5.3,4.7-6.7,11.6-3.2,15.6c3.5,4,10.6,3.4,15.9-1.3
	C383.7,592.3,385.1,585.3,381.6,581.4z"/>
<g>
	<path class="st27" d="M1159.9,876.3L1159.9,876.3c1.8-1.1,4.2-0.4,5.3,1.4l70.6,122.3c1.1,1.8,0.4,4.2-1.4,5.3l0,0
		c-1.8,1.1-4.2,0.4-5.3-1.4l-70.6-122.3C1157.5,879.7,1158.1,877.4,1159.9,876.3z"/>
	<path class="st28" d="M1110.7,791.1L1110.7,791.1c4.4-2.5,10-1,12.6,3.4l65.2,113c2.5,4.4,1,10-3.4,12.6l0,0
		c-4.4,2.5-10,1-12.6-3.4l-65.2-113C1104.8,799.3,1106.3,793.6,1110.7,791.1z"/>
</g>
<path class="st29" d="M1146.8,980.6c8.7,36,41,61.4,78,61.4c37.1,0,69.4-25.4,78-61.4c0.7-3,0.1-5.9-1.8-8.4
	c-1.9-2.5-4.6-3.8-7.7-3.8h-136.9c-3.1,0-5.8,1.3-7.7,3.8C1146.7,974.6,1146.1,977.5,1146.8,980.6z"/>
<path class="st30" d="M1251,1037.6c25.4-8.7,45.3-29.9,51.9-57.1c0.7-3,0.1-5.9-1.8-8.4c-1.9-2.4-4.5-3.7-7.6-3.8h-0.1h-84.6h-0.1
	c-3.1,0-5.7,1.3-7.6,3.8c-1.9,2.5-2.6,5.4-1.8,8.4C1205.7,1007.7,1225.7,1028.9,1251,1037.6z"/>
<path class="st9" d="M774.2,509.4L774.2,509.4c-29.4-2.2-55.2,20-57.4,49.4l-9.2,122.6c-2.2,29.4,20,55.2,49.4,57.4h0
	c29.4,2.2,55.2-20,57.4-49.4l9.2-122.6C825.8,537.5,803.6,511.6,774.2,509.4z"/>
<path class="st18" d="M897.8,319.4l-121.9,2.5c-65.9,1.3-118.7,56.3-117.3,122.2l0.5,23.9c0.4,17.4,4.5,33.9,11.5,48.7
	c-1.4-7-2.2-14.2-2.4-21.5l-0.5-23.9c-1.4-65.9,51.4-120.9,117.3-122.2l121.9-2.5c48.5-1,91,27.3,110.7,68.6
	C1006.2,359.7,956.3,318.2,897.8,319.4z"/>
<path class="st18" d="M930.5,363.1l-117.2-33.4c-63.4-18.1-130,19-148,82.4l-6.6,23c-4.8,16.7-5.7,33.7-3.3,49.9
	c0.7-7.1,2-14.2,4-21.3l6.6-23c18.1-63.4,84.7-100.4,148-82.4l117.2,33.4c46.6,13.3,79,52.9,85.7,98.1
	C1022.3,433.5,986.8,379.1,930.5,363.1z"/>
<path class="st18" d="M785,294.9L785,294.9c-4.7-1.8-9.9,0.5-11.7,5.2l-14.4,37.1c-1.8,4.7,0.5,9.9,5.2,11.7l0,0
	c4.7,1.8,9.9-0.5,11.7-5.2l14.4-37.1C792,301.9,789.7,296.7,785,294.9z"/>
<path class="st18" d="M737.2,302.6L737.2,302.6c-3.9,3.1-4.5,8.9-1.4,12.7l25,31c3.1,3.9,8.9,4.5,12.7,1.4l0,0
	c3.9-3.1,4.5-8.9,1.4-12.7l-25-31C746.9,300.1,741.1,299.5,737.2,302.6z"/>
<path class="st18" d="M914.6,377.1l-113.7-44c-61.4-23.8-131.2,7.1-154.9,68.5l-8.6,22.3c-23.8,61.4,7.1,131.2,68.5,154.9l113.7,44
	c61.4,23.8,131.2-7.1,154.9-68.5l8.6-22.3C1006.9,470.6,976.1,400.8,914.6,377.1z"/>
<path class="st18" d="M981.8,586.8c-19-7.7-25.6-30.8-14.7-51.5c10.9-20.7,35.2-31.3,54.2-23.6c19,7.7,25.6,30.8,14.7,51.5
	C1025.1,583.9,1000.9,594.5,981.8,586.8z"/>
<path class="st8" d="M989.2,592.8c-17.1-5.5-22.8-26.9-12.9-47.8c10-20.9,31.9-33.3,48.9-27.8c17.1,5.5,22.8,26.9,12.9,47.8
	C1028.1,585.8,1006.2,598.3,989.2,592.8z"/>
<path class="st18" d="M998.4,573.4c-8.3-2.7-11.2-13.1-6.3-23.3c4.9-10.2,15.6-16.3,23.9-13.6c1.4,0.5,2.7,1.2,3.8,2.1
	c-7.4,0.2-15.4,5.8-19.4,14.2c-4,8.4-2.8,17,2.5,21.3C1001.3,574.1,999.8,573.9,998.4,573.4z"/>
<path class="st18" d="M610.6,443.3c19.3,7.1,39.7-5.5,45.6-28.2c5.9-22.7-5-46.8-24.2-53.9c-19.3-7.1-39.7,5.5-45.6,28.2
	C580.5,412,591.3,436.2,610.6,443.3z"/>
<path class="st9" d="M601.2,442.8c16.3,7.4,35-4.5,41.7-26.7c6.7-22.1-1.1-46.1-17.5-53.5c-16.3-7.4-35,4.5-41.7,26.7
	C577,411.4,584.8,435.4,601.2,442.8z"/>
<path class="st18" d="M607.4,422.3c8,3.6,17.1-2.2,20.4-13c3.3-10.8-0.6-22.5-8.5-26.1c-1.4-0.6-2.8-1-4.2-1.1
	c5.3,5.1,7.5,14.6,4.8,23.6c-2.7,8.9-9.4,14.5-16.1,14.1C604.7,420.8,606,421.6,607.4,422.3z"/>
<path class="st9" d="M920,403l-140.4-54.3c-61.4-23.8-131.2,7.1-154.9,68.5l-8.6,22.3c-23.8,61.4,7.1,131.2,68.5,154.9L825,648.8
	c61.4,23.8,131.2-7.1,154.9-68.5l8.6-22.3C1012.3,496.5,981.4,426.8,920,403z"/>
<path class="st8" d="M920,403l-18.6-7.2c-61.4-23.8-131.2,7.1-154.9,68.5l-8.6,22.3c-23.8,61.4,7.1,131.2,68.5,154.9l18.6,7.2
	c61.4,23.8,131.2-7.1,154.9-68.5l8.6-22.3C1012.3,496.5,981.4,426.8,920,403z"/>
<path class="st18" d="M912.1,502.4l-22.9-13.9c-5.3-3.2-11.9-0.1-14.6,6.9l-0.4,1c3-2.2,6.7-2.5,9.9-0.6l26.6,16.1
	c3.2,2,5.3,5.8,5.8,10.1l0.4-1C919.6,513.9,917.5,505.6,912.1,502.4z"/>
<path class="st18" d="M755.8,432.8l-26-5.9c-6-1.4-13.2,3.2-15.9,10.2l-0.4,1c3.2-2.8,7.3-4.1,11-3.3l30.1,6.8
	c3.7,0.8,6.1,3.7,6.8,7.3l0.4-1C764.6,441,761.9,434.2,755.8,432.8z"/>
<path class="st8" d="M907.1,755.3c-21.2,2.5-40.5-12.6-43-33.8c-2.5-21.2,12.6-40.5,33.8-43c1-0.1,309.6-28.7,332-104.3
	c5.2-17.7-25.3-42.3-56.2-64.7c-17.2-12.6-21-36.8-8.4-54.1c12.6-17.2,36.8-21,54-8.4C1543.3,683,909,755.1,907.1,755.3z"/>
<path class="st9" d="M1238.1,461.4c256.5,206.3-236.2,281.5-319.3,292.5c-1.7-3.6-2.9-7.6-3.4-11.8c-2.5-21.2,12.6-40.5,33.8-43
	c0.8-0.1,206.5-19.1,294.3-67.2c59.7-32.7,40.7-85.7-9-121.9c-17.2-12.6-30.4-16.7-17.8-33.9
	C1222.2,468.5,1229.8,463.6,1238.1,461.4z"/>
<path class="st9" d="M674.8,642.6c20.8-5.1,41.7,7.7,46.8,28.4c5.1,20.8-7.7,41.7-28.4,46.8c-1,0.2-304,65.4-317.2,143.2
	c-3.1,18.2,30.2,38.9,63.5,57.6c18.6,10.5,25.2,34,14.8,52.7c-10.5,18.6-34,25.2-52.7,14.8C51.8,790.4,673,643,674.8,642.6z"/>
<path class="st9" d="M391,871.3c-36.3,28.7-36.2,76.5,0.2,106.7c36.4,30.2,95.4,31.4,131.7,2.7c36.3-28.7,36.2-76.5-0.2-106.7
	C486.3,843.8,427.3,842.6,391,871.3z"/>
<path class="st8" d="M439.5,872c-22.1,17.5-22,46.5,0.1,64.9c22.2,18.4,58,19.1,80.1,1.6c22.1-17.5,22-46.5-0.1-64.9
	C497.5,855.3,461.6,854.6,439.5,872z"/>
<g>
	<path class="st27" d="M916.2,726.4L916.2,726.4c-1,0.8-1.1,2.3-0.3,3.3l66.7,79.1c0.8,1,2.3,1.1,3.3,0.3l0,0c1-0.8,1.1-2.3,0.3-3.3
		l-66.7-79.1C918.6,725.7,917.2,725.6,916.2,726.4z"/>
	<path class="st28" d="M862.8,663.1L862.8,663.1c-2.7,2.3-3,6.3-0.8,9l51.8,61.5c2.3,2.7,6.3,3,9,0.8l0,0c2.7-2.3,3-6.3,0.8-9
		l-51.8-61.5C869.6,661.2,865.5,660.9,862.8,663.1z"/>
	<path class="st28" d="M990.5,800.3c0.3-1-0.3-2.1-1.3-2.4c-1-0.3-2.1,0.3-2.4,1.3l-2.3,8.1l-7.8,0.4c-1.1,0.1-1.9,1-1.8,2
		c0.1,1.1,1,1.9,2,1.8l9.1-0.5c0.8,0,1.5-0.6,1.8-1.4L990.5,800.3z"/>
</g>
<path class="st31" d="M556,715.8L556,715.8c-1.2,0.4-1.8,1.8-1.4,3l35.5,97.2c0.4,1.2,1.8,1.8,3,1.4l0,0c1.2-0.4,1.9-1.8,1.4-3
	L559,717.2C558.6,716,557.2,715.4,556,715.8z"/>
<path class="st28" d="M527.6,638.1L527.6,638.1c-3.3,1.2-5,4.9-3.8,8.2l27.6,75.5c1.2,3.3,4.9,5,8.2,3.8l0,0c3.3-1.2,5-4.9,3.8-8.2
	l-27.6-75.5C534.6,638.6,530.9,636.8,527.6,638.1z"/>
<path class="st17" d="M600.4,810.7c0.6-0.9,0.4-2.1-0.4-2.7c-0.9-0.6-2.1-0.4-2.7,0.4l-4.9,6.8l-7.4-2.3c-1-0.3-2.1,0.3-2.4,1.3
	c-0.3,1,0.3,2.1,1.3,2.4l8.7,2.7c0.8,0.2,1.6,0,2.1-0.7L600.4,810.7z"/>
<path class="st31" d="M682.2,672.5L682.2,672.5c-1.3-0.3-2.5,0.4-2.9,1.7L654,774.5c-0.3,1.3,0.5,2.5,1.7,2.9l0,0
	c1.3,0.3,2.5-0.5,2.9-1.7l25.3-100.4C684.2,674.1,683.4,672.8,682.2,672.5z"/>
<path class="st28" d="M702.5,592.2L702.5,592.2c-3.4-0.9-6.9,1.2-7.8,4.7l-19.7,78c-0.9,3.4,1.2,6.9,4.7,7.8l0,0
	c3.4,0.9,6.9-1.2,7.8-4.7l19.7-78C708,596.6,705.9,593.1,702.5,592.2z"/>
<path class="st17" d="M665.5,775.9c1-0.4,1.5-1.5,1.2-2.5c-0.4-1-1.5-1.5-2.5-1.2l-7.9,2.8l-4.8-6.1c-0.7-0.8-1.9-1-2.7-0.3
	c-0.8,0.7-1,1.9-0.3,2.7l5.7,7.2c0.5,0.6,1.4,0.9,2.2,0.6L665.5,775.9z"/>
<path class="st17" d="M683.6,832.8c1.1,0,2-0.8,2-1.9c0-1.1-0.8-2-1.9-2l-8.4-0.2l-2.3-7.4c-0.3-1-1.4-1.6-2.4-1.3
	c-1,0.3-1.6,1.4-1.3,2.4l2.7,8.7c0.2,0.8,0.9,1.3,1.8,1.4L683.6,832.8z"/>
<path class="st31" d="M745.6,1031.1L745.6,1031.1c-1.1,0.8-2.5,0.5-3.3-0.6l-59.9-84.4c-0.8-1.1-0.5-2.5,0.6-3.3l0,0
	c1.1-0.7,2.5-0.5,3.3,0.6l59.9,84.4C747,1028.8,746.7,1030.3,745.6,1031.1z"/>
<path class="st28" d="M793.6,1098.6L793.6,1098.6c-2.9,2-6.9,1.4-9-1.5l-46.6-65.6c-2-2.9-1.4-6.9,1.5-8.9l0,0
	c2.9-2,6.9-1.4,8.9,1.5l46.6,65.6C797.1,1092.5,796.4,1096.5,793.6,1098.6z"/>
<path class="st17" d="M692.7,940.6c1.1,0,2,0.8,2,1.9c0,1.1-0.8,2-1.9,2l-8.4,0.2l-2.3,7.4c-0.3,1-1.4,1.6-2.4,1.3
	c-1-0.3-1.6-1.4-1.3-2.4l2.7-8.7c0.2-0.8,0.9-1.3,1.8-1.4L692.7,940.6z"/>
<g>
	<path class="st31" d="M1401.6,754.2L1401.6,754.2c-1.3-0.3-2.5,0.5-2.8,1.7l-24.3,100.6c-0.3,1.3,0.5,2.5,1.7,2.8l0,0
		c1.3,0.3,2.5-0.5,2.8-1.7l24.3-100.6C1403.6,755.8,1402.8,754.5,1401.6,754.2z"/>
	<path class="st28" d="M1421,673.8L1421,673.8c-3.4-0.8-6.9,1.3-7.7,4.7l-18.9,78.2c-0.8,3.4,1.3,6.9,4.7,7.7l0,0
		c3.4,0.8,6.9-1.3,7.7-4.7l18.9-78.2C1426.6,678.1,1424.5,674.6,1421,673.8z"/>
	<path class="st17" d="M1386,857.8c1-0.4,1.5-1.5,1.1-2.5c-0.4-1-1.5-1.5-2.5-1.1l-7.9,2.9l-4.9-6c-0.7-0.8-1.9-1-2.7-0.3
		c-0.8,0.7-1,1.9-0.3,2.7l5.8,7.1c0.5,0.6,1.4,0.9,2.2,0.6L1386,857.8z"/>
	<path class="st31" d="M1421.1,569.7c-16.4,13.3-26.4,34.4-8.9,52c7.7,7.8,4.4,24.6,0.3,33.3c-0.8,1.7-0.6,3.7,0.8,5.1
		c1.7,1.7,4.4,1.8,6.1,0.1c16-14,25.7-36.2,8.3-53.9c-7.4-7.5-4.3-22.8,0.1-31.2c1-1.7,0.7-3.9-0.7-5.3
		C1425.5,568.3,1422.9,568.2,1421.1,569.7z"/>
</g>
<g>
	<path class="st31" d="M1565.5,808.7L1565.5,808.7c-1-0.8-2.5-0.6-3.3,0.5l-62.4,82.6c-0.8,1-0.6,2.5,0.5,3.3l0,0
		c1,0.8,2.5,0.6,3.3-0.5L1566,812C1566.7,811,1566.5,809.5,1565.5,808.7z"/>
	<path class="st28" d="M1615.4,742.7L1615.4,742.7c-2.8-2.1-6.9-1.6-9,1.2l-48.5,64.1c-2.1,2.8-1.6,6.9,1.2,9l0,0
		c2.8,2.1,6.9,1.6,9-1.2l48.5-64.1C1618.8,748.9,1618.2,744.8,1615.4,742.7z"/>
	<path class="st17" d="M1509.9,897.6c1.1,0.1,2-0.8,2-1.8c0.1-1.1-0.8-2-1.8-2l-8.4-0.5l-2.1-7.5c-0.3-1-1.4-1.6-2.4-1.3
		c-1,0.3-1.6,1.4-1.3,2.4l2.5,8.8c0.2,0.8,0.9,1.4,1.8,1.4L1509.9,897.6z"/>
	<path class="st31" d="M1605.2,689.8c-6.6,5.3-10.6,13.8-3.6,20.9c3.1,3.1,1.8,9.9,0.1,13.4c-0.3,0.7-0.2,1.5,0.3,2.1
		c0.7,0.7,1.8,0.7,2.5,0c6.4-5.6,10.3-14.6,3.3-21.6c-3-3-1.7-9.1,0-12.5c0.4-0.7,0.3-1.5-0.3-2.1
		C1606.9,689.3,1605.9,689.3,1605.2,689.8z"/>
</g>
<path class="st31" d="M531.4,578.8c-6.6,5.3-10.6,13.8-3.6,20.9c3.1,3.1,1.8,9.9,0.1,13.4c-0.3,0.7-0.2,1.5,0.3,2.1
	c0.7,0.7,1.8,0.7,2.5,0c6.4-5.6,10.3-14.6,3.3-21.6c-3-3-1.7-9.1,0-12.5c0.4-0.7,0.3-1.5-0.3-2.1
	C533.2,578.3,532.1,578.2,531.4,578.8z"/>
<path class="st31" d="M1114.3,513.5L1114.3,513.5c-1.3,0.2-2.1,1.4-1.9,2.7l17.2,102.1c0.2,1.3,1.4,2.1,2.7,1.9l0,0
	c1.3-0.2,2.1-1.4,1.9-2.7L1117,515.4C1116.8,514.1,1115.6,513.3,1114.3,513.5z"/>
<path class="st28" d="M1100.5,431.8L1100.5,431.8c-3.5,0.6-5.9,3.9-5.3,7.4l13.4,79.3c0.6,3.5,3.9,5.8,7.4,5.3l0,0
	c3.5-0.6,5.8-3.9,5.3-7.4l-13.4-79.3C1107.3,433.6,1104,431.3,1100.5,431.8z"/>
<path class="st31" d="M1121,414.1L1121,414.1c-1.3-0.1-2.4,0.9-2.5,2.2l-6.9,103.3c-0.1,1.3,0.9,2.4,2.2,2.5l0,0
	c1.3,0.1,2.4-0.9,2.5-2.2l6.9-103.3C1123.2,415.3,1122.2,414.2,1121,414.1z"/>
<path class="st28" d="M1126.4,331.5L1126.4,331.5c-3.5-0.2-6.6,2.5-6.8,6l-5.3,80.2c-0.2,3.5,2.5,6.6,6,6.8l0,0
	c3.5,0.2,6.6-2.5,6.8-6l5.3-80.2C1132.6,334.8,1130,331.8,1126.4,331.5z"/>
<path class="st31" d="M1116.4,674.8c-16.4,13.3-26.4,34.4-8.9,52.1c7.7,7.8,4.4,24.6,0.3,33.3c-0.8,1.7-0.6,3.7,0.8,5.1
	c1.7,1.7,4.4,1.8,6.1,0.1c16-14,25.7-36.2,8.3-53.9c-7.4-7.5-4.3-22.8,0.1-31.2c1-1.7,0.7-3.9-0.7-5.3
	C1120.7,673.4,1118.1,673.3,1116.4,674.8z"/>
<path class="st31" d="M508.4,523c-11.9,9.6-19.1,25-6.5,37.8c5.6,5.6,3.2,17.9,0.2,24.2c-0.6,1.2-0.4,2.7,0.6,3.7
	c1.2,1.2,3.2,1.3,4.5,0.1c11.6-10.2,18.7-26.3,6-39.1c-5.4-5.5-3.1-16.5,0.1-22.7c0.7-1.2,0.5-2.8-0.5-3.8
	C511.5,522,509.6,521.9,508.4,523z"/>
<path class="st32" d="M922,493.5c-17.4,0-31.7-8.6-31.7-19.2c0-10.6,14.2-19.3,31.7-19.3c17.4,0,31.7,8.6,31.7,19.3
	C953.7,484.8,939.4,493.5,922,493.5z"/>
<path class="st32" d="M924.6,451.8c-8.7,0-15.8-4.3-15.8-9.6c0-5.3,7.1-9.6,15.8-9.6c8.7,0,15.8,4.3,15.8,9.6
	C940.4,447.5,933.3,451.8,924.6,451.8z"/>
<path class="st6" d="M1189.4,66.6c-9.2,5.2-10.9,19.4-4,31.6c7,12.2,20.1,17.9,29.2,12.6c9.2-5.2,11-19.4,4-31.6
	C1211.7,67,1198.6,61.4,1189.4,66.6z"/>
<path class="st6" d="M1221.6,120.5c-4.6,2.6-5.5,9.7-2,15.8c3.5,6.1,10,8.9,14.6,6.3c4.6-2.6,5.5-9.7,2-15.8
	C1232.7,120.7,1226.2,117.9,1221.6,120.5z"/>
<path class="st31" d="M1300.9,319.9c-7.9-7-21.9-4.2-31.2,6.3c-9.3,10.5-10.5,24.7-2.6,31.7c7.9,7,21.9,4.2,31.2-6.3
	C1307.6,341.1,1308.8,326.9,1300.9,319.9z"/>
<path class="st31" d="M1260.1,367.6c-3.9-3.5-10.9-2.1-15.6,3.2c-4.7,5.3-5.3,12.4-1.3,15.9c4,3.5,10.9,2.1,15.6-3.2
	C1263.5,378.2,1264,371.1,1260.1,367.6z"/>
<path class="st6" d="M512.6,258.8c-11.6-13.2-35.3-11.3-52.8,4.2c-17.5,15.5-22.3,38.7-10.7,51.9c11.6,13.2,35.3,11.3,52.8-4.2
	C519.5,295.2,524.3,271.9,512.6,258.8z"/>
<path class="st6" d="M435.7,329.3c-5.8-6.6-17.6-5.6-26.4,2.1c-8.8,7.7-11.2,19.4-5.3,25.9c5.8,6.6,17.6,5.6,26.4-2.1
	C439.2,347.5,441.5,335.9,435.7,329.3z"/>
<path class="st33" d="M1071,286.1c-2.2-2.6-5-4.4-8.3-5.5c-2.8-0.9-5.9-1.3-8.9-1.1c-2.2,0.1-5.1,0.7-6.9,2
	c-1.8,1.4-2.2,3.9-0.8,5.7c1.4,1.8,3.9,2.2,5.7,0.9c0.5-0.3,2-0.4,2.5-0.4c1.9-0.1,4,0.1,5.8,0.7c1.9,0.6,3.6,1.7,4.8,3.2
	c1.3,1.7,1.8,3.7,1.9,5.8c0.1,2.2,2,3.9,4.2,3.8h0c2.2,0.1,4.1-1.6,4.2-3.8c0.1-2.1,0.7-4.1,1.9-5.8c1.2-1.6,2.9-2.6,4.8-3.2
	c1.8-0.6,3.9-0.8,5.8-0.7c0.6,0,2,0.2,2.5,0.4c1.8,1.4,4.4,1,5.7-0.8c1.4-1.8,1-4.4-0.8-5.7c-1.8-1.3-4.7-1.9-6.9-2
	c-3-0.2-6.1,0.2-8.9,1.1C1076,281.7,1073.1,283.5,1071,286.1z"/>
<path class="st33" d="M1019.6,248.5c-2.2-2.6-5-4.4-8.3-5.5c-2.8-0.9-5.9-1.3-8.9-1.1c-2.2,0.1-5.1,0.7-6.9,2
	c-1.8,1.4-2.2,3.9-0.8,5.7c1.4,1.8,3.9,2.2,5.7,0.9c0.5-0.3,2-0.4,2.5-0.4c1.9-0.1,4,0.1,5.8,0.7c1.9,0.6,3.6,1.7,4.8,3.2
	c1.3,1.7,1.8,3.7,1.9,5.8c0.1,2.2,2,3.9,4.2,3.8h0c2.2,0.1,4.1-1.6,4.2-3.8c0.1-2.1,0.7-4.1,1.9-5.8c1.2-1.6,2.9-2.6,4.8-3.2
	c1.8-0.6,3.9-0.8,5.8-0.7c0.6,0,2,0.2,2.5,0.4c1.8,1.4,4.4,1,5.7-0.8c1.4-1.8,1-4.4-0.8-5.7c-1.8-1.3-4.7-1.9-6.9-2
	c-3-0.2-6.1,0.2-8.9,1.1C1024.7,244,1021.8,245.8,1019.6,248.5z"/>
<path class="st6" d="M308.5,406.3c-3.2-3.9-7.6-6.6-12.4-8.2c-4.2-1.4-8.9-2-13.3-1.7c-3.2,0.2-7.7,1-10.3,3c-2.7,2-3.2,5.9-1.2,8.6
	c2,2.7,5.9,3.2,8.5,1.3c0.7-0.4,2.9-0.6,3.8-0.6c2.9-0.2,6,0.2,8.8,1.1c2.8,0.9,5.3,2.5,7.1,4.8c1.9,2.5,2.7,5.6,2.9,8.7
	c0.2,3.3,3,5.9,6.2,5.8h0c3.3,0.1,6.1-2.5,6.3-5.8c0.2-3.1,1-6.2,2.9-8.7c1.8-2.4,4.3-3.9,7.1-4.8c2.8-0.9,5.9-1.3,8.8-1.1
	c0.8,0.1,3,0.3,3.7,0.6c2.7,2,6.5,1.5,8.6-1.2c2-2.7,1.5-6.6-1.2-8.6c-2.7-2-7.1-2.8-10.3-3c-4.4-0.3-9.1,0.3-13.3,1.7
	C316.1,399.7,311.8,402.4,308.5,406.3z"/>
<path class="st6" d="M785.1,62.8c-41.2,5.5-70.2,43.3-64.8,84.5c5.5,41.2,43.3,70.2,84.5,64.8c41.2-5.5,70.2-43.3,64.7-84.5
	C864.2,86.4,826.3,57.4,785.1,62.8z"/>
<path class="st6" d="M717.3,104.6c-29,3.8-49.5,30.5-45.6,59.6c3.8,29,30.5,49.5,59.6,45.6c29-3.8,49.5-30.5,45.6-59.6
	C773,121.2,746.3,100.8,717.3,104.6z"/>
<path class="st6" d="M665.3,158.1c-16.9,2.2-28.7,17.7-26.5,34.6c2.2,16.9,17.7,28.7,34.6,26.5c16.9-2.2,28.7-17.7,26.5-34.6
	C697.6,167.7,682.1,155.9,665.3,158.1z"/>
<path class="st7" d="M783.5,67.9c-22.4,3-38.1,23.5-35.2,45.9c3,22.4,23.5,38.1,45.9,35.2c22.4-3,38.1-23.5,35.2-45.9
	C826.4,80.7,805.9,64.9,783.5,67.9z"/>
<path class="st7" d="M716.6,107c-13.8,1.8-23.5,14.5-21.7,28.3c1.8,13.8,14.5,23.5,28.3,21.7c13.8-1.8,23.5-14.5,21.7-28.3
	C743,114.8,730.4,105.1,716.6,107z"/>
<path class="st7" d="M658.5,162.1c-6.8,0.9-11.5,7.1-10.6,13.9c0.9,6.8,7.1,11.5,13.9,10.6c6.8-0.9,11.5-7.1,10.6-13.9
	C671.5,166,665.2,161.2,658.5,162.1z"/>
<path class="st5" d="M823.2,661.2c-2.4,0-4.7,0.5-6.8,1.3l-2,27c-0.1,1.9-0.4,3.9-0.7,5.7c2.8,1.7,6.1,2.7,9.6,2.7
	c10.1,0,18.3-8.2,18.3-18.3C841.5,669.4,833.3,661.2,823.2,661.2z"/>
<path class="st5" d="M824.8,731.9c-10.1,0-18.3-8.2-18.3-18.3c0-10.1,8.2-18.3,18.3-18.3c10.1,0,18.3,8.2,18.3,18.3
	C843.1,723.7,834.9,731.9,824.8,731.9z"/>
<path class="st5" d="M794.8,751.8c-10.1,0-18.3-8.2-18.3-18.3c0-10.1,8.2-18.3,18.3-18.3s18.3,8.2,18.3,18.3
	C813.1,743.6,804.9,751.8,794.8,751.8z"/>
<path class="st5" d="M759.6,739.3c-10.1,0-18.3-8.2-18.3-18.3c0-10.1,8.2-18.3,18.3-18.3c10.1,0,18.3,8.2,18.3,18.3
	C777.9,731,769.7,739.3,759.6,739.3z"/>
<path class="st5" d="M730.6,715c-10.1,0-18.3-8.2-18.3-18.3c0-10.1,8.2-18.3,18.3-18.3c10.1,0,18.3,8.2,18.3,18.3
	C748.9,706.8,740.7,715,730.6,715z"/>
<path class="st5" d="M709,680.7c-10.1,0-18.3-8.2-18.3-18.3c0-10.1,8.2-18.3,18.3-18.3c10.1,0,18.3,8.2,18.3,18.3
	C727.3,672.4,719.1,680.7,709,680.7z"/>
<path class="st31" d="M736.5,742.4L736.5,742.4c-1.1-0.8-2.5-0.5-3.3,0.6l-59.9,84.4c-0.8,1.1-0.5,2.5,0.6,3.3l0,0
	c1.1,0.7,2.5,0.5,3.3-0.6l59.9-84.4C737.8,744.6,737.6,743.1,736.5,742.4z"/>
<path class="st28" d="M784.4,674.9L784.4,674.9c-2.9-2-6.9-1.4-9,1.5l-46.6,65.6c-2,2.9-1.4,6.9,1.5,8.9l0,0c2.9,2,6.9,1.4,8.9-1.5
	l46.6-65.6C788,680.9,787.3,676.9,784.4,674.9z"/>
<path class="st5" d="M810.1,735.7c-22.2,0-37.2,18-33.6,40.2C780.1,798,801,816,823.2,816c22.2,0,37.2-18,33.6-40.2
	C853.2,753.7,832.2,735.7,810.1,735.7z"/>
<path class="st11" d="M819.9,742.6c-16.5,0-27.7,13.4-25,29.9c2.7,16.5,18.3,29.9,34.8,29.9c16.5,0,27.7-13.4,25-29.9
	C852,756,836.4,742.6,819.9,742.6z"/>
<path class="st31" d="M811.5,750.7c-7.7,3.7-12.2,12.1-10.6,21.9c2.2,13.2,14.6,23.9,27.8,23.9c5.5,0,10.4-1.9,13.9-5.1
	c-2.8,1.3-5.9,2.1-9.4,2.1c-13.2,0-25.7-10.7-27.8-23.9C804.1,761.9,806.6,755.1,811.5,750.7z"/>
<path class="st11" d="M830.9,752.4c-8.2,0-13.7,6.6-12.4,14.8c1.3,8.2,9,14.8,17.2,14.8c8.2,0,13.7-6.6,12.4-14.8
	C846.8,759.1,839.1,752.4,830.9,752.4z"/>
<path class="st31" d="M834.8,718.9c-2.5,0-4.6-3.1-4.6-6.9c0-3.8,2.1-6.9,4.6-6.9c2.5,0,4.6,3.1,4.6,6.9
	C839.4,715.8,837.3,718.9,834.8,718.9z"/>
<path class="st31" d="M832.8,683.1c-2.5,0-4.6-3.1-4.6-6.9c0-3.8,2.1-6.9,4.6-6.9c2.5,0,4.6,3.1,4.6,6.9
	C837.4,680,835.4,683.1,832.8,683.1z"/>
<path class="st11" d="M1297.2,493.2c8.7,12.8,9.8,29,4.6,44.6c-5,15.2-16.2,30-32.1,40.8c-15.9,10.8-33.8,15.6-49.8,14.6
	c-16.4-1-31-8-39.7-20.9c-8.7-12.8-9.8-29-4.6-44.6c5-15.2,16.1-30,32.1-40.8c15.9-10.8,33.8-15.6,49.8-14.6
	C1273.9,473.3,1288.5,480.3,1297.2,493.2L1297.2,493.2z M1213,494.8c-14.2,9.6-24,22.6-28.4,35.9c-4.3,12.9-3.4,26,3.5,36.3
	c7,10.3,18.8,15.9,32.4,16.7c14,0.8,29.7-3.4,43.9-13c14.2-9.6,24-22.6,28.4-35.9c4.3-12.9,3.4-26-3.5-36.3
	c-7-10.3-18.8-15.9-32.4-16.7C1242.9,480.9,1227.2,485.2,1213,494.8z"/>
<path class="st34" d="M1264.6,473.1c11.5,8.7,17.4,22.6,17.5,38c0.1,14.9-5.3,31.4-16.1,45.7c-10.8,14.3-25.2,23.9-39.6,27.8
	c-14.8,4-29.8,2.2-41.3-6.6c-11.5-8.7-17.4-22.6-17.5-38c-0.1-14.9,5.3-31.4,16.1-45.7c10.8-14.3,25.2-23.9,39.6-27.8
	C1238.1,462.5,1253.1,464.4,1264.6,473.1L1264.6,473.1z M1190.7,499.7c-9.6,12.7-14.4,27.2-14.3,40.2c0.1,12.7,4.8,24,14,31
	c9.2,7,21.4,8.4,33.6,5.1c12.6-3.4,25.2-11.9,34.9-24.6c9.6-12.7,14.4-27.2,14.3-40.2c-0.1-12.7-4.7-24-14-31
	c-9.2-7-21.4-8.4-33.6-5.1C1213,478.5,1200.4,487,1190.7,499.7z"/>
<path class="st9" d="M1088,503.8c-13.2,43.7,13.9,82.3,60.4,86.2c46.5,3.9,94.9-28.4,108-72.2c13.2-43.7-13.9-82.3-60.4-86.2
	C1149.5,427.7,1101.1,460,1088,503.8z"/>
<path class="st8" d="M1127.3,478.7c-8,26.6,8.5,50.1,36.8,52.4c28.3,2.4,57.7-17.3,65.7-43.9c8-26.6-8.5-50.1-36.8-52.4
	C1164.7,432.5,1135.3,452.1,1127.3,478.7z"/>
<path class="st35" d="M1844.4,1108.5H742.1c-15.2,0-27.7,12.5-27.7,27.7l0,0c0,15.3,12.5,27.7,27.7,27.7h1102.3
	c15.3,0,27.7-12.5,27.7-27.7l0,0C1872.1,1121,1859.6,1108.5,1844.4,1108.5z"/>
<path class="st18" d="M115.4,825.8C90.2,852.4,76.6,890.2,81,931.1c8,74.1,72.2,130,143.5,125c36.5-2.6,67.7-20.6,88.5-47.5
	c-58.2-10.2-105.9-60.2-112.7-123.4c-1.9-17.8-0.4-35.1,4-51L115.4,825.8z"/>
<path class="st36" d="M147.7,828.9c-7.4,19.2-10.4,40.8-8,63.2c8,74.1,72.2,130,143.5,125c9.3-0.7,18.3-2.3,26.8-4.9
	c21.7-26.1,33.1-61.4,29.1-99.2c-2.8-25.6-12.3-49.1-26.5-68.7L147.7,828.9z"/>
<path class="st37" d="M253.3,860.2c-30.5,2.1-52.4,29.5-49,61.2c3.4,31.6,30.9,55.6,61.3,53.4c30.5-2.1,52.4-29.5,49-61.2
	C311.2,882,283.7,858.1,253.3,860.2z"/>
<path class="st37" d="M233.8,837c-0.1,0.8-0.1,1.7,0,2.6c0.8,7,6.8,12.3,13.6,11.8c6.3-0.4,10.9-5.7,10.9-12.1L233.8,837z"/>
<path class="st37" d="M182.9,840.7c-3.4,0.2-5.8,3.3-5.4,6.8c0.4,3.5,3.4,6.2,6.8,5.9c3.4-0.2,5.8-3.3,5.4-6.8
	C189.3,843.1,186.3,840.4,182.9,840.7z"/>
<path class="st37" d="M187.8,911.5c-6.8,0.5-11.6,6.5-10.9,13.5c0.8,7,6.8,12.3,13.6,11.8c6.7-0.5,11.6-6.5,10.9-13.6
	C200.6,916.4,194.5,911.1,187.8,911.5z"/>
<path class="st18" d="M214.9,824.8c-54.5-5.1-99-4.7-99.5,1c-0.5,5.7,43.3,14.4,97.8,19.5c54.5,5.1,99,4.7,99.5-1
	C313.1,838.7,269.4,830,214.9,824.8z"/>
<path class="st29" d="M130,832.7c17.2,4.5,48,9.4,83.2,12.7c35.2,3.3,66.3,4.3,84,3c-17.2-4.5-48-9.4-83.2-12.7
	C178.7,832.4,147.6,831.4,130,832.7z"/>
<path class="st28" d="M106.4,677.8L106.4,677.8c-3.3,1.4-4.7,5.1-3.1,8.2l80.1,156.5l15.4,1.4l-83.4-163
	C113.7,677.8,109.7,676.4,106.4,677.8z"/>
<path class="st38" d="M1914.9,1032.1H107.4c-22.6,0-41.2,18.5-41.2,41.1l0,0c0,22.6,18.5,41.1,41.2,41.1h1807.5
	c22.6,0,41.1-18.5,41.1-41.1l0,0C1956.1,1050.6,1937.6,1032.1,1914.9,1032.1z"/>
<path class="st39" d="M1914.9,1032.1H680.1c-22.6,0-41.2,18.5-41.2,41.1l0,0c0,22.6,18.5,41.1,41.2,41.1h1234.9
	c22.6,0,41.1-18.5,41.1-41.1l0,0C1956.1,1050.6,1937.6,1032.1,1914.9,1032.1z"/>
<path class="st21" d="M1229.3,1057.5H945.7c-5.7,0-10.4,4.7-10.4,10.4v0c0,5.7,4.7,10.4,10.4,10.4h283.7c5.7,0,10.4-4.7,10.4-10.4v0
	C1239.8,1062.2,1235.1,1057.5,1229.3,1057.5z"/>
<path class="st21" d="M1317.5,1057.5h-43.3c-5.7,0-10.4,4.7-10.4,10.4v0c0,5.7,4.7,10.4,10.4,10.4h43.3c5.7,0,10.4-4.7,10.4-10.4v0
	C1328,1062.2,1323.3,1057.5,1317.5,1057.5z"/>
<path class="st40" d="M1788.1,1032.1h-361.1c22.6,0,41.1,18.5,41.1,41.1l0,0c0,22.6-18.5,41.1-41.1,41.1h361.1
	c22.6,0,41.1-18.5,41.1-41.1l0,0C1829.3,1050.6,1810.8,1032.1,1788.1,1032.1z"/>
<path class="st41" d="M299.3,860.1c-7.7,0.5-13.3,7.5-12.4,15.5c0.9,8,7.8,14.1,15.5,13.5c7.7-0.5,13.3-7.5,12.4-15.5
	C314,865.6,307,859.6,299.3,860.1z"/>
<path class="st31" d="M913.5,546.1c-63.5,5.7-194.2-42.8-212.7-85.7c-35.7,55.7-42.8,102.8-45,135.6c70.7,30.7,156.3,60,204.9,51.4
	C888.5,618.2,909.2,570.4,913.5,546.1z"/>
<path class="st42" d="M906.9,546.5c-48.6,31.6-118.6,68.3-187,75.1c-21.8-7.8-43.6-16.6-64.1-25.5c2.1-32.8,9.3-80,45-135.6
	C718.7,501.8,841.3,548.5,906.9,546.5z"/>
<path class="st43" d="M759.7,973.7h2.7c20.1,0,36.4-16.3,36.4-36.4v-5.4c0-20.1-16.3-36.4-36.4-36.4h-2.7V973.7z"/>
<path class="st31" d="M777.3,916.7c0,14.7-6.9,27.8-17.6,36.3v-57.4c4.8,0,9.4,0.9,13.7,2.5C775.9,903.8,777.3,910.1,777.3,916.7z"
	/>
<g>
	<path class="st0" d="M704,1107.6H472.7c-13.8,0-25.1,11.3-25.1,25.1v0c0,13.8,11.3,25.1,25.1,25.1H704c13.8,0,25.1-11.3,25.1-25.1
		v0C729.1,1118.9,717.8,1107.6,704,1107.6z"/>
	<path class="st44" d="M948.3,1107.6H710.8c-13.8,0-25.1,11.3-25.1,25.1v0c0,13.8,11.3,25.1,25.1,25.1h237.5
		c13.8,0,25.1-11.3,25.1-25.1v0C973.4,1118.9,962.1,1107.6,948.3,1107.6z"/>
	<path class="st44" d="M942,1153.8H467.2c-38.9,0-70.7,31.8-70.7,70.7v0c0,38.9,31.8,70.7,70.7,70.7H942c38.9,0,70.7-31.8,70.7-70.7
		v0C1012.7,1185.6,980.8,1153.8,942,1153.8z"/>
	<path class="st0" d="M942,1153.8H775.3c-38.9,0-70.7,31.8-70.7,70.7v0c0,38.9,31.8,70.7,70.7,70.7H942c38.9,0,70.7-31.8,70.7-70.7
		v0C1012.7,1185.6,980.8,1153.8,942,1153.8z"/>
	<path class="st44" d="M917.5,1183.7H799.8c-22.4,0-40.8,18.3-40.8,40.8l0,0c0,22.4,18.3,40.8,40.8,40.8h117.7
		c22.4,0,40.8-18.3,40.8-40.8l0,0C958.2,1202.1,939.9,1183.7,917.5,1183.7z"/>
	<path class="st45" d="M646.2,1256.4c2.5,2.1,6.2,1.8,8.3-0.7c2.1-2.5,1.8-6.2-0.7-8.3l-24.4-20.7c-2.3-1.9-5.6-1.8-7.8,0.1
		l-23.5,21.4l-25.8-24.2c-2.3-2.2-6-2.1-8.2,0.2l-26.3,26c-2.3,2.3-2.3,6-0.1,8.3c2.3,2.3,6,2.3,8.3,0.1l22.4-22.1l25.4,23.8
		c2.2,2.3,5.9,2.5,8.2,0.3l23.6-21.6L646.2,1256.4z"/>
	<path class="st45" d="M538,1199.7c2,1.7,5,1.5,6.7-0.6c1.7-2,1.4-5-0.6-6.7l-19.7-16.8c-1.8-1.6-4.5-1.5-6.3,0.1l-19,17.3
		l-20.8-19.5c-1.9-1.8-4.8-1.7-6.6,0.1l-21.3,21c-1.9,1.8-1.9,4.8,0,6.7c1.8,1.9,4.8,1.9,6.7,0l18.1-17.9l20.5,19.2
		c1.8,1.9,4.7,2,6.7,0.2l19.1-17.4L538,1199.7z"/>
</g>
</svg>
