<?xml version="1.0" encoding="utf-8"?>
<!-- Generator: Adobe Illustrator 24.0.3, SVG Export Plug-In . SVG Version: 6.00 Build 0)  -->
<svg version="1.1" id="Layer_1" xmlns="http://www.w3.org/2000/svg" xmlns:xlink="http://www.w3.org/1999/xlink" x="0px" y="0px"
	 viewBox="0 0 1037.2 562" style="enable-background:new 0 0 1037.2 562;" xml:space="preserve">
<style type="text/css">
	.st0{fill-rule:evenodd;clip-rule:evenodd;fill:#EB8B23;}
	.st1{fill-rule:evenodd;clip-rule:evenodd;fill:#47406E;}
	.st2{fill-rule:evenodd;clip-rule:evenodd;fill:#2E1A47;}
	.st3{fill-rule:evenodd;clip-rule:evenodd;fill:#3A2F5A;}
	.st4{fill-rule:evenodd;clip-rule:evenodd;fill:#362950;}
	.st5{fill-rule:evenodd;clip-rule:evenodd;fill:#F6CC1B;}
	.st6{fill-rule:evenodd;clip-rule:evenodd;fill:#4B4673;}
	.st7{fill-rule:evenodd;clip-rule:evenodd;fill:#3E3562;}
	.st8{fill-rule:evenodd;clip-rule:evenodd;fill:#FEFEFE;}
	.st9{fill-rule:evenodd;clip-rule:evenodd;fill:#5F2D78;}
	.st10{fill-rule:evenodd;clip-rule:evenodd;fill:#E8E0E3;}
	.st11{fill-rule:evenodd;clip-rule:evenodd;fill:#D9CFD2;}
	.st12{fill-rule:evenodd;clip-rule:evenodd;fill:#E54355;}
	.st13{fill-rule:evenodd;clip-rule:evenodd;fill:#140A23;}
	.st14{fill-rule:evenodd;clip-rule:evenodd;fill:#FFFFFF;}
	.st15{fill-rule:evenodd;clip-rule:evenodd;fill:#FDCCA4;}
	.st16{fill-rule:evenodd;clip-rule:evenodd;fill:#FCCCAD;}
	.st17{fill-rule:evenodd;clip-rule:evenodd;fill:#AD8D7D;}
	.st18{fill-rule:evenodd;clip-rule:evenodd;fill:#C4BBC1;}
	.st19{fill-rule:evenodd;clip-rule:evenodd;fill:#BBB3BB;}
	.st20{fill-rule:evenodd;clip-rule:evenodd;fill:#29293B;}
	.st21{fill-rule:evenodd;clip-rule:evenodd;fill:#44245B;}
	.st22{fill-rule:evenodd;clip-rule:evenodd;fill:#5C4D61;}
</style>
<path class="st0" d="M62.2,473.6C195.1,508.8,349.8,529,514.9,529c165.3,0,320.1-20.2,453.1-55.5C964.6,229.6,763.1,33,515.1,33
	C267,33,65.5,229.7,62.2,473.6z"/>
<path class="st1" d="M62.2,493c132.9,22.9,287.6,36,452.8,36c165.3,0,320.1-13.1,453.1-36.1c-3.4-158.4-204.9-286.1-452.9-286.1
	C267,206.8,65.5,334.6,62.2,493z"/>
<ellipse class="st2" cx="518.6" cy="491.1" rx="518.6" ry="57.9"/>
<polygon class="st3" points="890,160.5 900.9,179.1 911.8,197.7 904.4,197.7 917.9,220.7 907.1,220.7 907.2,220.8 924.4,250.1 
	912.2,250.1 931.7,283.2 916.9,283.2 937.6,318.4 922,318.4 945.7,358.7 890,358.7 834.4,358.7 858,318.4 842.5,318.4 863.1,283.2 
	848.4,283.2 867.8,250.1 855.7,250.1 872.8,220.8 872.9,220.7 862.1,220.7 875.6,197.7 868.2,197.7 879.1,179.1 "/>
<polygon class="st4" points="240.3,103.7 257.6,133.2 274.9,162.7 263.2,162.7 284.6,199.2 267.5,199.2 267.6,199.4 294.9,245.9 
	275.5,245.9 306.4,298.5 283,298.5 315.8,354.5 291.1,354.5 328.7,418.5 240.3,418.5 151.9,418.5 189.5,354.5 164.8,354.5 
	197.6,298.5 174.2,298.5 205.1,245.9 185.7,245.9 213,199.4 213.1,199.2 196,199.2 217.4,162.7 205.7,162.7 223,133.2 "/>
<path class="st5" d="M754.6,122.1c25.1,0,45.6-20.5,45.6-45.6c0-25.1-20.5-45.6-45.6-45.6c-25.1,0-45.6,20.5-45.6,45.6
	C709,101.6,729.5,122.1,754.6,122.1z"/>
<polygon class="st4" points="835.6,64.8 852.9,94.3 870.3,123.8 858.5,123.8 879.9,160.3 862.8,160.3 862.9,160.5 890.2,207 
	870.9,207 901.7,259.6 878.3,259.6 911.1,315.6 886.4,315.6 924,379.6 835.6,379.6 747.2,379.6 784.8,315.6 760.1,315.6 
	792.9,259.6 769.5,259.6 800.4,207 781,207 808.3,160.5 808.5,160.3 791.3,160.3 812.7,123.8 801,123.8 818.3,94.3 "/>
<path class="st4" d="M389.5,0l-19,32.3l-19,32.3h12.9L341,104.6h18.8l-0.1,0.2l-29.9,50.9h21.2l-33.8,57.6h25.6l-35.9,61.3h27.1h8.1
	c26.2,0,47.6-21.4,47.6-47.6V0z"/>
<path class="st3" d="M445.2,274.6h27.1l-35.9-61.3h25.6l-33.8-57.6h21.2l-29.9-50.9l-0.1-0.3H438l-23.4-39.9h12.9l-19-32.3L389.5,0
	v227.1c0,26.2,21.4,47.6,47.6,47.6H445.2z"/>
<path class="st6" d="M389.5,0l-19,32.3l-19,32.3h12.9L341,104.6h18.8l-0.1,0.2l-29.9,50.9h21.2h10.7c15.3,0,27.9-12.5,27.9-27.9V0z"
	/>
<polygon class="st4" points="645,22 662.3,51.6 679.6,81.1 667.9,81.1 689.3,117.6 672.1,117.6 672.3,117.8 699.5,164.3 
	680.2,164.3 711.1,216.9 687.7,216.9 720.5,272.8 695.8,272.8 733.3,336.8 645,336.8 556.6,336.8 594.1,272.8 569.4,272.8 
	602.3,216.9 578.8,216.9 609.7,164.3 590.4,164.3 617.7,117.8 617.8,117.6 600.7,117.6 622.1,81.1 610.3,81.1 627.6,51.6 "/>
<path class="st7" d="M645,22l17.3,29.5l17.3,29.5h-11.7l21.4,36.5h-17.1l0.1,0.2l27.3,46.5h-19.3l30.9,52.6h-23.4l32.8,55.9h-24.7
	h-7.4c-23.9,0-43.4-19.5-43.4-43.4V22z"/>
<path class="st3" d="M594.1,272.9h-24.7l32.8-55.9h-23.4l30.9-52.6h-19.3l27.3-46.5l0.1-0.2h-17.2l21.4-36.5h-11.7l17.3-29.5L645,22
	v207.4c0,23.9-19.5,43.4-43.4,43.4H594.1z"/>
<path class="st6" d="M645,22l17.3,29.5l17.3,29.5h-11.7l21.4,36.5h-17.1l0.1,0.2l27.3,46.5h-19.3h-9.8c-14,0-25.5-11.5-25.5-25.5V22
	z"/>
<path class="st4" d="M917.7,283.5c28.2,14.5,45.7,45.6,41.3,78.9c-5.5,42.4-44.4,72.3-86.8,66.7c-34.6-4.5-60.9-31.3-66.4-64
	c7.7,4,16.3,6.7,25.4,7.9c42.4,5.5,81.3-24.3,86.8-66.7C919.1,298.6,918.9,290.9,917.7,283.5z"/>
<path class="st8" d="M504.3,310.2h156.2c50.3,0,91.4,41.1,91.4,91.4v91.4H573c-50.3,0-91.4-41.1-91.4-91.4v-68.7
	C481.6,320.4,491.9,310.2,504.3,310.2z"/>
<path class="st8" d="M729.9,336.7c63.4,0,114.8,51.4,114.8,114.8c0,14.6-2.7,28.5-7.7,41.4H622.8c-5-12.8-7.7-26.8-7.7-41.4
	C615.1,388.1,666.5,336.7,729.9,336.7z"/>
<rect x="174.2" y="408.1" class="st9" width="213" height="56.4"/>
<path class="st8" d="M269.4,254.6H349c58.2,0,105.9,47.6,105.9,105.9v111.9H349c-58.2,0-105.9-47.6-105.9-105.9V281
	C243.1,266.5,254.9,254.6,269.4,254.6z"/>
<path class="st10" d="M297.6,254.6H349c58.2,0,105.9,47.6,105.9,105.9v111.9h-77.7c-58.2,0-105.9-47.6-105.9-105.9V281
	C271.3,266.5,283.1,254.6,297.6,254.6z"/>
<path class="st9" d="M139.6,426.4h69.1c13.4,0,24.3,10.9,24.3,24.3v16c0,4.5-3.7,8.3-8.3,8.3H123.6c-4.5,0-8.3-3.7-8.3-8.3v-16
	C115.3,437.3,126.3,426.4,139.6,426.4z"/>
<path class="st9" d="M292.9,252.5h110.2c60.6,0,110.2,49.6,110.2,110.2v130.2H403.1c-60.6,0-110.2-49.6-110.2-110.2V252.5z"/>
<path class="st2" d="M329.6,252.5h73.6c60.6,0,110.2,49.6,110.2,110.2v130.2h-48.7c-74.3,0-135.2-60.8-135.2-135.2V252.5z"/>
<path class="st8" d="M381.9,214.9h101.6c74.3,0,135.2,60.8,135.2,135.2v97.3c0,25.1-20.5,45.6-45.6,45.6h-89.5
	c-74.3,0-135.2-60.8-135.2-135.2V248.5C348.3,230,363.5,214.9,381.9,214.9z"/>
<path class="st11" d="M618.7,393.5v53.8c0,25.1-20.5,45.6-45.6,45.6h-89.5c-74.3,0-135.2-60.8-135.2-135.2V304
	c0,74.3,60.8,135.2,135.2,135.2H573C598.1,439.2,618.7,418.6,618.7,393.5z"/>
<path class="st12" d="M157.2,325.9L157.2,325.9c3.7-1.5,7.8,0.3,9.3,4l50.6,126.7c1.5,3.7-0.3,7.8-4,9.3h0c-3.7,1.5-7.8-0.3-9.3-4
	l-50.6-126.7C151.7,331.5,153.5,327.3,157.2,325.9z"/>
<g>
	<path class="st9" d="M321,282.9c20.4-3.8,35.7-21.7,35.7-43.1c0-21.4-15.4-39.3-35.7-43.1V282.9z"/>
	<path class="st2" d="M327.4,271.9c11.7-2.2,20.5-12.4,20.5-24.7c0-12.3-8.8-22.6-20.5-24.8V271.9z"/>
</g>
<g>
	<path class="st9" d="M268,282.9c-20.4-3.8-35.7-21.7-35.7-43.1c0-21.4,15.4-39.3,35.7-43.1V282.9z"/>
	<path class="st2" d="M261.6,271.9c-11.7-2.2-20.5-12.4-20.5-24.7c0-12.3,8.8-22.6,20.5-24.8V271.9z"/>
</g>
<path class="st9" d="M336.5,252.4h-84.1c-11,0-20,10.5-20,23.2v38.8h5.4c11,0,20,10.5,20,23.2c0,10,0,26.9,0,37
	c0,8.2,5.8,14.9,12.9,14.9h47.3c7.1,0,12.9-6.7,12.9-14.9c0-10,0-26.9,0-37c0-12.8,9-23.2,20-23.2h5.4v-38.8
	C356.5,262.9,347.5,252.4,336.5,252.4z"/>
<path class="st13" d="M305.6,301.1c4.1,3.9,10,5.6,15.8,4c5.8-1.6,10.1-6,11.7-11.4L305.6,301.1z"/>
<g>
	<path class="st10" d="M78.5,267.6c5.9-2.4,12.7,0.5,15.1,6.5c0.8,2.1,1,4.2,0.7,6.3c2.2,0.8,4.1,2.5,5.1,4.8
		c1.7,4.3-0.4,9.2-4.7,10.9c-4.3,1.7-9.2-0.4-10.9-4.7c-0.2-0.5-0.3-0.9-0.4-1.4c-4.8,0.2-9.4-2.6-11.2-7.3
		C69.7,276.7,72.6,270,78.5,267.6L78.5,267.6z M170.5,230.8c-5.9,2.4-8.8,9.1-6.5,15.1c0.8,2.1,2.2,3.8,3.8,5
		c-1.1,2.1-1.3,4.6-0.3,7c1.7,4.3,6.6,6.4,10.9,4.7c4.3-1.7,6.4-6.6,4.7-10.9c-0.2-0.5-0.4-0.9-0.7-1.3c3.6-3.1,5-8.3,3.1-13
		C183.2,231.3,176.4,228.5,170.5,230.8z"/>
	<path class="st10" d="M43.2,251.2l43.5-17.4c9.7-3.9,20.8,0.9,24.7,10.6l0,0c3.9,9.7-0.9,20.8-10.6,24.7l-43.5,17.4
		c-9.7,3.9-20.8-0.9-24.7-10.6v0C28.8,266.1,33.5,255.1,43.2,251.2z"/>
	<path class="st10" d="M145.4,211.2l43.5-17.4c9.7-3.9,20.8,0.9,24.7,10.6l0,0c3.9,9.7-0.9,20.8-10.6,24.7l-43.5,17.4
		c-9.7,3.9-20.8-0.9-24.7-10.6v0C130.9,226.1,135.7,215,145.4,211.2z"/>
	<path class="st8" d="M83.6,266.1c5.3-2.1,11.4,0.5,13.5,5.8c0.7,1.9,0.9,3.8,0.6,5.6c2,0.7,3.7,2.2,4.5,4.3
		c1.5,3.9-0.3,8.2-4.2,9.8c-3.9,1.5-8.2-0.3-9.8-4.2c-0.2-0.4-0.3-0.9-0.4-1.3c-4.3,0.2-8.4-2.3-10.1-6.5
		C75.7,274.3,78.3,268.2,83.6,266.1L83.6,266.1z M166.3,233.1c-5.3,2.1-7.9,8.2-5.8,13.5c0.7,1.9,2,3.4,3.5,4.5
		c-1,1.9-1.2,4.1-0.3,6.3c1.5,3.9,5.9,5.7,9.8,4.2c3.9-1.5,5.7-5.9,4.2-9.8c-0.2-0.4-0.4-0.8-0.6-1.2c3.2-2.8,4.5-7.5,2.8-11.7
		C177.7,233.5,171.6,230.9,166.3,233.1z"/>
	<path class="st10" d="M100.7,188.9L100.7,188.9c23.1-9.3,49.6,2.1,58.9,25.2l25,62.5c9.3,23.1-2.1,49.6-25.2,58.9l0,0
		c-23.1,9.3-49.6-2.1-58.9-25.2l-25-62.5C66.2,224.7,77.6,198.2,100.7,188.9z"/>
	<path class="st14" d="M103.6,198.2L103.6,198.2c19.2-7.7,41.2,1.8,48.9,21l20.7,51.9c7.7,19.2-1.7,41.2-21,48.9l0,0
		c-19.2,7.7-41.2-1.7-48.9-21l-20.7-51.9C74.9,227.9,84.4,205.9,103.6,198.2z"/>
	<g>
		<path class="st15" d="M125.2,250.1L125.2,250.1c10.5-4.2,22.5,1,26.7,11.4l11.5,28.8c4.2,10.5-1,22.5-11.4,26.7l0,0
			c-10.5,4.2-22.5-1-26.7-11.4l-11.5-28.8C109.5,266.3,114.7,254.3,125.2,250.1z"/>
		<path class="st16" d="M162,255.3L162,255.3c4.2,10.5-1,22.5-11.4,26.7l-21.9,8.8c-10.5,4.2-22.5-1-26.7-11.4l0,0
			c-4.2-10.5,1-22.5,11.4-26.7l21.9-8.8C145.9,239.6,157.9,244.8,162,255.3z"/>
		<g>
			<path class="st17" d="M145.9,301.9c0.4,0.4,0.7,0.9,0.9,1.5c1.1,2.7-0.2,5.7-2.9,6.8c-2.7,1.1-5.7-0.2-6.8-2.9
				c-0.2-0.6-0.3-1.1-0.4-1.7c1.4,1.6,3.7,2.2,5.8,1.4C144.7,306.1,146,304.1,145.9,301.9z"/>
			<path class="st17" d="M155,298.3c0.4,0.4,0.7,0.9,0.9,1.5c1.1,2.7-0.2,5.7-2.9,6.8c-2.7,1.1-5.7-0.2-6.8-2.9
				c-0.2-0.6-0.3-1.1-0.4-1.7c1.4,1.6,3.7,2.2,5.8,1.4C153.8,302.5,155.1,300.4,155,298.3z"/>
			<path class="st17" d="M149.4,290.3c0.6,0.7,1.1,1.4,1.4,2.3c1.7,4.1-0.4,8.8-4.5,10.5c-4.1,1.7-8.8-0.4-10.5-4.5
				c-0.3-0.9-0.5-1.8-0.6-2.7c2.2,2.5,5.8,3.5,9,2.2C147.6,296.8,149.6,293.6,149.4,290.3z"/>
		</g>
		<path class="st17" d="M120.7,267.4L120.7,267.4c1,0.4,1.4,1.6,1,2.6l-1,2.4l2.4,1c1,0.4,1.4,1.6,1,2.6l0,0c-0.4,1-1.6,1.4-2.6,1
			l-2.4-1l-1,2.4c-0.4,1-1.6,1.4-2.6,1l0,0c-1-0.4-1.4-1.6-1-2.6l1-2.4l-2.4-1c-1-0.4-1.4-1.6-1-2.6l0,0c0.4-1,1.6-1.4,2.6-1l2.4,1
			l1-2.4C118.6,267.4,119.7,266.9,120.7,267.4L120.7,267.4z M148.9,256.1L148.9,256.1c1,0.4,1.4,1.6,1,2.6l-1,2.4l2.4,1
			c1,0.4,1.4,1.6,1,2.6l0,0c-0.4,1-1.6,1.4-2.6,1l-2.4-1l-1,2.4c-0.4,1-1.6,1.4-2.6,1l0,0c-1-0.4-1.4-1.6-1-2.6l1-2.4l-2.4-1
			c-1-0.4-1.4-1.6-1-2.6l0,0c0.4-1,1.6-1.4,2.6-1l2.4,1l1-2.4C146.7,256.1,147.9,255.7,148.9,256.1z"/>
	</g>
	<path class="st8" d="M45.8,256.1l29.8-11.9c6.6-2.7,14.2,0.6,16.9,7.2l0,0c2.7,6.6-0.6,14.2-7.2,16.9l-29.8,11.9
		c-6.6,2.7-14.2-0.6-16.9-7.2v0C35.9,266.3,39.2,258.7,45.8,256.1z"/>
	<path class="st11" d="M49.2,261l16.5-6.6c3.7-1.5,7.9,0.3,9.3,4l0,0c1.5,3.7-0.3,7.9-4,9.3l-16.5,6.6c-3.7,1.5-7.9-0.3-9.3-4v0
		C43.7,266.7,45.5,262.5,49.2,261z"/>
	<path class="st18" d="M72.4,255.2c1.1,0.8,2.1,1.9,2.6,3.2l0,0c0.5,1.4,0.6,2.8,0.4,4.1l-7.5,3c-2,0.8-4.3-0.2-5.2-2.2l0,0
		c-0.8-2,0.2-4.3,2.2-5.2L72.4,255.2z"/>
	<g>
		<path class="st8" d="M160,210.4l29.8-11.9c6.6-2.7,14.2,0.6,16.9,7.2v0c2.7,6.6-0.6,14.2-7.2,16.9l-29.8,11.9
			c-6.6,2.7-14.2-0.6-16.9-7.2l0,0C150.1,220.7,153.3,213.1,160,210.4z"/>
		<path class="st11" d="M174.4,210.9l16.5-6.6c3.7-1.5,7.9,0.3,9.3,4v0c1.5,3.7-0.3,7.9-4,9.3l-16.5,6.6c-3.7,1.5-7.9-0.3-9.3-4l0,0
			C169,216.6,170.8,212.4,174.4,210.9z"/>
		<path class="st18" d="M170.1,216.1c-0.3,1.3-0.2,2.8,0.4,4.1l0,0c0.5,1.4,1.5,2.5,2.6,3.2l7.5-3c2-0.8,3-3.1,2.2-5.2v0
			c-0.8-2-3.1-3-5.2-2.2L170.1,216.1z"/>
	</g>
	<path class="st11" d="M121.9,216.3c5.5-2.2,11.8,0.5,14,6c0.3,0.8,0.5,1.6,0.7,2.5c-2.8-4-8.1-5.6-12.8-3.8c-2.2,0.9-4,2.4-5.1,4.3
		c-3.7-3.2-8.9-4.2-13.7-2.3c-5.4,2.2-8.7,7.5-8.4,13.1c-1.5-0.3-3-0.1-4.5,0.5c-3.4,1.3-5.3,4.7-5.1,8.1c-0.5-0.6-1-1.4-1.3-2.2
		c-1.7-4.2,0.4-8.9,4.5-10.6c1.5-0.6,3-0.7,4.5-0.5c-0.3-5.5,2.9-10.9,8.4-13.1c4.8-1.9,10.1-0.9,13.7,2.3
		C117.9,218.7,119.7,217.2,121.9,216.3z"/>
</g>
<path class="st2" d="M174.2,408.1L174.2,408.1c16,0,29,13.1,29,29v37.8h-58v-37.8C145.2,421.2,158.2,408.1,174.2,408.1z"/>
<path class="st5" d="M131.7,455.8L131.7,455.8c2.9,0,5.2,2.3,5.2,5.2v13.9h-10.4V461C126.5,458.1,128.8,455.8,131.7,455.8z"/>
<path class="st5" d="M174.2,455.8L174.2,455.8c2.9,0,5.2,2.3,5.2,5.2v13.9H169V461C169,458.1,171.3,455.8,174.2,455.8z"/>
<path class="st5" d="M216.4,455.8L216.4,455.8c2.9,0,5.2,2.3,5.2,5.2v13.9h-10.4V461C211.2,458.1,213.6,455.8,216.4,455.8z"/>
<path class="st9" d="M393.9,460.1h76.2c14.7,0,26.8,12,26.8,26.8v17.8c0,5-4.1,9-9,9H379.4c-6.8,0-12.3-5.5-12.3-12.3v-14.5
	C367.1,472.2,379.2,460.1,393.9,460.1z"/>
<path class="st2" d="M432,440L432,440c17.6,0,32,14.4,32,32v41.7h-64V472C400,454.4,414.4,440,432,440z"/>
<path class="st5" d="M385.2,492.6L385.2,492.6c3.2,0,5.7,2.6,5.7,5.7v15.4h-11.5v-15.4C379.4,495.1,382,492.6,385.2,492.6z"/>
<path class="st5" d="M432,492.6L432,492.6c3.2,0,5.7,2.6,5.7,5.7v15.4h-11.5v-15.4C426.3,495.1,428.9,492.6,432,492.6z"/>
<path class="st5" d="M478.6,492.6L478.6,492.6c3.2,0,5.7,2.6,5.7,5.7v15.4h-11.5v-15.4C472.8,495.1,475.4,492.6,478.6,492.6z"/>
<path class="st11" d="M399.5,244L399.5,244c1,1,1,2.7,0,3.7l-2.5,2.5l2.5,2.5c1,1,1,2.7,0,3.7l0,0c-1,1-2.7,1-3.7,0l-2.5-2.5
	l-2.5,2.5c-1,1-2.7,1-3.7,0l0,0c-1-1-1-2.7,0-3.7l2.5-2.5l-2.5-2.5c-1-1-1-2.7,0-3.7l0,0c1-1,2.7-1,3.7,0l2.5,2.5l2.5-2.5
	C396.9,243,398.5,243,399.5,244z"/>
<path class="st11" d="M439.4,317.8L439.4,317.8c1,1,1,2.7,0,3.7l-2.5,2.5l2.5,2.5c1,1,1,2.7,0,3.7l0,0c-1,1-2.7,1-3.7,0l-2.5-2.5
	l-2.5,2.5c-1,1-2.7,1-3.7,0l0,0c-1-1-1-2.7,0-3.7l2.5-2.5l-2.5-2.5c-1-1-1-2.7,0-3.7l0,0c1-1,2.7-1,3.7,0l2.5,2.5l2.5-2.5
	C436.7,316.8,438.4,316.8,439.4,317.8z"/>
<path class="st11" d="M635.3,344.7L635.3,344.7c1,1,1,2.7,0,3.7l-2.5,2.5l2.5,2.5c1,1,1,2.7,0,3.7l0,0c-1,1-2.7,1-3.7,0l-2.5-2.5
	l-2.5,2.5c-1,1-2.7,1-3.7,0l0,0c-1-1-1-2.7,0-3.7l2.5-2.5l-2.5-2.5c-1-1-1-2.7,0-3.7l0,0c1-1,2.7-1,3.7,0l2.5,2.5l2.5-2.5
	C632.6,343.7,634.2,343.7,635.3,344.7z"/>
<path class="st8" d="M430.7,205.6L430.7,205.6c1.1-1.1,2.8-1.1,3.8,0l6.5,6.5l6.5-6.5c1.1-1.1,2.8-1.1,3.8,0v0c1.1,1,1.1,2.8,0,3.8
	l-8.4,8.4c-0.5,0.5-1.2,0.8-1.9,0.8h0h0h0c-0.7,0-1.4-0.3-1.9-0.8l-8.4-8.4C429.7,208.4,429.7,206.7,430.7,205.6z"/>
<path class="st9" d="M567.1,465.5h115.8c9.9,0,17.9,8.1,17.9,17.9v17.9H555.2c-3.3,0-6-2.7-6-6v-11.9
	C549.1,473.6,557.2,465.5,567.1,465.5z"/>
<path class="st8" d="M385.7,205.6L385.7,205.6c1.1-1.1,2.8-1.1,3.8,0l6.5,6.5l6.5-6.5c1-1.1,2.8-1.1,3.8,0v0c1.1,1,1.1,2.8,0,3.8
	l-8.4,8.4c-0.5,0.5-1.2,0.8-1.9,0.8h0h0h0c-0.7,0-1.4-0.3-1.9-0.8l-8.4-8.4C384.6,208.4,384.6,206.7,385.7,205.6z"/>
<path class="st8" d="M638.8,301.6L638.8,301.6c1.1-1.1,2.8-1.1,3.8,0l6.5,6.5l6.5-6.5c1.1-1.1,2.8-1.1,3.8,0l0,0c1,1,1,2.8,0,3.8
	l-8.4,8.4c-0.5,0.5-1.2,0.8-1.9,0.8h0h0h0c-0.7,0-1.4-0.3-1.9-0.8l-8.4-8.4C637.7,304.4,637.7,302.7,638.8,301.6z"/>
<path class="st11" d="M555.5,336.8L555.5,336.8c2.1,2.1,2.1,5.6,0,7.8l-5.3,5.3l5.3,5.3c2.1,2.1,2.1,5.6,0,7.8l0,0
	c-2.1,2.1-5.6,2.1-7.8,0l-5.3-5.3l-5.3,5.3c-2.1,2.1-5.6,2.1-7.8,0l0,0c-2.1-2.1-2.1-5.6,0-7.8l5.3-5.3l-5.3-5.3
	c-2.1-2.1-2.1-5.6,0-7.8l0,0c2.1-2.1,5.6-2.1,7.8,0l5.3,5.3l5.3-5.3C549.8,334.6,553.3,334.6,555.5,336.8z"/>
<path class="st11" d="M680.2,411.8L680.2,411.8c2.1,2.1,2.1,5.6,0,7.8l-5.3,5.3l5.3,5.3c2.1,2.1,2.1,5.6,0,7.8l0,0
	c-2.1,2.1-5.6,2.1-7.8,0l-5.3-5.3l-5.3,5.3c-2.1,2.1-5.6,2.1-7.8,0l0,0c-2.1-2.1-2.1-5.6,0-7.8l5.3-5.3l-5.3-5.3
	c-2.1-2.1-2.1-5.6,0-7.8l0,0c2.1-2.1,5.6-2.1,7.8,0l5.3,5.3l5.3-5.3C674.6,409.6,678,409.6,680.2,411.8z"/>
<path class="st11" d="M706.8,364.8L706.8,364.8c0.5,0.5,0.5,1.4,0,1.9l-1.3,1.3l1.3,1.3c0.5,0.5,0.5,1.4,0,1.9l0,0
	c-0.5,0.5-1.4,0.5-1.9,0l-1.3-1.3l-1.3,1.3c-0.5,0.5-1.4,0.5-1.9,0l0,0c-0.5-0.5-0.5-1.4,0-1.9l1.3-1.3l-1.3-1.3
	c-0.5-0.5-0.5-1.4,0-1.9l0,0c0.5-0.5,1.4-0.5,1.9,0l1.3,1.3l1.3-1.3C705.4,364.3,706.2,364.3,706.8,364.8z"/>
<path class="st11" d="M426.5,394.4L426.5,394.4c1.1,1.1,1.1,2.8,0,3.9l-2.6,2.6l2.6,2.6c1.1,1.1,1.1,2.8,0,3.9l0,0
	c-1.1,1.1-2.8,1.1-3.9,0l-2.6-2.6l-2.6,2.6c-1.1,1.1-2.8,1.1-3.9,0l0,0c-1.1-1.1-1.1-2.8,0-3.9l2.6-2.6l-2.6-2.6
	c-1.1-1.1-1.1-2.8,0-3.9l0,0c1.1-1.1,2.8-1.1,3.9,0l2.6,2.6l2.6-2.6C423.7,393.3,425.4,393.3,426.5,394.4z"/>
<path class="st10" d="M246.5,421.6L246.5,421.6c-0.3,1.8,0.8,3.5,2.6,3.8l10.8,2.2l-2.2,10.8c-0.4,1.8,0.8,3.5,2.6,3.8h0
	c1.8,0.3,3.5-0.8,3.8-2.6l2.8-14c0.2-0.9,0-1.7-0.5-2.4l0,0l0,0l0,0c-0.5-0.7-1.2-1.2-2.1-1.4l-14-2.8
	C248.5,418.7,246.8,419.9,246.5,421.6z"/>
<path class="st9" d="M731.2,387.3h115.9c31.4,0,57.1,25.7,57.1,57.1V468c0,18.4-15.1,33.5-33.5,33.5H674.2v-57.1
	C674.2,413,699.9,387.3,731.2,387.3z"/>
<path class="st2" d="M605,447h175.5c15,0,27.2,12.2,27.2,27.2v27.2H586.9c-5,0-9.1-4.1-9.1-9.1v-18.1C577.7,459.3,590,447,605,447z"
	/>
<path class="st9" d="M662.2,447h161.7c15,0,27.2,12.2,27.2,27.2v27.2H635v-27.2C635,459.3,647.2,447,662.2,447z"/>
<path class="st6" d="M309.8,504.8L309.8,504.8c2.1,2.1,2.1,5.6,0,7.8l-5.3,5.3l5.3,5.3c2.1,2.1,2.1,5.6,0,7.8l0,0
	c-2.1,2.1-5.6,2.1-7.8,0l-5.3-5.3l-5.3,5.3c-2.1,2.1-5.6,2.1-7.8,0l0,0c-2.1-2.1-2.1-5.6,0-7.8l5.3-5.3l-5.3-5.3
	c-2.1-2.1-2.1-5.6,0-7.8l0,0c2.1-2.1,5.6-2.1,7.8,0l5.3,5.3l5.3-5.3C304.2,502.7,307.7,502.7,309.8,504.8z"/>
<path class="st6" d="M134.9,353.6L134.9,353.6c2.1,2.1,2.1,5.6,0,7.8l-5.3,5.3l5.3,5.3c2.1,2.1,2.1,5.6,0,7.8l0,0
	c-2.1,2.1-5.6,2.1-7.8,0l-5.3-5.3l-5.3,5.3c-2.1,2.1-5.6,2.1-7.8,0l0,0c-2.1-2.1-2.1-5.6,0-7.8l5.3-5.3l-5.3-5.3
	c-2.1-2.1-2.1-5.6,0-7.8l0,0c2.1-2.1,5.6-2.1,7.8,0l5.3,5.3l5.3-5.3C129.3,351.5,132.8,351.5,134.9,353.6z"/>
<path class="st3" d="M759.4,250.2L759.4,250.2c2.1,2.1,2.1,5.6,0,7.8l-5.3,5.3l5.3,5.3c2.1,2.1,2.1,5.6,0,7.8l0,0
	c-2.1,2.1-5.6,2.1-7.8,0l-5.3-5.3l-5.3,5.3c-2.1,2.1-5.6,2.1-7.8,0l0,0c-2.1-2.1-2.1-5.6,0-7.8l5.3-5.3l-5.3-5.3
	c-2.1-2.1-2.1-5.6,0-7.8l0,0c2.1-2.1,5.6-2.1,7.8,0l5.3,5.3l5.3-5.3C753.8,248,757.3,248,759.4,250.2z"/>
<path class="st11" d="M500.5,265.6c0,0.4,0,0.8,0,1.2c0,8.4-6.8,15.3-15.3,15.3c-3.8,0-7.2-1.4-9.9-3.7c-3.8,5.9-10.5,9.9-18.1,9.9
	c-8.7,0-16.2-5.2-19.6-12.6c-1.3,0.4-2.6,0.6-4.1,0.6c-7.3,0-13.2-5.9-13.2-13.2c0-1.7,0.3-3.4,0.9-4.9c0.7,6.6,6.3,11.7,13.1,11.7
	c1.4,0,2.8-0.2,4-0.6c3.4,7.5,10.9,12.6,19.6,12.6c7.6,0,14.3-3.9,18.1-9.9c2.7,2.3,6.1,3.6,9.9,3.6
	C492.8,275.7,498.4,271.5,500.5,265.6z"/>
<path class="st11" d="M570.7,294.5c1.1,1.7,1.7,3.7,1.7,5.9c0,6-4.9,10.9-10.9,10.9c-2.1,0-4.1-0.6-5.8-1.7c-1.9,5-6.7,8.5-12.4,8.5
	c-6.8,0-12.4-5.1-13.1-11.7c2.3,3.9,6.6,6.6,11.4,6.6c5.6,0,10.5-3.5,12.4-8.5c1.7,1.1,3.7,1.7,5.8,1.7c6,0,10.9-4.9,10.9-10.9
	C570.7,295,570.7,294.8,570.7,294.5z"/>
<path class="st11" d="M415.5,358.5c1.1,1.7,1.7,3.7,1.7,5.9c0,6-4.9,10.9-10.9,10.9c-2.1,0-4.1-0.6-5.8-1.7c-1.9,5-6.7,8.5-12.4,8.5
	c-6.8,0-12.4-5.1-13.1-11.7c2.3,3.9,6.6,6.6,11.4,6.6c5.6,0,10.5-3.5,12.4-8.5c1.7,1.1,3.7,1.7,5.8,1.7c6,0,10.9-4.9,10.9-10.9
	C415.5,359,415.5,358.8,415.5,358.5z"/>
<path class="st19" d="M495.3,454.5c0,0.4,0,0.8,0,1.2c0,8.4,6.8,15.3,15.3,15.3c3.8,0,7.2-1.4,9.9-3.6c3.8,5.9,10.5,9.9,18.1,9.9
	c8.7,0,16.2-5.2,19.6-12.6c1.3,0.4,2.6,0.6,4.1,0.6c7.3,0,13.2-5.9,13.2-13.2c0-1.7-0.3-3.4-0.9-4.9c-0.7,6.6-6.3,11.7-13.1,11.7
	c-1.4,0-2.8-0.2-4.1-0.6c-3.4,7.5-10.9,12.6-19.6,12.6c-7.6,0-14.3-3.9-18.1-9.9c-2.7,2.3-6.1,3.6-9.9,3.6
	C503,464.6,497.4,460.4,495.3,454.5z"/>
<path class="st10" d="M113.9,179.4L113.9,179.4c1.1-1.1,2.8-1.1,3.8,0l6.5,6.5l6.5-6.5c1-1.1,2.8-1.1,3.8,0h0c1.1,1.1,1.1,2.8,0,3.8
	l-8.4,8.4c-0.5,0.5-1.2,0.8-1.9,0.8h0h0h0c-0.7,0-1.4-0.3-1.9-0.8l-8.4-8.4C112.9,182.2,112.9,180.4,113.9,179.4z"/>
<path class="st11" d="M794.8,364.7L794.8,364.7c1.1,1.1,1.1,2.8,0,3.9l-2.6,2.6l2.6,2.6c1.1,1.1,1.1,2.8,0,3.9l0,0
	c-1.1,1.1-2.8,1.1-3.9,0l-2.6-2.6l-2.6,2.6c-1.1,1.1-2.8,1.1-3.9,0l0,0c-1.1-1.1-1.1-2.8,0-3.9l2.6-2.6l-2.6-2.6
	c-1.1-1.1-1.1-2.8,0-3.9l0,0c1.1-1.1,2.8-1.1,3.9,0l2.6,2.6l2.6-2.6C792,363.7,793.7,363.7,794.8,364.7z"/>
<path class="st6" d="M581.8,145.9L581.8,145.9c1.6,1.6,1.6,4.3,0,5.9l-4,4l4,4c1.6,1.6,1.6,4.2,0,5.9l0,0c-1.6,1.6-4.3,1.6-5.9,0
	l-4-4l-4,4c-1.6,1.6-4.3,1.6-5.9,0l0,0c-1.6-1.6-1.6-4.3,0-5.9l4-4l-4-4c-1.6-1.6-1.6-4.2,0-5.9l0,0c1.6-1.6,4.3-1.6,5.9,0l4,4l4-4
	C577.6,144.3,580.2,144.3,581.8,145.9z"/>
<path class="st5" d="M606,480.3L606,480.3c3.2,0,5.7,2.6,5.7,5.7v15.4h-11.5v-15.4C600.3,482.9,602.9,480.3,606,480.3z"/>
<path class="st5" d="M564.6,480.3L564.6,480.3c3.2,0,5.7,2.6,5.7,5.7v15.4h-11.5v-15.4C558.9,482.9,561.5,480.3,564.6,480.3z"/>
<path class="st5" d="M655.5,480.3L655.5,480.3c3.2,0,5.7,2.6,5.7,5.7v15.4h-11.5v-15.4C649.8,482.9,652.4,480.3,655.5,480.3z"/>
<path class="st8" d="M844.2,410.9c55.1,0,101.1,38.8,112.2,90.5H731.9C743.1,449.7,789.1,410.9,844.2,410.9z"/>
<path class="st8" d="M734.3,458.9c25.9,0,47.5,18.2,52.7,42.5H681.5C686.8,477.1,708.4,458.9,734.3,458.9z"/>
<path class="st11" d="M844.2,410.9c55.1,0,101.1,38.8,112.2,90.5h-34.8c-10-46.2-47.7-82-94.9-89.2
	C832.5,411.4,838.3,410.9,844.2,410.9z"/>
<path class="st11" d="M846.6,429.3L846.6,429.3c1.1,1.1,1.1,2.8,0,3.9l-2.6,2.6l2.6,2.6c1.1,1.1,1.1,2.8,0,3.9l0,0
	c-1.1,1.1-2.8,1.1-3.9,0l-2.6-2.6l-2.6,2.6c-1.1,1.1-2.8,1.1-3.9,0l0,0c-1.1-1.1-1.1-2.8,0-3.9l2.6-2.6l-2.6-2.6
	c-1.1-1.1-1.1-2.8,0-3.9l0,0c1.1-1.1,2.8-1.1,3.9,0l2.6,2.6l2.6-2.6C843.8,428.3,845.6,428.3,846.6,429.3z"/>
<path class="st8" d="M719.1,451.1L719.1,451.1c1.1-1.1,2.8-1.1,3.8,0l6.5,6.5l6.5-6.5c1.1-1.1,2.8-1.1,3.8,0v0c1.1,1,1.1,2.8,0,3.8
	l-8.4,8.4c-0.5,0.5-1.2,0.8-1.9,0.8h0h0h0c-0.7,0-1.4-0.3-1.9-0.8l-8.4-8.4C718.1,453.8,718.1,452.1,719.1,451.1z"/>
<path class="st11" d="M947.4,456.1h30.1c12.5,0,22.8,10.3,22.8,22.8v0c0,12.5-10.3,22.8-22.8,22.8h-30.1
	c-12.5,0-22.8-10.3-22.8-22.8v0C924.6,466.3,934.9,456.1,947.4,456.1z"/>
<path class="st11" d="M955,447.1h15.1c6.3,0,11.5,5.2,11.5,11.5l0,0c0,6.3-5.2,11.5-11.5,11.5H955c-6.3,0-11.5-5.2-11.5-11.5l0,0
	C943.5,452.2,948.7,447.1,955,447.1z"/>
<path class="st8" d="M945.7,461.3h26.5c11,0,20.1,9,20.1,20.1v0c0,11-9,20.1-20.1,20.1h-26.5c-11,0-20.1-9-20.1-20.1v0
	C925.7,470.3,934.7,461.3,945.7,461.3z"/>
<path class="st8" d="M953.7,453.4h10.5c4.4,0,7.9,3.6,7.9,7.9l0,0c0,4.4-3.6,7.9-7.9,7.9h-10.5c-4.4,0-7.9-3.6-7.9-7.9l0,0
	C945.8,456.9,949.3,453.4,953.7,453.4z"/>
<path class="st7" d="M508.7,66.5L518.9,84l10.2,17.5h-6.9l12.7,21.6h-10.1l0.1,0.1l16.1,27.5h-11.4l18.3,31.1h-13.8l19.4,33.1h-14.6
	h-4.4c-14.1,0-25.7-11.6-25.7-25.7V66.5z"/>
<path class="st3" d="M478.6,214.9H464l19.4-33.1h-13.9l18.3-31.1h-11.4l16.1-27.5l0.1-0.1h-10.1l12.7-21.6h-6.9L498.4,84l10.2-17.5
	v122.7c0,14.1-11.6,25.7-25.7,25.7H478.6z"/>
<path class="st6" d="M508.7,66.5L518.9,84l10.2,17.5h-6.9l12.7,21.6h-10.1l0.1,0.1l16.1,27.5h-11.4h-5.8c-8.3,0-15.1-6.8-15.1-15.1
	V66.5z"/>
<path class="st4" d="M728.4,534.3L728.4,534.3c2.1,2.1,2.1,5.6,0,7.8l-5.3,5.3l5.3,5.3c2.1,2.1,2.1,5.6,0,7.8l0,0
	c-2.1,2.1-5.6,2.1-7.8,0l-5.3-5.3l-5.3,5.3c-2.1,2.1-5.6,2.1-7.8,0l0,0c-2.1-2.1-2.1-5.6,0-7.8l5.3-5.3l-5.3-5.3
	c-2.1-2.1-2.1-5.6,0-7.8l0,0c2.1-2.1,5.6-2.1,7.8,0l5.3,5.3l5.3-5.3C722.8,532.1,726.3,532.1,728.4,534.3z"/>
<path class="st20" d="M581.8,44.5L581.8,44.5c1,1,1,2.8,0,3.8l-2.6,2.6l2.6,2.6c1,1,1,2.8,0,3.8l0,0c-1,1-2.8,1-3.8,0l-2.6-2.6
	l-2.6,2.6c-1,1-2.8,1-3.8,0l0,0c-1-1-1-2.8,0-3.8l2.6-2.6l-2.6-2.6c-1-1-1-2.8,0-3.8l0,0c1-1,2.8-1,3.8,0l2.6,2.6l2.6-2.6
	C579,43.5,580.7,43.5,581.8,44.5z"/>
<path class="st6" d="M307.4,78.8L307.4,78.8c1.6,1.6,1.6,4.3,0,5.9l-4,4l4,4c1.6,1.6,1.6,4.3,0,5.9l0,0c-1.6,1.6-4.3,1.6-5.9,0l-4-4
	l-4,4c-1.6,1.6-4.3,1.6-5.9,0l0,0c-1.6-1.6-1.6-4.3,0-5.9l4-4l-4-4c-1.6-1.6-1.6-4.2,0-5.9l0,0c1.6-1.6,4.3-1.6,5.9,0l4,4l4-4
	C303.2,77.1,305.8,77.1,307.4,78.8z"/>
<path class="st3" d="M163.2,132L163.2,132c1.5,1.5,1.5,3.8,0,5.3l-3.6,3.6l3.6,3.6c1.5,1.5,1.5,3.8,0,5.3l0,0
	c-1.5,1.5-3.8,1.5-5.3,0l-3.6-3.6l-3.6,3.6c-1.5,1.5-3.8,1.5-5.3,0l0,0c-1.5-1.5-1.5-3.8,0-5.3l3.6-3.6l-3.6-3.6
	c-1.5-1.5-1.5-3.8,0-5.3l0,0c1.5-1.5,3.8-1.5,5.3,0l3.6,3.6l3.6-3.6C159.4,130.5,161.8,130.5,163.2,132z"/>
<path class="st13" d="M283.1,301.1c-4.1,3.9-10,5.6-15.8,4c-5.8-1.6-10.1-6-11.7-11.4L283.1,301.1z"/>
<path class="st2" d="M305.1,291.1h-21.2c-1.9,0-3.4,2.4-3.4,5.2v73.9h28v-73.9C308.5,293.5,307,291.1,305.1,291.1z"/>
<path class="st21" d="M298,384H291v-3.9c0-1.5-1.2-2.7-2.7-2.7l0,0c-1.5,0-2.7,1.2-2.7,2.7v3.6c-2.9-0.9-5.1-3.7-5.1-6.9v-12.1h28
	v12.1c0,3.2-2.2,6-5.1,6.9v-3.6c0-1.5-1.2-2.7-2.7-2.7l0,0c-1.5,0-2.7,1.2-2.7,2.7V384z"/>
<path class="st22" d="M273.9,242.7L273.9,242.7c1.1-1.1,2.8-1.1,3.8,0l6.5,6.5l6.5-6.5c1-1.1,2.8-1.1,3.8,0v0c1.1,1,1.1,2.8,0,3.8
	l-8.4,8.4c-0.5,0.5-1.2,0.8-1.9,0.8h0h0h0c-0.7,0-1.4-0.3-1.9-0.8l-8.4-8.4C272.8,245.4,272.8,243.7,273.9,242.7z"/>
<path class="st22" d="M222.6,309.3L222.6,309.3c-1.1-1.1-1.1-2.8,0-3.8l6.5-6.5l-6.5-6.5c-1.1-1-1.1-2.8,0-3.8h0
	c1-1.1,2.8-1.1,3.8,0l8.4,8.4c0.5,0.5,0.8,1.2,0.8,1.9v0v0v0c0,0.7-0.3,1.4-0.8,1.9l-8.4,8.4C225.4,310.3,223.7,310.3,222.6,309.3z"
	/>
<path class="st22" d="M808.9,372L808.9,372c1.5-1.5,3.8-1.5,5.3,0l9,9l9-9c1.5-1.5,3.8-1.5,5.3,0l0,0c1.5,1.5,1.5,3.8,0,5.3
	l-11.6,11.6c-0.7,0.7-1.7,1.1-2.6,1.1l0,0h0l0,0c-0.9,0-1.9-0.4-2.6-1.1l-11.6-11.6C807.4,375.8,807.4,373.4,808.9,372z"/>
</svg>
