<svg xmlns="http://www.w3.org/2000/svg" xmlns:xlink="http://www.w3.org/1999/xlink" viewBox="0 0 612.54 612.54"><defs><style>.cls-1{isolation:isolate;}.cls-2{mix-blend-mode:multiply;}.cls-3{fill:url(#New_Gradient_Swatch_4);}.cls-4{fill:url(#New_Gradient_Swatch_4-2);}.cls-5{fill:url(#New_Gradient_Swatch_4-3);}.cls-6{fill:url(#New_Gradient_Swatch_4-4);}.cls-7{fill:url(#New_Gradient_Swatch_4-5);}.cls-8{fill:url(#New_Gradient_Swatch_4-6);}.cls-9{fill:url(#New_Gradient_Swatch_4-7);}.cls-10{fill:url(#New_Gradient_Swatch_4-8);}.cls-11{fill:url(#New_Gradient_Swatch_4-9);}.cls-12{fill:url(#New_Gradient_Swatch_4-10);}.cls-13{fill:url(#New_Gradient_Swatch_4-11);}.cls-14{fill:url(#New_Gradient_Swatch_4-12);}.cls-15{fill:url(#New_Gradient_Swatch_4-13);}.cls-16{fill:url(#New_Gradient_Swatch_4-14);}.cls-17{fill:url(#New_Gradient_Swatch_4-15);}.cls-18{fill:url(#New_Gradient_Swatch_4-16);}.cls-19{fill:url(#New_Gradient_Swatch_4-17);}.cls-20{fill:url(#New_Gradient_Swatch_4-18);}.cls-21{fill:url(#New_Gradient_Swatch_4-19);}.cls-22{fill:url(#New_Gradient_Swatch_4-20);}.cls-23{fill:url(#New_Gradient_Swatch_4-21);}.cls-24{fill:url(#New_Gradient_Swatch_4-22);}</style><linearGradient id="New_Gradient_Swatch_4" x1="5.23" y1="192.51" x2="379.78" y2="192.51" gradientUnits="userSpaceOnUse"><stop offset="0" stop-color="#af206e"/><stop offset="0.55" stop-color="#e34256"/><stop offset="1" stop-color="#eb8b23"/></linearGradient><linearGradient id="New_Gradient_Swatch_4-2" x1="0.66" y1="172.83" x2="345" y2="172.83" xlink:href="#New_Gradient_Swatch_4"/><linearGradient id="New_Gradient_Swatch_4-3" x1="13.35" y1="212.38" x2="411.41" y2="212.38" xlink:href="#New_Gradient_Swatch_4"/><linearGradient id="New_Gradient_Swatch_4-4" x1="37.89" y1="252.41" x2="466.94" y2="252.41" xlink:href="#New_Gradient_Swatch_4"/><linearGradient id="New_Gradient_Swatch_4-5" x1="53.63" y1="272.52" x2="491.4" y2="272.52" xlink:href="#New_Gradient_Swatch_4"/><linearGradient id="New_Gradient_Swatch_4-6" x1="0" y1="153.09" x2="306.18" y2="153.09" xlink:href="#New_Gradient_Swatch_4"/><linearGradient id="New_Gradient_Swatch_4-7" x1="292.11" y1="452.32" x2="612.54" y2="452.32" xlink:href="#New_Gradient_Swatch_4"/><linearGradient id="New_Gradient_Swatch_4-8" x1="16.33" y1="111.84" x2="207.35" y2="111.84" xlink:href="#New_Gradient_Swatch_4"/><linearGradient id="New_Gradient_Swatch_4-9" x1="65.62" y1="91.22" x2="116.81" y2="91.22" xlink:href="#New_Gradient_Swatch_4"/><linearGradient id="New_Gradient_Swatch_4-10" x1="3.24" y1="132.47" x2="261.69" y2="132.47" xlink:href="#New_Gradient_Swatch_4"/><linearGradient id="New_Gradient_Swatch_4-11" x1="24.37" y1="232.36" x2="440.34" y2="232.36" xlink:href="#New_Gradient_Swatch_4"/><linearGradient id="New_Gradient_Swatch_4-12" x1="254.85" y1="432.79" x2="610.73" y2="432.79" xlink:href="#New_Gradient_Swatch_4"/><linearGradient id="New_Gradient_Swatch_4-13" x1="334.32" y1="472.78" x2="611.24" y2="472.78" xlink:href="#New_Gradient_Swatch_4"/><linearGradient id="New_Gradient_Swatch_4-14" x1="452.8" y1="514.03" x2="575.27" y2="514.03" xlink:href="#New_Gradient_Swatch_4"/><linearGradient id="New_Gradient_Swatch_4-15" x1="221.24" y1="413.03" x2="604.81" y2="413.03" xlink:href="#New_Gradient_Swatch_4"/><linearGradient id="New_Gradient_Swatch_4-16" x1="71.44" y1="292.64" x2="513.84" y2="292.64" xlink:href="#New_Gradient_Swatch_4"/><linearGradient id="New_Gradient_Swatch_4-17" x1="384.33" y1="493.41" x2="602.48" y2="493.41" xlink:href="#New_Gradient_Swatch_4"/><linearGradient id="New_Gradient_Swatch_4-18" x1="112.98" y1="332.91" x2="552.84" y2="332.91" xlink:href="#New_Gradient_Swatch_4"/><linearGradient id="New_Gradient_Swatch_4-19" x1="91.23" y1="312.78" x2="534.32" y2="312.78" xlink:href="#New_Gradient_Swatch_4"/><linearGradient id="New_Gradient_Swatch_4-20" x1="190.63" y1="393.11" x2="595.59" y2="393.11" xlink:href="#New_Gradient_Swatch_4"/><linearGradient id="New_Gradient_Swatch_4-21" x1="162.55" y1="373.09" x2="583.64" y2="373.09" xlink:href="#New_Gradient_Swatch_4"/><linearGradient id="New_Gradient_Swatch_4-22" x1="136.72" y1="353.02" x2="569.32" y2="353.02" xlink:href="#New_Gradient_Swatch_4"/></defs><g class="cls-1"><g id="Layer_2" data-name="Layer 2"><g id="Layer_1-2" data-name="Layer 1"><g class="cls-2"><path class="cls-3" d="M379.78,8.9q-8.38-2.07-16.95-3.67L5.23,362.83q1.6,8.57,3.67,16.95Z"/><path class="cls-4" d="M345,2.43Q335.67,1.24,326.15.66L.66,326.15q.6,9.51,1.77,18.85Z"/><path class="cls-5" d="M411.41,18.53q-7.64-2.79-15.46-5.18L13.35,396q2.4,7.82,5.18,15.46Z"/><path class="cls-6" d="M466.94,45.5q-6.42-4-13-7.61l-416,416q3.64,6.6,7.61,13Z"/><path class="cls-7" d="M491.4,62.29q-5.88-4.47-12-8.66L53.63,479.42q4.18,6.1,8.66,12Z"/><path class="cls-8" d="M306.18,0C299,0,291.86.27,284.8.76l-284,284C.27,291.86,0,299,0,306.18Z"/><path class="cls-9" d="M612.54,306.27c0-4.75-.13-9.46-.34-14.16L292.11,612.2c4.7.21,9.41.34,14.16.34,2.07,0,4.14,0,6.21-.08l300-300C612.5,310.41,612.54,308.34,612.54,306.27Z"/><path class="cls-10" d="M207.35,16.33a305.5,305.5,0,0,0-35.12,14.49L30.82,172.23a305.5,305.5,0,0,0-14.49,35.12Z"/><path class="cls-11" d="M65.62,116.81l51.19-51.19A308.35,308.35,0,0,0,65.62,116.81Z"/><path class="cls-12" d="M261.69,3.24q-12.9,1.88-25.43,4.81L8.05,236.26q-2.94,12.53-4.81,25.43Z"/><path class="cls-13" d="M440.34,30.84q-7-3.4-14.16-6.47L24.37,426.18q3.06,7.19,6.47,14.16Z"/><path class="cls-14" d="M610.73,273q-1-9.13-2.51-18.11L254.85,608.22q9,1.51,18.11,2.51Z"/><path class="cls-15" d="M608.16,358q2-11.71,3.08-23.71L334.32,611.24q12-1.08,23.71-3.08Z"/><path class="cls-16" d="M575.27,452.8,452.8,575.27A307.86,307.86,0,0,0,575.27,452.8Z"/><path class="cls-17" d="M604.81,237.63q-1.9-8.28-4.24-16.39L221.24,600.57q8.12,2.32,16.39,4.24Z"/><path class="cls-18" d="M513.84,81.09q-5.37-4.95-11-9.65L71.44,502.87q4.69,5.6,9.65,11Z"/><path class="cls-19" d="M592.78,414.66a301.68,301.68,0,0,0,9.7-30.33L384.33,602.48a301.68,301.68,0,0,0,30.33-9.7Z"/><path class="cls-20" d="M552.84,124.6q-4.37-5.92-9-11.62L113,543.83q5.7,4.63,11.62,9Z"/><path class="cls-21" d="M534.32,101.86q-4.86-5.43-10-10.63L91.23,524.33q5.2,5.11,10.63,10Z"/><path class="cls-22" d="M595.59,205.6q-2.64-7.57-5.66-15l-399.3,399.3q7.4,3,15,5.66Z"/><path class="cls-23" d="M583.64,176.29q-3.27-7-6.87-13.74L162.55,576.77q6.76,3.6,13.74,6.87Z"/><path class="cls-24" d="M569.32,149.36q-3.84-6.42-8-12.64L136.72,561.34q6.21,4.14,12.64,8Z"/></g></g></g></g></svg>