<svg xmlns="http://www.w3.org/2000/svg" id="prefix__bar_squiggly_color" width="1122.281" height="404.759" data-name="bar / squiggly / color" viewBox="0 0 1122.281 404.759">
    <defs>
        <clipPath id="prefix__clip-path">
            <path id="prefix__Rectangle_21" d="M0 0H1122.281V404.759H0z" data-name="Rectangle 21" transform="translate(-3303.442 -531.578)" style="fill:none"/>
        </clipPath>
    </defs>
    <g id="prefix__color_lines" data-name="color lines">
        <g id="prefix__Group_26" data-name="Group 26" transform="translate(3303.442 531.578)">
            <g id="prefix__Group_25" data-name="Group 25">
                <path id="prefix__Path_169" d="M-3317.6-280.475s81.309 56.426 126.03 56.426c119.654 0 276.448-70.038 311-81.219s81.2 78.48 173.693 67.3 325.353-5.229 387.352-17.425 145.342-27.742 145.342-27.742" data-name="Path 169" style="stroke-miterlimit:10;stroke-width:3px;stroke:#e54355;fill:none"/>
                <path id="prefix__Path_170" d="M-3317.6-313.688s77.128-9.527 114.838-13.717 72.489-51.676 107.405-43.3 71.9 77.123 94.242 77.123 67.853-103.226 99.976-100.433 83.716 74.986 113.046 66.606 89.385-13.966 110.335-8.38 100.559 85.78 135.475 81.856 159.883-114.867 187.15-111.181c51.676 6.983 106.145 29.882 134.078 31.279s48.922-17.207 48.922-17.207" data-name="Path 170" style="stroke:#eb8b23;stroke-miterlimit:10;stroke-width:3px;fill:none"/>
                <path id="prefix__Path_171" d="M-3330.689-244.845c131.774 0 259.821-71.221 323.213-71.174 57.287.043 114.129 56.078 317.85 56.078 39.106 0 232.123-31.031 293.576-27.464s215.731-26.536 215.731-26.536" data-name="Path 171" style="stroke:#5f2d78;stroke-miterlimit:10;stroke-width:3px;fill:none"/>
                <path id="prefix__Path_172" d="M-3317.6-353.941s23.919-13.52 49.058-17.933 59.252-1.356 77.04 2.793 142.443-39.21 175.754-35.14c19.606 2.4 79.546 65.054 114.526 65.054 39.973 0 65.643-80.986 82.4-75.226s53.681-38.934 72.93-34.744 107.462 124.246 136.792 134.023 70.643-85.974 97.18-91.561 144.754-23.958 167.142-23.044c35.151 1.434 84.17 56.671 100.93 57.845s71.715-127.319 71.715-127.319" data-name="Path 172" style="stroke:#af206e;stroke-miterlimit:10;stroke-width:3px;fill:none"/>
                <path id="prefix__Path_173" d="M-3317.6-327.4s35.092-27.933 71.405-29.329 89.462-68.064 129.965-61.081 90.706 48.957 111.656 45.941 79.609-78.436 94.972-71.453 69.833 92.179 114.525 92.179 71.23-20.95 99.163-11.173 117.318 28.24 134.078 24.6 136.872-132.137 157.822-122.361 43.3 154.609 62.849 152.361 67.04-111.858 90.783-107.668 78.251-19.553 78.251-19.553" data-name="Path 173" style="stroke:#f6cc1b;stroke-miterlimit:10;stroke-width:3px;fill:none"/>
            </g>
        </g>
    </g>
</svg>
