<svg xmlns="http://www.w3.org/2000/svg" xmlns:xlink="http://www.w3.org/1999/xlink" id="prefix__Component_3_2" width="1251.881" height="248.699" data-name="Component 3 – 2" viewBox="0 0 1251.881 248.699">
    <defs>
        <linearGradient id="prefix__linear-gradient" x1=".683" x2="-.056" y1=".307" y2=".918" gradientUnits="objectBoundingBox">
            <stop offset="0" stop-color="#fff33b"/>
            <stop offset=".04" stop-color="#fee62d"/>
            <stop offset=".117" stop-color="#fdd51b"/>
            <stop offset=".196" stop-color="#fdca0f"/>
            <stop offset=".281" stop-color="#fdc70c"/>
            <stop offset=".669" stop-color="#f3903f"/>
            <stop offset=".888" stop-color="#ed683c"/>
            <stop offset="1" stop-color="#e93e3a"/>
        </linearGradient>
        <linearGradient id="prefix__linear-gradient-2" x1="7.363" x2="-3.197" y1="-.972" y2="1.293" xlink:href="#prefix__linear-gradient"/>
        <linearGradient id="prefix__linear-gradient-3" x1="6.398" x2="-4.634" y1="-.673" y2="1.593" xlink:href="#prefix__linear-gradient"/>
        <linearGradient id="prefix__linear-gradient-4" x1="6.56" x2="-7.547" y1="-.473" y2="1.792" xlink:href="#prefix__linear-gradient"/>
        <linearGradient id="prefix__linear-gradient-5" x1="4.882" x2="-8.489" y1="-.242" y2="2.023" xlink:href="#prefix__linear-gradient"/>
        <linearGradient id="prefix__linear-gradient-6" x1="4.3" x2="-11.876" y1="-.032" y2="2.233" xlink:href="#prefix__linear-gradient"/>
        <linearGradient id="prefix__linear-gradient-7" x1="2.558" x2="-11.793" y1=".146" y2="2.412" xlink:href="#prefix__linear-gradient"/>
        <linearGradient id="prefix__linear-gradient-8" x1="4.319" x2="-49.445" y1=".339" y2="2.604" xlink:href="#prefix__linear-gradient"/>
        <linearGradient id="prefix__linear-gradient-9" x1=".294" x2="-12.495" y1=".537" y2="2.802" xlink:href="#prefix__linear-gradient"/>
        <linearGradient id="prefix__linear-gradient-10" x1="-.997" x2="-12.941" y1=".785" y2="2.975" xlink:href="#prefix__linear-gradient"/>
        <linearGradient id="prefix__linear-gradient-11" x1="4.727" x2="2.63" y1="-.357" y2=".069" xlink:href="#prefix__linear-gradient"/>
        <linearGradient id="prefix__linear-gradient-12" x1="4.417" x2="1.879" y1="-.132" y2=".302" xlink:href="#prefix__linear-gradient"/>
        <linearGradient id="prefix__linear-gradient-13" x1="2.226" x2=".502" y1=".128" y2=".498" xlink:href="#prefix__linear-gradient"/>
    </defs>
    <path id="prefix__Path_15" d="M753.439 113.014c-2.007-2.349-5.33-5.238-8.433-5.83-3.677-.693-6.241 3.041-8.383 5.373-.658.71-1.3 1.386-1.957 2.078-14.117 14.565-48.441 43.172-67.635 21.645-4.419-4.951-6.055-10.966-6.342-17.455-.1-2.078.135-2.1 2.176-2.6 4.739-1.183 9.6-2.146 14.117-3.92 13.224-5.187 24.744-13.163 35.167-22.71 8.062-7.418 14.859-15.782 17.811-26.664 1.754-6.472 1.4-12.791-2.142-18.638-4.925-8.144-12.785-11.423-21.758-12.47-10.727-1.25-20.577 1.707-29.736 7.08-17.474 10.29-30.073 25.109-39.063 43.122a83.835 83.835 0 0 0-7.742 22.879 70.284 70.284 0 0 1-13.341-1.149c-11.031-1.96-15.146-7.638-14.91-10.611.793-1.3 1.586-2.585 2.361-3.886 5.549-9.243 10.761-18.671 14.1-28.979 1.147-3.531 1.568-7.08-.236-10.527-4.335-8.3-11.318-13.45-20.038-16.221-3.964-1.25-5.111-.2-6.376 3.785-1.417 4.545-2.917 9.057-4.638 13.484a322.676 322.676 0 0 1-16.58 35.467c-9.395 17.522-18.992 34.926-30.646 51.063a119.775 119.775 0 0 1-8.872 10.324 3.273 3.273 0 0 1-2.884.879c-.675-.321-1.164-1.808-1.147-2.771a37.685 37.685 0 0 1 .658-6.877c1.956-9.969 5.3-19.55 8.737-29.1 4.52-12.538 9.445-24.94 12.026-38.086a20.892 20.892 0 0 0-.708-11.9c-2.412-6.2-6.814-10.73-12.178-14.379-4.047-2.749-8.367-4.945-13.359-5.42-3.879-.355-5.7 1.166-5.988 5.018-.253 3.244-.388 6.489-.759 9.716q-.633 5.6-1.619 11.186c-.81 4.579-1.737 9.141-2.715 13.687-1.08 5.069-2.243 10.121-3.424 15.157-1.788 7.536-3.373 13.214-5.178 20.733-.708 2.991-2.4 6.708-4.622 8.668-2.243 1.96-4.3 4.157-6.578 6.1-6.865 5.9-17.035 12.081-26.447 9.445-8.113-2.264-8.889-11.152-7.657-18.283 1.889-10.865 15.315-31.074 21.1-40.435a7.056 7.056 0 0 0-.084-8.3 25.492 25.492 0 0 0-9.209-8.584 26.952 26.952 0 0 0-7.674-2.991c-4.453-.9-7.928 1.115-10.795 4.579-15.13 18.333-39.232 45.622-57.549 60.762-4.841 3.988-9.715 7.959-15.6 10.375-1.822.743-3.829 1.4-5.5-.017-1.788-1.538-1.316-3.7-.894-5.728 1.029-4.985 3.323-9.446 5.752-13.839a122.385 122.385 0 0 1 24.811-30.787 138.192 138.192 0 0 1 43.432-27.526c4.858-1.892 9.867-3.363 14.843-4.951 2.277-.743 2.935-1.436 2.783-3.836a15.156 15.156 0 0 0-3.188-7.891c-4.4-6.235-10.019-10.578-18-10.713a59.222 59.222 0 0 0-19.7 3.278c-11.722 3.869-22.045 10.24-31.456 18.131-3.019 2.518-5.9 5.171-8.687 7.891-9.648 1.825-40.581-.1-42.858-15.241a13.03 13.03 0 0 0-1.08-2.754c-4.486-9.158-12.127-14.16-21.842-16.12-3.727-.76-5.212.845-5.988 4.613C305.409 49.616 301.04 68.3 294.631 86c-5.633 15.529-13.105 31.5-25.587 42.7-.354.321-.708.642-1.079.946-3.458 2.94-7.3 5.069-11.925 5.475-3.289.27-5.853-1.132-6.949-4.224a15.623 15.623 0 0 1-1.2-6.252 106.635 106.635 0 0 1 2.109-15.72 185.348 185.348 0 0 1 9.681-28.81 27.033 27.033 0 0 0 2.109-6.387c.624-4.376-2.007-7.266-5.347-9.446-6.123-3.988-15.231-8.06-22.686-7.384-8.029.727-10.744 9.936-12.431 16.475-5.431 20.986-12.836 44.372-29.921 58.954-3.441 2.957-7.3 5.086-11.925 5.475-19.161 1.656 3.812-58.16 5.549-66.592a25.887 25.887 0 0 0-.708-14.194c-2.918-8.128-8.5-13.991-15.8-18.317-3.306-1.96-6.814-3.515-10.794-3.43-1.737.034-3.272.608-3.913 2.4a23.944 23.944 0 0 0-.86 3.447c-5.094 26.055-14.438 51.925-15.1 78.977-.455 18.08 3.036 40.4 23.63 45.031 7.776 1.74 15.231.389 22.483-2.535 9.968-4.038 18.5-10.29 26.261-17.607 2.159-2.028 4.251-4.123 6.291-6.235a39.135 39.135 0 0 0 2.9 8.3c3.862 7.942 9.85 13.4 18.621 15.377 31.574 7.1 56.891-21.595 72.426-45.166 10.171-15.41 19.043-32.848 24.136-50.945 7.927 6.015 28.774 7.807 35.251 6.691a157.625 157.625 0 0 0-12.684 18.012c-8.349 13.788-15.011 28.252-16.9 44.507a37.163 37.163 0 0 0 1.7 17.353c2.851 7.79 9.159 12.1 17.44 12.048 6.308-.034 12.11-2.1 17.693-4.782a119.282 119.282 0 0 0 26.025-17.624c8.669-7.469 17.069-15.258 25.6-22.913.489-.439 1.012-.828 1.839-1.487-.523 2.484-.961 4.562-1.383 6.641-2.075 10.24-1.316 22.744 7.674 29.57 7.05 5.34 16.715 5.982 25.182 4.9 14.421-1.859 26.312-9.547 36.466-19.77-.085 1.96-.152 3.937-.1 5.9.2 7.418 1.686 14.548 5.785 20.9 3.761 5.813 8.956 8.888 16.108 8.145a33.653 33.653 0 0 0 13.308-4.8c8.45-4.866 15.72-11.237 22.551-18.131a293.034 293.034 0 0 0 33.481-40.57 54.183 54.183 0 0 0 18.806 8.026c5.8 1.267 13.865.98 19.852.811a46.143 46.143 0 0 0 .338 5.171 62.468 62.468 0 0 0 1.788 8.432 39.933 39.933 0 0 0 17.913 22.98c29.264 17.725 64.144 1.723 87.572-17.438 4.554-3.734 9.04-9.361 13.375-13.349 3.297-3.042 7.952-8.061 4.157-12.522zm-87.724-20.09c5.414-12.318 12.9-23.1 23.377-31.665a25.161 25.161 0 0 1 9.648-5.407 12.945 12.945 0 0 1 4.486-.321 3.215 3.215 0 0 1 2.952 3.025 13.052 13.052 0 0 1-1.906 7.756C700.343 73.8 694.507 79.676 688.1 85a90.758 90.758 0 0 1-22.871 13.923c-.439.186-.911.321-1.366.473l-.438-.372c.755-2.024 1.413-4.107 2.29-6.1z" data-name="Path 15" transform="translate(497.023 -2.128)"/>
    <path id="prefix__Path_16" d="M166.663 62.242L156.989 37.3h-11.883v39.9h8.479V48.423L164.812 77.2h3.7l11.227-28.775V77.2h8.539V37.3h-11.941z" data-name="Path 16" transform="translate(612.669 168.65)"/>
    <path id="prefix__Path_17" d="M163.765 37.3l-15.348 39.89h9.614l2.513-6.759h17.069l2.513 6.759h9.614L174.391 37.3zm-.894 25.667l6.207-17.167 6.207 17.168z" data-name="Path 17" transform="translate(665.197 168.653)"/>
    <path id="prefix__Path_18" d="M183.7 50.155c0-7.418-5.144-12.859-13.442-12.859h-18.641V77.19h8.483V63.013h6.207l7.826 14.177h9.8L174.91 62c4.301-1.014 8.79-4.85 8.79-11.845zm-14.64 5.39h-8.96v-10.78h8.956c3.357 0 5.92 2.045 5.92 5.323.001 3.412-2.562 5.457-5.919 5.457z" data-name="Path 18" transform="translate(715.971 168.653)"/>
    <path id="prefix__Path_19" d="M187.447 37.3H177l-14.1 17.763V37.3h-8.479v39.9h8.479V64.934l3.106-3.769L178.071 77.2h10.45l-16.9-21.177z" data-name="Path 19" transform="translate(760.526 168.65)"/>
    <path id="prefix__Path_20" d="M157.208 77.2h28.185v-7.481h-19.706v-9.092h19.288v-7.479h-19.288v-8.375h19.706V37.3h-28.185z" data-name="Path 20" transform="translate(804.68 168.65)"/>
    <path id="prefix__Path_21" d="M159.658 44.773H171.3V77.2h8.539V44.773h11.585V37.3h-31.766z" data-name="Path 21" transform="translate(843.555 168.65)"/>
    <path id="prefix__Rectangle_3" d="M0 0H8.48V39.901H0z" data-name="Rectangle 3" transform="translate(1049.373 205.946)"/>
    <path id="prefix__Path_22" d="M191.207 62.361L172.756 37.3h-8.718v39.9h8.479V51.174L191.506 77.2h8.181V37.3h-8.48z" data-name="Path 22" transform="translate(913.045 168.65)"/>
    <path id="prefix__Path_23" d="M186.214 63.16h10.508v4.782A13.2 13.2 0 0 1 188.3 71c-7.286 0-12.549-5.576-12.549-13.112s5.262-13.1 12.549-13.1a11.448 11.448 0 0 1 9.429 5.2l6.983-3.836a18.6 18.6 0 0 0-16.411-8.9c-11.706 0-21.269 8.009-21.269 20.631 0 12.571 9.563 20.648 21.269 20.648a22.024 22.024 0 0 0 16.9-7.485V55.743h-18.987z" data-name="Path 23" transform="translate(960.619 168.033)"/>
    <path id="prefix__Path_24" d="M251.691 33.174C224.906 22.8 197.481 22.6 170.275 31.62c-27.257 9.023-47.513 26.546-59.742 52.669-11.065 23.656-12.954 48.444-7.135 73.756 5.9 25.6 19.633 46.079 41.441 60.914 19.279 13.112 40.9 18.452 62.39 18.654 16.243-.068 30.529-2.264 44.225-7.57 26.194-10.121 45.405-27.779 56.74-53.547 9.8-22.237 11.739-45.487 6.612-69.093-7.775-35.855-28.892-60.965-63.115-74.229zm4.709 133.285c-8.872 14.008-22.18 21.459-38.422 23.707-11.419 1.571-22.635.574-33.278-4.089-18.25-8.026-28.353-22.439-32.064-41.685-.422-2.2-.675-4.41-.877-6.641-.2-2.078-.2-4.157-.27-5.644.1-14.177 3.238-26.867 11.436-37.951 9.429-12.774 22.348-19.55 37.933-21.426 10.963-1.318 21.707-.237 31.946 4.14 14.91 6.353 24.98 17.387 29.871 32.73 6.287 19.77 5.006 39.033-6.275 56.859z" data-name="Path 24" transform="translate(-100.179 -25.108)"/>
    <path id="prefix__Path_25" d="M291.162 86.973c-6.376-26.157-21.336-45.217-46.856-54.747-23.664-8.837-47.952-9.124-72.24-2.619-20.358 5.458-36.112 17.218-46.282 35.907-7.658 14.042-10.913 29.317-11 45.132-.253 40.283-.118 80.566-.135 120.849 0 .642.118 1.284.169 1.876h49.2v-57.739h79.813V233.4h50.448v-2.568-115.053a119.9 119.9 0 0 0-3.117-28.806zm-49.133 44.794q-38.532-.051-77.064-.051a2.02 2.02 0 0 1-.59-.135c0-8.432-.371-16.694.135-24.906a48.28 48.28 0 0 1 3.239-14.058c4.082-10.628 12.245-16.745 23.293-19.077a58.759 58.759 0 0 1 28.5.693c11.689 3.329 18.941 11.169 21.944 22.811a69.517 69.517 0 0 1 2.041 13.433c.371 6.455.169 12.943.253 19.415.02 1.301-.334 1.875-1.751 1.875z" data-name="Path 25" transform="translate(129.121 -25.055)"/>
    <path id="prefix__Path_26" d="M282.479 201.549c-28.64-19.533-42.437-58.278-47.952-77.558 2.176-2.23 4.318-4.545 6.376-6.962 31.085-36.413 39.67-73.976 41.256-82.256a234.935 234.935 0 0 0-23.091-5.221c-8.72-1.386-17.2-.017-22.568-.253-1.535 6.86-8.484 32.9-30.208 58.346a133.548 133.548 0 0 1-28.4 24.231c-.017-36.261-.034-72.962 0-83.81 0-1.943-.371-2.7-2.547-2.7-15.2.1-30.377.051-45.574.068-.725 0-1.45.068-2.26.1v203.845h50.448c0-10.358-.017-36.65-.034-67.082 4.959-2.214 10.322-4.833 15.905-7.891 9.833 26.579 28.4 62.435 61.563 85.044 38.169 26.022 88.533 30.314 117.594 30.314 7.4 0 13.409-.287 17.491-.558.607-5.576 1.518-15.275 1.518-23.572a201.841 201.841 0 0 0-1.653-22.811c-7.861.659-69.391 4.95-107.864-21.274z" data-name="Path 26" transform="translate(333.44 -21.064)"/>
</svg>
