<svg xmlns="http://www.w3.org/2000/svg" xmlns:xlink="http://www.w3.org/1999/xlink" id="prefix__Component_6_1" width="1125.881" height="223.7" data-name="Component 6 – 1" viewBox="0 0 1125.881 223.7">
    <defs>
        <linearGradient id="prefix__linear-gradient" x1="5.159" x2="-12.881" y1=".623" y2=".146" gradientUnits="objectBoundingBox">
            <stop offset="0" stop-color="#af206e"/>
            <stop offset=".11" stop-color="#8d2572"/>
            <stop offset=".278" stop-color="#5f2d78"/>
            <stop offset=".426" stop-color="#572970"/>
            <stop offset=".656" stop-color="#41215a"/>
            <stop offset=".819" stop-color="#2e1a47"/>
        </linearGradient>
        <linearGradient id="prefix__linear-gradient-2" x1="4.039" x2="-14.808" y1=".594" y2=".117" xlink:href="#prefix__linear-gradient"/>
        <linearGradient id="prefix__linear-gradient-3" x1="3.496" x2="-20.604" y1=".563" y2=".086" xlink:href="#prefix__linear-gradient"/>
        <linearGradient id="prefix__linear-gradient-4" x1="1.925" x2="-20.917" y1=".53" y2=".053" xlink:href="#prefix__linear-gradient"/>
        <linearGradient id="prefix__linear-gradient-5" x1=".664" x2="-26.969" y1=".503" y2=".026" xlink:href="#prefix__linear-gradient"/>
        <linearGradient id="prefix__linear-gradient-6" x1="-.71" x2="-25.227" y1=".473" y2="-.004" xlink:href="#prefix__linear-gradient"/>
        <linearGradient id="prefix__linear-gradient-7" x1="-8.103" x2="-99.95" y1=".455" y2="-.022" xlink:href="#prefix__linear-gradient"/>
        <linearGradient id="prefix__linear-gradient-8" x1="-2.704" x2="-24.551" y1=".43" y2="-.047" xlink:href="#prefix__linear-gradient"/>
        <linearGradient id="prefix__linear-gradient-9" x1="-3.85" x2="-24.254" y1=".4" y2="-.061" xlink:href="#prefix__linear-gradient"/>
        <linearGradient id="prefix__linear-gradient-10" x1=".565" x2="-.697" y1=".497" y2=".368" xlink:href="#prefix__linear-gradient"/>
        <linearGradient id="prefix__linear-gradient-11" x1="4.522" x2=".939" y1=".601" y2=".511" xlink:href="#prefix__linear-gradient"/>
        <linearGradient id="prefix__linear-gradient-12" x1="4.116" x2="-.219" y1=".581" y2=".49" xlink:href="#prefix__linear-gradient"/>
        <linearGradient id="prefix__linear-gradient-13" x1="1.973" x2="-.972" y1=".538" y2=".46" xlink:href="#prefix__linear-gradient"/>
    </defs>
    <path id="prefix__Path_4" d="M81.145 57.284l-8.7-22.438H61.758v35.89h7.626V44.854l10.1 25.882h3.33l10.1-25.882v25.882h7.679v-35.89H89.845z" data-name="Path 4" transform="translate(619.748 150.397)"/>
    <path id="prefix__Path_5" d="M78.873 34.846L65.069 70.73h8.646l2.26-6.079h15.352l2.26 6.079h8.646l-13.8-35.884zm-.8 23.087l5.582-15.457 5.582 15.457z" data-name="Path 5" transform="translate(666.656 150.402)"/>
    <path id="prefix__Path_6" d="M97.121 46.412c0-6.672-4.627-11.566-12.09-11.566H68.269V70.73H75.9V57.978h5.582L88.52 70.73h8.813l-8.115-13.664c3.868-.912 7.903-4.366 7.903-10.654zM83.954 51.26H75.9v-9.7h8.055c3.019 0 5.324 1.839 5.324 4.788-.001 3.073-2.306 4.912-5.325 4.912z" data-name="Path 6" transform="translate(711.997 150.402)"/>
    <path id="prefix__Path_7" d="M100.775 34.846h-9.4L78.7 50.827V34.846h-7.623v35.89H78.7V59.705l2.793-3.39 10.851 14.421h9.4l-15.2-19.048z" data-name="Path 7" transform="translate(751.786 150.397)"/>
    <path id="prefix__Path_8" d="M73.86 70.736h25.348v-6.727H81.486v-8.178h17.347V49.1H81.486v-7.529h17.722v-6.725H73.86z" data-name="Path 8" transform="translate(791.216 150.397)"/>
    <path id="prefix__Path_9" d="M76.31 41.571h10.472v29.165h7.68V41.571h10.418v-6.725H76.31z" data-name="Path 9" transform="translate(825.931 150.397)"/>
    <path id="prefix__Rectangle_2" d="M0 0H7.626V35.89H0z" data-name="Rectangle 2" transform="translate(943.756 185.243)"/>
    <path id="prefix__Path_10" d="M105.125 57.391L88.53 34.846h-7.84v35.89h7.626V47.329l17.078 23.407h7.358v-35.89h-7.626z" data-name="Path 10" transform="translate(887.986 150.397)"/>
    <path id="prefix__Path_11" d="M100.935 58.106h9.45v4.3a11.953 11.953 0 0 1-7.569 2.751c-6.553 0-11.286-5.016-11.286-11.794s4.733-11.779 11.286-11.779a10.258 10.258 0 0 1 8.48 4.681l6.28-3.45a16.725 16.725 0 0 0-14.76-8.01c-10.527 0-19.128 7.2-19.128 18.557 0 11.308 8.6 18.573 19.128 18.573a19.806 19.806 0 0 0 15.2-6.733V51.434h-17.08z" data-name="Path 11" transform="translate(930.471 149.848)"/>
    <g id="prefix__Component_11_1" data-name="Component 11 – 1">
        <path id="prefix__Path_3" d="M608.13 101.872c-1.805-2.113-4.793-4.712-7.585-5.243-3.307-.623-5.613 2.736-7.539 4.833-.592.623-1.168 1.246-1.76 1.869-12.7 13.1-43.566 38.832-60.828 19.469-3.974-4.453-5.446-9.879-5.7-15.7-.076-1.869.121-1.885 1.957-2.341a102.482 102.482 0 0 0 12.7-3.526c11.893-4.666 22.253-11.84 31.628-20.427 7.251-6.672 13.364-14.2 16.019-23.983 1.578-5.821 1.259-11.505-1.927-16.764-4.429-7.326-11.5-10.274-19.568-11.217-9.648-1.125-18.506 1.535-26.743 6.368-15.723 9.258-27.054 22.571-35.139 38.79a75.4 75.4 0 0 0-6.963 20.579 63.2 63.2 0 0 1-12-1.033c-9.921-1.778-13.622-6.87-13.41-9.545.713-1.17 1.426-2.325 2.124-3.511 4.991-8.3 9.678-16.779 12.681-26.05 1.032-3.177 1.411-6.368-.212-9.469-3.9-7.462-10.178-12.1-18.021-14.591-3.565-1.125-4.6-.2-5.734 3.4-1.274 4.073-2.624 8.146-4.172 12.128a291.559 291.559 0 0 1-14.911 31.9c-8.449 15.761-17.08 31.415-27.562 45.93a107.666 107.666 0 0 1-7.979 9.286 2.944 2.944 0 0 1-2.594.79 3.179 3.179 0 0 1-1.032-2.493 33.9 33.9 0 0 1 .592-6.186c1.76-8.982 4.763-17.585 7.858-26.172 4.065-11.277 8.495-22.433 10.816-34.257A18.855 18.855 0 0 0 422.49 54c-2.169-5.563-6.128-9.636-10.952-12.919-3.641-2.477-7.524-4.453-12.014-4.879-3.489-.319-5.127 1.049-5.385 4.514-.228 2.918-.349 5.836-.683 8.739q-.569 5.038-1.456 10.061c-.728 4.119-1.562 8.222-2.442 12.311-.971 4.56-2.017 9.089-3.079 13.633-1.608 6.779-3.034 11.885-4.657 18.649-.637 2.69-2.154 6.034-4.156 7.8-2.018 1.763-3.868 3.739-5.916 5.487-6.174 5.3-15.321 10.852-23.785 8.5-7.3-2.037-7.994-10.031-6.887-16.445 1.7-9.773 13.774-27.95 18.976-36.37a6.347 6.347 0 0 0-.076-7.463 22.927 22.927 0 0 0-8.282-7.721 24.236 24.236 0 0 0-6.9-2.69c-4-.806-7.129 1-9.708 4.119-13.607 16.49-35.283 41.036-51.757 54.639-4.354 3.6-8.737 7.174-14.031 9.347-1.638.669-3.443 1.261-4.945-.015-1.608-1.383-1.183-3.328-.8-5.152.925-4.484 2.988-8.5 5.173-12.448A110.083 110.083 0 0 1 291.035 78 124.279 124.279 0 0 1 330.1 53.237c4.369-1.7 8.874-3.024 13.349-4.468 2.048-.654 2.64-1.292 2.5-3.435a13.629 13.629 0 0 0-2.867-7.1c-3.959-5.608-9.01-9.514-16.185-9.636a53.256 53.256 0 0 0-17.717 2.949c-10.542 3.48-19.826 9.21-28.29 16.308-2.715 2.265-5.309 4.636-7.812 7.1-8.677 1.641-36.5-.091-38.545-13.709a11.711 11.711 0 0 0-.971-2.477c-4.035-8.238-10.907-12.736-19.644-14.5-3.352-.684-4.687.76-5.385 4.149-3.337 16.43-7.266 33.239-13.03 49.152-5.066 13.967-11.786 28.33-23.011 38.407-.319.289-.637.562-.971.851a18.976 18.976 0 0 1-10.725 4.924c-2.958.243-5.264-1.018-6.25-3.8a14.1 14.1 0 0 1-1.077-5.623 95.654 95.654 0 0 1 1.9-14.135 168.305 168.305 0 0 1 8.707-25.913 25.063 25.063 0 0 0 1.911-5.745c.546-3.936-1.82-6.535-4.824-8.5-5.506-3.587-13.7-7.25-20.4-6.642-7.22.654-9.663 8.937-11.18 14.819-4.884 18.877-11.544 39.911-26.91 53.028a18.735 18.735 0 0 1-10.725 4.924c-17.232 1.489 3.428-52.313 4.991-59.9a23.287 23.287 0 0 0-.645-12.765c-2.624-7.306-7.645-12.58-14.213-16.471-2.973-1.763-6.128-3.176-9.708-3.085-1.562.03-2.943.547-3.519 2.158a21.542 21.542 0 0 0-.774 3.1C63.5 60.639 55.095 83.908 54.5 108.241c-.41 16.262 2.73 36.34 21.252 40.5 6.993 1.565 13.7.35 20.22-2.28 8.965-3.632 16.641-9.256 23.618-15.837 1.942-1.824 3.823-3.708 5.658-5.608a35.2 35.2 0 0 0 2.609 7.462c3.474 7.143 8.859 12.052 16.747 13.831 28.4 6.368 51.165-19.424 65.136-40.626 9.147-13.861 17.126-29.546 21.707-45.824 7.129 5.4 25.878 7.022 31.7 6.019a141.8 141.8 0 0 0-11.407 16.2c-7.509 12.4-13.5 25.412-15.2 40.033a33.45 33.45 0 0 0 1.532 15.609c2.564 7.007 8.237 10.882 15.685 10.837 5.673-.03 10.891-1.885 15.912-4.3a107.271 107.271 0 0 0 23.406-15.852c7.8-6.733 15.351-13.724 23.027-20.609.44-.4.91-.745 1.653-1.337-.47 2.234-.865 4.1-1.244 5.973-1.866 9.21-1.183 20.457 6.9 26.6 6.341 4.8 15.033 5.38 22.648 4.392 12.97-1.657 23.664-8.572 32.8-17.767-.076 1.763-.137 3.526-.091 5.289.182 6.687 1.517 13.1 5.2 18.816 3.383 5.228 8.055 7.994 14.487 7.326a30.262 30.262 0 0 0 11.968-4.316c7.6-4.377 14.138-10.107 20.281-16.308a263.571 263.571 0 0 0 30.111-36.492 48.724 48.724 0 0 0 16.914 7.219c5.218 1.14 12.469.882 17.854.73a41.5 41.5 0 0 0 .3 4.651 56.164 56.164 0 0 0 1.608 7.584 35.978 35.978 0 0 0 16.11 20.67c26.318 15.943 57.688 1.55 78.758-15.685 4.1-3.359 8.131-8.435 12.029-12.022 2.968-2.719 7.155-7.234 3.742-11.247zM529.235 83.8c4.869-11.08 11.6-20.776 21.024-28.482a22.431 22.431 0 0 1 8.677-4.864 11.643 11.643 0 0 1 4.035-.289 2.891 2.891 0 0 1 2.655 2.721 11.739 11.739 0 0 1-1.714 6.976c-3.534 6.733-8.783 12.022-14.547 16.81A81.627 81.627 0 0 1 528.8 89.2c-.394.167-.819.289-1.229.426l-.394-.334c.678-1.843 1.27-3.697 2.058-5.492z" data-name="Path 3" transform="translate(516.475 -2.132)"/>
        <path id="prefix__Path_12" d="M153.093 29.915C129.02 20.583 104.34 20.4 79.872 28.5c-24.513 8.133-42.731 23.894-53.729 47.391-9.951 21.278-11.65 43.574-6.417 66.342 5.309 23.026 17.657 41.446 37.27 54.791 17.338 11.794 36.785 16.6 56.11 16.779 14.608-.061 27.456-2.052 39.773-6.809 23.558-9.1 40.835-24.986 51.029-48.164 8.813-20 10.558-40.914 5.946-62.147-6.991-32.252-25.982-54.837-56.761-66.768zm4.233 119.885c-7.979 12.6-19.947 19.3-34.555 21.323-10.269 1.413-20.357.517-29.929-3.678-16.413-7.219-25.5-20.184-28.836-37.495-.379-1.976-.607-3.967-.789-5.973-.182-1.869-.182-3.739-.243-5.076.091-12.767 2.912-24.166 10.285-34.136 8.48-11.49 20.1-17.585 34.115-19.272a55.152 55.152 0 0 1 28.73 3.724c13.409 5.715 22.465 15.639 26.864 29.44 5.659 17.783 4.506 35.11-5.642 51.143z" data-name="Path 12" transform="translate(-16.831 -22.657)"/>
        <path id="prefix__Path_13" d="M190.046 78.309c-5.734-23.527-19.189-40.671-42.14-49.243-21.282-7.964-43.126-8.207-64.969-2.356C64.628 31.619 50.46 42.2 41.313 59.006c-6.887 12.63-9.814 26.354-9.89 40.58-.228 36.248-.106 72.482-.121 108.715 0 .578.106 1.155.152 1.672H75.7v-51.918h71.78v51.964h45.371v-2.31-103.487a107.85 107.85 0 0 0-2.805-25.913zM145.859 118.6q-34.654-.068-69.308-.046a1.818 1.818 0 0 1-.531-.122c0-7.584-.334-15.016.121-22.4a43.429 43.429 0 0 1 2.912-12.645C82.725 73.825 90.067 68.323 100 66.226a52.649 52.649 0 0 1 25.636.623c10.512 2.979 17.035 10.046 19.735 20.518a62.382 62.382 0 0 1 1.835 12.068c.334 5.821.152 11.657.228 17.478.018 1.17-.301 1.687-1.575 1.687z" data-name="Path 13" transform="translate(187.936 -22.613)"/>
        <path id="prefix__Path_14" d="M183.534 181.387c-25.757-17.57-38.165-52.435-43.126-69.761 1.957-2.006 3.883-4.088 5.734-6.262 27.957-32.753 35.678-66.539 37.1-73.986a211.258 211.258 0 0 0-20.766-4.7c-7.842-1.246-15.473-.015-20.3-.228-1.38 6.171-7.63 29.592-27.168 52.481a120.111 120.111 0 0 1-25.538 21.798c-.015-32.616-.03-65.627 0-75.385 0-1.748-.334-2.447-2.291-2.432-13.667.091-27.32.046-40.987.061-.652 0-1.3.061-2.033.091v183.355h45.372c0-9.317-.015-32.966-.03-60.353 4.46-1.976 9.284-4.332 14.3-7.082 8.844 23.907 25.545 56.159 55.367 76.494 34.328 23.406 79.623 27.266 105.759 27.266 6.659 0 12.059-.258 15.73-.5.546-5.015 1.365-13.739 1.365-21.2a181.575 181.575 0 0 0-1.486-20.518c-7.065.589-62.402 4.449-97.002-19.139z" data-name="Path 14" transform="translate(370.395 -19.044)"/>
    </g>
</svg>
