<svg xmlns="http://www.w3.org/2000/svg" width="682.91" height="348.008" viewBox="0 0 682.91 348.008">
    <defs>
        <style>
            .prefix__cls-1,.prefix__cls-2{fill:none;stroke:#5f2d78;stroke-miterlimit:10;opacity:.25;stroke-width:.926px}
        </style>
    </defs>
    <g id="prefix__Artwork_56" data-name="Artwork 56" transform="translate(341.333 173.998)">
        <g id="prefix__Group_189" data-name="Group 189" transform="translate(-341.114 -173.551)">
            <path id="prefix__Path_1002" d="M387.434.4s-2.593 15.559 7.285 22.35 41.489 11.85 53.467 22.72 21.362 20.13 18.769 31.73-14.571 15.312-18.769 22.35-13.706 21.239-26.548 28.894-86.313 35.686-96.932 84.707 6.791 57.789 30.376 67.791 75.2 31.487 112.367 35.439 64.58 2.84 83.349 10.743a82.73 82.73 0 0 1 29.018 20.376" class="prefix__cls-1" data-name="Path 1002" transform="translate(75.247 -.4)"/>
            <path id="prefix__Path_1003" d="M526.743 341.764s-8.15-1.235-21.362-8.52-35.686-20.992-66.8-33.093S382.765 278.912 374 257.3s0-57.665 32.969-99.031 36.18-43.095 35.686-53.467-14.818-24.943-27.289-35.192-28.647-24.079-34.2-30.253-7.285-12.472-20.127-13.953-19.633-.864-45.811 12.1-82.485 34.2-95.2 47.169c-34.451 35.068-31.24 65.074-57.295 88.041C125.68 205.441-15.458 227.174 13.436 275.7c17.411 29.388 103.106 7.779 164.846 37.908 26.8 13.089 28.03 28.03 28.03 28.03" class="prefix__cls-2" data-name="Path 1003" transform="translate(1.999 5.339)"/>
            <path id="prefix__Path_1004" d="M447.556 332.132s-9.755-14.2-33.587-24.943-61.493-21.362-74.335-40.625-10.125-38.4 0-62.234 43.465-72.483 42.724-86.683-2.1-36.8-51.244-48.775S223.81 82.949 210.6 107.028s-26.178 56.307-52.726 71.5-97.429 35.433-96.074 64.451 79.274 23.091 115.948 44.329 41.613 44.823 41.613 44.823" class="prefix__cls-2" data-name="Path 1004" transform="translate(14.26 14.971)"/>
            <path id="prefix__Path_1005" d="M394.384 325.955s-8.026-10-41.736-23.091-56.554-24.573-61.246-34.7 6.174-50.627 17.658-76.434 29.635-52.232 26.919-69.149-17.287-26.054-39.267-29.512-54.7 2.1-79.151 33.216-27.783 36.056-41.119 46.058-82.485 35.315-74.212 56.43 55.072 28.647 79.521 37.291 41.736 16.176 48.528 29.759 5.557 30.129 5.557 30.129" class="prefix__cls-2" data-name="Path 1005" transform="translate(23.596 21.148)"/>
            <path id="prefix__Path_1006" d="M269.14.4s-83.473 22.72-103.847 47.91-25.807 58.9-48.9 73.965S.2 187.226.2 187.226" class="prefix__cls-1" data-name="Path 1006" transform="translate(-.2 -.4)"/>
            <path id="prefix__Path_1007" d="M588.824 296.752s-44.947-31.611-70.754-35.192-75.94 7.409-97.673-10.743-32.6-42.354-5.433-61.74 65.074-14.818 101.748-29.265 72.112-54.949 72.112-72.853-25.93-65.691-32.724-69.272S528.937.4 528.937.4" class="prefix__cls-1" data-name="Path 1007" transform="translate(93.404 -.4)"/>
            <path id="prefix__Path_1008" d="M581.909 230.568s-38.155-23.955-69.4-23.708-84.209 7.532-84.209-16.794 44.947-33.587 76.8-34.327 63.1-21.486 63.1-21.486l13.709-13.953" class="prefix__cls-2" data-name="Path 1008" transform="translate(100.319 27.753)"/>
            <path id="prefix__Path_1009" d="M564.652 195.676a220.538 220.538 0 0 0-53.1-16.3c-29.882-5.063 17.658-18.522 25.807-22.1S564.652 149 564.652 149" data-name="Path 1009" transform="translate(117.576 34.492)" style="stroke-width:.926px;fill:none;stroke:#5f2d78;stroke-miterlimit:10;opacity:.25"/>
        </g>
    </g>
</svg>
