<svg xmlns="http://www.w3.org/2000/svg" xmlns:xlink="http://www.w3.org/1999/xlink" viewBox="0 0 657.67 657.67"><defs><style>.cls-1{fill:url(#Orange_Yellow);}.cls-2{fill:url(#Orange_Yellow-2);}.cls-3{fill:url(#Orange_Yellow-3);}.cls-4{fill:url(#Orange_Yellow-4);}.cls-5{fill:url(#Orange_Yellow-5);}.cls-6{fill:url(#Orange_Yellow-6);}.cls-7{fill:url(#Orange_Yellow-7);}.cls-8{fill:url(#Orange_Yellow-8);}.cls-9{fill:url(#Orange_Yellow-9);}.cls-10{fill:url(#Orange_Yellow-10);}.cls-11{fill:url(#Orange_Yellow-11);}.cls-12{fill:url(#Orange_Yellow-12);}.cls-13{fill:url(#Orange_Yellow-13);}.cls-14{fill:url(#Orange_Yellow-14);}.cls-15{fill:url(#Orange_Yellow-15);}.cls-16{fill:url(#Orange_Yellow-16);}.cls-17{fill:url(#Orange_Yellow-17);}.cls-18{fill:url(#Orange_Yellow-18);}.cls-19{fill:url(#Orange_Yellow-19);}.cls-20{fill:url(#Orange_Yellow-20);}.cls-21{fill:url(#Orange_Yellow-21);}.cls-22{fill:url(#Orange_Yellow-22);}</style><linearGradient id="Orange_Yellow" x1="5.62" y1="206.69" x2="407.76" y2="206.69" gradientUnits="userSpaceOnUse"><stop offset="0" stop-color="#fff33b"/><stop offset="0.04" stop-color="#fee72e"/><stop offset="0.12" stop-color="#fed51b"/><stop offset="0.2" stop-color="#fdca10"/><stop offset="0.28" stop-color="#fdc70c"/><stop offset="0.67" stop-color="#f3903f"/><stop offset="0.89" stop-color="#ed683c"/><stop offset="1" stop-color="#e93e3a"/></linearGradient><linearGradient id="Orange_Yellow-2" x1="0.71" y1="185.57" x2="370.42" y2="185.57" xlink:href="#Orange_Yellow"/><linearGradient id="Orange_Yellow-3" x1="14.34" y1="228.03" x2="441.72" y2="228.03" xlink:href="#Orange_Yellow"/><linearGradient id="Orange_Yellow-4" x1="40.68" y1="271.01" x2="501.34" y2="271.01" xlink:href="#Orange_Yellow"/><linearGradient id="Orange_Yellow-5" x1="57.59" y1="292.6" x2="527.6" y2="292.6" xlink:href="#Orange_Yellow"/><linearGradient id="Orange_Yellow-6" x1="0" y1="164.37" x2="328.74" y2="164.37" xlink:href="#Orange_Yellow"/><linearGradient id="Orange_Yellow-7" x1="313.64" y1="485.65" x2="657.67" y2="485.65" xlink:href="#Orange_Yellow"/><linearGradient id="Orange_Yellow-8" x1="17.54" y1="120.08" x2="222.62" y2="120.08" xlink:href="#Orange_Yellow"/><linearGradient id="Orange_Yellow-9" x1="70.46" y1="97.94" x2="125.42" y2="97.94" xlink:href="#Orange_Yellow"/><linearGradient id="Orange_Yellow-10" x1="3.48" y1="142.23" x2="280.97" y2="142.23" xlink:href="#Orange_Yellow"/><linearGradient id="Orange_Yellow-11" x1="26.17" y1="249.48" x2="472.79" y2="249.48" xlink:href="#Orange_Yellow"/><linearGradient id="Orange_Yellow-12" x1="273.62" y1="464.68" x2="655.73" y2="464.68" xlink:href="#Orange_Yellow"/><linearGradient id="Orange_Yellow-13" x1="358.95" y1="507.62" x2="656.28" y2="507.62" xlink:href="#Orange_Yellow"/><linearGradient id="Orange_Yellow-14" x1="486.16" y1="551.91" x2="617.65" y2="551.91" xlink:href="#Orange_Yellow"/><linearGradient id="Orange_Yellow-15" x1="237.55" y1="443.46" x2="649.37" y2="443.46" xlink:href="#Orange_Yellow"/><linearGradient id="Orange_Yellow-16" x1="76.71" y1="314.2" x2="551.7" y2="314.2" xlink:href="#Orange_Yellow"/><linearGradient id="Orange_Yellow-17" x1="412.65" y1="529.76" x2="646.87" y2="529.76" xlink:href="#Orange_Yellow"/><linearGradient id="Orange_Yellow-18" x1="121.3" y1="357.44" x2="593.57" y2="357.44" xlink:href="#Orange_Yellow"/><linearGradient id="Orange_Yellow-19" x1="97.96" y1="335.82" x2="573.69" y2="335.82" xlink:href="#Orange_Yellow"/><linearGradient id="Orange_Yellow-20" x1="204.68" y1="422.07" x2="639.47" y2="422.07" xlink:href="#Orange_Yellow"/><linearGradient id="Orange_Yellow-21" x1="174.52" y1="400.59" x2="626.65" y2="400.59" xlink:href="#Orange_Yellow"/><linearGradient id="Orange_Yellow-22" x1="146.79" y1="379.03" x2="611.27" y2="379.03" xlink:href="#Orange_Yellow"/></defs><g id="Layer_2" data-name="Layer 2"><g id="Layer_1-2" data-name="Layer 1"><path class="cls-1" d="M407.76,9.56q-9-2.22-18.2-3.94L5.62,389.56q1.71,9.19,3.94,18.2Z"/><path class="cls-2" d="M370.42,2.61C363.74,1.76,357,1.14,350.18.71L.71,350.18c.43,6.8,1.05,13.56,1.9,20.24Z"/><path class="cls-3" d="M441.72,19.89q-8.19-3-16.59-5.55L14.34,425.13q2.57,8.39,5.55,16.59Z"/><path class="cls-4" d="M501.34,48.85q-6.88-4.24-14-8.16L40.68,487.36q3.91,7.09,8.17,14Z"/><path class="cls-5" d="M527.6,66.88q-6.3-4.8-12.85-9.29L57.59,514.75q4.48,6.54,9.29,12.85Z"/><path class="cls-6" d="M328.74,0c-7.72,0-15.37.29-23,.82l-305,305C.29,313.37,0,321,0,328.74Z"/><path class="cls-7" d="M657.67,328.83c0-5.09-.13-10.15-.36-15.19L313.64,657.31c5,.23,10.1.36,15.19.36,2.23,0,4.45,0,6.67-.09L657.58,335.5C657.63,333.28,657.67,331.06,657.67,328.83Z"/><path class="cls-8" d="M222.62,17.54a326,326,0,0,0-37.7,15.56L33.1,184.92a326,326,0,0,0-15.56,37.7Z"/><path class="cls-9" d="M70.46,125.42l55-55A330.76,330.76,0,0,0,70.46,125.42Z"/><path class="cls-10" d="M281,3.48q-13.85,2-27.3,5.16l-245,245Q5.49,267.11,3.48,281Z"/><path class="cls-11" d="M472.79,33.12q-7.5-3.66-15.2-6.95L26.17,457.59q3.28,7.7,6.95,15.2Z"/><path class="cls-12" d="M655.73,293.07q-1.07-9.81-2.7-19.45L273.62,653q9.64,1.63,19.45,2.7Z"/><path class="cls-13" d="M653,384.41q2.14-12.57,3.31-25.46L359,656.28q12.89-1.17,25.46-3.31Z"/><path class="cls-14" d="M617.65,486.16,486.16,617.65A330.36,330.36,0,0,0,617.65,486.16Z"/><path class="cls-15" d="M649.37,255.14q-2-8.89-4.55-17.59L237.55,644.82q8.7,2.5,17.59,4.55Z"/><path class="cls-16" d="M551.7,87.07q-5.76-5.32-11.78-10.36L76.71,539.92q5,6,10.36,11.78Z"/><path class="cls-17" d="M636.45,445.21a322.3,322.3,0,0,0,10.42-32.56L412.65,646.87a322.3,322.3,0,0,0,32.56-10.42Z"/><path class="cls-18" d="M593.57,133.78q-4.68-6.36-9.67-12.48L121.3,583.9q6.12,5,12.48,9.67Z"/><path class="cls-19" d="M573.69,109.37Q568.47,103.54,563,98L98,563q5.57,5.5,11.41,10.73Z"/><path class="cls-20" d="M639.47,220.75q-2.84-8.13-6.07-16.07L204.68,633.4q7.94,3.24,16.07,6.07Z"/><path class="cls-21" d="M626.65,189.28q-3.51-7.49-7.39-14.76L174.52,619.26q7.28,3.87,14.76,7.39Z"/><path class="cls-22" d="M611.27,160.37q-4.12-6.9-8.57-13.58L146.79,602.7q6.68,4.45,13.58,8.57Z"/></g></g></svg>