<?xml version="1.0" encoding="utf-8"?>
<!-- Generator: Adobe Illustrator 24.1.0, SVG Export Plug-In . SVG Version: 6.00 Build 0)  -->
<svg version="1.1" id="Layer_1" xmlns="http://www.w3.org/2000/svg" xmlns:xlink="http://www.w3.org/1999/xlink" x="0px" y="0px"
	 viewBox="0 0 612.5 612.5" style="enable-background:new 0 0 612.5 612.5;" xml:space="preserve">
<style type="text/css">
	.st0{fill:url(#SVGID_1_);}
	.st1{fill:url(#SVGID_2_);}
	.st2{fill:url(#SVGID_3_);}
	.st3{fill:url(#SVGID_4_);}
	.st4{fill:url(#SVGID_5_);}
	.st5{fill:url(#SVGID_6_);}
	.st6{fill:url(#SVGID_7_);}
	.st7{fill:url(#SVGID_8_);}
	.st8{fill:url(#SVGID_9_);}
	.st9{fill:url(#SVGID_10_);}
	.st10{fill:url(#SVGID_11_);}
	.st11{fill:url(#SVGID_12_);}
	.st12{fill:url(#SVGID_13_);}
	.st13{fill:url(#SVGID_14_);}
	.st14{fill:url(#SVGID_15_);}
	.st15{fill:url(#SVGID_16_);}
	.st16{fill:url(#SVGID_17_);}
	.st17{fill:url(#SVGID_18_);}
	.st18{fill:url(#SVGID_19_);}
	.st19{fill:url(#SVGID_20_);}
	.st20{fill:url(#SVGID_21_);}
	.st21{fill:url(#SVGID_22_);}
</style>
<g>
	<g id="Layer_2_1_">
		<g id="Layer_1-2">
			<g>
				
					<linearGradient id="SVGID_1_" gradientUnits="userSpaceOnUse" x1="5.23" y1="418.495" x2="379.78" y2="418.495" gradientTransform="matrix(1 0 0 -1 0 611)">
					<stop  offset="0" style="stop-color:#AF206E"/>
					<stop  offset="0.55" style="stop-color:#E34256"/>
					<stop  offset="1" style="stop-color:#EB8B23"/>
				</linearGradient>
				<path class="st0" d="M379.8,8.9c-5.6-1.4-11.2-2.6-17-3.7L5.2,362.8c1.1,5.7,2.3,11.4,3.7,17L379.8,8.9z"/>
				
					<linearGradient id="SVGID_2_" gradientUnits="userSpaceOnUse" x1="0.66" y1="438.17" x2="345" y2="438.17" gradientTransform="matrix(1 0 0 -1 0 611)">
					<stop  offset="0" style="stop-color:#AF206E"/>
					<stop  offset="0.55" style="stop-color:#E34256"/>
					<stop  offset="1" style="stop-color:#EB8B23"/>
				</linearGradient>
				<path class="st1" d="M345,2.4c-6.2-0.8-12.5-1.4-18.9-1.8L0.7,326.1c0.4,6.3,1,12.6,1.8,18.9L345,2.4z"/>
				
					<linearGradient id="SVGID_3_" gradientUnits="userSpaceOnUse" x1="13.35" y1="398.595" x2="411.41" y2="398.595" gradientTransform="matrix(1 0 0 -1 0 611)">
					<stop  offset="0" style="stop-color:#AF206E"/>
					<stop  offset="0.55" style="stop-color:#E34256"/>
					<stop  offset="1" style="stop-color:#EB8B23"/>
				</linearGradient>
				<path class="st2" d="M411.4,18.5c-5.1-1.9-10.2-3.6-15.5-5.2L13.4,396c1.6,5.2,3.3,10.4,5.2,15.5L411.4,18.5z"/>
				
					<linearGradient id="SVGID_4_" gradientUnits="userSpaceOnUse" x1="37.94" y1="358.61" x2="466.94" y2="358.61" gradientTransform="matrix(1 0 0 -1 0 611)">
					<stop  offset="0" style="stop-color:#AF206E"/>
					<stop  offset="0.55" style="stop-color:#E34256"/>
					<stop  offset="1" style="stop-color:#EB8B23"/>
				</linearGradient>
				<path class="st3" d="M466.9,45.5c-4.3-2.7-8.6-5.2-13-7.6l-416,416c2.4,4.4,5,8.7,7.6,13L466.9,45.5z"/>
				
					<linearGradient id="SVGID_5_" gradientUnits="userSpaceOnUse" x1="53.63" y1="338.475" x2="491.4" y2="338.475" gradientTransform="matrix(1 0 0 -1 0 611)">
					<stop  offset="0" style="stop-color:#AF206E"/>
					<stop  offset="0.55" style="stop-color:#E34256"/>
					<stop  offset="1" style="stop-color:#EB8B23"/>
				</linearGradient>
				<path class="st4" d="M491.4,62.3c-3.9-3-7.9-5.9-12-8.7L53.6,479.4c2.8,4.1,5.7,8.1,8.7,12L491.4,62.3z"/>
				
					<linearGradient id="SVGID_6_" gradientUnits="userSpaceOnUse" x1="0" y1="457.91" x2="306.18" y2="457.91" gradientTransform="matrix(1 0 0 -1 0 611)">
					<stop  offset="0" style="stop-color:#AF206E"/>
					<stop  offset="0.55" style="stop-color:#E34256"/>
					<stop  offset="1" style="stop-color:#EB8B23"/>
				</linearGradient>
				<path class="st5" d="M306.2,0c-7.2,0-14.3,0.3-21.4,0.8l-284,284C0.3,291.9,0,299,0,306.2L306.2,0z"/>
				
					<linearGradient id="SVGID_7_" gradientUnits="userSpaceOnUse" x1="292.11" y1="158.675" x2="612.54" y2="158.675" gradientTransform="matrix(1 0 0 -1 0 611)">
					<stop  offset="0" style="stop-color:#AF206E"/>
					<stop  offset="0.55" style="stop-color:#E34256"/>
					<stop  offset="1" style="stop-color:#EB8B23"/>
				</linearGradient>
				<path class="st6" d="M612.5,306.3c0-4.8-0.1-9.5-0.3-14.2L292.1,612.2c4.7,0.2,9.4,0.3,14.2,0.3c2.1,0,4.1,0,6.2-0.1l300-300
					C612.5,310.4,612.5,308.3,612.5,306.3z"/>
				
					<linearGradient id="SVGID_8_" gradientUnits="userSpaceOnUse" x1="16.33" y1="499.16" x2="207.35" y2="499.16" gradientTransform="matrix(1 0 0 -1 0 611)">
					<stop  offset="0" style="stop-color:#AF206E"/>
					<stop  offset="0.55" style="stop-color:#E34256"/>
					<stop  offset="1" style="stop-color:#EB8B23"/>
				</linearGradient>
				<path class="st7" d="M207.4,16.3c-12,4.1-23.7,8.9-35.1,14.5L30.8,172.2c-5.6,11.4-10.4,23.1-14.5,35.1L207.4,16.3z"/>
				
					<linearGradient id="SVGID_9_" gradientUnits="userSpaceOnUse" x1="65.62" y1="519.785" x2="116.81" y2="519.785" gradientTransform="matrix(1 0 0 -1 0 611)">
					<stop  offset="0" style="stop-color:#AF206E"/>
					<stop  offset="0.55" style="stop-color:#E34256"/>
					<stop  offset="1" style="stop-color:#EB8B23"/>
				</linearGradient>
				<path class="st8" d="M65.6,116.8l51.2-51.2C97.8,80.6,80.6,97.8,65.6,116.8z"/>
				
					<linearGradient id="SVGID_10_" gradientUnits="userSpaceOnUse" x1="3.24" y1="478.535" x2="261.69" y2="478.535" gradientTransform="matrix(1 0 0 -1 0 611)">
					<stop  offset="0" style="stop-color:#AF206E"/>
					<stop  offset="0.55" style="stop-color:#E34256"/>
					<stop  offset="1" style="stop-color:#EB8B23"/>
				</linearGradient>
				<path class="st9" d="M261.7,3.2c-8.6,1.3-17.1,2.9-25.4,4.8L8.1,236.3c-2,8.4-3.6,16.8-4.8,25.4L261.7,3.2z"/>
				
					<linearGradient id="SVGID_11_" gradientUnits="userSpaceOnUse" x1="24.37" y1="378.645" x2="440.34" y2="378.645" gradientTransform="matrix(1 0 0 -1 0 611)">
					<stop  offset="0" style="stop-color:#AF206E"/>
					<stop  offset="0.55" style="stop-color:#E34256"/>
					<stop  offset="1" style="stop-color:#EB8B23"/>
				</linearGradient>
				<path class="st10" d="M440.3,30.8c-4.7-2.3-9.4-4.4-14.2-6.5L24.4,426.2c2,4.8,4.2,9.5,6.5,14.2L440.3,30.8z"/>
				
					<linearGradient id="SVGID_12_" gradientUnits="userSpaceOnUse" x1="254.85" y1="178.19" x2="610.73" y2="178.19" gradientTransform="matrix(1 0 0 -1 0 611)">
					<stop  offset="0" style="stop-color:#AF206E"/>
					<stop  offset="0.55" style="stop-color:#E34256"/>
					<stop  offset="1" style="stop-color:#EB8B23"/>
				</linearGradient>
				<path class="st11" d="M610.7,273c-0.7-6.1-1.5-12.1-2.5-18.1L254.9,608.2c6,1,12,1.8,18.1,2.5L610.7,273z"/>
				
					<linearGradient id="SVGID_13_" gradientUnits="userSpaceOnUse" x1="334.32" y1="138.235" x2="611.24" y2="138.235" gradientTransform="matrix(1 0 0 -1 0 611)">
					<stop  offset="0" style="stop-color:#AF206E"/>
					<stop  offset="0.55" style="stop-color:#E34256"/>
					<stop  offset="1" style="stop-color:#EB8B23"/>
				</linearGradient>
				<path class="st12" d="M608.2,358c1.3-7.8,2.4-15.7,3.1-23.7L334.3,611.2c8-0.7,15.9-1.7,23.7-3.1L608.2,358z"/>
				
					<linearGradient id="SVGID_14_" gradientUnits="userSpaceOnUse" x1="452.8" y1="96.965" x2="575.27" y2="96.965" gradientTransform="matrix(1 0 0 -1 0 611)">
					<stop  offset="0" style="stop-color:#AF206E"/>
					<stop  offset="0.55" style="stop-color:#E34256"/>
					<stop  offset="1" style="stop-color:#EB8B23"/>
				</linearGradient>
				<path class="st13" d="M575.3,452.8L452.8,575.3C504.5,547,547,504.5,575.3,452.8z"/>
				
					<linearGradient id="SVGID_15_" gradientUnits="userSpaceOnUse" x1="221.24" y1="197.975" x2="604.81" y2="197.975" gradientTransform="matrix(1 0 0 -1 0 611)">
					<stop  offset="0" style="stop-color:#AF206E"/>
					<stop  offset="0.55" style="stop-color:#E34256"/>
					<stop  offset="1" style="stop-color:#EB8B23"/>
				</linearGradient>
				<path class="st14" d="M604.8,237.6c-1.3-5.5-2.7-11-4.2-16.4L221.2,600.6c5.4,1.5,10.9,3,16.4,4.2L604.8,237.6z"/>
				
					<linearGradient id="SVGID_16_" gradientUnits="userSpaceOnUse" x1="71.44" y1="318.345" x2="513.84" y2="318.345" gradientTransform="matrix(1 0 0 -1 0 611)">
					<stop  offset="0" style="stop-color:#AF206E"/>
					<stop  offset="0.55" style="stop-color:#E34256"/>
					<stop  offset="1" style="stop-color:#EB8B23"/>
				</linearGradient>
				<path class="st15" d="M513.8,81.1c-3.6-3.3-7.2-6.5-11-9.7L71.4,502.9c3.1,3.7,6.3,7.4,9.7,11L513.8,81.1z"/>
				
					<linearGradient id="SVGID_17_" gradientUnits="userSpaceOnUse" x1="384.33" y1="117.595" x2="602.48" y2="117.595" gradientTransform="matrix(1 0 0 -1 0 611)">
					<stop  offset="0" style="stop-color:#AF206E"/>
					<stop  offset="0.55" style="stop-color:#E34256"/>
					<stop  offset="1" style="stop-color:#EB8B23"/>
				</linearGradient>
				<path class="st16" d="M592.8,414.7c3.8-9.9,7-20.1,9.7-30.3L384.3,602.5c10.3-2.7,20.4-5.9,30.3-9.7L592.8,414.7z"/>
				
					<linearGradient id="SVGID_18_" gradientUnits="userSpaceOnUse" x1="113" y1="278.095" x2="552.84" y2="278.095" gradientTransform="matrix(1 0 0 -1 0 611)">
					<stop  offset="0" style="stop-color:#AF206E"/>
					<stop  offset="0.55" style="stop-color:#E34256"/>
					<stop  offset="1" style="stop-color:#EB8B23"/>
				</linearGradient>
				<path class="st17" d="M552.8,124.6c-2.9-3.9-5.9-7.8-9-11.6L113,543.8c3.8,3.1,7.7,6.1,11.6,9L552.8,124.6z"/>
				
					<linearGradient id="SVGID_19_" gradientUnits="userSpaceOnUse" x1="91.23" y1="298.22" x2="534.32" y2="298.22" gradientTransform="matrix(1 0 0 -1 0 611)">
					<stop  offset="0" style="stop-color:#AF206E"/>
					<stop  offset="0.55" style="stop-color:#E34256"/>
					<stop  offset="1" style="stop-color:#EB8B23"/>
				</linearGradient>
				<path class="st18" d="M534.3,101.9c-3.2-3.6-6.6-7.2-10-10.6L91.2,524.3c3.5,3.4,7,6.7,10.6,10L534.3,101.9z"/>
				
					<linearGradient id="SVGID_20_" gradientUnits="userSpaceOnUse" x1="190.6301" y1="217.92" x2="595.59" y2="217.92" gradientTransform="matrix(1 0 0 -1 0 611)">
					<stop  offset="0" style="stop-color:#AF206E"/>
					<stop  offset="0.55" style="stop-color:#E34256"/>
					<stop  offset="1" style="stop-color:#EB8B23"/>
				</linearGradient>
				<path class="st19" d="M595.6,205.6c-1.8-5-3.6-10-5.7-15L190.6,589.9c4.9,2,9.9,3.9,15,5.7L595.6,205.6z"/>
				
					<linearGradient id="SVGID_21_" gradientUnits="userSpaceOnUse" x1="162.55" y1="237.905" x2="583.64" y2="237.905" gradientTransform="matrix(1 0 0 -1 0 611)">
					<stop  offset="0" style="stop-color:#AF206E"/>
					<stop  offset="0.55" style="stop-color:#E34256"/>
					<stop  offset="1" style="stop-color:#EB8B23"/>
				</linearGradient>
				<path class="st20" d="M583.6,176.3c-2.2-4.7-4.5-9.2-6.9-13.7L162.6,576.8c4.5,2.4,9.1,4.7,13.7,6.9L583.6,176.3z"/>
				
					<linearGradient id="SVGID_22_" gradientUnits="userSpaceOnUse" x1="136.72" y1="257.97" x2="569.32" y2="257.97" gradientTransform="matrix(1 0 0 -1 0 611)">
					<stop  offset="0" style="stop-color:#AF206E"/>
					<stop  offset="0.55" style="stop-color:#E34256"/>
					<stop  offset="1" style="stop-color:#EB8B23"/>
				</linearGradient>
				<path class="st21" d="M569.3,149.4c-2.6-4.3-5.2-8.5-8-12.6L136.7,561.3c4.1,2.8,8.4,5.4,12.6,8L569.3,149.4z"/>
			</g>
		</g>
	</g>
</g>
</svg>
