<svg xmlns="http://www.w3.org/2000/svg" width="738.806" height="146.5" viewBox="0 0 738.806 146.5">
    <defs>
        <style>
            .prefix__cls-1{fill:#fff}
        </style>
    </defs>
    <g id="prefix__logo_white_horizontal_with_marketing" data-name="logo / white / horizontal / with marketing">
        <g id="prefix__logo_white_horizontal_with_marketing-2" data-name="logo / white / horizontal / with marketing">
            <path id="prefix__Path_116" d="M-2662.246-1260.733c-1.184-1.384-3.142-3.084-4.977-3.434-2.167-.415-3.677 1.788-4.948 3.164q-.571.619-1.156 1.22c-8.327 8.579-28.585 25.437-39.912 12.753-2.605-2.916-3.573-6.463-3.741-10.283-.054-1.22.078-1.236 1.279-1.532a66.6 66.6 0 0 0 8.333-2.305 66.974 66.974 0 0 0 20.753-13.383c4.765-4.362 8.773-9.294 10.512-15.7a13.524 13.524 0 0 0-1.257-10.98c-2.914-4.8-7.552-6.727-12.843-7.345-6.33-.739-12.146 1-17.545 4.171-10.319 6.06-17.753 14.783-23.06 25.4a49.568 49.568 0 0 0-4.572 13.478 41.858 41.858 0 0 1-7.865-.677c-6.515-1.163-8.941-4.5-8.805-6.258q.7-1.141 1.4-2.291a82.955 82.955 0 0 0 8.321-17.071 7.7 7.7 0 0 0-.14-6.2 19.289 19.289 0 0 0-11.832-9.552c-2.333-.737-3.008-.124-3.753 2.233-.845 2.667-1.73 5.331-2.746 7.938a189.205 189.205 0 0 1-9.781 20.9c-5.545 10.318-11.207 20.571-18.089 30.077a68.173 68.173 0 0 1-5.233 6.084 1.925 1.925 0 0 1-1.7.517c-.4-.186-.69-1.065-.685-1.634a22.831 22.831 0 0 1 .4-4.043 117.058 117.058 0 0 1 5.154-17.146c2.662-7.384 5.571-14.691 7.1-22.433a12.342 12.342 0 0 0-.418-7.015 18.3 18.3 0 0 0-7.189-8.465 16.814 16.814 0 0 0-7.884-3.192c-2.293-.212-3.36.681-3.539 2.954-.15 1.906-.227 3.823-.445 5.721-.25 2.2-.564 4.4-.951 6.587-.479 2.7-1.027 5.389-1.6 8.071-.64 2.982-1.325 5.954-2.028 8.922-1.051 4.444-1.988 7.79-3.052 12.222a10.636 10.636 0 0 1-2.726 5.1c-1.326 1.164-2.542 2.453-3.881 3.6-4.055 3.474-10.059 7.109-15.614 5.563-4.786-1.332-5.245-6.575-4.514-10.77 1.116-6.4 9.041-18.308 12.453-23.825a4.14 4.14 0 0 0-.054-4.885 15.041 15.041 0 0 0-5.432-5.057 16.025 16.025 0 0 0-4.528-1.758c-2.631-.529-4.682.653-6.368 2.693-8.932 10.8-23.16 26.873-33.968 35.791-2.856 2.355-5.733 4.692-9.208 6.114-1.071.437-2.261.833-3.246-.01-1.054-.9-.769-2.175-.521-3.374a29.078 29.078 0 0 1 3.39-8.153 72.013 72.013 0 0 1 14.646-18.132 81.545 81.545 0 0 1 25.625-16.221c2.866-1.112 5.828-1.981 8.757-2.918 1.354-.43 1.736-.845 1.652-2.253a9.018 9.018 0 0 0-1.887-4.652c-2.6-3.667-5.91-6.226-10.618-6.31a35.036 35.036 0 0 0-11.631 1.93 56.6 56.6 0 0 0-18.562 10.68c-1.781 1.488-3.483 3.044-5.123 4.654-5.693 1.073-23.951-.062-25.295-8.984a7.712 7.712 0 0 0-.637-1.622c-2.647-5.4-7.157-8.335-12.9-9.494-2.191-.443-3.072.5-3.524 2.713a228.515 228.515 0 0 1-8.555 32.2c-3.32 9.148-7.736 18.549-15.1 25.155-.206.186-.417.37-.628.551a12.4 12.4 0 0 1-7.047 3.224 3.682 3.682 0 0 1-4.1-2.483 9.244 9.244 0 0 1-.707-3.681 63.758 63.758 0 0 1 1.239-9.264 110.023 110.023 0 0 1 5.72-16.968 16.1 16.1 0 0 0 1.248-3.763c.362-2.575-1.186-4.28-3.16-5.563-3.613-2.349-8.994-4.752-13.391-4.352-4.734.432-6.334 5.852-7.332 9.7-3.2 12.37-7.58 26.144-17.655 34.737a12.414 12.414 0 0 1-7.043 3.224c-11.311.977 2.253-34.263 3.278-39.229a15.226 15.226 0 0 0-.424-8.363 20.407 20.407 0 0 0-9.32-10.788 11.985 11.985 0 0 0-6.376-2.027 2.229 2.229 0 0 0-2.3 1.42 14.3 14.3 0 0 0-.511 2.027c-3.008 15.348-8.517 30.59-8.912 46.523-.262 10.654 1.8 23.8 13.949 26.527a21.965 21.965 0 0 0 13.271-1.492 50.128 50.128 0 0 0 15.5-10.366q1.913-1.8 3.713-3.681a22.992 22.992 0 0 0 1.716 4.9c2.273 4.67 5.806 7.892 10.983 9.052 18.634 4.178 33.575-12.717 42.748-26.6a109.028 109.028 0 0 0 14.236-30.017c4.682 3.541 16.988 4.6 20.812 3.947a93.517 93.517 0 0 0-7.494 10.608c-4.925 8.123-8.85 16.644-9.969 26.22a21.9 21.9 0 0 0 1.005 10.219 10.321 10.321 0 0 0 10.289 7.1 24.341 24.341 0 0 0 10.444-2.818 70.493 70.493 0 0 0 15.358-10.386c5.119-4.4 10.079-8.99 15.112-13.5.288-.256.6-.486 1.083-.881-.3 1.472-.562 2.693-.811 3.915-1.228 6.034-.777 13.4 4.526 17.419 4.16 3.15 9.869 3.527 14.865 2.884 8.505-1.1 15.522-5.619 21.515-11.641-.048 1.157-.086 2.313-.056 3.468a23.194 23.194 0 0 0 3.415 12.314c2.221 3.431 5.283 5.241 9.506 4.8a19.9 19.9 0 0 0 7.849-2.826 63.308 63.308 0 0 0 13.312-10.68 172.288 172.288 0 0 0 19.764-23.905 31.876 31.876 0 0 0 11.1 4.734c3.417.745 8.181.577 11.709.479a26.757 26.757 0 0 0 .2 3.048 36.533 36.533 0 0 0 1.06 4.965 23.519 23.519 0 0 0 10.562 13.534c17.276 10.448 37.859 1.013 51.689-10.273 2.686-2.193 5.335-5.515 7.889-7.866 1.927-1.794 4.68-4.748 2.434-7.374zm-51.768-11.835a48.934 48.934 0 0 1 13.8-18.655 14.883 14.883 0 0 1 5.691-3.188 7.729 7.729 0 0 1 2.651-.184 1.879 1.879 0 0 1 1.737 1.776 7.669 7.669 0 0 1-1.12 4.572 36.845 36.845 0 0 1-9.545 11.01 53.823 53.823 0 0 1-13.5 8.2c-.262.11-.539.19-.809.284l-.259-.224c.451-1.2.841-2.423 1.355-3.591z" class="prefix__cls-1" data-name="Path 116" transform="translate(3400.212 1326.054)"/>
            <path id="prefix__Path_117" d="M-2976.608-1243.576l-5.709-14.7h-7.013v23.506h5v-16.951l6.625 16.951h2.185l6.625-16.951v16.951h5.04v-23.506h-7.048z" class="prefix__cls-1" data-name="Path 117" transform="translate(3436.536 1379.59)"/>
            <path id="prefix__Path_118" d="M-2963.817-1258.271l-9.058 23.5h5.673l1.48-3.981h10.079l1.48 3.981h5.673l-9.056-23.5zm-.531 15.118l3.667-10.113 3.665 10.113z" class="prefix__cls-1" data-name="Path 118" transform="translate(3453.034 1379.59)"/>
            <path id="prefix__Path_119" d="M-2938.042-1250.7c0-4.37-3.032-7.576-7.93-7.576h-10.994v23.5h5v-8.353h3.665l4.616 8.353h5.78l-5.321-8.952a6.8 6.8 0 0 0 5.184-6.972zm-8.635 3.172h-5.285v-6.344h5.285c1.975 0 3.489 1.2 3.489 3.138a3.187 3.187 0 0 1-3.489 3.211z" class="prefix__cls-1" data-name="Path 119" transform="translate(3468.984 1379.59)"/>
            <path id="prefix__Path_120" d="M-2923.523-1258.271h-6.167l-8.317 10.467v-10.467h-5v23.506h5v-7.224l1.833-2.22 7.119 9.445h6.167l-9.973-12.475z" class="prefix__cls-1" data-name="Path 120" transform="translate(3482.977 1379.59)"/>
            <path id="prefix__Path_121" d="M-2929.179-1234.766h16.633v-4.406h-11.629v-5.356h11.383v-4.406h-11.383v-4.934h11.629v-4.4h-16.633z" class="prefix__cls-1" data-name="Path 121" transform="translate(3496.844 1379.59)"/>
            <path id="prefix__Path_122" d="M-2917-1253.867h6.872v19.1h5.04v-19.1h6.837v-4.4H-2917z" class="prefix__cls-1" data-name="Path 122" transform="translate(3509.054 1379.59)"/>
            <path id="prefix__Rectangle_17" d="M0 0H5.004V23.506H0z" class="prefix__cls-1" data-name="Rectangle 17" transform="translate(619.296 121.318)"/>
            <path id="prefix__Path_123" d="M-2879.2-1243.506l-10.889-14.766h-5.145v23.506h5v-15.33l11.207 15.33h4.828v-23.506h-5z" class="prefix__cls-1" data-name="Path 123" transform="translate(3530.88 1379.59)"/>
            <path id="prefix__Path_124" d="M-2869.015-1243.2h6.2v2.818a7.83 7.83 0 0 1-4.97 1.8c-4.3 0-7.4-3.278-7.4-7.718s3.1-7.718 7.4-7.718a6.759 6.759 0 0 1 5.569 3.066l4.124-2.255a10.975 10.975 0 0 0-9.693-5.251c-6.907 0-12.544 4.722-12.544 12.158 0 7.4 5.637 12.158 12.544 12.158a13 13 0 0 0 9.973-4.4v-9.022h-11.207z" class="prefix__cls-1" data-name="Path 124" transform="translate(3545.825 1379.396)"/>
            <path id="prefix__Path_125" d="M-3123.225-1314.1c-15.8-6.112-31.994-6.23-48.051-.923-16.087 5.315-28.042 15.642-35.254 31.035-6.526 13.93-7.649 28.533-4.209 43.445a57.6 57.6 0 0 0 24.454 35.883c11.383 7.726 24.137 10.876 36.824 10.988 9.583-.038 18.012-1.336 26.1-4.456 15.454-5.962 26.792-16.365 33.488-31.541a64.673 64.673 0 0 0 3.9-40.709c-4.595-21.115-17.053-35.907-37.252-43.722zm2.776 78.51c-5.239 8.255-13.091 12.647-22.678 13.966a35.9 35.9 0 0 1-19.633-2.407c-10.769-4.722-16.73-13.217-18.923-24.558-.249-1.288-.4-2.6-.523-3.909-.112-1.22-.12-2.451-.158-3.328.064-8.353 1.918-15.821 6.751-22.351 5.567-7.526 13.189-11.519 22.383-12.625a36.3 36.3 0 0 1 18.859 2.437 30.148 30.148 0 0 1 17.627 19.285c3.717 11.649 2.956 22.996-3.705 33.492z" class="prefix__cls-1" data-name="Path 125" transform="translate(3212.641 1318.851)"/>
            <path id="prefix__Path_126" d="M-3036.626-1282.389c-3.761-15.414-12.589-26.641-27.654-32.258-13.967-5.207-28.3-5.375-42.63-1.538-12.012 3.214-21.31 10.141-27.318 21.154a55.332 55.332 0 0 0-6.49 26.581c-.144 23.731-.072 47.464-.08 71.2a10.422 10.422 0 0 0 .106 1.1h29.034v-34.006h47.1v34.034h29.765v-1.52q0-33.887.008-67.777a70.992 70.992 0 0 0-1.841-16.97zm-29 26.382q-22.737-.033-45.478-.028a1.658 1.658 0 0 1-.35-.074c0-4.969-.222-9.841.084-14.677a28.388 28.388 0 0 1 1.908-8.279c2.413-6.262 7.231-9.867 13.742-11.245a34.689 34.689 0 0 1 16.824.415c6.9 1.952 11.182 6.579 12.953 13.438a41.436 41.436 0 0 1 1.208 7.906c.219 3.805.093 7.63.145 11.445.011.761-.195 1.106-1.035 1.1z" class="prefix__cls-1" data-name="Path 126" transform="translate(3284.66 1318.865)"/>
            <path id="prefix__Path_127" d="M-2985.343-1213.8c-16.9-11.505-25.046-34.335-28.3-45.684q1.928-1.971 3.763-4.107c18.344-21.444 23.412-43.573 24.348-48.451a138.466 138.466 0 0 0-13.632-3.08c-5.141-.815-10.151-.006-13.311-.146a83.736 83.736 0 0 1-17.835 34.373 78.725 78.725 0 0 1-16.76 14.271c-.01-21.362-.016-42.976 0-49.372 0-1.14-.21-1.6-1.5-1.586-8.963.058-17.929.03-26.9.034-.429 0-.857.038-1.333.062v120.086h29.772c0-6.1-.01-21.594-.022-39.522 2.926-1.3 6.1-2.84 9.39-4.648 5.8 15.665 16.758 36.782 36.328 50.1 22.525 15.33 52.252 17.855 69.4 17.855 4.364 0 7.91-.164 10.319-.323a138.292 138.292 0 0 0 .9-13.884 117.165 117.165 0 0 0-.981-13.444c-4.629.391-40.946 2.912-63.646-12.534z" class="prefix__cls-1" data-name="Path 127" transform="translate(3348.835 1320.12)"/>
        </g>
    </g>
</svg>
