<svg xmlns="http://www.w3.org/2000/svg" width="360.114" height="360.449" viewBox="0 0 360.114 360.449">
    <defs>
        <linearGradient id="prefix__linear-gradient" x2="1" y1=".5" y2=".5" gradientUnits="objectBoundingBox">
            <stop offset=".03" stop-color="#f1f2f2"/>
            <stop offset="1" stop-color="#fff"/>
        </linearGradient>
        <style>
            .prefix__cls-2,.prefix__cls-3{fill:none;stroke:#5f2d78;stroke-miterlimit:10;opacity:.25;stroke-width:.488px}.prefix__cls-7{fill:#2e1a47}
        </style>
    </defs>
    <g id="prefix__logo_white_horiontal_square_on_background" data-name="logo / white / horiontal / square / on background" transform="translate(0 .215)">
        <g id="prefix__Artwork_53" data-name="Artwork 53" transform="translate(180 180.065)">
            <g id="prefix__Group_1482" data-name="Group 1482" transform="translate(-180 -180.065)">
                <path id="prefix__Rectangle_8354" d="M0 0H360V360H0z" data-name="Rectangle 8354" transform="matrix(0 1 -1 0 360 .13)"/>
                <path id="prefix__Path_33745" d="M356.27.2s-1.367 16.145 3.841 23.241 21.873 12.369 28.188 23.5 11.262 20.9 9.9 32.94-7.682 15.884-9.9 23.241-7.226 21.939-14 29.881-45.5 37.042-51.1 87.884 3.58 59.957 16.014 70.242 39.646 32.615 59.241 36.716 34.047 2.929 43.942 11.2 15.3 21.092 15.3 21.092" class="prefix__cls-2" data-name="Path 33745" transform="translate(-112.147 -.2)"/>
                <path id="prefix__Path_33746" d="M282.233 376.963s-4.3-1.3-11.262-8.919-18.814-21.743-35.219-34.307-29.425-22.069-34.047-44.4 0-59.826 17.382-102.727 19.074-44.723 18.814-55.465-7.812-25.844-14.387-36.521-15.1-24.933-18.033-31.248-3.841-12.89-10.611-14.517-10.351-.976-24.152 12.629-43.486 35.349-50.192 48.825c-18.163 36.326-16.47 67.443-30.206 91.335-19.465 34.052-93.874 56.443-78.705 106.83 9.179 30.532 54.358 8.007 86.908 39.385C112.649 361.469 113.3 376.9 113.3 376.9" class="prefix__cls-3" data-name="Path 33746" transform="translate(-3.282 -16.963)"/>
                <path id="prefix__Path_33747" d="M265.165 405.139a68.627 68.627 0 0 0-17.707-25.844c-12.564-11.067-32.42-22.2-39.19-42.054s-5.338-39.776 0-64.514 22.915-75.125 22.524-89.967-1.107-38.148-27.081-50.647-56.571 14.582-63.537 39.515-13.8 58.394-27.8 74.148-51.3 36.846-50.582 66.857 41.794 24.022 61.128 46.025 21.939 46.416 21.939 46.416" class="prefix__cls-2" data-name="Path 33747" transform="translate(-21.498 -45.139)"/>
                <path id="prefix__Path_33748" d="M255.932 423.253s-4.231-10.351-22-23.957-29.816-25.519-32.289-35.935 3.255-52.535 9.309-79.291 15.624-54.228 14.192-71.674-9.114-27.016-20.7-30.6-28.839 2.148-41.729 34.438-14.647 37.432-21.678 47.718-43.486 36.651-39.125 58.59 29.034 29.75 41.859 38.669 22 16.8 25.584 30.857 2.929 31.183 2.929 31.183" class="prefix__cls-3" data-name="Path 33748" transform="translate(-35.375 -63.253)"/>
                <path id="prefix__Path_33749" d="M141.987.2S97.979 23.766 87.238 49.871s-13.606 61.193-25.779 76.752S.2 194 .2 194" class="prefix__cls-3" data-name="Path 33749" transform="translate(-.005 -.2)"/>
                <path id="prefix__Path_33750" d="M499.005 307.535s-23.7-32.81-37.3-36.586-40.036 7.617-51.494-11.132-17.186-43.942-2.864-63.993 34.307-15.429 53.642-30.336 38.018-56.962 38.018-75.58-13.671-68.159-17.251-71.87S467.432.2 467.432.2" data-name="Path 33750" transform="translate(-139.135 -.2)" style="stroke-width:.488px;fill:none;stroke:#5f2d78;stroke-miterlimit:10;opacity:.25"/>
                <path id="prefix__Path_33751" d="M509.284 350.615s-20.116-24.868-36.586-24.543-44.4 7.747-44.4-17.447S452 273.8 468.792 273.016s33.266-22.264 33.266-22.264l7.226-14.452" data-name="Path 33751" transform="translate(-149.414 -82.6)" style="stroke-width:.488px;fill:none;stroke:#5f2d78;stroke-miterlimit:10;opacity:.25"/>
                <path id="prefix__Path_33752" d="M534.935 340.934s-12.239-11.588-27.993-16.861 9.309-19.269 13.606-22.98 14.387-8.593 14.387-8.593" data-name="Path 33752" transform="translate(-175.066 -102.214)" style="stroke-width:.488px;fill:none;stroke:#5f2d78;stroke-miterlimit:10;opacity:.25"/>
                <g id="prefix__Group_1481" data-name="Group 1481" transform="translate(59.911 156.29)">
                    <path id="prefix__Path_33753" d="M397.118 264.02a3.32 3.32 0 0 0-1.628-1.107c-.716-.13-1.172.586-1.627 1.042l-.391.391c-2.734 2.8-9.309 8.268-12.955 4.166a5.143 5.143 0 0 1-1.237-3.32c0-.391 0-.391.391-.521a18.033 18.033 0 0 0 9.439-5.078 10.807 10.807 0 0 0 3.385-5.078 4.427 4.427 0 0 0-.391-3.58 5.3 5.3 0 0 0-4.166-2.409 8.984 8.984 0 0 0-5.729 1.367 19.2 19.2 0 0 0-7.486 8.268 16.08 16.08 0 0 0-1.5 4.362 13.607 13.607 0 0 1-2.539-.2c-2.148-.391-2.929-1.432-2.864-2.018l.456-.716a26.95 26.95 0 0 0 2.734-5.533 2.473 2.473 0 0 0-.065-2.018 6.249 6.249 0 0 0-3.841-3.125c-.781-.26-.977-.065-1.237.716s-.586 1.758-.911 2.6a61.522 61.522 0 0 1-3.19 6.77 85.414 85.414 0 0 1-5.859 9.765 22.2 22.2 0 0 1-1.693 1.953.651.651 0 0 1-.521.2c-.13-.065-.2-.326-.2-.521a7.358 7.358 0 0 1 .13-1.3 38.02 38.02 0 0 1 1.693-5.6 50.454 50.454 0 0 0 2.279-7.291 4.036 4.036 0 0 0-.13-2.278 5.924 5.924 0 0 0-2.344-2.734 5.468 5.468 0 0 0-2.539-1.042c-.716-.065-1.107.2-1.172.976s-.065 1.237-.13 1.888-.2 1.432-.326 2.148-.326 1.758-.521 2.6l-.651 2.929c-.326 1.432-.651 2.539-.977 3.971a3.451 3.451 0 0 1-.911 1.628l-1.237 1.042c-1.3 1.107-3.255 2.278-5.078 1.823s-1.693-2.148-1.5-3.515 2.929-5.924 4.036-7.747a1.367 1.367 0 0 0 0-1.562 4.882 4.882 0 0 0-1.758-1.627 5.208 5.208 0 0 0-1.5-.586 2.083 2.083 0 0 0-2.018.846 104.086 104.086 0 0 1-11.067 11.653 11.848 11.848 0 0 1-2.995 2.018.977.977 0 0 1-1.042 0c-.326-.26-.26-.716-.2-1.107a9.438 9.438 0 0 1 1.107-2.669 23.435 23.435 0 0 1 4.752-5.924 26.5 26.5 0 0 1 8.333-5.273l2.864-.977c.456-.13.586-.26.521-.716a2.929 2.929 0 0 0-.586-1.5 4.231 4.231 0 0 0-3.45-2.083 11.392 11.392 0 0 0-3.776.651 18.424 18.424 0 0 0-6.054 3.45l-1.693 1.5c-1.823.326-7.812 0-8.2-2.929l-.2-.521a5.6 5.6 0 0 0-4.166-3.06c-.716-.13-.977.2-1.172.911a74.346 74.346 0 0 1-2.8 10.481c-1.107 2.995-2.539 6.054-4.882 8.2l-.2.2a4.036 4.036 0 0 1-2.278 1.042 1.172 1.172 0 0 1-1.3-.781 3 3 0 0 1-.26-1.172 20.772 20.772 0 0 1 .391-2.995 35.743 35.743 0 0 1 1.888-5.533 5.273 5.273 0 0 0 .391-1.237 1.823 1.823 0 0 0-1.042-1.823 7.6 7.6 0 0 0-4.362-1.432c-1.432.13-2.083 1.888-2.409 3.125-1.042 4.036-2.474 8.528-5.729 11.262a4.036 4.036 0 0 1-2.278 1.042c-3.646.326.716-11.132 1.042-12.759a4.948 4.948 0 0 0-.13-2.734 6.64 6.64 0 0 0-3.06-3.515 3.906 3.906 0 0 0-2.083-.651.716.716 0 0 0-.781.456 4.557 4.557 0 0 0-.2.651c-.977 5.013-2.8 9.96-2.864 15.1-.065 3.45.586 7.747 4.557 8.593a7.161 7.161 0 0 0 4.3-.456 16.275 16.275 0 0 0 5.013-3.385L294 268.9a7.423 7.423 0 0 0 .586 1.562 5.078 5.078 0 0 0 3.58 2.929c6.054 1.367 10.937-4.166 13.866-8.658a35.479 35.479 0 0 0 4.622-9.765c1.5 1.172 5.533 1.5 6.77 1.3a30.337 30.337 0 0 0-2.409 3.45 21.157 21.157 0 0 0-3.255 8.528 7.1 7.1 0 0 0 .326 3.32 3.385 3.385 0 0 0 3.32 2.279 7.942 7.942 0 0 0 3.385-.911 22.916 22.916 0 0 0 5.013-3.385l4.882-4.362.326-.26-.26 1.3c-.391 1.953-.26 4.362 1.5 5.664a5.567 5.567 0 0 0 4.817.911 11.753 11.753 0 0 0 6.966-3.776v1.107a7.551 7.551 0 0 0 1.107 3.971 3.06 3.06 0 0 0 3.06 1.562 6.445 6.445 0 0 0 2.539-.911 20.573 20.573 0 0 0 4.3-3.45 55.92 55.92 0 0 0 6.445-7.747 10.352 10.352 0 0 0 3.581 1.562 17.578 17.578 0 0 0 3.776.13 8.591 8.591 0 0 0 .065.977 11.849 11.849 0 0 0 .325 1.627 7.617 7.617 0 0 0 3.45 4.427c5.6 3.385 12.3.326 16.8-3.32.846-.716 1.758-1.823 2.539-2.539s1.812-1.49 1.096-2.402zm-16.861-3.841a15.885 15.885 0 0 1 4.492-6.054 4.817 4.817 0 0 1 1.823-1.042h.846a.586.586 0 0 1 .586.586 2.474 2.474 0 0 1-.391 1.5 11.979 11.979 0 0 1-3.125 3.58 17.511 17.511 0 0 1-4.362 2.669h-.26z" class="prefix__cls-7" data-name="Path 33753" transform="translate(-157.182 -242.784)"/>
                    <path id="prefix__Path_33754" d="M319.4 305.652l-1.823-4.752H315.3v7.617h1.628v-5.468l2.148 5.468h.716l2.148-5.468v5.468h1.627V300.9h-2.278z" class="prefix__cls-7" data-name="Path 33754" transform="translate(-169.888 -261.436)"/>
                    <path id="prefix__Path_33755" d="M334.729 300.9l-2.929 7.617h1.823l.456-1.3h3.255l.456 1.3h1.823l-2.929-7.617zm-.2 4.882l1.172-3.32 1.172 3.32z" class="prefix__cls-7" data-name="Path 33755" transform="translate(-175.646 -261.436)"/>
                    <path id="prefix__Path_33756" d="M353.784 303.37a2.409 2.409 0 0 0-2.6-2.474H347.6v7.617h1.627v-2.734h1.237l1.5 2.734h1.888l-1.758-2.929a2.213 2.213 0 0 0 1.693-2.213zm-2.8 1.042h-1.693v-2.083h1.693a1.042 1.042 0 1 1 0 2.083z" class="prefix__cls-7" data-name="Path 33756" transform="translate(-181.161 -261.432)"/>
                    <path id="prefix__Path_33757" d="M367.915 300.9h-1.953l-2.734 3.385V300.9H361.6v7.617h1.627v-2.344l.586-.716 2.344 3.06h2.018l-3.255-4.036z" class="prefix__cls-7" data-name="Path 33757" transform="translate(-186.047 -261.436)"/>
                    <path id="prefix__Path_33758" d="M375.4 308.517h5.4v-1.432h-3.776v-1.693h3.711v-1.432h-3.711v-1.627h3.776V300.9h-5.4z" class="prefix__cls-7" data-name="Path 33758" transform="translate(-190.863 -261.436)"/>
                    <path id="prefix__Path_33759" d="M387.6 302.332h2.278v6.184h1.628v-6.184h2.213V300.9H387.6z" class="prefix__cls-7" data-name="Path 33759" transform="translate(-195.121 -261.436)"/>
                    <path id="prefix__Rectangle_8355" d="M0 0H1.627V7.643H0z" class="prefix__cls-7" data-name="Rectangle 8355" transform="translate(201.333 39.464)"/>
                    <path id="prefix__Path_33760" d="M414.608 305.717l-3.515-4.817H409.4v7.617h1.628v-4.948l3.646 4.948h1.562V300.9h-1.628z" class="prefix__cls-7" data-name="Path 33760" transform="translate(-202.729 -261.436)"/>
                    <path id="prefix__Path_33761" d="M427.743 305.63h2.018v.911a2.424 2.424 0 1 1-1.628-4.427 2.213 2.213 0 0 1 1.823.977l1.367-.716a3.58 3.58 0 0 0-3.125-1.693 3.971 3.971 0 1 0 0 7.877 4.231 4.231 0 0 0 3.255-1.432V304.2h-3.646z" class="prefix__cls-7" data-name="Path 33761" transform="translate(-207.727 -261.349)"/>
                    <path id="prefix__Path_33762" d="M121.01 241.863a22.59 22.59 0 0 0-15.624-.325 18.618 18.618 0 0 0-11.458 10.09 21.222 21.222 0 0 0-1.367 14.127 18.749 18.749 0 0 0 7.942 11.653 21.353 21.353 0 0 0 11.978 3.581 23.305 23.305 0 0 0 8.463-1.432 18.814 18.814 0 0 0 10.872-10.221 21.027 21.027 0 0 0 1.237-13.215 18.481 18.481 0 0 0-12.043-14.258zm.911 25.519a9.9 9.9 0 0 1-7.356 4.557 11.652 11.652 0 0 1-6.38-.781 10.127 10.127 0 0 1-6.119-8.007c-.065-.391-.13-.846-.2-1.3a7.1 7.1 0 0 1-.065-1.107 11.913 11.913 0 0 1 2.213-7.291 10.156 10.156 0 0 1 7.291-4.1 11.783 11.783 0 0 1 6.119.781 9.83 9.83 0 0 1 5.729 6.25 12.8 12.8 0 0 1-1.231 10.998z" class="prefix__cls-7" data-name="Path 33762" transform="translate(-91.931 -240.287)"/>
                    <path id="prefix__Path_33763" d="M197.671 252.141c-1.237-5.013-4.1-8.658-8.984-10.481a22.329 22.329 0 0 0-13.866-.521 13.736 13.736 0 0 0-8.854 6.9 17.967 17.967 0 0 0-2.083 8.658c-.065 7.747 0 15.429 0 23.175q.025.164.065.326h9.439v-11.066h15.3V280.2h9.7v-22.526a23.046 23.046 0 0 0-.717-5.533zm-9.439 8.593h-14.843c0-1.627-.065-3.19 0-4.752a9.244 9.244 0 0 1 .651-2.669 5.729 5.729 0 0 1 4.492-3.646 11.263 11.263 0 0 1 5.468.13 5.729 5.729 0 0 1 4.231 4.362 13.41 13.41 0 0 1 .391 2.539c.065 1.237 0 2.474.065 3.711-.065.26-.13.326-.391.326z" class="prefix__cls-7" data-name="Path 33763" transform="translate(-117.033 -240.279)"/>
                    <path id="prefix__Path_33764" d="M257.55 275.287c-5.468-3.711-8.137-11.132-9.179-14.843l1.237-1.367a36 36 0 0 0 7.942-15.754 44.992 44.992 0 0 0-4.427-.977 32.892 32.892 0 0 0-4.3-.065 27.212 27.212 0 0 1-5.794 11.2 25.584 25.584 0 0 1-5.468 4.622v-16.08c0-.391-.065-.521-.456-.521H227.8v39.06h9.7v-12.827l3.06-1.5c1.888 5.078 5.468 11.978 11.783 16.275s16.991 5.794 22.59 5.794l3.385-.13a44.915 44.915 0 0 0 .26-4.492 38.076 38.076 0 0 0-.325-4.362c-1.498.198-13.346.98-20.703-4.033z" class="prefix__cls-7" data-name="Path 33764" transform="translate(-139.35 -240.705)"/>
                </g>
            </g>
        </g>
    </g>
</svg>
