<svg xmlns="http://www.w3.org/2000/svg" id="prefix__logo_dark_horizontal_with_marketing" width="668.082" height="132.475" data-name="logo / dark / horizontal / with marketing" viewBox="0 0 668.082 132.475">
    <defs>
        <style>
            .prefix__cls-1{fill:#2e1a47}
        </style>
    </defs>
    <g id="prefix__Group_150" data-name="Group 150">
        <path id="prefix__Path_136" d="M-2125.267-1265.608a9.237 9.237 0 0 0-4.5-3.106c-1.961-.375-3.325 1.617-4.475 2.861q-.516.56-1.045 1.1c-7.53 7.758-25.849 23-36.091 11.532a14.328 14.328 0 0 1-3.385-9.3c-.047-1.1.072-1.117 1.159-1.385a60.213 60.213 0 0 0 7.535-2.084 60.568 60.568 0 0 0 18.767-12.1c4.309-3.944 7.934-8.4 9.506-14.2a12.232 12.232 0 0 0-1.137-9.929c-2.635-4.337-6.829-6.083-11.615-6.642-5.724-.668-10.981.9-15.864 3.772-9.333 5.48-16.054 13.368-20.853 22.971a44.828 44.828 0 0 0-4.134 12.187 37.84 37.84 0 0 1-7.111-.612c-5.891-1.052-8.086-4.069-7.965-5.659q.639-1.032 1.266-2.072a75.084 75.084 0 0 0 7.524-15.436 6.965 6.965 0 0 0-.126-5.606 17.443 17.443 0 0 0-10.7-8.638c-2.109-.667-2.72-.112-3.394 2.019-.764 2.412-1.564 4.821-2.484 7.178a170.933 170.933 0 0 1-8.843 18.9c-5.015 9.33-10.134 18.6-16.358 27.2a61.982 61.982 0 0 1-4.732 5.5 1.741 1.741 0 0 1-1.536.467c-.366-.168-.625-.963-.62-1.478a20.641 20.641 0 0 1 .359-3.656 106.036 106.036 0 0 1 4.659-15.505c2.408-6.677 5.04-13.285 6.421-20.286a11.171 11.171 0 0 0-.378-6.344 16.549 16.549 0 0 0-6.5-7.655 15.2 15.2 0 0 0-7.131-2.887c-2.071-.192-3.039.616-3.2 2.671-.136 1.724-.207 3.457-.4 5.174-.226 1.992-.511 3.982-.86 5.956-.433 2.441-.929 4.873-1.451 7.3-.578 2.7-1.2 5.384-1.833 8.068-.95 4.018-1.8 7.044-2.76 11.052a9.6 9.6 0 0 1-2.466 4.609c-1.2 1.052-2.3 2.219-3.508 3.256-3.667 3.142-9.1 6.429-14.12 5.031-4.328-1.2-4.742-5.945-4.082-9.739 1.009-5.789 8.174-16.555 11.26-21.544a3.743 3.743 0 0 0-.049-4.417 13.6 13.6 0 0 0-4.911-4.573 14.492 14.492 0 0 0-4.094-1.59c-2.38-.478-4.234.59-5.761 2.436-8.075 9.768-20.941 24.3-30.717 32.365a33.029 33.029 0 0 1-8.325 5.529c-.968.395-2.044.753-2.936-.009-.952-.813-.7-1.967-.473-3.051a26.29 26.29 0 0 1 3.068-7.372 65.121 65.121 0 0 1 13.243-16.4 73.739 73.739 0 0 1 23.172-14.668c2.592-1.005 5.27-1.791 7.919-2.639 1.223-.389 1.57-.764 1.494-2.037a8.153 8.153 0 0 0-1.706-4.207c-2.349-3.316-5.344-5.63-9.6-5.706a31.693 31.693 0 0 0-10.518 1.746 51.158 51.158 0 0 0-16.785 9.657c-1.61 1.346-3.149 2.753-4.634 4.208-5.147.971-21.657-.056-22.872-8.124a7 7 0 0 0-.576-1.467c-2.394-4.879-6.472-7.537-11.662-8.585-1.981-.4-2.78.455-3.187 2.454a206.961 206.961 0 0 1-7.736 29.116c-3 8.272-7 16.773-13.658 22.747-.188.168-.376.335-.571.5a11.2 11.2 0 0 1-6.37 2.916 3.328 3.328 0 0 1-3.7-2.245 8.362 8.362 0 0 1-.64-3.329 57.631 57.631 0 0 1 1.122-8.377 99.425 99.425 0 0 1 5.172-15.344 14.636 14.636 0 0 0 1.128-3.4c.328-2.329-1.074-3.87-2.857-5.031-3.267-2.124-8.133-4.3-12.11-3.935-4.281.391-5.728 5.292-6.629 8.774-2.9 11.186-6.854 23.641-15.967 31.412a11.22 11.22 0 0 1-6.369 2.916c-10.226.884 2.038-30.983 2.966-35.474a13.779 13.779 0 0 0-.384-7.562 18.452 18.452 0 0 0-8.428-9.755 10.836 10.836 0 0 0-5.766-1.833 2.015 2.015 0 0 0-2.084 1.284 12.653 12.653 0 0 0-.462 1.833c-2.72 13.879-7.7 27.662-8.059 42.069-.237 9.634 1.626 21.524 12.613 23.987a19.865 19.865 0 0 0 12-1.349 45.365 45.365 0 0 0 14.015-9.373q1.73-1.63 3.357-3.329a20.65 20.65 0 0 0 1.552 4.428 14.17 14.17 0 0 0 9.931 8.185c16.851 3.778 30.361-11.5 38.656-24.056a98.663 98.663 0 0 0 12.874-27.144c4.232 3.2 15.362 4.163 18.819 3.569a84.412 84.412 0 0 0-6.776 9.592c-4.453 7.345-8 15.051-9.015 23.71a19.806 19.806 0 0 0 .909 9.241 9.333 9.333 0 0 0 9.3 6.423 22.008 22.008 0 0 0 9.444-2.548 63.769 63.769 0 0 0 13.888-9.392c4.628-3.982 9.114-8.129 13.665-12.2.261-.232.542-.44.98-.8-.275 1.331-.509 2.436-.733 3.54-1.11 5.456-.7 12.12 4.092 15.751 3.76 2.849 8.925 3.189 13.443 2.608 7.691-.99 14.035-5.081 19.455-10.527-.043 1.047-.08 2.091-.051 3.136a20.979 20.979 0 0 0 3.087 11.135c2.009 3.1 4.777 4.739 8.6 4.341a18 18 0 0 0 7.1-2.555 57.254 57.254 0 0 0 12.037-9.657 155.545 155.545 0 0 0 17.87-21.617 28.848 28.848 0 0 0 10.038 4.281c3.089.674 7.4.521 10.588.433a23.892 23.892 0 0 0 .183 2.756 32.81 32.81 0 0 0 .958 4.489 21.266 21.266 0 0 0 9.55 12.238c15.623 9.447 34.235.916 46.74-9.29 2.43-1.983 4.826-4.987 7.135-7.113 1.751-1.621 4.239-4.292 2.209-6.666zm-46.812-10.7a44.248 44.248 0 0 1 12.477-16.869 13.445 13.445 0 0 1 5.146-2.883 6.983 6.983 0 0 1 2.4-.167 1.7 1.7 0 0 1 1.571 1.606 6.926 6.926 0 0 1-1.012 4.134 33.329 33.329 0 0 1-8.631 9.957 48.688 48.688 0 0 1-12.206 7.412c-.237.1-.487.172-.732.257l-.233-.2c.399-1.087.756-2.192 1.22-3.25z" class="prefix__cls-1" data-name="Path 136" transform="translate(2792.589 1324.677)"/>
        <path id="prefix__Path_137" d="M-2406.067-1244.983l-5.163-13.289h-6.341v21.255h4.525v-15.328l5.991 15.328h1.976l5.991-15.328v15.328h4.557v-21.255h-6.374z" class="prefix__cls-1" data-name="Path 137" transform="translate(2821.968 1367.976)"/>
        <path id="prefix__Path_138" d="M-2392.928-1258.271l-8.189 21.254h5.13l1.338-3.6h9.114l1.338 3.6h5.13l-8.189-21.254zm-.478 13.67l3.315-9.145 3.314 9.145z" class="prefix__cls-1" data-name="Path 138" transform="translate(2835.312 1367.976)"/>
        <path id="prefix__Path_139" d="M-2368.1-1251.42c0-3.951-2.74-6.851-7.169-6.851h-9.942v21.254h4.523v-7.553h3.316l4.174 7.553h5.226l-4.812-8.094a6.146 6.146 0 0 0 4.684-6.309zm-7.807 2.868h-4.781v-5.737h4.781a2.87 2.87 0 0 1 3.155 2.838 2.882 2.882 0 0 1-3.148 2.899z" class="prefix__cls-1" data-name="Path 139" transform="translate(2848.212 1367.976)"/>
        <path id="prefix__Path_140" d="M-2353.631-1258.271h-5.576l-7.521 9.465v-9.465h-4.525v21.255h4.525v-6.533l1.657-2.008 6.437 8.541h5.577l-9.019-11.281z" class="prefix__cls-1" data-name="Path 140" transform="translate(2859.528 1367.976)"/>
        <path id="prefix__Path_141" d="M-2357.421-1237.016h15.042V-1241h-10.521v-4.843h10.293v-3.984h-10.293v-4.461h10.517v-3.983h-15.042z" class="prefix__cls-1" data-name="Path 141" transform="translate(2870.745 1367.976)"/>
        <path id="prefix__Path_142" d="M-2345.243-1254.288h6.214v17.272h4.558v-17.272h6.182v-3.983h-16.954z" class="prefix__cls-1" data-name="Path 142" transform="translate(2880.62 1367.976)"/>
        <path id="prefix__Rectangle_19" d="M0 0H4.525V21.255H0z" class="prefix__cls-1" data-name="Rectangle 19" transform="translate(560.012 109.705)"/>
        <path id="prefix__Path_143" d="M-2308.975-1244.919l-9.847-13.352h-4.653v21.255h4.525v-13.862l10.134 13.862h4.366v-21.255h-4.525z" class="prefix__cls-1" data-name="Path 143" transform="translate(2898.273 1367.976)"/>
        <path id="prefix__Path_144" d="M-2298.339-1244.666h5.608v2.548a7.073 7.073 0 0 1-4.493 1.626 6.626 6.626 0 0 1-6.691-6.979 6.626 6.626 0 0 1 6.691-6.979 6.113 6.113 0 0 1 5.036 2.772l3.727-2.039a9.918 9.918 0 0 0-8.763-4.748c-6.246 0-11.346 4.27-11.346 10.994 0 6.691 5.1 10.994 11.346 10.994a11.753 11.753 0 0 0 9.018-3.982v-8.158h-10.134z" class="prefix__cls-1" data-name="Path 144" transform="translate(2910.359 1367.819)"/>
        <path id="prefix__Path_145" d="M-2560.025-1314.554a62.893 62.893 0 0 0-43.451-.835c-14.547 4.806-25.358 14.145-31.879 28.064-5.9 12.6-6.917 25.8-3.807 39.286a52.089 52.089 0 0 0 22.113 32.448c10.293 6.986 21.827 9.835 33.3 9.937a64.754 64.754 0 0 0 23.6-4.029c13.975-5.391 24.224-14.8 30.282-28.522a58.485 58.485 0 0 0 3.526-36.812c-4.159-19.095-15.42-32.47-33.684-39.537zm2.508 70.995c-4.735 7.465-11.836 11.436-20.5 12.629a32.467 32.467 0 0 1-17.754-2.177c-9.737-4.27-15.128-11.952-17.111-22.208-.225-1.164-.364-2.35-.473-3.535-.1-1.1-.108-2.217-.145-3.01.06-7.553 1.737-14.306 6.1-20.212 5.036-6.805 11.929-10.416 20.242-11.416a32.821 32.821 0 0 1 17.053 2.2 27.26 27.26 0 0 1 15.94 17.439c3.365 10.539 2.672 20.799-3.353 30.29z" class="prefix__cls-1" data-name="Path 145" transform="translate(2640.883 1318.851)"/>
        <path id="prefix__Path_146" d="M-2474.842-1285.878c-3.4-13.939-11.385-24.091-25.006-29.17-12.629-4.708-25.59-4.86-38.549-1.391-10.862 2.906-19.27 9.17-24.7 19.129a50.071 50.071 0 0 0-5.869 24.036c-.128 21.459-.063 42.921-.07 64.382a9.42 9.42 0 0 0 .1.992h26.254v-30.751h42.592v30.777h26.917v-1.375q0-30.643.006-61.288a64.088 64.088 0 0 0-1.675-15.341zm-26.222 23.857q-20.56-.03-41.124-.026a1.526 1.526 0 0 1-.319-.067c0-4.493-.2-8.9.078-13.272a25.693 25.693 0 0 1 1.726-7.487c2.183-5.663 6.54-8.922 12.425-10.168a31.377 31.377 0 0 1 15.215.375c6.237 1.766 10.112 5.949 11.713 12.151a37.472 37.472 0 0 1 1.092 7.149c.2 3.441.083 6.9.129 10.35.011.689-.176.997-.934.995z" class="prefix__cls-1" data-name="Path 146" transform="translate(2699.132 1318.862)"/>
        <path id="prefix__Path_147" d="M-2422.34-1223.737c-15.286-10.4-22.649-31.048-25.594-41.311q1.747-1.782 3.4-3.714c16.588-19.391 21.171-39.4 22.015-43.813a124.982 124.982 0 0 0-12.325-2.785c-4.649-.737-9.18-.005-12.038-.132A75.7 75.7 0 0 1-2463-1284.41a71.194 71.194 0 0 1-15.155 12.9c-.009-19.317-.015-38.862 0-44.646 0-1.031-.19-1.443-1.355-1.435-8.105.053-16.212.027-24.32.031-.388 0-.775.034-1.206.056v108.589h26.923c0-5.518-.009-19.527-.02-35.738 2.646-1.175 5.512-2.568 8.491-4.2 5.246 14.165 15.154 33.261 32.85 45.3 20.367 13.863 47.25 16.146 62.759 16.146 3.946 0 7.153-.148 9.33-.292a124.768 124.768 0 0 0 .814-12.555 106.014 106.014 0 0 0-.887-12.157c-4.196.363-37.037 2.643-57.564-11.326z" class="prefix__cls-1" data-name="Path 147" transform="translate(2751.036 1319.877)"/>
    </g>
    <g id="prefix__logo_with_marketing" data-name="logo with marketing">
        <path id="prefix__Path_136-2" d="M-2125.267-1265.608a9.237 9.237 0 0 0-4.5-3.106c-1.961-.375-3.325 1.617-4.475 2.861q-.516.56-1.045 1.1c-7.53 7.758-25.849 23-36.091 11.532a14.328 14.328 0 0 1-3.385-9.3c-.047-1.1.072-1.117 1.159-1.385a60.213 60.213 0 0 0 7.535-2.084 60.568 60.568 0 0 0 18.767-12.1c4.309-3.944 7.934-8.4 9.506-14.2a12.232 12.232 0 0 0-1.137-9.929c-2.635-4.337-6.829-6.083-11.615-6.642-5.724-.668-10.981.9-15.864 3.772-9.333 5.48-16.054 13.368-20.853 22.971a44.828 44.828 0 0 0-4.134 12.187 37.84 37.84 0 0 1-7.111-.612c-5.891-1.052-8.086-4.069-7.965-5.659q.639-1.032 1.266-2.072a75.084 75.084 0 0 0 7.524-15.436 6.965 6.965 0 0 0-.126-5.606 17.443 17.443 0 0 0-10.7-8.638c-2.109-.667-2.72-.112-3.394 2.019-.764 2.412-1.564 4.821-2.484 7.178a170.933 170.933 0 0 1-8.843 18.9c-5.015 9.33-10.134 18.6-16.358 27.2a61.982 61.982 0 0 1-4.732 5.5 1.741 1.741 0 0 1-1.536.467c-.366-.168-.625-.963-.62-1.478a20.641 20.641 0 0 1 .359-3.656 106.036 106.036 0 0 1 4.659-15.505c2.408-6.677 5.04-13.285 6.421-20.286a11.171 11.171 0 0 0-.378-6.344 16.549 16.549 0 0 0-6.5-7.655 15.2 15.2 0 0 0-7.131-2.887c-2.071-.192-3.039.616-3.2 2.671-.136 1.724-.207 3.457-.4 5.174-.226 1.992-.511 3.982-.86 5.956-.433 2.441-.929 4.873-1.451 7.3-.578 2.7-1.2 5.384-1.833 8.068-.95 4.018-1.8 7.044-2.76 11.052a9.6 9.6 0 0 1-2.466 4.609c-1.2 1.052-2.3 2.219-3.508 3.256-3.667 3.142-9.1 6.429-14.12 5.031-4.328-1.2-4.742-5.945-4.082-9.739 1.009-5.789 8.174-16.555 11.26-21.544a3.743 3.743 0 0 0-.049-4.417 13.6 13.6 0 0 0-4.911-4.573 14.492 14.492 0 0 0-4.094-1.59c-2.38-.478-4.234.59-5.761 2.436-8.075 9.768-20.941 24.3-30.717 32.365a33.029 33.029 0 0 1-8.325 5.529c-.968.395-2.044.753-2.936-.009-.952-.813-.7-1.967-.473-3.051a26.29 26.29 0 0 1 3.068-7.372 65.121 65.121 0 0 1 13.243-16.4 73.739 73.739 0 0 1 23.172-14.668c2.592-1.005 5.27-1.791 7.919-2.639 1.223-.389 1.57-.764 1.494-2.037a8.153 8.153 0 0 0-1.706-4.207c-2.349-3.316-5.344-5.63-9.6-5.706a31.693 31.693 0 0 0-10.518 1.746 51.158 51.158 0 0 0-16.785 9.657c-1.61 1.346-3.149 2.753-4.634 4.208-5.147.971-21.657-.056-22.872-8.124a7 7 0 0 0-.576-1.467c-2.394-4.879-6.472-7.537-11.662-8.585-1.981-.4-2.78.455-3.187 2.454a206.961 206.961 0 0 1-7.736 29.116c-3 8.272-7 16.773-13.658 22.747-.188.168-.376.335-.571.5a11.2 11.2 0 0 1-6.37 2.916 3.328 3.328 0 0 1-3.7-2.245 8.362 8.362 0 0 1-.64-3.329 57.631 57.631 0 0 1 1.122-8.377 99.425 99.425 0 0 1 5.172-15.344 14.636 14.636 0 0 0 1.128-3.4c.328-2.329-1.074-3.87-2.857-5.031-3.267-2.124-8.133-4.3-12.11-3.935-4.281.391-5.728 5.292-6.629 8.774-2.9 11.186-6.854 23.641-15.967 31.412a11.22 11.22 0 0 1-6.369 2.916c-10.226.884 2.038-30.983 2.966-35.474a13.779 13.779 0 0 0-.384-7.562 18.452 18.452 0 0 0-8.428-9.755 10.836 10.836 0 0 0-5.766-1.833 2.015 2.015 0 0 0-2.084 1.284 12.653 12.653 0 0 0-.462 1.833c-2.72 13.879-7.7 27.662-8.059 42.069-.237 9.634 1.626 21.524 12.613 23.987a19.865 19.865 0 0 0 12-1.349 45.365 45.365 0 0 0 14.015-9.373q1.73-1.63 3.357-3.329a20.65 20.65 0 0 0 1.552 4.428 14.17 14.17 0 0 0 9.931 8.185c16.851 3.778 30.361-11.5 38.656-24.056a98.663 98.663 0 0 0 12.874-27.144c4.232 3.2 15.362 4.163 18.819 3.569a84.412 84.412 0 0 0-6.776 9.592c-4.453 7.345-8 15.051-9.015 23.71a19.806 19.806 0 0 0 .909 9.241 9.333 9.333 0 0 0 9.3 6.423 22.008 22.008 0 0 0 9.444-2.548 63.769 63.769 0 0 0 13.888-9.392c4.628-3.982 9.114-8.129 13.665-12.2.261-.232.542-.44.98-.8-.275 1.331-.509 2.436-.733 3.54-1.11 5.456-.7 12.12 4.092 15.751 3.76 2.849 8.925 3.189 13.443 2.608 7.691-.99 14.035-5.081 19.455-10.527-.043 1.047-.08 2.091-.051 3.136a20.979 20.979 0 0 0 3.087 11.135c2.009 3.1 4.777 4.739 8.6 4.341a18 18 0 0 0 7.1-2.555 57.254 57.254 0 0 0 12.037-9.657 155.545 155.545 0 0 0 17.87-21.617 28.848 28.848 0 0 0 10.038 4.281c3.089.674 7.4.521 10.588.433a23.892 23.892 0 0 0 .183 2.756 32.81 32.81 0 0 0 .958 4.489 21.266 21.266 0 0 0 9.55 12.238c15.623 9.447 34.235.916 46.74-9.29 2.43-1.983 4.826-4.987 7.135-7.113 1.751-1.621 4.239-4.292 2.209-6.666zm-46.812-10.7a44.248 44.248 0 0 1 12.477-16.869 13.445 13.445 0 0 1 5.146-2.883 6.983 6.983 0 0 1 2.4-.167 1.7 1.7 0 0 1 1.571 1.606 6.926 6.926 0 0 1-1.012 4.134 33.329 33.329 0 0 1-8.631 9.957 48.688 48.688 0 0 1-12.206 7.412c-.237.1-.487.172-.732.257l-.233-.2c.399-1.087.756-2.192 1.22-3.25z" class="prefix__cls-1" data-name="Path 136" transform="translate(2792.589 1324.677)"/>
        <path id="prefix__Path_137-2" d="M-2406.067-1244.983l-5.163-13.289h-6.341v21.255h4.525v-15.328l5.991 15.328h1.976l5.991-15.328v15.328h4.557v-21.255h-6.374z" class="prefix__cls-1" data-name="Path 137" transform="translate(2821.968 1367.976)"/>
        <path id="prefix__Path_138-2" d="M-2392.928-1258.271l-8.189 21.254h5.13l1.338-3.6h9.114l1.338 3.6h5.13l-8.189-21.254zm-.478 13.67l3.315-9.145 3.314 9.145z" class="prefix__cls-1" data-name="Path 138" transform="translate(2835.312 1367.976)"/>
        <path id="prefix__Path_139-2" d="M-2368.1-1251.42c0-3.951-2.74-6.851-7.169-6.851h-9.942v21.254h4.523v-7.553h3.316l4.174 7.553h5.226l-4.812-8.094a6.146 6.146 0 0 0 4.684-6.309zm-7.807 2.868h-4.781v-5.737h4.781a2.87 2.87 0 0 1 3.155 2.838 2.882 2.882 0 0 1-3.148 2.899z" class="prefix__cls-1" data-name="Path 139" transform="translate(2848.212 1367.976)"/>
        <path id="prefix__Path_140-2" d="M-2353.631-1258.271h-5.576l-7.521 9.465v-9.465h-4.525v21.255h4.525v-6.533l1.657-2.008 6.437 8.541h5.577l-9.019-11.281z" class="prefix__cls-1" data-name="Path 140" transform="translate(2859.528 1367.976)"/>
        <path id="prefix__Path_141-2" d="M-2357.421-1237.016h15.042V-1241h-10.521v-4.843h10.293v-3.984h-10.293v-4.461h10.517v-3.983h-15.042z" class="prefix__cls-1" data-name="Path 141" transform="translate(2870.745 1367.976)"/>
        <path id="prefix__Path_142-2" d="M-2345.243-1254.288h6.214v17.272h4.558v-17.272h6.182v-3.983h-16.954z" class="prefix__cls-1" data-name="Path 142" transform="translate(2880.62 1367.976)"/>
        <path id="prefix__Rectangle_19-2" d="M0 0H4.525V21.255H0z" class="prefix__cls-1" data-name="Rectangle 19" transform="translate(560.012 109.705)"/>
        <path id="prefix__Path_143-2" d="M-2308.975-1244.919l-9.847-13.352h-4.653v21.255h4.525v-13.862l10.134 13.862h4.366v-21.255h-4.525z" class="prefix__cls-1" data-name="Path 143" transform="translate(2898.273 1367.976)"/>
        <path id="prefix__Path_144-2" d="M-2298.339-1244.666h5.608v2.548a7.073 7.073 0 0 1-4.493 1.626 6.626 6.626 0 0 1-6.691-6.979 6.626 6.626 0 0 1 6.691-6.979 6.113 6.113 0 0 1 5.036 2.772l3.727-2.039a9.918 9.918 0 0 0-8.763-4.748c-6.246 0-11.346 4.27-11.346 10.994 0 6.691 5.1 10.994 11.346 10.994a11.753 11.753 0 0 0 9.018-3.982v-8.158h-10.134z" class="prefix__cls-1" data-name="Path 144" transform="translate(2910.359 1367.819)"/>
        <path id="prefix__Path_145-2" d="M-2560.025-1314.554a62.893 62.893 0 0 0-43.451-.835c-14.547 4.806-25.358 14.145-31.879 28.064-5.9 12.6-6.917 25.8-3.807 39.286a52.089 52.089 0 0 0 22.113 32.448c10.293 6.986 21.827 9.835 33.3 9.937a64.754 64.754 0 0 0 23.6-4.029c13.975-5.391 24.224-14.8 30.282-28.522a58.485 58.485 0 0 0 3.526-36.812c-4.159-19.095-15.42-32.47-33.684-39.537zm2.508 70.995c-4.735 7.465-11.836 11.436-20.5 12.629a32.467 32.467 0 0 1-17.754-2.177c-9.737-4.27-15.128-11.952-17.111-22.208-.225-1.164-.364-2.35-.473-3.535-.1-1.1-.108-2.217-.145-3.01.06-7.553 1.737-14.306 6.1-20.212 5.036-6.805 11.929-10.416 20.242-11.416a32.821 32.821 0 0 1 17.053 2.2 27.26 27.26 0 0 1 15.94 17.439c3.365 10.539 2.672 20.799-3.353 30.29z" class="prefix__cls-1" data-name="Path 145" transform="translate(2640.883 1318.851)"/>
        <path id="prefix__Path_146-2" d="M-2474.842-1285.878c-3.4-13.939-11.385-24.091-25.006-29.17-12.629-4.708-25.59-4.86-38.549-1.391-10.862 2.906-19.27 9.17-24.7 19.129a50.071 50.071 0 0 0-5.869 24.036c-.128 21.459-.063 42.921-.07 64.382a9.42 9.42 0 0 0 .1.992h26.254v-30.751h42.592v30.777h26.917v-1.375q0-30.643.006-61.288a64.088 64.088 0 0 0-1.675-15.341zm-26.222 23.857q-20.56-.03-41.124-.026a1.526 1.526 0 0 1-.319-.067c0-4.493-.2-8.9.078-13.272a25.693 25.693 0 0 1 1.726-7.487c2.183-5.663 6.54-8.922 12.425-10.168a31.377 31.377 0 0 1 15.215.375c6.237 1.766 10.112 5.949 11.713 12.151a37.472 37.472 0 0 1 1.092 7.149c.2 3.441.083 6.9.129 10.35.011.689-.176.997-.934.995z" class="prefix__cls-1" data-name="Path 146" transform="translate(2699.132 1318.862)"/>
        <path id="prefix__Path_147-2" d="M-2422.34-1223.737c-15.286-10.4-22.649-31.048-25.594-41.311q1.747-1.782 3.4-3.714c16.588-19.391 21.171-39.4 22.015-43.813a124.982 124.982 0 0 0-12.325-2.785c-4.649-.737-9.18-.005-12.038-.132A75.7 75.7 0 0 1-2463-1284.41a71.194 71.194 0 0 1-15.155 12.9c-.009-19.317-.015-38.862 0-44.646 0-1.031-.19-1.443-1.355-1.435-8.105.053-16.212.027-24.32.031-.388 0-.775.034-1.206.056v108.589h26.923c0-5.518-.009-19.527-.02-35.738 2.646-1.175 5.512-2.568 8.491-4.2 5.246 14.165 15.154 33.261 32.85 45.3 20.367 13.863 47.25 16.146 62.759 16.146 3.946 0 7.153-.148 9.33-.292a124.768 124.768 0 0 0 .814-12.555 106.014 106.014 0 0 0-.887-12.157c-4.196.363-37.037 2.643-57.564-11.326z" class="prefix__cls-1" data-name="Path 147" transform="translate(2751.036 1319.877)"/>
    </g>
</svg>
