<svg xmlns="http://www.w3.org/2000/svg" id="prefix__logo_dark_vertical_no_marketing" width="366.744" height="254.087" data-name="logo / dark / vertical / no marketing" viewBox="0 0 366.744 254.087">
    <defs>
        <linearGradient id="prefix__linear-gradient" x1="-105.284" x2="-105.284" y1=".962" y2="-.038" gradientUnits="objectBoundingBox">
            <stop offset="0" stop-color="#af206e"/>
            <stop offset=".555" stop-color="#e34256"/>
            <stop offset="1" stop-color="#eb8b23"/>
        </linearGradient>
        <style>
            .prefix__cls-2{fill:#2e1a47}
        </style>
    </defs>
    <path id="prefix__Rectangle_40" d="M0 0H0.927V155H0z" data-name="Rectangle 40" transform="rotate(-90 123.815 22.426)"/>
    <g id="prefix__Group_111" data-name="Group 111" transform="translate(3057.388 2506.82)">
        <path id="prefix__Path_87" d="M-2980.4-2502.753a59.5 59.5 0 0 0-41.106-.791c-13.761 4.548-23.99 13.382-30.159 26.55-5.584 11.917-6.544 24.41-3.6 37.165a49.267 49.267 0 0 0 20.919 30.7 56.125 56.125 0 0 0 31.5 9.4 61.265 61.265 0 0 0 22.327-3.813c13.219-5.1 22.917-14 28.647-26.982a55.344 55.344 0 0 0 3.336-34.827c-3.927-18.065-14.584-30.717-31.864-37.402zm2.374 67.164c-4.48 7.061-11.2 10.819-19.4 11.947a30.7 30.7 0 0 1-16.8-2.059c-9.213-4.04-14.313-11.306-16.188-21.008-.213-1.1-.345-2.225-.448-3.344-.1-1.045-.1-2.1-.136-2.849.056-7.145 1.642-13.533 5.775-19.12 4.764-6.438 11.284-9.854 19.149-10.8a31.048 31.048 0 0 1 16.133 2.085 25.79 25.79 0 0 1 15.081 16.5c3.184 9.962 2.532 19.668-3.166 28.648z" class="prefix__cls-2" data-name="Path 87"/>
        <path id="prefix__Path_88" d="M-2844.707-2475.615c-3.216-13.186-10.769-22.79-23.657-27.595-11.947-4.455-24.209-4.6-36.468-1.317-10.276 2.751-18.231 8.676-23.371 18.1a47.349 47.349 0 0 0-5.552 22.74c-.122 20.3-.061 40.6-.068 60.908a9.248 9.248 0 0 0 .09.939h24.839v-29.092h40.295v29.115h25.464v-1.3q0-28.99.006-57.982a60.751 60.751 0 0 0-1.578-14.516zm-24.806 22.57q-19.452-.029-38.905-.024a1.367 1.367 0 0 1-.3-.064c0-4.251-.189-8.417.073-12.556a24.3 24.3 0 0 1 1.632-7.082c2.065-5.358 6.186-8.441 11.756-9.619a29.651 29.651 0 0 1 14.394.355 15.135 15.135 0 0 1 11.08 11.494 35.376 35.376 0 0 1 1.032 6.764c.187 3.256.08 6.527.124 9.792.007.651-.168.941-.886.94z" class="prefix__cls-2" data-name="Path 88"/>
        <path id="prefix__Path_89" d="M-2745.934-2415.867c-14.461-9.842-21.426-29.372-24.212-39.081q1.652-1.687 3.22-3.514c15.693-18.346 20.029-37.276 20.828-41.45a118.886 118.886 0 0 0-11.661-2.635c-4.4-.7-8.683 0-11.387-.124a71.628 71.628 0 0 1-15.257 29.4 67.383 67.383 0 0 1-14.338 12.209c-.01-18.275-.015-36.766 0-42.238 0-.975-.18-1.365-1.282-1.357-7.669.05-15.339.026-23.008.029-.367 0-.733.033-1.142.053v102.731h25.47c0-5.221-.008-18.473-.018-33.811 2.5-1.112 5.215-2.429 8.033-3.976 4.963 13.4 14.336 31.466 31.077 42.859 19.269 13.114 44.7 15.275 59.372 15.275 3.734 0 6.767-.14 8.828-.275a118.216 118.216 0 0 0 .77-11.879 100.324 100.324 0 0 0-.839-11.5c-3.967.342-35.035 2.499-54.454-10.716z" class="prefix__cls-2" data-name="Path 89"/>
    </g>
    <g id="prefix__Group_112" data-name="Group 112" transform="translate(3057.388 2534.82)">
        <path id="prefix__Path_78" d="M-2370.49-2443.216c-1.191-1.393-3.165-3.1-5.013-3.458-2.183-.417-3.7 1.8-4.983 3.188q-.574.62-1.164 1.228c-8.385 8.64-28.787 25.617-40.2 12.842-2.624-2.937-3.6-6.509-3.769-10.356-.054-1.229.081-1.244 1.29-1.543a67.28 67.28 0 0 0 8.393-2.321 67.46 67.46 0 0 0 20.9-13.48c4.8-4.392 8.835-9.359 10.586-15.811a13.615 13.615 0 0 0-1.267-11.059c-2.933-4.831-7.6-6.775-12.934-7.4-6.375-.745-12.232 1.006-17.669 4.2-10.393 6.1-17.878 14.889-23.222 25.584a49.909 49.909 0 0 0-4.606 13.574 42.224 42.224 0 0 1-7.92-.682c-6.561-1.172-9-4.531-8.868-6.3q.709-1.149 1.408-2.308a83.512 83.512 0 0 0 8.38-17.192 7.748 7.748 0 0 0-.14-6.245 19.424 19.424 0 0 0-11.915-9.618c-2.351-.743-3.029-.127-3.781 2.248-.852 2.687-1.742 5.369-2.766 8a190.669 190.669 0 0 1-9.849 21.044c-5.584 10.391-11.286 20.716-18.219 30.291a68.718 68.718 0 0 1-5.27 6.128 1.939 1.939 0 0 1-1.711.519c-.408-.187-.7-1.072-.689-1.645a22.773 22.773 0 0 1 .4-4.072 117.658 117.658 0 0 1 5.189-17.267c2.682-7.437 5.614-14.8 7.15-22.594a12.429 12.429 0 0 0-.421-7.065 18.436 18.436 0 0 0-7.241-8.527 16.924 16.924 0 0 0-7.941-3.214c-2.309-.214-3.384.686-3.563 2.973-.151 1.922-.229 3.85-.447 5.763q-.379 3.328-.959 6.634c-.481 2.719-1.033 5.427-1.614 8.128-.644 3-1.335 6-2.041 8.985-1.06 4.474-2 7.845-3.075 12.309a10.7 10.7 0 0 1-2.745 5.134c-1.333 1.17-2.557 2.469-3.907 3.626-4.083 3.5-10.13 7.158-15.726 5.6-4.82-1.341-5.281-6.62-4.545-10.845 1.123-6.449 9.1-18.438 12.54-24a4.167 4.167 0 0 0-.054-4.92 15.135 15.135 0 0 0-5.471-5.09 16.092 16.092 0 0 0-4.56-1.772c-2.65-.532-4.715.657-6.415 2.712-8.994 10.879-23.323 27.065-34.21 36.045-2.875 2.373-5.773 4.726-9.273 6.157-1.077.442-2.275.84-3.268-.008-1.061-.906-.774-2.192-.525-3.4a29.3 29.3 0 0 1 3.415-8.213 72.487 72.487 0 0 1 14.75-18.259 82.107 82.107 0 0 1 25.808-16.337c2.885-1.121 5.867-2 8.82-2.938 1.362-.435 1.748-.853 1.662-2.269a9.074 9.074 0 0 0-1.9-4.687c-2.616-3.693-5.951-6.27-10.694-6.354a35.3 35.3 0 0 0-11.713 1.944 57.022 57.022 0 0 0-18.694 10.757c-1.794 1.5-3.508 3.065-5.16 4.688-5.733 1.081-24.121-.064-25.475-9.047a7.952 7.952 0 0 0-.64-1.635c-2.667-5.433-7.209-8.395-12.989-9.562-2.207-.445-3.1.508-3.551 2.735a230.322 230.322 0 0 1-8.616 32.426c-3.343 9.212-7.79 18.679-15.21 25.333q-.315.281-.635.555a12.506 12.506 0 0 1-7.1 3.248 3.707 3.707 0 0 1-4.125-2.5 9.31 9.31 0 0 1-.713-3.707 64.421 64.421 0 0 1 1.249-9.329 110.8 110.8 0 0 1 5.761-17.089 16.258 16.258 0 0 0 1.256-3.791c.366-2.592-1.195-4.31-3.181-5.6-3.639-2.366-9.058-4.787-13.488-4.383-4.769.435-6.38 5.892-7.383 9.771-3.225 12.459-7.634 26.331-17.782 34.984a12.486 12.486 0 0 1-7.093 3.247c-11.391.984 2.269-34.505 3.3-39.507a15.355 15.355 0 0 0-.428-8.422 20.552 20.552 0 0 0-9.388-10.865 12.087 12.087 0 0 0-6.422-2.043 2.248 2.248 0 0 0-2.322 1.43 14.2 14.2 0 0 0-.514 2.042c-3.028 15.457-8.577 30.808-8.974 46.854-.266 10.73 1.811 23.973 14.046 26.716a22.118 22.118 0 0 0 13.367-1.5 50.5 50.5 0 0 0 15.609-10.439q1.925-1.814 3.738-3.708a23.087 23.087 0 0 0 1.728 4.932c2.289 4.7 5.847 7.948 11.062 9.116 18.767 4.206 33.813-12.807 43.051-26.791a109.872 109.872 0 0 0 14.339-30.233c4.713 3.567 17.109 4.637 20.958 3.975a94.072 94.072 0 0 0-7.546 10.685c-4.961 8.179-8.914 16.76-10.042 26.406a22.083 22.083 0 0 0 1.013 10.292 10.4 10.4 0 0 0 10.364 7.154 24.506 24.506 0 0 0 10.517-2.839 71.1 71.1 0 0 0 15.467-10.458c5.155-4.436 10.151-9.055 15.219-13.592.29-.259.6-.491 1.091-.888-.307 1.481-.567 2.711-.818 3.943-1.236 6.077-.782 13.5 4.559 17.542 4.188 3.171 9.938 3.552 14.972 2.9 8.566-1.1 15.632-5.66 21.667-11.724-.048 1.165-.087 2.33-.057 3.493a23.4 23.4 0 0 0 3.44 12.4c2.235 3.453 5.32 5.278 9.573 4.833a20.014 20.014 0 0 0 7.9-2.846 63.654 63.654 0 0 0 13.406-10.756 173.261 173.261 0 0 0 19.9-24.074 32.136 32.136 0 0 0 11.179 4.767c3.44.751 8.239.582 11.792.483a26.622 26.622 0 0 0 .2 3.069 36.77 36.77 0 0 0 1.066 5 23.693 23.693 0 0 0 10.639 13.631c17.4 10.522 38.129 1.02 52.056-10.347 2.706-2.21 5.375-5.554 7.944-7.922 1.98-1.795 4.751-4.773 2.49-7.417zm-52.135-11.918a49.264 49.264 0 0 1 13.9-18.788 14.989 14.989 0 0 1 5.732-3.211 7.813 7.813 0 0 1 2.669-.185 1.89 1.89 0 0 1 1.749 1.79 7.713 7.713 0 0 1-1.128 4.6 37.111 37.111 0 0 1-9.611 11.087 54.165 54.165 0 0 1-13.594 8.255c-.265.112-.542.192-.814.286l-.26-.225c.446-1.2.839-2.432 1.357-3.609z" class="prefix__cls-2" data-name="Path 78" transform="translate(-321 126)"/>
    </g>
</svg>
