<svg xmlns="http://www.w3.org/2000/svg" width="360.161" height="360.449" viewBox="0 0 360.161 360.449">
    <defs>
        <linearGradient id="prefix__linear-gradient" x1="1" x2="0" y2="1" gradientUnits="objectBoundingBox">
            <stop offset=".76" stop-color="#28163e"/>
            <stop offset="1" stop-color="#1b0e2c"/>
        </linearGradient>
        <style>
            .prefix__cls-3,.prefix__cls-4{fill:none;stroke:#5f2d78;stroke-miterlimit:10;opacity:.8;stroke-width:.488px}.prefix__cls-8{fill:#fff}
        </style>
    </defs>
    <g id="prefix__logo_dark_horiontal_square_on_background" data-name="logo / dark / horiontal / square / on background" transform="translate(.047 .215)">
        <g id="prefix__Artwork_54" data-name="Artwork 54" transform="translate(180 180.033)">
            <g id="prefix__Group_1484" data-name="Group 1484" transform="translate(-180 -180.033)">
                <path id="prefix__Rectangle_8356" d="M0 0H360V360H0z" data-name="Rectangle 8356" transform="rotate(90 180 180)"/>
                <path id="prefix__Path_33765" d="M356.27-.3s-1.367 16.145 3.841 23.241 21.873 12.369 28.188 23.5 11.262 20.9 9.9 32.94-7.682 15.884-9.9 23.241-7.226 22.069-14 30.011-45.5 37.042-51.1 87.884 3.58 59.957 16.014 70.242 39.646 32.615 59.241 36.716 34.047 2.929 43.942 11.2 15.3 21.092 15.3 21.092" data-name="Path 33765" transform="translate(-112.147 .3)" style="stroke-width:.488px;fill:none;stroke:#5f2d78;stroke-miterlimit:10;opacity:.8"/>
                <path id="prefix__Path_33766" d="M282.159 376.5s-4.3-1.3-11.262-8.919-18.814-21.743-35.219-34.307-29.425-22.069-34.047-44.4 0-59.826 17.382-102.727 19.074-44.723 18.814-55.465-7.812-25.844-14.387-36.521-15.04-24.868-17.968-31.182-3.841-12.89-10.611-14.517-10.351-.976-24.152 12.629-43.486 35.349-50.192 48.825c-18.163 36.326-16.47 67.443-30.206 91.335-19.53 33.982-93.939 56.441-78.705 106.828 9.179 30.532 54.358 8.007 86.908 39.385 14.127 13.606 14.778 29.034 14.778 29.034" class="prefix__cls-3" data-name="Path 33766" transform="translate(-3.273 -16.498)"/>
                <path id="prefix__Path_33767" d="M265.13 404.639a69.15 69.15 0 0 0-17.707-25.844c-12.564-11.132-32.42-22.2-39.19-42.054s-5.338-39.776 0-64.514 22.915-75.125 22.524-89.967-1.107-38.148-27.081-50.647-56.571 14.582-63.537 39.515-13.739 58.458-27.732 74.212-51.429 36.847-50.712 66.86 41.794 24.022 61.128 46.025 21.939 46.416 21.939 46.416" class="prefix__cls-4" data-name="Path 33767" transform="translate(-21.463 -44.639)"/>
                <path id="prefix__Path_33768" d="M255.932 422.753s-4.231-10.351-22-23.957-29.816-25.519-32.289-35.935 3.255-52.535 9.309-79.291 15.624-54.228 14.192-71.675-9.114-27.016-20.7-30.6-28.839 2.148-41.729 34.438-14.647 37.432-21.678 47.718-43.486 36.651-39.125 58.59 29.034 29.75 41.859 38.669 22 16.8 25.584 30.857 2.929 31.183 2.929 31.183" class="prefix__cls-3" data-name="Path 33768" transform="translate(-35.375 -62.753)"/>
                <path id="prefix__Path_33769" d="M141.887-.3S97.879 23.331 87.2 49.371s-13.6 61.258-25.776 76.817S.1 193.566.1 193.566" data-name="Path 33769" transform="translate(.03 .3)" style="stroke-width:.488px;fill:none;stroke:#5f2d78;stroke-miterlimit:10;opacity:.8"/>
                <path id="prefix__Path_33770" d="M499.005 307.135s-23.7-32.81-37.3-36.586-40.036 7.617-51.494-11.132-17.186-43.942-2.864-63.993 34.306-15.424 53.64-30.336 38.018-56.962 38.018-75.58-13.671-68.159-17.251-71.87S467.432-.2 467.432-.2" data-name="Path 33770" transform="translate(-139.135 .265)" style="stroke-width:.488px;fill:none;stroke:#5f2d78;stroke-miterlimit:10;opacity:.8"/>
                <path id="prefix__Path_33771" d="M509.284 350.115s-20.116-24.868-36.586-24.543-44.4 7.747-44.4-17.447S452 273.3 468.792 272.516s33.266-22.264 33.266-22.264l7.226-14.452" class="prefix__cls-4" data-name="Path 33771" transform="translate(-149.414 -82.1)"/>
                <path id="prefix__Path_33772" d="M534.935 340.534s-12.239-11.588-27.993-16.861 9.309-19.269 13.606-22.98 14.387-8.593 14.387-8.593" data-name="Path 33772" transform="translate(-175.065 -101.749)" style="stroke-width:.488px;fill:none;stroke:#5f2d78;stroke-miterlimit:10;opacity:.8"/>
                <g id="prefix__Group_1483" data-name="Group 1483" transform="translate(61.864 147.892)">
                    <path id="prefix__Path_33773" d="M399.983 250.69a3.32 3.32 0 0 0-1.628-1.107c-.716-.13-1.172.586-1.627 1.042l-.391.391c-2.734 2.8-9.309 8.268-12.955 4.166a5.143 5.143 0 0 1-1.237-3.32c0-.391 0-.391.391-.521a18.033 18.033 0 0 0 9.439-5.078 10.807 10.807 0 0 0 3.385-5.078 4.427 4.427 0 0 0-.391-3.58 5.3 5.3 0 0 0-4.169-2.405 8.984 8.984 0 0 0-5.729 1.367 19.2 19.2 0 0 0-7.486 8.268 16.081 16.081 0 0 0-1.5 4.362 13.608 13.608 0 0 1-2.539-.2c-2.148-.391-2.93-1.432-2.864-2.018l.456-.716a26.951 26.951 0 0 0 2.734-5.533 2.474 2.474 0 0 0-.065-2.018 6.249 6.249 0 0 0-3.841-3.125c-.781-.26-.977-.065-1.237.716s-.586 1.758-.911 2.6a61.519 61.519 0 0 1-3.19 6.77 85.41 85.41 0 0 1-5.859 9.765 22.2 22.2 0 0 1-1.693 1.953.651.651 0 0 1-.521.2c-.13-.065-.2-.325-.2-.521a7.358 7.358 0 0 1 .13-1.3 38.016 38.016 0 0 1 1.693-5.6 50.449 50.449 0 0 0 2.278-7.291 4.036 4.036 0 0 0-.13-2.278 5.924 5.924 0 0 0-2.344-2.734 5.468 5.468 0 0 0-2.539-1.042c-.716-.065-1.107.2-1.172.976s-.065 1.237-.13 1.888-.2 1.432-.326 2.148-.326 1.758-.521 2.6l-.651 2.929c-.326 1.432-.651 2.539-.977 3.971a3.45 3.45 0 0 1-.911 1.627l-1.237 1.172c-1.3 1.107-3.255 2.278-5.078 1.823s-1.693-2.148-1.5-3.515 2.929-5.924 4.036-7.747a1.367 1.367 0 0 0 0-1.562 4.882 4.882 0 0 0-1.758-1.627 5.207 5.207 0 0 0-1.5-.586 2.083 2.083 0 0 0-2.083.846 104.087 104.087 0 0 1-11.067 11.653 11.847 11.847 0 0 1-2.995 2.018.976.976 0 0 1-1.042 0c-.326-.26-.26-.716-.2-1.107a9.439 9.439 0 0 1 1.107-2.669 23.437 23.437 0 0 1 4.752-5.924 26.5 26.5 0 0 1 8.333-5.273l2.864-.976c.456-.13.586-.26.521-.716a2.93 2.93 0 0 0-.586-1.5 4.231 4.231 0 0 0-3.45-2.083 11.392 11.392 0 0 0-3.776.651 18.423 18.423 0 0 0-6.054 3.45l-1.693 1.5c-1.823.325-7.812 0-8.2-2.929l-.2-.521a5.6 5.6 0 0 0-4.166-3.06c-.716-.13-.976.2-1.172.911a74.343 74.343 0 0 1-2.8 10.481c-1.107 2.995-2.539 6.054-4.882 8.2l-.2.2a4.036 4.036 0 0 1-2.278 1.042 1.172 1.172 0 0 1-1.3-.781 3 3 0 0 1-.26-1.172 20.776 20.776 0 0 1 .391-2.995 35.739 35.739 0 0 1 1.888-5.533 5.275 5.275 0 0 0 .391-1.237 1.823 1.823 0 0 0-1.042-1.823 7.594 7.594 0 0 0-4.362-1.432c-1.432.13-2.083 1.888-2.409 3.125-1.042 4.036-2.474 8.528-5.729 11.262a4.036 4.036 0 0 1-2.278 1.042c-3.646.326.716-11.132 1.042-12.759a4.948 4.948 0 0 0-.13-2.734 6.64 6.64 0 0 0-3.06-3.515 3.906 3.906 0 0 0-2.083-.651.716.716 0 0 0-.781.456 4.562 4.562 0 0 0-.2.651c-.977 5.013-2.8 9.96-2.864 15.1-.065 3.45.586 7.747 4.557 8.593a7.161 7.161 0 0 0 4.3-.456 16.275 16.275 0 0 0 5.013-3.385l1.265-1.172a7.419 7.419 0 0 0 .586 1.562 5.078 5.078 0 0 0 3.58 2.93c6.054 1.367 10.937-4.166 13.866-8.658a35.481 35.481 0 0 0 4.622-9.765c1.5 1.172 5.533 1.5 6.77 1.3a30.335 30.335 0 0 0-2.409 3.45 21.158 21.158 0 0 0-3.255 8.528 7.1 7.1 0 0 0 .326 3.32 3.385 3.385 0 0 0 3.32 2.278 7.942 7.942 0 0 0 3.385-.911 22.916 22.916 0 0 0 5.013-3.385l4.882-4.362.325-.26-.26 1.3c-.391 1.953-.26 4.362 1.5 5.664a5.567 5.567 0 0 0 4.817.911 11.753 11.753 0 0 0 6.966-3.776v1.107a7.551 7.551 0 0 0 1.107 3.971 3.06 3.06 0 0 0 3.06 1.562 6.445 6.445 0 0 0 2.539-.911 20.571 20.571 0 0 0 4.3-3.45 55.918 55.918 0 0 0 6.445-7.747 10.351 10.351 0 0 0 3.58 1.562 17.579 17.579 0 0 0 3.776.13 8.6 8.6 0 0 0 .065.977 11.845 11.845 0 0 0 .325 1.627 7.617 7.617 0 0 0 3.45 4.427c5.6 3.385 12.3.325 16.8-3.32.846-.716 1.758-1.823 2.539-2.539s1.945-1.686 1.163-2.532zm-16.8-3.841a15.884 15.884 0 0 1 4.492-6.054 4.818 4.818 0 0 1 1.823-1.042h.846a.586.586 0 0 1 .586.586 2.474 2.474 0 0 1-.391 1.5 11.978 11.978 0 0 1-3.125 3.58 17.512 17.512 0 0 1-4.362 2.669h-.326z" class="prefix__cls-8" data-name="Path 33773" transform="translate(-160.112 -229.454)"/>
                    <path id="prefix__Path_33774" d="M322.4 292.252l-1.823-4.752H318.3v7.617h1.628v-5.468l2.148 5.468h.651l2.213-5.468v5.468h1.627V287.5h-2.278z" class="prefix__cls-8" data-name="Path 33774" transform="translate(-172.888 -248.036)"/>
                    <path id="prefix__Path_33775" d="M337.629 287.5l-2.929 7.617h1.823l.456-1.3h3.255l.456 1.3h1.823l-2.93-7.617zm-.13 4.882l1.172-3.32 1.172 3.32z" class="prefix__cls-8" data-name="Path 33775" transform="translate(-178.611 -248.036)"/>
                    <path id="prefix__Path_33776" d="M356.784 289.969a2.409 2.409 0 0 0-2.6-2.474H350.6v7.617h1.627v-2.734h1.173l1.5 2.734h1.888l-1.758-2.929a2.213 2.213 0 0 0 1.758-2.213zm-2.8 1.042h-1.693v-2.083h1.693a1.042 1.042 0 1 1 0 2.083z" class="prefix__cls-8" data-name="Path 33776" transform="translate(-184.161 -248.032)"/>
                    <path id="prefix__Path_33777" d="M370.915 287.5H368.9l-2.669 3.385V287.5H364.6v7.617h1.627v-2.344l.586-.716 2.278 3.06h2.018l-3.255-4.036z" class="prefix__cls-8" data-name="Path 33777" transform="translate(-189.047 -248.036)"/>
                    <path id="prefix__Path_33778" d="M378.4 295.117h5.4v-1.432h-3.776v-1.693h3.711v-1.432h-3.711v-1.627h3.776V287.5h-5.4z" class="prefix__cls-8" data-name="Path 33778" transform="translate(-193.863 -248.036)"/>
                    <path id="prefix__Path_33779" d="M390.6 288.932h2.213v6.184h1.628v-6.184h2.213V287.5H390.6z" class="prefix__cls-8" data-name="Path 33779" transform="translate(-198.121 -248.036)"/>
                    <path id="prefix__Rectangle_8357" d="M0 0H1.627V7.643H0z" class="prefix__cls-8" data-name="Rectangle 8357" transform="translate(201.333 39.464)"/>
                    <path id="prefix__Path_33780" d="M417.608 292.317l-3.58-4.817H412.4v7.617h1.562v-4.948l3.646 4.948h1.627V287.5h-1.627z" class="prefix__cls-8" data-name="Path 33780" transform="translate(-205.729 -248.036)"/>
                    <path id="prefix__Path_33781" d="M430.743 292.23h2.018v.911a2.424 2.424 0 1 1-1.628-4.427 2.213 2.213 0 0 1 1.823.977l1.367-.716a3.581 3.581 0 0 0-3.125-1.693 3.971 3.971 0 1 0 0 7.877 4.232 4.232 0 0 0 3.255-1.432V290.8h-3.646z" class="prefix__cls-8" data-name="Path 33781" transform="translate(-210.727 -247.949)"/>
                    <path id="prefix__Path_33782" d="M124.01 228.463a22.59 22.59 0 0 0-15.624-.325 18.618 18.618 0 0 0-11.458 10.09 21.222 21.222 0 0 0-1.367 14.127 18.749 18.749 0 0 0 7.942 11.653 21.353 21.353 0 0 0 11.978 3.58 23.306 23.306 0 0 0 8.463-1.432 18.814 18.814 0 0 0 10.872-10.221 21.027 21.027 0 0 0 1.237-13.215 18.481 18.481 0 0 0-12.043-14.257zm.911 25.519a9.9 9.9 0 0 1-7.356 4.557 11.653 11.653 0 0 1-6.38-.781 10.127 10.127 0 0 1-6.119-8.007c-.065-.391-.13-.846-.2-1.3a7.1 7.1 0 0 1-.065-1.107 11.913 11.913 0 0 1 2.213-7.291 10.155 10.155 0 0 1 7.291-4.1 11.783 11.783 0 0 1 6.119.781 9.83 9.83 0 0 1 5.729 6.25 12.8 12.8 0 0 1-1.231 10.998z" class="prefix__cls-8" data-name="Path 33782" transform="translate(-94.931 -226.887)"/>
                    <path id="prefix__Path_33783" d="M200.671 238.741c-1.237-5.013-4.1-8.658-8.984-10.481a22.329 22.329 0 0 0-13.866-.521 13.736 13.736 0 0 0-8.854 6.9 17.967 17.967 0 0 0-2.083 8.658c-.065 7.747 0 15.429 0 23.175q.025.164.065.326h9.439v-11.066h15.3V266.8h9.7v-22.526a23.044 23.044 0 0 0-.717-5.533zm-9.439 8.593h-14.908c0-1.627-.065-3.19 0-4.752a9.244 9.244 0 0 1 .651-2.669 5.729 5.729 0 0 1 4.492-3.646 11.262 11.262 0 0 1 5.468.13 5.729 5.729 0 0 1 4.231 4.362 13.41 13.41 0 0 1 .391 2.539c.065 1.237 0 2.474.065 3.711-.065.2-.13.325-.391.325z" class="prefix__cls-8" data-name="Path 33783" transform="translate(-120.033 -226.879)"/>
                    <path id="prefix__Path_33784" d="M260.485 261.922c-5.468-3.711-8.137-11.132-9.179-14.843l1.237-1.367a36 36 0 0 0 7.942-15.689 44.989 44.989 0 0 0-4.427-.976 32.879 32.879 0 0 0-4.3-.065 27.212 27.212 0 0 1-5.794 11.2 25.584 25.584 0 0 1-5.464 4.618v-16.08c0-.391-.065-.521-.456-.521H230.8v39.06h9.7v-12.824l3.06-1.5c1.888 5.078 5.468 11.978 11.783 16.275s16.991 5.794 22.59 5.794l3.385-.13a44.916 44.916 0 0 0 .26-4.492 38.077 38.077 0 0 0-.326-4.362c-1.562.133-13.345.914-20.767-4.098z" class="prefix__cls-8" data-name="Path 33784" transform="translate(-142.35 -227.34)"/>
                </g>
            </g>
        </g>
    </g>
</svg>
