<svg xmlns="http://www.w3.org/2000/svg" width="932.76" height="431.221" viewBox="0 0 932.76 431.221">
    <defs>
        <linearGradient id="prefix__linear-gradient" x1="-.483" x2="1.483" y1=".5" y2=".5" gradientUnits="objectBoundingBox">
            <stop offset=".03" stop-color="#f1f2f2"/>
            <stop offset="1" stop-color="#fff"/>
        </linearGradient>
        <style>
            .prefix__cls-2{fill:none;stroke:#5f2d78;stroke-miterlimit:10;opacity:.25;stroke-width:1.148px}.prefix__cls-6{fill:#2e1a47}
        </style>
    </defs>
    <g id="prefix__logo_white_horiontal_rectangle_on_background" data-name="logo / white / horiontal / rectangle / on background" transform="translate(.24 .554)">
        <g id="prefix__Artwork_55" data-name="Artwork 55" transform="translate(422.695 215.05)">
            <g id="prefix__Artwork_55-2" data-name="Artwork 55" transform="translate(-422.695 -215.05)">
                <path id="prefix__Rectangle_8366" d="M0 0H430.1V845.389H0z" data-name="Rectangle 8366" transform="rotate(90 422.695 422.695)"/>
                <path id="prefix__Path_33873" d="M403.194.4s-3.213 19.279 9.027 27.694 51.41 14.689 66.252 28.153 26.47 24.94 23.257 39.323-18.055 18.973-23.257 27.694-16.984 26.317-32.9 35.8-106.951 44.219-120.11 104.962 8.415 71.607 37.64 84 93.181 39.017 139.235 43.913 80.022 3.519 103.279 13.312a102.513 102.513 0 0 1 35.961 25.249" class="prefix__cls-2" data-name="Path 33873" transform="translate(170.15 -.4)"/>
                <path id="prefix__Path_33874" d="M650.408 417.544s-10.1-1.53-26.47-10.557-44.219-26.011-82.776-41.006-69.162-26.317-80.023-53.093 0-71.454 40.853-122.711 44.831-53.4 44.219-66.252S527.85 93.018 512.4 80.319s-35.5-29.836-42.383-37.486-9.027-15.454-24.94-17.29-24.328-1.071-56.765 14.995S286.1 82.92 270.341 98.985c-42.689 43.454-38.711 80.634-70.995 109.093-45.9 40.547-220.788 67.476-184.984 127.607 21.574 36.415 127.76 9.639 204.263 46.973 33.2 16.219 34.732 34.732 34.732 34.732" data-name="Path 33874" transform="translate(4.795 12.556)" style="stroke-width:1.148px;fill:none;stroke:#5f2d78;stroke-miterlimit:10;opacity:.25"/>
                <path id="prefix__Path_33875" d="M539.8 395.8s-12.087-17.6-41.618-30.907-76.2-26.47-92.11-50.339-12.547-47.585 0-77.115 53.858-89.815 52.94-107.41-2.6-45.6-63.5-60.437-132.96 17.442-149.331 47.278-32.437 69.771-65.334 88.59-120.722 43.914-119.039 79.87 98.23 28.612 143.673 54.929 51.563 55.541 51.563 55.541" class="prefix__cls-2" data-name="Path 33875" transform="translate(32.474 34.3)"/>
                <path id="prefix__Path_33876" d="M464.406 381.856s-9.945-12.393-51.716-28.612-70.076-30.444-75.89-42.995 7.65-62.732 21.88-94.711 36.721-64.722 33.355-85.683-21.421-32.284-48.656-36.568-67.782 2.6-98.077 41.159-34.426 44.678-50.951 57.071-102.208 43.76-91.957 69.924 68.241 35.5 98.536 46.208 51.716 20.044 60.131 36.874 6.885 37.333 6.885 37.333" class="prefix__cls-2" data-name="Path 33876" transform="translate(53.55 48.244)"/>
                <path id="prefix__Path_33877" d="M333.447.4S230.015 28.553 204.769 59.766s-31.978 72.984-60.59 91.651S.2 231.9.2 231.9" class="prefix__cls-2" data-name="Path 33877" transform="translate(-.169 -.4)"/>
                <path id="prefix__Path_33878" d="M634.25 367.614s-55.694-39.17-87.672-43.607-94.1 9.18-121.028-13.312-40.394-52.481-6.732-76.5 80.634-18.361 126.077-36.262 89.356-68.088 89.356-90.274-32.131-81.4-40.547-85.836S560.042.4 560.042.4" class="prefix__cls-2" data-name="Path 33878" transform="translate(211.139 -.4)"/>
                <path id="prefix__Path_33879" d="M618.64 256.934s-47.279-29.683-85.989-29.377S428.3 236.891 428.3 206.748s55.694-41.618 95.17-42.536 78.186-26.623 78.186-26.623l16.984-17.29" data-name="Path 33879" transform="translate(226.75 63.154)" style="stroke-width:1.148px;fill:none;stroke:#5f2d78;stroke-miterlimit:10;opacity:.25"/>
                <path id="prefix__Path_33880" d="M579.681 206.836a273.272 273.272 0 0 0-65.793-20.2c-37.027-6.273 21.88-22.951 31.978-27.388S579.681 149 579.681 149" data-name="Path 33880" transform="translate(265.708 78.367)" style="stroke-width:1.148px;fill:none;stroke:#5f2d78;stroke-miterlimit:10;opacity:.25"/>
                <g id="prefix__Group_1495" data-name="Group 1495" transform="translate(140.384 158.942)">
                    <path id="prefix__Path_33881" d="M556.762 150.386a7.8 7.8 0 0 0-3.825-2.6c-1.683-.306-2.754 1.377-3.825 2.448l-.918.918c-6.426 6.579-21.88 19.432-30.448 9.792a12.087 12.087 0 0 1-2.907-7.8c0-.918 0-.918.918-1.224a42.383 42.383 0 0 0 22.186-11.934 25.4 25.4 0 0 0 7.956-11.934 10.4 10.4 0 0 0-.918-8.415c-2.3-3.672-5.814-5.2-9.792-5.661a21.115 21.115 0 0 0-13.464 3.213 45.136 45.136 0 0 0-17.6 19.432 37.792 37.792 0 0 0-3.519 10.251 31.978 31.978 0 0 1-5.967-.459c-5.049-.918-6.885-3.366-6.732-4.743l1.071-1.683a63.344 63.344 0 0 0 6.426-13.006 5.814 5.814 0 0 0-.153-4.743 14.688 14.688 0 0 0-9.027-7.344c-1.836-.612-2.3-.153-2.907 1.683s-1.377 4.131-2.142 6.12a144.57 144.57 0 0 1-7.5 15.913 200.747 200.747 0 0 1-13.771 22.951 52.16 52.16 0 0 1-3.978 4.59 1.53 1.53 0 0 1-1.224.459c-.306-.153-.459-.765-.459-1.224a17.287 17.287 0 0 1 .306-3.06 89.363 89.363 0 0 1 3.978-13.159 118.576 118.576 0 0 0 5.355-17.137 9.486 9.486 0 0 0-.306-5.355 13.923 13.923 0 0 0-5.508-6.426 12.852 12.852 0 0 0-5.967-2.448c-1.683-.153-2.6.459-2.754 2.3s-.153 2.907-.306 4.437-.459 3.366-.765 5.049-.765 4.131-1.224 6.12l-1.53 6.885c-.765 3.366-1.53 5.967-2.3 9.333a8.109 8.109 0 0 1-2.142 3.825l-2.907 2.448c-3.06 2.6-7.65 5.355-11.934 4.284s-3.978-5.049-3.519-8.262 6.885-13.924 9.486-18.208a3.213 3.213 0 0 0 0-3.672 11.475 11.475 0 0 0-4.131-3.825 12.239 12.239 0 0 0-3.519-1.377 4.9 4.9 0 0 0-4.743 1.989c-6.885 8.262-17.749 20.5-26.011 27.388a27.848 27.848 0 0 1-7.038 4.743 2.3 2.3 0 0 1-2.448 0c-.765-.612-.612-1.683-.459-2.6a22.186 22.186 0 0 1 2.6-6.273 55.085 55.085 0 0 1 11.169-13.924 62.274 62.274 0 0 1 19.585-12.394l6.732-2.3c1.071-.306 1.377-.612 1.224-1.683a6.886 6.886 0 0 0-1.377-3.519 9.945 9.945 0 0 0-8.109-4.9 26.776 26.776 0 0 0-8.874 1.53 43.3 43.3 0 0 0-14.23 8.109l-3.978 3.519c-4.284.765-18.361 0-19.279-6.885l-.459-1.224a13.159 13.159 0 0 0-9.792-7.191c-1.683-.306-2.3.459-2.754 2.142a174.735 174.735 0 0 1-6.579 24.634c-2.6 7.038-5.967 14.23-11.475 19.279l-.459.459a9.486 9.486 0 0 1-5.355 2.448 2.754 2.754 0 0 1-3.06-1.836 7.037 7.037 0 0 1-.612-2.754 48.806 48.806 0 0 1 .918-7.038 84 84 0 0 1 4.437-13.006 12.393 12.393 0 0 0 .918-2.907 4.284 4.284 0 0 0-2.448-4.284c-2.754-1.836-6.885-3.672-10.251-3.366s-4.9 4.437-5.661 7.344c-2.448 9.486-5.814 20.044-13.465 26.47a9.486 9.486 0 0 1-5.355 2.448c-8.568.765 1.683-26.164 2.448-29.989a11.629 11.629 0 0 0-.306-6.426 15.607 15.607 0 0 0-7.191-8.262 9.181 9.181 0 0 0-4.9-1.53 1.683 1.683 0 0 0-1.836 1.071 10.7 10.7 0 0 0-.459 1.53c-2.3 11.781-6.579 23.41-6.732 35.5-.153 8.109 1.377 18.208 10.71 20.2a16.831 16.831 0 0 0 10.1-1.071 38.251 38.251 0 0 0 11.781-7.956l2.907-2.754a17.447 17.447 0 0 0 1.377 3.672 11.935 11.935 0 0 0 8.415 6.885c14.23 3.213 25.7-9.792 32.59-20.35a83.39 83.39 0 0 0 10.863-22.951c3.519 2.754 13.005 3.519 15.913 3.06a71.292 71.292 0 0 0-5.661 8.109 49.727 49.727 0 0 0-7.65 20.044 16.678 16.678 0 0 0 .765 7.8 7.956 7.956 0 0 0 7.8 5.355 18.667 18.667 0 0 0 7.956-2.142 53.858 53.858 0 0 0 11.781-7.956l11.476-10.251.765-.612-.612 3.06c-.918 4.59-.612 10.251 3.519 13.312s7.5 2.754 11.322 2.142c6.426-.765 11.934-4.284 16.372-8.874v2.6A17.748 17.748 0 0 0 444 174.1a7.191 7.191 0 0 0 7.191 3.672 15.148 15.148 0 0 0 5.967-2.142 48.348 48.348 0 0 0 10.1-8.109 131.428 131.428 0 0 0 15.142-18.206 24.328 24.328 0 0 0 8.415 3.672 41.311 41.311 0 0 0 8.874.306 20.206 20.206 0 0 0 .153 2.3 27.847 27.847 0 0 0 .765 3.825 17.9 17.9 0 0 0 8.109 10.4c13.159 7.956 28.918.765 39.476-7.8 1.989-1.683 4.131-4.284 5.967-5.967s4.286-3.523 2.603-5.665zm-39.629-9.027a37.335 37.335 0 0 1 10.557-14.23 11.322 11.322 0 0 1 4.284-2.448h1.989a1.377 1.377 0 0 1 1.377 1.377 5.815 5.815 0 0 1-.918 3.519 28.154 28.154 0 0 1-7.344 8.415 41.16 41.16 0 0 1-10.252 6.273h-.612z" class="prefix__cls-6" data-name="Path 33881" transform="translate(7.171 -100.475)"/>
                    <path id="prefix__Path_33882" d="M324.939 176.069l-4.284-11.169H315.3v17.9h3.825v-12.851l5.049 12.853h1.683l5.049-12.853V182.8h3.825v-17.9h-5.355z" class="prefix__cls-6" data-name="Path 33882" transform="translate(26.469 -72.147)"/>
                    <path id="prefix__Path_33883" d="M338.685 164.9l-6.885 17.9h4.284l1.071-3.06h7.65l1.071 3.06h4.284l-6.885-17.9zm-.459 11.475l2.754-7.8 2.754 7.8z" class="prefix__cls-6" data-name="Path 33883" transform="translate(35.215 -72.147)"/>
                    <path id="prefix__Path_33884" d="M362.136 170.721a5.661 5.661 0 0 0-6.12-5.814H347.6v17.9h3.825v-6.426h2.907l3.519 6.426h4.437l-4.131-6.885a5.2 5.2 0 0 0 3.978-5.2zm-6.579 2.448h-3.978v-4.9h3.978a2.448 2.448 0 0 1 0 4.9z" class="prefix__cls-6" data-name="Path 33884" transform="translate(43.59 -72.153)"/>
                    <path id="prefix__Path_33885" d="M376.442 164.9h-4.59l-6.426 7.956V164.9H361.6v17.9h3.825v-5.508l1.377-1.683 5.508 7.191h4.743l-7.65-9.486z" class="prefix__cls-6" data-name="Path 33885" transform="translate(51.01 -72.147)"/>
                    <path id="prefix__Path_33886" d="M375.4 182.8h12.7v-3.366h-8.874v-3.978h8.721v-3.366h-8.721v-3.825h8.874V164.9h-12.7z" class="prefix__cls-6" data-name="Path 33886" transform="translate(58.325 -72.147)"/>
                    <path id="prefix__Path_33887" d="M387.6 168.266h5.355V182.8h3.825v-14.534h5.2V164.9H387.6z" class="prefix__cls-6" data-name="Path 33887" transform="translate(64.792 -72.147)"/>
                    <path id="prefix__Rectangle_8367" d="M0 0H3.825V17.963H0z" class="prefix__cls-6" data-name="Rectangle 8367" transform="translate(473.201 92.753)"/>
                    <path id="prefix__Path_33888" d="M421.64 176.222l-8.262-11.322H409.4v17.9h3.825v-11.627l8.568 11.628h3.672V164.9h-3.825z" class="prefix__cls-6" data-name="Path 33888" transform="translate(76.347 -72.147)"/>
                    <path id="prefix__Path_33889" d="M433.175 176.355h4.743v2.145a5.7 5.7 0 1 1-3.825-10.4 5.2 5.2 0 0 1 4.284 2.3l3.213-1.683a8.415 8.415 0 0 0-7.344-3.978 9.333 9.333 0 1 0 0 18.514 9.945 9.945 0 0 0 7.65-3.366v-6.885h-8.568z" class="prefix__cls-6" data-name="Path 33889" transform="translate(83.938 -72.279)"/>
                    <path id="prefix__Path_33890" d="M160.277 107.972a53.093 53.093 0 0 0-36.721-.765 43.76 43.76 0 0 0-26.929 23.716 49.88 49.88 0 0 0-3.213 33.2 44.066 44.066 0 0 0 18.667 27.388 50.186 50.186 0 0 0 28.153 8.415 54.776 54.776 0 0 0 19.891-3.366 44.219 44.219 0 0 0 25.552-24.022 49.421 49.421 0 0 0 2.907-31.06c-3.367-16.217-12.853-27.539-28.307-33.506zm2.142 59.978a23.257 23.257 0 0 1-17.29 10.71 27.388 27.388 0 0 1-14.995-1.836c-8.262-3.672-12.853-10.1-14.383-18.82-.153-.918-.306-1.989-.459-3.06a16.678 16.678 0 0 1-.153-2.6 28 28 0 0 1 5.2-17.137 23.869 23.869 0 0 1 17.137-9.639 27.694 27.694 0 0 1 14.383 1.836 23.1 23.1 0 0 1 13.465 14.689c2.757 9.179 2.145 17.901-2.904 25.857z" class="prefix__cls-6" data-name="Path 33890" transform="translate(-91.931 -104.268)"/>
                    <path id="prefix__Path_33891" d="M243.334 132.158c-2.907-11.781-9.639-20.35-21.115-24.634a52.481 52.481 0 0 0-32.59-1.224 32.284 32.284 0 0 0-20.809 16.219 42.23 42.23 0 0 0-4.9 20.35c-.153 18.208 0 36.262 0 54.47q.058.386.153.765h22.186v-26.011h35.956V198.1h22.8v-52.94a54.163 54.163 0 0 0-1.681-13.002zm-22.186 20.2h-34.886c0-3.825-.153-7.5 0-11.169a21.728 21.728 0 0 1 1.53-6.273 13.464 13.464 0 0 1 10.557-8.568 26.471 26.471 0 0 1 12.853.306 13.464 13.464 0 0 1 9.945 10.251 31.518 31.518 0 0 1 .918 5.967c.153 2.907 0 5.814.153 8.721-.153.612-.306.765-.918.765z" class="prefix__cls-6" data-name="Path 33891" transform="translate(-53.806 -104.279)"/>
                    <path id="prefix__Path_33892" d="M297.724 184.91c-12.853-8.721-19.126-26.164-21.574-34.885l2.907-3.213a84.612 84.612 0 0 0 18.667-37.027 105.733 105.733 0 0 0-10.4-2.3c-3.978-.612-7.8 0-10.1-.153a63.957 63.957 0 0 1-13.624 26.321 60.132 60.132 0 0 1-12.852 10.863v-37.792c0-.918-.153-1.224-1.071-1.224H227.8v91.8h22.8v-30.139l7.191-3.519c4.437 11.934 12.853 28.153 27.694 38.251s39.935 13.618 53.093 13.618l7.956-.306a105.575 105.575 0 0 0 .612-10.557 89.5 89.5 0 0 0-.765-10.251c-3.52.458-31.368 2.295-48.657-9.487z" class="prefix__cls-6" data-name="Path 33892" transform="translate(-19.912 -103.632)"/>
                </g>
            </g>
        </g>
    </g>
</svg>
