<svg xmlns="http://www.w3.org/2000/svg" width="845.068" height="430.883" viewBox="0 0 845.068 430.883">
    <defs>
        <linearGradient id="prefix__linear-gradient" x1="1.241" x2="-.241" y1=".123" y2=".877" gradientUnits="objectBoundingBox">
            <stop offset=".759" stop-color="#28163e"/>
            <stop offset="1" stop-color="#1b0e2c"/>
        </linearGradient>
        <style>
            .prefix__cls-2{fill:none;stroke:#5f2d78;stroke-miterlimit:10;stroke-width:.75px;opacity:.8}.prefix__cls-3{fill:#fff}
        </style>
    </defs>
    <g id="prefix__logo_dark_horiontal_rectangle_on_background" data-name="logo / dark / horiontal / rectangle / on background" transform="translate(.177 .361)">
        <g id="prefix__Group_20" data-name="Group 20">
            <path id="prefix__Rectangle_16" d="M0 0H430.152V844.515H0z" data-name="Rectangle 16" transform="rotate(90 422.257 422.258)"/>
            <path id="prefix__Path_108" d="M-2906.864-1422.82s-2.962 19.315 8.395 27.744 47.9 14.75 61.726 28.1 24.691 24.934 21.728 39.335-16.79 18.965-21.728 27.744-15.8 26.341-30.616 35.822-99.748 44.251-112.093 105.008 7.9 71.645 35.06 83.936 86.9 38.984 129.866 43.9 74.677 3.512 96.295 13.346a96.464 96.464 0 0 1 33.578 25.219" class="prefix__cls-2" data-name="Path 108" transform="translate(3497.668 1422.82)"/>
            <path id="prefix__Path_109" d="M-2697.409-1003.131s-9.359-1.6-24.708-10.693-41.284-26.141-77.273-41.294-64.572-26.52-74.627-53.418 0-71.98 38.107-123.5 41.812-53.8 41.282-66.677-17.1-31.064-31.542-43.937c-13.622-12.144-33.028-29.937-39.379-37.515s-8.468-15.532-23.287-17.427-22.758-1.137-52.928 15.153-95.329 42.508-110.086 58.721c-39.775 43.7-36.1 81.128-66.158 109.866-42.757 40.874-205.9 67.843-172.541 128.427 20.192 36.678 119.134 9.666 190.535 47.356 30.961 16.342 32.352 34.94 32.352 34.94" class="prefix__cls-2" data-name="Path 109" transform="translate(3308.47 1433.283)"/>
            <path id="prefix__Path_110" d="M-2796.94-1049.626s-11.264-16.462-38.842-28.829-71.082-24.732-85.843-46.888-11.652-44.312 0-71.878 50.241-83.729 49.4-100.218-2.465-42.508-59.335-56.42-124.068 16.23-139.217 44.054-30.3 65.1-60.983 82.66-112.644 41-111.089 74.494 91.668 26.792 134.006 51.268 48.165 51.757 48.165 51.757" class="prefix__cls-2" data-name="Path 110" transform="translate(3330.739 1479.778)"/>
            <path id="prefix__Path_111" d="M-2864.63-1060.872s-9.288-11.551-48.227-26.716-65.373-28.434-70.732-40.043 7.144-58.525 20.362-88.379 34.3-60.421 31.08-79.85-20-30.091-45.369-34.119-63.23 2.369-91.453 38.385-32.15 41.722-47.512 53.2-95.381 40.863-85.737 65.268 63.588 33.172 91.809 43.123 48.227 18.718 56.087 34.356 6.429 34.772 6.429 34.772" class="prefix__cls-2" data-name="Path 111" transform="translate(3365.768 1491.023)"/>
            <path id="prefix__Path_112" d="M-2993.61-1422.82s-96.465 26.292-119.988 55.333-29.8 68.224-56.457 85.557-134.387 75.112-134.387 75.112" class="prefix__cls-2" data-name="Path 112" transform="translate(3304.442 1422.82)"/>
            <path id="prefix__Path_113" d="M-2686.221-1051.313s-51.924-39.675-81.721-44.189-87.822 9.234-112.914-13.435-37.637-53.085-6.272-77.365 75.275-18.637 117.617-36.689 83.29-68.822 83.29-91.387-29.969-82.36-37.811-86.874-31.365-21.568-31.365-21.568" class="prefix__cls-2" data-name="Path 113" transform="translate(3530.737 1422.821)"/>
            <path id="prefix__Path_114" d="M-2698.809-1175.427s-44.084-27.723-80.153-27.384-97.374 8.66-97.3-19.425 51.924-38.842 88.727-39.7 72.873-24.785 72.873-24.785l15.856-16.1" class="prefix__cls-2" data-name="Path 114" transform="translate(3543.325 1492.216)"/>
            <path id="prefix__Path_115" d="M-2730.194-1220.239a254.839 254.839 0 0 0-61.335-18.788c-34.5-5.844 20.465-21.447 29.835-25.607s31.5-9.54 31.5-9.54" class="prefix__cls-2" data-name="Path 115" transform="translate(3574.71 1504.028)"/>
            <g id="prefix__Group_19" data-name="Group 19" transform="translate(159.011 162.876)">
                <path id="prefix__Path_116" d="M-2766.652-1275.37a7.281 7.281 0 0 0-3.547-2.447c-1.544-.3-2.62 1.274-3.526 2.255q-.407.441-.824.869c-5.934 6.114-20.371 18.127-28.442 9.088a11.288 11.288 0 0 1-2.666-7.328c-.039-.869.056-.881.912-1.092a47.455 47.455 0 0 0 5.938-1.643 47.727 47.727 0 0 0 14.789-9.537c3.4-3.108 6.252-6.623 7.491-11.189a9.639 9.639 0 0 0-.9-7.825c-2.077-3.418-5.382-4.794-9.153-5.235a19.753 19.753 0 0 0-12.5 2.973 42.172 42.172 0 0 0-16.433 18.1 35.35 35.35 0 0 0-3.258 9.6 29.823 29.823 0 0 1-5.6-.483c-4.642-.829-6.372-3.207-6.275-4.46q.5-.814 1-1.633a59.1 59.1 0 0 0 5.929-12.165 5.487 5.487 0 0 0-.1-4.418 13.746 13.746 0 0 0-8.431-6.807c-1.662-.525-2.144-.089-2.675 1.591-.6 1.9-1.233 3.8-1.957 5.657a134.956 134.956 0 0 1-6.97 14.891 187.264 187.264 0 0 1-12.891 21.434 48.572 48.572 0 0 1-3.729 4.336 1.372 1.372 0 0 1-1.21.368c-.289-.133-.493-.759-.488-1.165a16.252 16.252 0 0 1 .283-2.881 83.374 83.374 0 0 1 3.673-12.219c1.9-5.262 3.97-10.469 5.059-15.986a8.8 8.8 0 0 0-.3-5 13.043 13.043 0 0 0-5.123-6.032 11.984 11.984 0 0 0-5.619-2.275c-1.634-.151-2.395.485-2.522 2.1-.107 1.359-.161 2.724-.317 4.077-.178 1.57-.4 3.138-.678 4.694-.341 1.924-.732 3.84-1.142 5.751-.456 2.125-.945 4.243-1.446 6.358-.749 3.167-1.417 5.551-2.175 8.71a7.574 7.574 0 0 1-1.943 3.632c-.944.829-1.811 1.748-2.765 2.566-2.89 2.476-7.168 5.066-11.127 3.964-3.411-.949-3.738-4.685-3.217-7.675.795-4.562 6.442-13.047 8.874-16.978a2.949 2.949 0 0 0-.038-3.481 10.716 10.716 0 0 0-3.871-3.6 11.42 11.42 0 0 0-3.227-1.253 4.517 4.517 0 0 0-4.538 1.919c-6.365 7.7-16.5 19.15-24.207 25.505a26.056 26.056 0 0 1-6.562 4.357 2.126 2.126 0 0 1-2.313-.007c-.751-.641-.548-1.55-.371-2.4a20.708 20.708 0 0 1 2.416-5.81 51.317 51.317 0 0 1 10.437-12.921 58.117 58.117 0 0 1 18.261-11.56c2.042-.792 4.153-1.411 6.241-2.079.965-.307 1.237-.6 1.177-1.605a6.429 6.429 0 0 0-1.344-3.315c-1.851-2.613-4.212-4.437-7.567-4.5a24.972 24.972 0 0 0-8.289 1.376 40.335 40.335 0 0 0-13.228 7.611c-1.269 1.061-2.482 2.169-3.651 3.317-4.057.765-17.068-.044-18.026-6.4a5.5 5.5 0 0 0-.454-1.156 12.318 12.318 0 0 0-9.19-6.766c-1.561-.315-2.189.358-2.512 1.934a162.817 162.817 0 0 1-6.1 22.945c-2.366 6.519-5.513 13.218-10.763 17.926-.147.133-.3.264-.448.392a8.837 8.837 0 0 1-5.022 2.3 2.623 2.623 0 0 1-2.918-1.77 6.584 6.584 0 0 1-.5-2.623 45.415 45.415 0 0 1 .883-6.6 78.393 78.393 0 0 1 4.076-12.092 11.466 11.466 0 0 0 .889-2.682c.258-1.835-.845-3.05-2.252-3.965-2.575-1.674-6.409-3.387-9.543-3.1-3.374.308-4.514 4.17-5.225 6.914-2.282 8.815-5.4 18.631-12.581 24.755a8.845 8.845 0 0 1-5.019 2.3c-8.061.7 1.605-24.417 2.336-27.956a10.849 10.849 0 0 0-.3-5.96 14.542 14.542 0 0 0-6.642-7.688 8.541 8.541 0 0 0-4.544-1.444 1.589 1.589 0 0 0-1.642 1.012 10.186 10.186 0 0 0-.364 1.444c-2.143 10.938-6.069 21.8-6.35 33.153-.187 7.592 1.281 16.963 9.94 18.9a15.652 15.652 0 0 0 9.458-1.063 35.714 35.714 0 0 0 11.044-7.387q1.363-1.284 2.646-2.623a16.39 16.39 0 0 0 1.223 3.489 11.171 11.171 0 0 0 7.827 6.451c13.279 2.977 23.927-9.062 30.463-18.958a77.7 77.7 0 0 0 10.145-21.391c3.337 2.523 12.106 3.281 14.831 2.813a66.686 66.686 0 0 0-5.34 7.559c-3.509 5.788-6.306 11.861-7.1 18.685a15.613 15.613 0 0 0 .717 7.282 7.355 7.355 0 0 0 7.332 5.062 17.346 17.346 0 0 0 7.443-2.008 50.24 50.24 0 0 0 10.945-7.4c3.648-3.138 7.183-6.406 10.769-9.617.206-.183.427-.347.772-.628-.217 1.049-.4 1.919-.578 2.79-.875 4.3-.554 9.552 3.225 12.413 2.964 2.245 7.033 2.513 10.594 2.055 6.061-.781 11.062-4 15.332-8.3-.035.825-.061 1.648-.04 2.472a16.534 16.534 0 0 0 2.433 8.776 6.764 6.764 0 0 0 6.774 3.421 14.176 14.176 0 0 0 5.593-2.014 45.087 45.087 0 0 0 9.486-7.611 122.743 122.743 0 0 0 14.084-17.036 22.72 22.72 0 0 0 7.909 3.374 38.621 38.621 0 0 0 8.344.341 19.039 19.039 0 0 0 .144 2.172 25.966 25.966 0 0 0 .755 3.538 16.759 16.759 0 0 0 7.526 9.645c12.312 7.445 26.979.722 36.835-7.321 1.914-1.563 3.8-3.93 5.622-5.606 1.372-1.267 3.333-3.373 1.733-5.243zm-36.891-8.434a34.875 34.875 0 0 1 9.833-13.294 10.6 10.6 0 0 1 4.056-2.272 5.506 5.506 0 0 1 1.889-.131 1.339 1.339 0 0 1 1.238 1.266 5.466 5.466 0 0 1-.8 3.258 26.256 26.256 0 0 1-6.8 7.846 38.356 38.356 0 0 1-9.619 5.841c-.187.078-.384.136-.576.2l-.184-.16c.319-.85.597-1.72.963-2.55z" class="prefix__cls-3" data-name="Path 116" transform="translate(3292.546 1321.92)"/>
                <path id="prefix__Path_117" d="M-2980.263-1247.8l-4.069-10.472h-5v16.751h3.566v-12.08l4.721 12.08h1.557l4.721-12.08v12.08h3.591v-16.751h-5.023z" class="prefix__cls-3" data-name="Path 117" transform="translate(3308.021 1344.726)"/>
                <path id="prefix__Path_118" d="M-2966.42-1258.271l-6.455 16.75h4.043l1.054-2.837h7.183l1.055 2.837h4.043l-6.453-16.75zm-.378 10.773l2.613-7.207 2.611 7.207z" class="prefix__cls-3" data-name="Path 118" transform="translate(3315.049 1344.726)"/>
                <path id="prefix__Path_119" d="M-2943.479-1252.872c0-3.114-2.161-5.4-5.651-5.4h-7.835v16.75h3.566v-5.952h2.612l3.289 5.952h4.119l-3.792-6.379a4.845 4.845 0 0 0 3.692-4.971zm-6.154 2.26h-3.766v-4.521h3.766a2.262 2.262 0 0 1 2.486 2.236 2.271 2.271 0 0 1-2.486 2.285z" class="prefix__cls-3" data-name="Path 119" transform="translate(3321.844 1344.726)"/>
                <path id="prefix__Path_120" d="M-2929.123-1258.271h-4.395l-5.927 7.459v-7.459h-3.565v16.751h3.565v-5.148l1.306-1.582 5.073 6.731h4.394l-7.107-8.89z" class="prefix__cls-3" data-name="Path 120" transform="translate(3327.804 1344.726)"/>
                <path id="prefix__Path_121" d="M-2929.179-1241.521h11.854v-3.14h-8.288v-3.817h8.112v-3.139h-8.112v-3.516h8.288v-3.139h-11.854z" class="prefix__cls-3" data-name="Path 121" transform="translate(3333.713 1344.726)"/>
                <path id="prefix__Path_122" d="M-2917-1255.132h4.9v13.612h3.591v-13.612h4.872v-3.139H-2917z" class="prefix__cls-3" data-name="Path 122" transform="translate(3338.914 1344.726)"/>
                <path id="prefix__Rectangle_17" d="M0 0H3.566V16.751H0z" class="prefix__cls-3" data-name="Rectangle 17" transform="translate(441.327 86.455)"/>
                <path id="prefix__Path_123" d="M-2883.806-1247.749l-7.76-10.523h-3.667v16.751h3.566v-10.925l7.986 10.925h3.44v-16.751h-3.566z" class="prefix__cls-3" data-name="Path 123" transform="translate(3348.212 1344.726)"/>
                <path id="prefix__Path_124" d="M-2872.266-1247.59h4.421v2.008a5.579 5.579 0 0 1-3.542 1.281 5.221 5.221 0 0 1-5.273-5.5 5.221 5.221 0 0 1 5.273-5.5 4.816 4.816 0 0 1 3.969 2.185l2.939-1.607a7.822 7.822 0 0 0-6.907-3.742c-4.922 0-8.939 3.365-8.939 8.664 0 5.273 4.017 8.664 8.939 8.664a9.262 9.262 0 0 0 7.107-3.138v-6.429h-7.986z" class="prefix__cls-3" data-name="Path 124" transform="translate(3354.578 1344.643)"/>
                <path id="prefix__Path_125" d="M-3148.92-1315.464a49.562 49.562 0 0 0-34.242-.658 40.816 40.816 0 0 0-25.123 22.116 46.528 46.528 0 0 0-3 30.96 41.051 41.051 0 0 0 17.427 25.571 46.755 46.755 0 0 0 26.242 7.831 51.016 51.016 0 0 0 18.6-3.175c11.013-4.249 19.092-11.662 23.865-22.477a46.089 46.089 0 0 0 2.778-29.01c-3.275-15.049-12.153-25.594-26.547-31.158zm1.978 55.949c-3.733 5.882-9.329 9.012-16.161 9.953a25.58 25.58 0 0 1-13.991-1.715c-7.674-3.365-11.922-9.419-13.485-17.5-.177-.918-.287-1.852-.373-2.786-.08-.869-.085-1.747-.112-2.372.046-5.953 1.367-11.274 4.811-15.928a22.259 22.259 0 0 1 15.951-9 25.866 25.866 0 0 1 13.439 1.737 21.483 21.483 0 0 1 12.562 13.743c2.648 8.302 2.101 16.383-2.641 23.867z" class="prefix__cls-3" data-name="Path 125" transform="translate(3212.641 1318.851)"/>
                <path id="prefix__Path_126" d="M-3066.565-1292.863c-2.681-10.984-8.971-18.985-19.708-22.988a48.964 48.964 0 0 0-30.379-1.1 30.127 30.127 0 0 0-19.467 15.075 39.429 39.429 0 0 0-4.625 18.942c-.1 16.911-.052 33.824-.058 50.737a7.4 7.4 0 0 0 .076.782h20.69v-24.234h33.567v24.254h21.211v-1.083q0-24.149.005-48.3a50.57 50.57 0 0 0-1.312-12.085zm-20.665 18.8q-16.2-.023-32.408-.02a1.165 1.165 0 0 1-.25-.053c0-3.54-.158-7.013.06-10.459a20.245 20.245 0 0 1 1.36-5.9c1.72-4.462 5.154-7.031 9.793-8.013a24.725 24.725 0 0 1 11.989.3 12.61 12.61 0 0 1 9.231 9.576 29.54 29.54 0 0 1 .86 5.634c.156 2.711.066 5.437.1 8.156.01.542-.137.781-.735.78z" class="prefix__cls-3" data-name="Path 126" transform="translate(3243.321 1318.857)"/>
                <path id="prefix__Path_127" d="M-3011.625-1243.627c-12.046-8.2-17.849-24.468-20.168-32.555q1.374-1.4 2.681-2.927a78.944 78.944 0 0 0 17.351-34.528 98.634 98.634 0 0 0-9.714-2.2c-3.664-.581-7.234 0-9.486-.1a59.677 59.677 0 0 1-12.71 24.5 56.115 56.115 0 0 1-11.944 10.17c-.007-15.223-.011-30.626 0-35.184 0-.812-.15-1.137-1.068-1.13-6.388.041-12.777.021-19.166.024-.305 0-.611.027-.95.044v85.576h21.217c0-4.348-.007-15.389-.016-28.164 2.085-.926 4.344-2.024 6.692-3.312 4.134 11.163 11.942 26.212 25.888 35.7 16.052 10.924 37.237 12.724 49.458 12.724 3.11 0 5.637-.117 7.354-.23a98.657 98.657 0 0 0 .641-9.894 83.531 83.531 0 0 0-.7-9.58c-3.303.278-29.184 2.075-45.36-8.934z" class="prefix__cls-3" data-name="Path 127" transform="translate(3270.66 1319.391)"/>
            </g>
        </g>
    </g>
</svg>
