<svg xmlns="http://www.w3.org/2000/svg" id="prefix__Component_71_1" width="273.04" height="131.512" data-name="Component 71 – 1" viewBox="0 0 273.04 131.512">
    <g id="prefix__Artwork_332" data-name="Artwork 332" transform="translate(136.52 65.756)">
        <path id="prefix__Path_1196" d="M250.546 46.585a11.936 11.936 0 00-9.181-5.968C212.9 42.454 111.908 44.749 46.72.219a1.836 1.836 0 00-2.3.459c-7.345 10.1-16.067 22.035-23.412 34.43S5.863 62.652.354 74.129a2.754 2.754 0 00.919 3.671c70.237 45.448 160.673 53.252 213.466 53.711h27.085a13.772 13.772 0 008.722-5.968c7.345-11.018 22.494-33.512 22.494-38.1s-15.608-31.217-22.494-40.858z" data-name="Path 1196" transform="translate(-136.52 -65.756)" style="fill:#eb8b23"/>
    </g>
</svg>
