<svg xmlns="http://www.w3.org/2000/svg" width="961.511" height="542.942" viewBox="0 0 961.511 542.942">
    <defs>
        <linearGradient id="prefix__linear-gradient" x1="-.387" x2="1.387" y1=".5" y2=".5" gradientUnits="objectBoundingBox">
            <stop offset="0" stop-color="#5f2d78"/>
            <stop offset="1" stop-color="#af206e"/>
        </linearGradient>
        <style>
            .prefix__cls-2{fill:none;stroke:#5f2d78;stroke-miterlimit:10;stroke-width:2px;opacity:.6}
        </style>
    </defs>
    <g id="prefix__Component_226_1" data-name="Component 226 – 1" transform="translate(.511 .957)">
        <g id="prefix__pink_background_with_lines" data-name="pink background with lines">
            <path id="prefix__Rectangle_23" d="M0 0H541V960H0z" data-name="Rectangle 23" transform="rotate(90 480 480)"/>
            <path id="prefix__Path_174" d="M640.26-3563.912s-3.607 24.294 10.22 34.9 58.316 18.551 75.149 35.336 30.06 31.361 26.453 49.47-20.441 23.852-26.453 34.9-19.238 33.127-37.274 45.053-121.441 55.655-136.47 132.069 9.619 90.107 42.684 105.566 105.8 49.029 158.11 55.213S843.6-3067 869.916-3054.63s40.881 31.718 40.881 31.718" class="prefix__cls-2" data-name="Path 174" transform="translate(10.854 3563.912)"/>
            <path id="prefix__Path_175" d="M733.1-3022.912s-11.4-2-30.082-13.363-50.261-32.666-94.078-51.6-78.613-33.14-90.856-66.753 0-89.95 46.4-154.336 50.9-67.226 50.261-83.322-20.824-38.82-38.4-54.906c-16.585-15.176-40.211-37.412-47.944-46.88s-10.31-19.41-28.352-21.777-27.708-1.421-64.437 18.936-116.061 53.12-134.029 73.381c-48.425 54.606-43.947 101.381-80.546 137.293-52.055 51.078-250.673 84.78-210.064 160.49 24.584 45.835 145.044 12.079 231.973 59.178 37.694 20.423 39.386 43.662 39.386 43.662" class="prefix__cls-2" data-name="Path 175" transform="translate(10.854 3563.912)"/>
            <path id="prefix__Path_176" d="M639.035-3022.912s-13.714-22.2-47.29-38.879-86.54-33.354-104.51-63.234-14.187-59.76 0-96.936 61.166-112.919 60.139-135.155-3-57.328-72.24-76.09-151.049 21.889-169.492 59.412S268.756-3286 231.4-3262.317s-137.141 55.3-135.249 100.463 111.6 36.134 163.15 69.141 58.639 69.8 58.639 69.8" class="prefix__cls-2" data-name="Path 176" transform="translate(10.854 3563.912)"/>
            <path id="prefix__Path_177" d="M577.348-3022.912s-11.309-15.579-58.715-36.029-79.592-38.346-86.116-54 8.7-78.927 24.791-119.19 41.753-81.483 37.839-107.686-24.356-40.582-55.236-46.014-76.982 3.2-111.341 51.766-39.143 56.267-57.845 71.751-116.125 55.105-104.383 88.014 77.417 44.736 111.776 58.156 58.715 25.244 68.284 46.334 7.829 46.894 7.829 46.894" class="prefix__cls-2" data-name="Path 177" transform="translate(10.854 3563.912)"/>
            <path id="prefix__Path_178" d="M367.578-3563.912s-117.444 35.458-146.083 74.624-36.277 92.007-68.735 115.385-163.614 101.3-163.614 101.3" class="prefix__cls-2" data-name="Path 178" transform="translate(10.854 3563.912)"/>
            <path id="prefix__Path_179" d="M949.146-3102s-63.217-49.332-99.493-54.943-106.921 11.481-137.47-16.7-45.823-66-7.637-96.191 91.646-23.174 143.2-45.618 101.4-85.569 101.4-113.625-36.487-102.4-46.033-108.013-38.186-26.818-38.186-26.818" class="prefix__cls-2" data-name="Path 179" transform="translate(10.854 3563.912)"/>
            <path id="prefix__Path_180" d="M949.146-3161.151s-53.67-37.388-97.584-36.93-118.549 11.681-118.462-26.195 63.217-52.384 108.024-53.546 88.72-33.426 88.72-33.426l19.3-21.708" class="prefix__cls-2" data-name="Path 180" transform="translate(10.854 3563.912)"/>
            <path id="prefix__Path_181" d="M949.146-3205.085a289.455 289.455 0 0 0-74.673-25.337c-42-7.882 24.915-28.923 36.324-34.534s38.349-12.866 38.349-12.866" class="prefix__cls-2" data-name="Path 181" transform="translate(10.854 3563.912)"/>
        </g>
    </g>
</svg>
