<svg xmlns="http://www.w3.org/2000/svg" width="865.376" height="440.991" viewBox="0 0 865.376 440.991">
    <defs>
        <style>
            .prefix__cls-1,.prefix__cls-2{fill:none;stroke:#5f2d78;stroke-miterlimit:10;opacity:.8;stroke-width:1.174px}
        </style>
    </defs>
    <g id="prefix__Artwork_58" data-name="Artwork 58" transform="translate(.277 .566)">
        <g id="prefix__Artwork_58-2" data-name="Artwork 58" transform="translate(432.256 219.922)">
            <g id="prefix__Group_188" data-name="Group 188" transform="translate(-432.256 -219.922)">
                <path id="prefix__Path_994" d="M405.045.4s-3.286 19.716 9.232 28.322 52.575 15.021 67.753 28.791 27.07 25.505 23.784 40.214-18.464 19.4-23.784 28.322-17.368 26.913-33.642 36.615S339.013 207.883 325.557 270s8.606 73.229 38.492 85.9 95.292 39.9 142.39 44.908 81.835 3.6 105.619 13.613a104.837 104.837 0 0 1 36.771 25.818" class="prefix__cls-1" data-name="Path 994" transform="translate(181.258 -.4)"/>
                <path id="prefix__Path_995" d="M664.928 426.441s-10.327-1.565-27.07-10.8-45.221-26.6-84.652-41.935-70.726-26.913-81.835-54.3 0-73.073 41.778-125.491S559 139.314 558.37 126.17s-18.777-31.607-34.581-44.595-36.3-30.512-43.343-38.336-9.232-15.8-25.505-17.681-24.879-1.1-58.051 15.334-104.524 43.344-120.641 59.773c-43.656 44.438-39.588 82.461-72.6 111.565-46.942 41.465-225.79 69-189.176 130.5 22.063 37.241 130.655 9.858 208.891 48.037 33.955 16.586 35.519 35.519 35.519 35.519" class="prefix__cls-2" data-name="Path 995" transform="translate(5.089 13.403)"/>
                <path id="prefix__Path_996" d="M550.63 403.276s-12.361-17.994-42.561-31.608-77.923-27.07-94.2-51.48-12.831-48.663 0-78.862 55.078-91.85 54.14-109.844-2.66-46.629-64.936-61.807S267.1 87.514 250.358 118.026s-33.172 71.352-66.814 90.6S60.088 253.532 61.809 290.3s100.456 29.26 146.928 56.174 52.731 56.8 52.731 56.8" data-name="Path 996" transform="translate(34.578 36.569)" style="stroke-width:1.174px;fill:none;stroke:#5f2d78;stroke-miterlimit:10;opacity:.8"/>
                <path id="prefix__Path_997" d="M472.628 388.42s-10.171-12.674-52.888-29.26-71.665-31.138-77.611-43.969 7.824-64.154 22.376-96.857 37.553-66.188 34.111-87.625-21.906-33.016-49.758-37.4-69.317 2.66-100.3 42.091-35.206 45.69-52.105 58.364-104.524 44.751-94.04 71.508 69.787 36.3 100.768 47.255 52.888 20.5 61.494 37.71 7.041 38.179 7.041 38.179" class="prefix__cls-1" data-name="Path 997" transform="translate(57.032 51.425)"/>
                <path id="prefix__Path_998" d="M341 .4S235.222 29.191 209.4 61.111s-32.7 74.638-61.963 93.727S.2 237.143.2 237.143" class="prefix__cls-1" data-name="Path 998" transform="translate(-.2 -.4)"/>
                <path id="prefix__Path_999" d="M639.584 375.935s-56.956-40.057-89.659-44.595-96.231 9.388-123.77-13.613-41.309-53.67-6.885-78.236 82.461-18.777 128.934-37.084 91.38-69.63 91.38-92.319-32.859-83.244-41.465-87.781S563.694.4 563.694.4" class="prefix__cls-2" data-name="Path 999" transform="translate(224.928 -.4)"/>
                <path id="prefix__Path_1000" d="M622.952 260.03s-48.35-30.356-87.938-30.043-106.714 9.545-106.714-21.28 56.956-42.561 97.326-43.5 79.958-27.226 79.958-27.226l17.368-17.681" class="prefix__cls-2" data-name="Path 1000" transform="translate(241.56 67.311)"/>
                <path id="prefix__Path_1001" d="M581.445 208.147a279.463 279.463 0 0 0-67.283-20.654c-37.866-6.415 22.376-23.471 32.7-28.009S581.445 149 581.445 149" data-name="Path 1001" transform="translate(283.067 83.519)" style="stroke-width:1.174px;fill:none;stroke:#5f2d78;stroke-miterlimit:10;opacity:.8"/>
            </g>
        </g>
    </g>
</svg>
