<svg xmlns="http://www.w3.org/2000/svg" width="532.693" height="271.458" viewBox="0 0 532.693 271.458">
    <defs>
        <style>
            .prefix__cls-2,.prefix__cls-3{fill:none;stroke:#5f2d78;stroke-miterlimit:10;opacity:.8;stroke-width:.722px}
        </style>
    </defs>
    <g id="prefix__Artwork_58" data-name="Artwork 58" transform="rotate(180 133.221 67.867)">
        <g id="prefix__Artwork_58-2" data-name="Artwork 58" transform="translate(-266.081 -135.376)">
            <path id="prefix__Path_39168" d="M372.935.4s-2.023 12.136 5.683 17.434 32.363 9.247 41.706 17.723 16.663 15.7 14.64 24.754-11.364 11.943-14.64 17.433-10.691 16.567-20.709 22.539-67.327 27.836-75.61 66.075 5.3 45.077 23.694 52.879 58.658 24.561 87.65 27.643 50.375 2.215 65.015 8.38A64.534 64.534 0 0 1 523 271.152" data-name="Path 39168" transform="translate(-12.029 -.4)" style="stroke-width:.722px;fill:none;stroke:#5f2d78;stroke-miterlimit:10;opacity:.8"/>
            <path id="prefix__Path_39169" d="M412.982 272.052s-6.357-.963-16.663-6.646-27.836-16.374-52.108-25.813-43.536-16.567-50.375-33.423 0-44.981 25.717-77.248 28.221-33.615 27.836-41.706S335.83 67.76 326.1 59.765s-22.346-18.782-26.68-23.6-5.683-9.728-15.7-10.884-15.315-.674-35.734 9.439-64.339 26.68-74.26 36.796c-26.873 27.355-24.369 50.76-44.692 68.675-28.9 25.524-138.988 42.477-116.449 80.33 13.581 22.924 80.426 6.068 128.586 29.57 20.9 10.21 21.864 21.864 21.864 21.864" class="prefix__cls-2" data-name="Path 39169" transform="translate(-.545 -1.3)"/>
            <path id="prefix__Path_39170" d="M362.7 273.562s-7.609-11.077-26.2-19.456-47.967-16.663-57.984-31.689-7.9-29.955 0-48.545 33.9-56.539 33.326-67.616-1.637-28.7-39.972-38.046-83.7 10.98-94.007 29.762-20.42 43.921-41.128 55.769-76 27.643-74.936 50.278 61.837 18.012 90.443 34.578 32.458 34.965 32.458 34.965" class="prefix__cls-3" data-name="Path 39170" transform="translate(-2.467 -2.81)"/>
            <path id="prefix__Path_39171" d="M329.97 274.53s-6.261-7.8-32.556-18.012-44.114-19.167-47.774-27.065 4.816-39.491 13.774-59.621 23.116-40.743 21-53.939-13.485-20.323-30.629-23.02-42.669 1.637-61.74 25.91-21.672 28.125-32.074 35.927-64.341 27.547-57.888 44.018 42.958 22.346 62.029 29.088 32.556 12.618 37.853 23.213 4.334 23.5 4.334 23.5" class="prefix__cls-2" data-name="Path 39171" transform="translate(-3.931 -3.778)"/>
            <path id="prefix__Path_39172" d="M209.982.4s-65.111 17.723-81 37.372-20.134 45.944-38.146 57.695S.2 146.13.2 146.13" class="prefix__cls-2" data-name="Path 39172" transform="translate(-.2 -.4)"/>
            <path id="prefix__Path_39173" d="M547.036 231.565s-35.06-24.658-55.191-27.451-59.236 5.779-76.188-8.38-25.428-33.037-4.238-48.159 50.76-11.558 79.367-22.828 56.25-42.862 56.25-56.828-20.227-51.242-25.524-54.035S500.322.4 500.322.4" class="prefix__cls-3" data-name="Path 39173" transform="translate(-14.875 -.4)"/>
            <path id="prefix__Path_39174" d="M548.12 206.313s-29.762-18.686-54.131-18.493-65.689 5.875-65.689-13.1 35.06-26.2 59.91-26.777 49.219-16.759 49.219-16.759L548.12 120.3" data-name="Path 39174" transform="translate(-15.959 -4.814)" style="stroke-width:.722px;fill:none;stroke:#5f2d78;stroke-miterlimit:10;opacity:.8"/>
            <path id="prefix__Path_39175" d="M550.826 185.408a172.027 172.027 0 0 0-41.417-12.714c-23.309-3.949 13.774-14.448 20.131-17.241S550.826 149 550.826 149" data-name="Path 39175" transform="translate(-18.665 -5.87)" style="stroke-width:.722px;fill:none;stroke:#5f2d78;stroke-miterlimit:10;opacity:.8"/>
        </g>
    </g>
</svg>
