<svg xmlns="http://www.w3.org/2000/svg" id="prefix__Component_80_1" width="140.79" height="541" data-name="Component 80 – 1" viewBox="0 0 140.79 541">
    <defs>
        <linearGradient id="prefix__linear-gradient" x1=".768" x2=".232" y1="1.631" y2="-.631" gradientUnits="objectBoundingBox">
            <stop offset="0" stop-color="#140a23"/>
            <stop offset="1" stop-color="#2e1a47"/>
        </linearGradient>
        <linearGradient id="prefix__linear-gradient-2" x1=".5" x2=".5" y1="1" gradientUnits="objectBoundingBox">
            <stop offset="0" stop-color="#af206e"/>
            <stop offset=".555" stop-color="#e34256"/>
            <stop offset="1" stop-color="#eb8b23"/>
        </linearGradient>
        <clipPath id="prefix__clip-path">
            <path id="prefix__Rectangle_25" d="M0 0H541V136.764H0z" data-name="Rectangle 25" transform="rotate(90 1210.254 -1072.99)" style="fill:none"/>
        </clipPath>
        <style>
            .prefix__cls-4,.prefix__cls-6{fill:none}.prefix__cls-4{stroke:#707070}.prefix__cls-4,.prefix__cls-6{stroke-miterlimit:10}.prefix__cls-4{stroke-width:.5px}.prefix__cls-6{stroke:#2e1a47;stroke-width:.921px}
        </style>
    </defs>
    <g id="prefix__bar_chunky_purple" data-name="bar / chunky / purple">
        <g id="prefix__Group_31" data-name="Group 31" transform="translate(-.5 2283.243)">
            <g id="prefix__Group_30" data-name="Group 30">
                <g id="prefix__Group_29" data-name="Group 29">
                    <path id="prefix__Rectangle_24" d="M0 0H541V221.822H0z" data-name="Rectangle 24" transform="rotate(90 1252.783 -1030.46)"/>
                    <path id="prefix__Path_182" d="M287.421-2093.571c-5.539 10.174-17.724 30.521-34.341 41.509-47.621 31.489-100.708 55.421-129.714 107.388-44.721 80.124 42.881 113.33 101.529 137.2 28.12 11.446 57.146 21.632 87.447 25.214 48.193 5.7 83.763 4.069 108.013 15.464a108.893 108.893 0 0 1 37.664 29.223" class="prefix__cls-4" data-name="Path 182"/>
                    <path id="prefix__Path_183" d="M274.506-1734.746s-10.5-1.844-27.715-12.312-46.305-30.1-86.674-47.543c-39.723-17.167-86.406-35.228-89.435-85.992-2.907-48.738 32.692-93.27 60.11-130.073 12.331-16.553 27.9-33.77 32.359-54.541 16.9-78.8-47.514-137.625-125.326-122.9-12.212 2.311-23.424 8.2-34.21 14.374-19.593 11.219-39.992 20.736-60.283 30.64-21.485 10.488-50.124 20.9-66.4 39.25-44.615 50.309-40.49 93.4-74.208 126.49-47.96 47.059-230.95 78.109-193.536 147.862 22.65 42.229 133.631 11.129 213.72 54.522 34.729 18.816 36.288 40.227 36.288 40.227" class="prefix__cls-4" data-name="Path 183"/>
                    <path id="prefix__Path_184" d="M187.844-1734.746s-12.635-20.455-43.571-35.821c-43.081-21.4-125.569-32.539-123.262-95.186 2.669-72.459 81.981-116.1 82.53-186.426.3-38.306-16.305-63.366-54.74-73.781-63.791-17.286-151.127 33.369-168.118 67.94s-33.984 80.89-68.4 102.706-126.35 50.944-124.607 92.558 102.823 33.291 150.313 63.7 54.025 64.309 54.025 64.309" data-name="Path 184" style="stroke:#ff8700;stroke-width:.5px;stroke-miterlimit:10;fill:none"/>
                    <path id="prefix__Path_185" d="M131.01-1734.746s-10.419-14.353-54.095-33.2-73.329-35.323-79.34-49.754c-9.519-22.852-11.326-61.284-4.356-82.931 10.477-32.541 44.037-66.7 59.228-97.279 20.738-41.742 6.308-85.492-44.482-89.89-44.524-3.855-82.441 32.849-106.158 66.376-31.656 44.749-36.064 51.84-53.294 66.106s-106.988 50.771-96.169 81.094 71.325 41.217 102.981 53.581 54.1 23.258 62.911 42.688 7.212 43.205 7.212 43.205" class="prefix__cls-4" data-name="Path 185"/>
                    <path id="prefix__Path_186" d="M146.373-2284.994S34.787-2267 3.839-2234.741s-44.392 79.573-76.894 96.945-161.807 72.462-161.807 72.462" class="prefix__cls-4" data-name="Path 186"/>
                    <path id="prefix__Path_187" d="M510.407-1835.251s-58.243-45.45-91.665-50.62-98.508 10.578-126.653-15.39-42.217-60.809-7.036-88.622 84.435-21.351 131.93-42.029 93.424-78.836 93.424-104.684-33.616-94.345-42.411-99.515-35.182-24.707-35.182-24.707" class="prefix__cls-6" data-name="Path 187"/>
                    <path id="prefix__Path_188" d="M510.407-1889.748s-49.448-34.446-89.906-34.024-109.221 10.761-109.142-24.134 58.243-48.262 99.524-49.333 81.74-30.8 81.74-30.8l17.784-20" class="prefix__cls-6" data-name="Path 188"/>
                    <path id="prefix__Path_189" d="M510.407-1930.225a266.679 266.679 0 0 0-68.8-23.344c-38.7-7.261 22.954-26.647 33.465-31.817s35.332-11.853 35.332-11.853" class="prefix__cls-6" data-name="Path 189"/>
                </g>
            </g>
        </g>
        <path id="prefix__Rectangle_26" d="M0 0H5.927V541H0z" data-name="Rectangle 26" transform="translate(134.863)"/>
    </g>
</svg>
