<svg xmlns="http://www.w3.org/2000/svg" width="553.075" height="281.824" viewBox="0 0 553.075 281.824">
    <defs>
        <linearGradient id="prefix__linear-gradient" x1="-.483" x2="1.483" y1=".5" y2=".5" gradientUnits="objectBoundingBox">
            <stop offset=".027" stop-color="#f1f2f2"/>
            <stop offset="1" stop-color="#fff"/>
        </linearGradient>
        <style>
            .prefix__cls-2{fill:none;stroke:#5f2d78;stroke-miterlimit:10;stroke-width:.75px;opacity:.25}
        </style>
    </defs>
    <g id="prefix__Component_213_1" data-name="Component 213 – 1" transform="translate(.177 .361)">
        <g id="prefix__Component_52_1" data-name="Component 52 – 1">
            <path id="prefix__Rectangle_18" d="M0 0H281.092V552.523H0z" data-name="Rectangle 18" transform="rotate(90 276.262 276.262)"/>
            <path id="prefix__Path_128" d="M-2357.939-1422.82s-2.076 12.622 5.882 18.13 33.563 9.639 43.252 18.36 17.3 16.294 15.224 25.7-11.764 12.393-15.224 18.13-11.073 17.213-21.453 23.409-69.9 28.917-78.545 68.62 5.536 46.818 24.567 54.85 60.894 25.475 91 28.688 52.327 2.295 67.475 8.721a67 67 0 0 1 23.529 16.48" class="prefix__cls-2" data-name="Path 128" transform="translate(2732.684 1422.82)"/>
            <path id="prefix__Path_129" d="M-2304.506-1141.728s-6.558-1.04-17.313-6.943-28.928-16.973-54.147-26.812-45.245-17.219-52.291-34.684 0-46.736 26.7-80.189 29.3-34.93 28.927-43.293-11.984-20.17-22.1-28.528c-9.545-7.885-23.143-19.438-27.593-24.358s-5.934-10.085-16.318-11.315-15.948-.738-37.087 9.839-66.8 27.6-77.139 38.127c-27.871 28.372-25.294 52.676-46.358 71.335-29.96 26.539-144.274 44.05-120.9 83.387 14.15 23.815 83.48 6.276 133.511 30.748 21.7 10.611 22.669 22.686 22.669 22.686" class="prefix__cls-2" data-name="Path 129" transform="translate(2732.684 1422.82)"/>
            <path id="prefix__Path_130" d="M-2358.644-1141.728s-7.893-11.535-27.217-20.2-49.808-17.33-60.151-32.855-8.165-31.05 0-50.366 35.2-58.67 34.613-70.224-1.728-29.786-41.577-39.534-86.936 11.373-97.551 30.869-21.229 45.618-42.731 57.921-78.931 28.73-77.842 52.2 64.233 18.774 93.9 35.924 33.75 36.267 33.75 36.267" class="prefix__cls-2" data-name="Path 130" transform="translate(2732.684 1422.82)"/>
            <path id="prefix__Path_131" d="M-2394.148-1141.728s-6.508-8.094-33.793-18.72-45.809-19.924-49.563-28.059 5.006-41.009 14.268-61.928 24.03-42.338 21.778-55.952-14.018-21.085-31.791-23.908-44.306 1.66-64.082 26.9-22.528 29.235-33.292 37.28-66.835 28.633-60.077 45.734 44.557 23.244 64.332 30.217 33.793 13.116 39.3 24.074 4.506 24.365 4.506 24.365" class="prefix__cls-2" data-name="Path 131" transform="translate(2732.684 1422.82)"/>
            <path id="prefix__Path_132" d="M-2514.88-1422.82s-67.594 18.423-84.077 38.773-20.879 47.805-39.56 59.951-94.167 52.632-94.167 52.632" class="prefix__cls-2" data-name="Path 132" transform="translate(2732.684 1422.82)"/>
            <path id="prefix__Path_133" d="M-2180.161-1182.821s-36.384-25.631-57.263-28.547-61.538 5.965-79.12-8.679-26.373-34.294-4.4-49.979 52.746-12.04 82.416-23.7 58.362-44.46 58.362-59.037-21-53.206-26.5-56.122-21.977-13.933-21.977-13.933" class="prefix__cls-2" data-name="Path 133" transform="translate(2732.684 1422.82)"/>
            <path id="prefix__Path_134" d="M-2180.161-1213.554s-30.89-19.426-56.164-19.188-68.231 6.068-68.181-13.611 36.384-27.217 62.172-27.821 51.063-17.367 51.063-17.367l11.11-11.279" class="prefix__cls-2" data-name="Path 134" transform="translate(2732.684 1422.82)"/>
            <path id="prefix__Path_135" d="M-2180.161-1236.381a178.564 178.564 0 0 0-42.978-13.165c-24.175-4.095 14.34-15.028 20.906-17.943s22.072-6.685 22.072-6.685" class="prefix__cls-2" data-name="Path 135" transform="translate(2732.684 1422.82)"/>
        </g>
    </g>
</svg>
