<svg xmlns="http://www.w3.org/2000/svg" viewBox="0 0 1269.98 632.72"><defs><style>.cls-1,.cls-2{fill:#fff;stroke:#fff;stroke-miterlimit:10;}.cls-2{stroke-width:0.75px;}</style></defs><g id="Layer_2" data-name="Layer 2"><g id="Layer_1-2" data-name="Layer 1"><path class="cls-1" d="M1086.35,198.09a627,627,0,0,1,167,320.15c0,.09,0,.17,0,.26h16c-.24-1.28-.49-2.55-.74-3.83a642.67,642.67,0,0,0-36.55-119.83c-32-77.24-76.31-145-135.11-204.19A644.9,644.9,0,0,0,891.25,51.2,636.7,636.7,0,0,0,772.26,14,643.74,643.74,0,0,0,648.44.56c-41.55-.5-83.13,2-124,9.43S443.53,26.89,405,42.13A638,638,0,0,0,.5,617.29,634.76,634.76,0,0,1,769.92,21.9,624.77,624.77,0,0,1,886.35,59.6,631.37,631.37,0,0,1,1086.35,198.09Z"/><path class="cls-1" d="M1156.43,370l-1.77-3.41A589.11,589.11,0,0,0,44.88,618.46,596.62,596.62,0,0,1,873.7,89.4a601.81,601.81,0,0,1,294.86,269.81c.63,1.17,1.25,2.34,1.87,3.51Z"/><path class="cls-1" d="M1058.37,296.39q-15.87-19.67-33.52-37.82A546.91,546.91,0,0,0,87.63,620.19,553.59,553.59,0,0,1,856.58,129a556.8,556.8,0,0,1,177.59,120.39q18.15,18.27,34.55,38.17Z"/><path class="cls-1" d="M980.74,256.14a512.33,512.33,0,0,0-808,173.1,508.59,508.59,0,0,0-43.87,191.49A506.07,506.07,0,0,1,646.56,134.89,501.26,501.26,0,0,1,973,265.1Z"/><path class="cls-1" d="M898,255.46a466.36,466.36,0,0,0-429.39-50.88,467.37,467.37,0,0,0-300.2,417.91A472,472,0,0,1,904,247.11Z"/><path class="cls-1" d="M831.43,259.25q-12.55-6.51-25.53-12.17A429.79,429.79,0,0,0,482,239.85,429.59,429.59,0,0,0,206.28,624.23a434.1,434.1,0,0,1,603-385q13.26,5.61,26.12,12.11Z"/><path class="cls-1" d="M772.58,272.39a393.14,393.14,0,0,0-530,353.27A397.55,397.55,0,0,1,775.08,265.19Z"/><path class="cls-1" d="M722.05,292.68A358.58,358.58,0,0,0,277.37,626.26,362.57,362.57,0,0,1,723.54,286.39Z"/><path class="cls-1" d="M677.12,317.76a302.31,302.31,0,0,0-33.86-2.69A325.56,325.56,0,0,0,310.49,627.39a329.22,329.22,0,0,1,368.29-315Z"/><path class="cls-1" d="M639.13,346.23A294.18,294.18,0,0,0,342,628.58,296.49,296.49,0,0,1,639.12,341.82Z"/><path class="cls-1" d="M583,409.79c-.36.87-.72,1.75-1.07,2.63"/><path class="cls-2" d="M531.77,573.48c0,32.86-22.46,58.74-60,58.74-35.18,0-59.46-25.26-59.46-57.81,0-31.16,24.61-57.66,60.12-57.66C506.5,516.75,531.77,541.7,531.77,573.48ZM416,574.25c0,29.14,21.8,55,56,55,32.87,0,56.16-22.79,56.16-55.49,0-29.14-23-54.09-55.83-54.09C441.09,519.7,416,543.41,416,574.25Z"/><path class="cls-2" d="M566.45,586l-20.31,44H542.5l51.7-111.13h3.14l51.21,111.13h-3.8l-20.32-44Zm56.66-2.95c-17.18-37.66-25.44-54.87-27.26-60.3h-.16c-1.32,3.73-13.71,29.92-27.75,60.3Z"/><path class="cls-2" d="M670.18,518.92h3.47v61.84c27.59-19.22,52.53-38,84.41-61.84h5.28L697.6,567.59l69.54,62.46h-4.95L695,569.45l-21.31,15v45.56h-3.47Z"/><path class="cls-1" d="M768,552.24c15,40,24.44,66,26.92,73.78h.17c2.47-7.28,8.92-22.78,29.89-73.78h3.47c17,42.17,27.75,68,29.24,73h.16c2.15-5.74,10.91-28.37,28.58-73h3.47l-30.56,77.81h-3.14c-11.06-27.12-26.43-65.87-29.56-73.62h-.17c-2.31,6.51-15.36,38.28-30.06,73.62h-3.31l-28.74-77.81Z"/><path class="cls-1" d="M973,612.85a127.38,127.38,0,0,0,1,17.2h-3.3c-.5-1.24-1.32-10.22-1.16-16.89-4.62,11.93-15.36,19.06-36,19.06-23.29,0-30.89-13.17-30.89-23.71,0-19.22,19.33-24.64,42.79-24.64,14.86,0,19.49,0,24.11.15v-7.75c0-12.09-6.44-23.25-28.57-23.25-20.49,0-27.75,9-30.07,20.93h-3.47c2-12.56,10.25-23.87,33.87-23.87C965,550.08,973,562,973,575.8ZM969.48,587c-6.44-.15-14-.15-24.28-.15-16.35,0-39,2.32-39,21.7,0,12.4,10.9,20.61,27.25,20.61,26.6,0,36-12.4,36-31.3Z"/><path class="cls-1" d="M992.77,552.24c23.46,46.35,34,67.43,36.83,73.16h.17c2.64-5.42,13.71-26.66,37.33-73.16h3.8l-39.81,77.81h-3l-39.31-77.81Z"/><path class="cls-1" d="M1086.26,591c.33,24.49,15.85,38.29,36.83,38.29,17.84,0,28.74-8.37,33.7-18.6h3.8c-5.29,11.93-17.68,21.54-37.5,21.54-29.4,0-40.47-22-40.47-40.92,0-24,15.69-41.22,40.47-41.22,31.05,0,39.15,22.62,39.15,37.66V591Zm72.51-2.94c-.66-19.06-10.9-35-36-35-22,0-35.51,15.65-36.34,35Z"/></g></g></svg>