<svg xmlns="http://www.w3.org/2000/svg" viewBox="0 0 750.77 223.13"><defs><style>.cls-1,.cls-2{fill:#fff;}.cls-1,.cls-2,.cls-3{stroke:#fff;stroke-miterlimit:10;}.cls-2{stroke-width:0.75px;}.cls-3{fill:#7254c9;}</style></defs><g id="Layer_2" data-name="Layer 2"><g id="Layer_1-2" data-name="Layer 1"><path class="cls-1" d="M182.67.19c-.37.88-.72,1.75-1.07,2.64" transform="translate(-11.67)"/><path class="cls-2" d="M131.47,163.88c0,32.86-22.46,58.75-60,58.75-35.18,0-59.46-25.27-59.46-57.82,0-31.15,24.61-57.66,60.12-57.66C106.2,107.15,131.47,132.11,131.47,163.88Zm-115.79.78c0,29.14,21.81,55,56,55,32.87,0,56.16-22.78,56.16-55.49,0-29.14-23-54.09-55.83-54.09C40.79,110.1,15.68,133.81,15.68,164.66Z" transform="translate(-11.67)"/><path class="cls-2" d="M166.16,176.44l-20.32,44h-3.63l51.7-111.14H197l51.21,111.14h-3.8l-20.32-44Zm56.65-2.95c-17.18-37.66-25.44-54.87-27.25-60.29h-.17c-1.32,3.72-13.71,29.91-27.75,60.29Z" transform="translate(-11.67)"/><path class="cls-2" d="M269.89,109.32h3.46v61.85c27.59-19.22,52.53-38,84.41-61.85H363L297.3,158l69.54,62.47h-4.95l-67.23-60.61-21.31,15v45.57h-3.46Z" transform="translate(-11.67)"/><path class="cls-3" d="M367.67,142.65c15,40,24.45,66,26.92,73.78h.17c2.48-7.29,8.92-22.79,29.9-73.78h3.46c17,42.16,27.75,68,29.24,73h.17c2.14-5.73,10.9-28.36,28.57-73h3.47L459,220.46h-3.14c-11.06-27.13-26.42-65.88-29.56-73.63h-.17c-2.31,6.51-15.36,38.29-30.06,73.63h-3.3L364,142.65Z" transform="translate(-11.67)"/><path class="cls-3" d="M572.65,203.25a127.71,127.71,0,0,0,1,17.21h-3.3c-.5-1.24-1.32-10.23-1.16-16.9-4.62,11.94-15.36,19.07-36,19.07-23.29,0-30.88-13.18-30.88-23.72,0-19.22,19.32-24.64,42.78-24.64,14.86,0,19.49,0,24.11.15v-7.75c0-12.09-6.44-23.25-28.57-23.25-20.49,0-27.75,9-30.07,20.93h-3.46c2-12.56,10.24-23.87,33.86-23.87,23.78,0,31.71,11.93,31.71,25.73Zm-3.47-25.88c-6.44-.16-14-.16-24.28-.16-16.35,0-39,2.33-39,21.7,0,12.4,10.9,20.62,27.25,20.62,26.6,0,36-12.4,36-31.31Z" transform="translate(-11.67)"/><path class="cls-3" d="M592.47,142.65c23.46,46.34,34,67.42,36.84,73.16h.16c2.64-5.43,13.71-26.66,37.33-73.16h3.8l-39.81,77.81h-3l-39.31-77.81Z" transform="translate(-11.67)"/><path class="cls-3" d="M686,181.4c.33,24.49,15.86,38.28,36.83,38.28,17.84,0,28.74-8.37,33.7-18.6h3.8c-5.29,11.94-17.68,21.55-37.5,21.55-29.4,0-40.46-22-40.46-40.92,0-24,15.69-41.23,40.46-41.23,31.06,0,39.15,22.63,39.15,37.66v3.26Zm72.51-3c-.66-19.06-10.9-35-36-35-22,0-35.51,15.66-36.34,35Z" transform="translate(-11.67)"/></g></g></svg>